<svg xmlns="http://www.w3.org/2000/svg" width="381.797" height="378.621" viewBox="0 0 381.797 378.621">
  <g id="Grupo_109790" data-name="Grupo 109790" transform="translate(8601.578 -10301)">
    <g id="Grupo_109734" data-name="Grupo 109734" transform="translate(-8799.78 3067.836)">
      <g id="Image_Place_Holder" data-name="Image Place Holder" transform="translate(201.115 7618.846) rotate(-90)">
        <rect id="Image_Place_Holder-2" data-name="Image Place Holder" width="378.621" height="378.885" transform="translate(7.061)" fill="#f3f9ff"/>
      </g>
    </g>
    <g id="Grupo_109741" data-name="Grupo 109741" transform="translate(-8817.01 1200.771)">
      <circle id="Background_2" data-name="Background 2" cx="128.551" cy="128.551" r="128.551" transform="translate(215.431 9290.351) rotate(-45)" fill="#dce736" opacity="0.4"/>
      <g id="Accounting" transform="translate(241.019 9149.639)">
        <g id="Paper_Sheet" data-name="Paper Sheet" transform="translate(33.647 0)">
          <path id="Trazado_159669" data-name="Trazado 159669" d="M350.353,162H221.413V389.947H393.024V195.369C379.172,167.2,350.353,162,350.353,162Z" transform="translate(-221.413 -162)" fill="#fff"/>
          <rect id="Rectángulo_41162" data-name="Rectángulo 41162" width="56.553" height="12.459" transform="translate(98.388 22.968)" fill="#c4c4c4"/>
          <rect id="Rectángulo_41163" data-name="Rectángulo 41163" width="56.553" height="3.467" transform="translate(98.388 39.003)" fill="#c4c4c4"/>
          <rect id="Rectángulo_41164" data-name="Rectángulo 41164" width="56.553" height="3.467" transform="translate(98.388 43.336)" fill="#c4c4c4"/>
          <path id="Trazado_159670" data-name="Trazado 159670" d="M622.223,162c13,18.634,7.15,39.653,7.15,39.653,21.018-12.351,35.52-6.284,35.52-6.284C651.042,167.2,622.223,162,622.223,162Z" transform="translate(-493.283 -162)" fill="#e8e8e8"/>
          <rect id="Rectángulo_41165" data-name="Rectángulo 41165" width="8.234" height="65.437" transform="translate(27.534 66.304)" fill="#75b62f"/>
          <rect id="Rectángulo_41166" data-name="Rectángulo 41166" width="8.234" height="40.88" transform="translate(37.934 90.861)" fill="#3d46c2"/>
          <rect id="Rectángulo_41167" data-name="Rectángulo 41167" width="8.234" height="52.725" transform="translate(49.202 79.016)" fill="#dce736"/>
          <path id="Trazado_159671" data-name="Trazado 159671" d="M284.511,396.7V305.8h-1.083v91.981h91.439V396.7Z" transform="translate(-263.478 -259.542)" fill="#3c3c3b"/>
          <rect id="Rectángulo_41168" data-name="Rectángulo 41168" width="8.234" height="34.019" transform="translate(86.037 97.723)" fill="#75b62f"/>
          <rect id="Rectángulo_41169" data-name="Rectángulo 41169" width="8.234" height="52.725" transform="translate(75.854 79.016)" fill="#3d46c2"/>
          <rect id="Rectángulo_41170" data-name="Rectángulo 41170" width="8.234" height="45.936" transform="translate(96.872 85.805)" fill="#dce736"/>
          <circle id="Elipse_5245" data-name="Elipse 5245" cx="14.301" cy="14.301" r="14.301" transform="translate(63.271 21.126)" fill="#3d46c2"/>
          <rect id="Rectángulo_41171" data-name="Rectángulo 41171" width="10.69" height="10.69" transform="translate(114.495 87.683)" fill="#75b62f"/>
          <rect id="Rectángulo_41172" data-name="Rectángulo 41172" width="10.69" height="10.69" transform="translate(114.495 105.018)" fill="#3d46c2"/>
          <rect id="Rectángulo_41173" data-name="Rectángulo 41173" width="10.69" height="10.69" transform="translate(114.495 122.352)" fill="#dce736"/>
          <rect id="Rectángulo_41174" data-name="Rectángulo 41174" width="24.557" height="3.178" transform="translate(130.385 87.683)" fill="#c4c4c4"/>
          <rect id="Rectángulo_41175" data-name="Rectángulo 41175" width="24.557" height="4.618" transform="translate(130.385 92.344)" fill="#c4c4c4"/>
          <rect id="Rectángulo_41176" data-name="Rectángulo 41176" width="24.557" height="3.178" transform="translate(130.385 105.018)" fill="#c4c4c4"/>
          <rect id="Rectángulo_41177" data-name="Rectángulo 41177" width="24.557" height="4.618" transform="translate(130.385 109.679)" fill="#c4c4c4"/>
          <rect id="Rectángulo_41178" data-name="Rectángulo 41178" width="24.557" height="3.178" transform="translate(130.385 122.352)" fill="#c4c4c4"/>
          <rect id="Rectángulo_41179" data-name="Rectángulo 41179" width="24.557" height="4.618" transform="translate(130.385 127.013)" fill="#c4c4c4"/>
          <rect id="Rectángulo_41180" data-name="Rectángulo 41180" width="70.204" height="17.768" transform="translate(19.95 146.909)" fill="#c4c4c4"/>
          <path id="Trazado_159699" data-name="Trazado 159699" d="M0,0H29.252V27.88H0Z" transform="translate(19.95 168.433)" fill="#75b62f"/>
          <rect id="Rectángulo_41182" data-name="Rectángulo 41182" width="36.836" height="1.878" transform="translate(53.319 168.433)" fill="#c4c4c4"/>
          <rect id="Rectángulo_41183" data-name="Rectángulo 41183" width="36.836" height="1.877" transform="translate(53.319 172.767)" fill="#c4c4c4"/>
          <rect id="Rectángulo_41184" data-name="Rectángulo 41184" width="36.836" height="1.877" transform="translate(53.319 177.1)" fill="#c4c4c4"/>
          <rect id="Rectángulo_41185" data-name="Rectángulo 41185" width="36.836" height="1.878" transform="translate(53.319 181.434)" fill="#c4c4c4"/>
          <rect id="Rectángulo_41186" data-name="Rectángulo 41186" width="36.836" height="1.877" transform="translate(53.319 185.768)" fill="#c4c4c4"/>
          <rect id="Rectángulo_41187" data-name="Rectángulo 41187" width="36.836" height="1.878" transform="translate(53.319 190.101)" fill="#c4c4c4"/>
          <rect id="Rectángulo_41188" data-name="Rectángulo 41188" width="36.836" height="1.878" transform="translate(53.319 194.435)" fill="#c4c4c4"/>
          <rect id="Rectángulo_41189" data-name="Rectángulo 41189" width="70.204" height="7.367" transform="translate(19.95 200.646)" fill="#c4c4c4"/>
          <rect id="Rectángulo_41190" data-name="Rectángulo 41190" width="53.953" height="4.189" transform="translate(100.988 146.909)" fill="#c4c4c4"/>
          <rect id="Rectángulo_41191" data-name="Rectángulo 41191" width="53.953" height="30.913" transform="translate(100.988 155.793)" fill="#c4c4c4"/>
          <rect id="Rectángulo_41192" data-name="Rectángulo 41192" width="36.836" height="1.877" transform="translate(118.106 189.162)" fill="#c4c4c4"/>
          <rect id="Rectángulo_41193" data-name="Rectángulo 41193" width="36.836" height="1.878" transform="translate(118.106 193.496)" fill="#c4c4c4"/>
          <rect id="Rectángulo_41194" data-name="Rectángulo 41194" width="36.836" height="1.877" transform="translate(118.106 197.83)" fill="#c4c4c4"/>
        </g>
        <g id="Calculator" transform="translate(192.744 100.302)">
          <path id="Trazado_159698" data-name="Trazado 159698" d="M5.325,0H111.809a5.324,5.324,0,0,1,5.324,5.324v141.84a5.324,5.324,0,0,1-5.324,5.324H5.324A5.324,5.324,0,0,1,0,147.165V5.325A5.325,5.325,0,0,1,5.325,0Z" fill="#12263f"/>
          <path id="Trazado_159672" data-name="Trazado 159672" d="M838.6,508.042H751.634a5.325,5.325,0,0,0-5.324,5.324v24.256a5.324,5.324,0,0,0,5.324,5.324H838.6a5.324,5.324,0,0,0,5.325-5.324V513.366A5.325,5.325,0,0,0,838.6,508.042Z" transform="translate(-736.548 -497.023)" fill="#88bfb7"/>
          <path id="Trazado_159673" data-name="Trazado 159673" d="M899.321,508.042H887.887l-25.929,33.747a4.754,4.754,0,0,0-.652,1.158h11.7l25.475-33.156A4.7,4.7,0,0,0,899.321,508.042Z" transform="translate(-814.551 -497.023)" fill="#ccfef8"/>
          <path id="Trazado_159674" data-name="Trazado 159674" d="M955.483,528.99a2.571,2.571,0,0,0,3.605-.472l15.733-20.476h-6.484l-13.326,17.343A2.571,2.571,0,0,0,955.483,528.99Z" transform="translate(-877.749 -497.023)" fill="#ccfef8"/>
          <path id="Rectángulo_41196" data-name="Rectángulo 41196" d="M11.98,0h0A11.979,11.979,0,0,1,23.96,11.979V34.757a11.98,11.98,0,0,1-11.98,11.98h0A11.98,11.98,0,0,1,0,34.758V11.98A11.98,11.98,0,0,1,11.98,0Z" transform="translate(83.27 93.993)" fill="#75b62f"/>
          <path id="Rectángulo_41197" data-name="Rectángulo 41197" d="M10.753,0h0A10.754,10.754,0,0,1,21.508,10.754v0A10.754,10.754,0,0,1,10.754,21.508h0A10.754,10.754,0,0,1,0,10.754v0A10.753,10.753,0,0,1,10.753,0Z" transform="translate(9.984 119.222)" fill="#727997"/>
          <path id="Rectángulo_41198" data-name="Rectángulo 41198" d="M10.754,0h0A10.753,10.753,0,0,1,21.508,10.753v0A10.754,10.754,0,0,1,10.754,21.508h0A10.754,10.754,0,0,1,0,10.754v0A10.754,10.754,0,0,1,10.754,0Z" transform="translate(34.179 119.222)" fill="#727997"/>
          <path id="Rectángulo_41199" data-name="Rectángulo 41199" d="M10.753,0h0A10.754,10.754,0,0,1,21.508,10.754v0A10.754,10.754,0,0,1,10.754,21.508h0A10.753,10.753,0,0,1,0,10.755v0A10.753,10.753,0,0,1,10.753,0Z" transform="translate(59.027 119.222)" fill="#727997"/>
          <path id="Rectángulo_41200" data-name="Rectángulo 41200" d="M10.752,0h0A10.754,10.754,0,0,1,21.508,10.754v0A10.753,10.753,0,0,1,10.755,21.508h0A10.754,10.754,0,0,1,0,10.753v0A10.752,10.752,0,0,1,10.752,0Z" transform="translate(9.984 93.993)" fill="#727997"/>
          <path id="Rectángulo_41201" data-name="Rectángulo 41201" d="M10.753,0h0A10.753,10.753,0,0,1,21.508,10.753v0A10.754,10.754,0,0,1,10.754,21.508h0A10.753,10.753,0,0,1,0,10.754v0A10.753,10.753,0,0,1,10.753,0Z" transform="translate(34.179 93.993)" fill="#727997"/>
          <path id="Rectángulo_41202" data-name="Rectángulo 41202" d="M10.752,0h0A10.754,10.754,0,0,1,21.508,10.754v0A10.753,10.753,0,0,1,10.754,21.508h0A10.752,10.752,0,0,1,0,10.755v0A10.752,10.752,0,0,1,10.752,0Z" transform="translate(59.027 93.993)" fill="#727997"/>
          <rect id="Rectángulo_41203" data-name="Rectángulo 41203" width="21.508" height="21.508" rx="10.754" transform="translate(9.658 68.701)" fill="#727997"/>
          <path id="Rectángulo_41204" data-name="Rectángulo 41204" d="M10.754,0h0A10.752,10.752,0,0,1,21.508,10.752v0A10.754,10.754,0,0,1,10.754,21.508h0A10.754,10.754,0,0,1,0,10.754v0A10.754,10.754,0,0,1,10.754,0Z" transform="translate(33.853 68.701)" fill="#727997"/>
          <path id="Rectángulo_41205" data-name="Rectángulo 41205" d="M10.754,0h0A10.754,10.754,0,0,1,21.508,10.754v0A10.754,10.754,0,0,1,10.754,21.508h0A10.753,10.753,0,0,1,0,10.755v0A10.754,10.754,0,0,1,10.754,0Z" transform="translate(58.7 68.701)" fill="#727997"/>
          <path id="Trazado_159697" data-name="Trazado 159697" d="M5.325,0H18.636A5.324,5.324,0,0,1,23.96,5.324v10.86a5.324,5.324,0,0,1-5.324,5.324H5.325A5.325,5.325,0,0,1,0,16.184V5.325A5.325,5.325,0,0,1,5.325,0Z" transform="translate(83.27 68.701)" fill="#dce736"/>
          <path id="Trazado_159696" data-name="Trazado 159696" d="M5.325,0h59.9A5.325,5.325,0,0,1,70.55,5.325v.148A5.324,5.324,0,0,1,65.226,10.8H5.324A5.324,5.324,0,0,1,0,5.473V5.325A5.325,5.325,0,0,1,5.325,0Z" transform="translate(9.658 52.136)" fill="#f85316"/>
          <path id="Rectángulo_41208" data-name="Rectángulo 41208" d="M5.584,0H16.876A5.584,5.584,0,0,1,22.46,5.584v0a5.584,5.584,0,0,1-5.584,5.584H5.584A5.584,5.584,0,0,1,0,5.584v0A5.584,5.584,0,0,1,5.584,0Z" transform="translate(84.77 52.136)" fill="#3d46c2"/>
        </g>
        <g id="Pen" transform="translate(0 124.741)">
          <path id="Trazado_159675" data-name="Trazado 159675" d="M132.7,570.732a4.885,4.885,0,0,1-6.859-.83l-7.977-10.172a4.887,4.887,0,0,1,.83-6.861l2.643-2.072a4.887,4.887,0,0,1,6.86.83l7.977,10.172a4.888,4.888,0,0,1-.83,6.861Z" transform="translate(-116.822 -549.756)" fill="#352f2d"/>
          <path id="Trazado_159676" data-name="Trazado 159676" d="M218.511,665.415a4.875,4.875,0,0,0-.78-1.449L159.969,590.3l-3.392-4.325-3-3.827c-.06-.077-.126-.147-.19-.219a4.883,4.883,0,0,0-6.67-.612l-6.248,4.9a4.887,4.887,0,0,0-.83,6.86l3,3.827,3.392,4.325L203.794,674.9a4.842,4.842,0,0,0,1.293,1.145c.187.154.378.3.572.443,4.936,3.64,11.8,3.8,12.925,2.921C219.993,678.3,221.374,671.179,218.511,665.415Z" transform="translate(-131.592 -570.462)" fill="#f85316"/>
          <path id="Trazado_159677" data-name="Trazado 159677" d="M382.668,881.983a1.629,1.629,0,0,1-2.286-.277l-5.213-6.648a1.628,1.628,0,0,1,.276-2.287h0a1.629,1.629,0,0,1,2.287.276l5.213,6.649a1.629,1.629,0,0,1-.276,2.287Z" transform="translate(-291.823 -768.622)" fill="#352f2d"/>
          <rect id="Rectángulo_41209" data-name="Rectángulo 41209" width="17.712" height="5.496" transform="matrix(0.787, -0.617, 0.617, 0.787, 11.047, 26.446)" fill="#352f2d"/>
          <path id="Trazado_159679" data-name="Trazado 159679" d="M189.5,627.313a2,2,0,0,1-2.811-.339L164.7,598.938a2,2,0,0,1,.34-2.811h0a2,2,0,0,1,2.811.34L189.836,624.5a2,2,0,0,1-.34,2.811Z" transform="translate(-149.009 -580.921)" fill="#352f2d"/>
        </g>
        <g id="Pie_Chart" data-name="Pie Chart" transform="translate(185.335 12.421)">
          <path id="Trazado_159680" data-name="Trazado 159680" d="M812.121,200.611v35.676H847.8A35.676,35.676,0,0,0,812.121,200.611Z" transform="translate(-773.779 -200.611)" fill="#75b62f"/>
          <path id="Trazado_159681" data-name="Trazado 159681" d="M728.613,211.156a35.676,35.676,0,1,0,26.408,59.665l-26.408-23.989Z" transform="translate(-692.936 -207.764)" fill="#f85316"/>
          <path id="Trazado_159682" data-name="Trazado 159682" d="M812.876,318.29l26.407,23.989a35.548,35.548,0,0,0,9.269-23.989Z" transform="translate(-774.292 -280.433)" fill="#3d46c2"/>
        </g>
        <g id="Coin" transform="translate(12.959 212.013)">
          <g id="Grupo_109541" data-name="Grupo 109541" transform="translate(121.062 2.032)">
            <g id="Grupo_109538" data-name="Grupo 109538" transform="translate(5.405 20.474)">
              <path id="Trazado_159683" data-name="Trazado 159683" d="M598.86,916.628c0-2.718-1.594-4.922-3.559-4.922H553.782c-1.965,0-3.559,2.2-3.559,4.922v5.163c0,.154.006.305.017.456-.006.1-.017.195-.017.293,0,5.983,10.887,10.834,24.318,10.834s24.319-4.851,24.319-10.834c0-.1-.01-.2-.017-.293.011-.151.017-.3.017-.456Z" transform="translate(-550.223 -905.045)" fill="#f4bd31"/>
              <path id="Trazado_159684" data-name="Trazado 159684" d="M598.86,901.835c0,5.983-10.888,10.834-24.319,10.834s-24.318-4.851-24.318-10.834S561.11,891,574.541,891,598.86,895.851,598.86,901.835Z" transform="translate(-550.223 -891)" fill="#f2d453"/>
            </g>
            <g id="Grupo_109539" data-name="Grupo 109539" transform="translate(0 10.157)">
              <path id="Trazado_159685" data-name="Trazado 159685" d="M582.06,884.557c0-2.718-1.594-4.922-3.559-4.922H536.982c-1.965,0-3.559,2.2-3.559,4.922v5.163c0,.154.006.306.017.456-.006.1-.017.2-.017.294,0,5.983,10.888,10.834,24.319,10.834s24.318-4.851,24.318-10.834c0-.1-.011-.2-.017-.294.011-.15.017-.3.017-.456Z" transform="translate(-533.423 -872.975)" fill="#f4bd31"/>
              <path id="Trazado_159686" data-name="Trazado 159686" d="M582.06,869.764c0,5.984-10.888,10.835-24.318,10.835s-24.319-4.85-24.319-10.835,10.888-10.833,24.319-10.833S582.06,863.781,582.06,869.764Z" transform="translate(-533.423 -858.931)" fill="#f2d453"/>
            </g>
            <g id="Grupo_109540" data-name="Grupo 109540" transform="translate(7.335)">
              <path id="Trazado_159687" data-name="Trazado 159687" d="M604.86,852.982c0-2.718-1.594-4.922-3.559-4.922H559.782c-1.965,0-3.559,2.2-3.559,4.922v5.164c0,.154.006.306.017.455-.006.1-.017.2-.017.293,0,5.984,10.887,10.835,24.318,10.835s24.318-4.851,24.318-10.835c0-.1-.011-.2-.017-.293.011-.15.017-.3.017-.455Z" transform="translate(-556.223 -841.4)" fill="#f4bd31"/>
              <path id="Trazado_159688" data-name="Trazado 159688" d="M604.86,838.191c0,5.984-10.888,10.835-24.318,10.835s-24.318-4.851-24.318-10.835,10.887-10.834,24.318-10.834S604.86,832.208,604.86,838.191Z" transform="translate(-556.223 -827.357)" fill="#f2d453"/>
            </g>
          </g>
          <g id="Grupo_109542" data-name="Grupo 109542" transform="translate(72.164 28.233)">
            <path id="Trazado_159689" data-name="Trazado 159689" d="M428.489,933.159c.058-2.624-1.433-4.784-3.33-4.826l-40.067-.887c-1.9-.042-3.482,2.052-3.54,4.675l-.11,4.983c0,.148,0,.295.007.439-.008.1-.021.188-.023.283C381.3,943.6,391.7,948.513,404.663,948.8s23.571-4.162,23.7-9.936c0-.094-.006-.188-.01-.283.013-.145.023-.291.025-.439Z" transform="translate(-381.425 -921.448)" fill="#f4bd31"/>
            <path id="Trazado_159690" data-name="Trazado 159690" d="M428.8,919.793c-.127,5.774-10.738,10.222-23.7,9.936s-23.364-5.2-23.236-10.975,10.738-10.222,23.7-9.936S428.932,914.018,428.8,919.793Z" transform="translate(-381.726 -908.804)" fill="#f2d453"/>
          </g>
          <g id="Grupo_109543" data-name="Grupo 109543" transform="translate(3.86 14.001)">
            <path id="Trazado_159691" data-name="Trazado 159691" d="M217.973,890.311c0-2.731-1.6-4.946-3.576-4.946H172.679c-1.975,0-3.576,2.215-3.576,4.946V895.5c0,.155.006.307.017.458-.006.1-.017.2-.017.295,0,6.012,10.94,10.886,24.435,10.886s24.435-4.874,24.435-10.886c0-.1-.011-.2-.017-.295.01-.151.017-.3.017-.458Z" transform="translate(-169.103 -878.673)" fill="#f4bd31"/>
            <path id="Trazado_159692" data-name="Trazado 159692" d="M217.973,875.449c0,6.013-10.94,10.886-24.435,10.886S169.1,881.462,169.1,875.449s10.94-10.886,24.435-10.886S217.973,869.436,217.973,875.449Z" transform="translate(-169.103 -864.563)" fill="#f2d453"/>
          </g>
          <g id="Grupo_109544" data-name="Grupo 109544" transform="translate(94.507)">
            <path id="Trazado_159693" data-name="Trazado 159693" d="M486.536,823.777c-1.9-1.824-4.5-2.191-5.822-.819l-27.851,28.973c-1.319,1.371-.849,3.962,1.048,5.785l3.6,3.464c.107.1.217.2.329.294.064.069.125.142.193.208,4.176,4.013,14.864-.33,23.874-9.7s12.928-20.223,8.752-24.237c-.068-.066-.144-.124-.215-.185-.1-.108-.2-.215-.307-.317Z" transform="translate(-451.717 -821.778)" fill="#f4bd31"/>
            <path id="Trazado_159694" data-name="Trazado 159694" d="M485.175,822.537c4.176,4.014.257,14.865-8.752,24.238s-19.7,13.716-23.874,9.7-.257-14.865,8.752-24.237S481,818.523,485.175,822.537Z" transform="translate(-450.878 -821.042)" fill="#f2d453"/>
          </g>
          <g id="Grupo_109545" data-name="Grupo 109545" transform="translate(0 5.294)">
            <path id="Trazado_159695" data-name="Trazado 159695" d="M205.973,863.247c0-2.732-1.6-4.946-3.576-4.946H160.679c-1.975,0-3.576,2.215-3.576,4.946v5.188c0,.154.006.306.017.458-.006.1-.017.2-.017.294,0,6.012,10.94,10.886,24.435,10.886s24.435-4.874,24.435-10.886c0-.1-.011-.2-.017-.294.01-.152.017-.3.017-.458Z" transform="translate(-157.103 -851.609)" fill="#f4bd31"/>
            <ellipse id="Elipse_5246" data-name="Elipse 5246" cx="24.435" cy="10.886" rx="24.435" ry="10.886" fill="#f2d453"/>
          </g>
        </g>
      </g>
    </g>
  </g>
</svg>
