<svg xmlns="http://www.w3.org/2000/svg" width="80.011" height="80" viewBox="0 0 80.011 80">
  <g id="Grupo_109777" data-name="Grupo 109777" transform="translate(8490.434 -5446.632)">
    <g id="Grupo_109737" data-name="Grupo 109737" transform="translate(-7948.66 4509)">
      <path id="Trazado_159501" data-name="Trazado 159501" d="M-501.812,1017.615q-19.545,0-39.091.018c-.7,0-.909-.151-.864-.865.121-1.923-.206-3.872.292-5.773a9.043,9.043,0,0,1,6.654-6.757,7.083,7.083,0,0,1,1.247-.308,1.369,1.369,0,0,0,1.366-1.342.9.9,0,0,0-.331-1.011,7.33,7.33,0,0,1-2.6-4.413.848.848,0,0,0-.533-.707,5.752,5.752,0,0,1-2.858-7.964.863.863,0,0,0,0-.814A5.926,5.926,0,0,1-537,980.391a1.124,1.124,0,0,0,.42-.959c-.014-3.788.011-7.576-.026-11.363-.006-.659.2-.831.8-.761a5.536,5.536,0,0,0,1.127,0,1.339,1.339,0,0,0,1.286-1.135,1.29,1.29,0,0,0-.721-1.48,11.3,11.3,0,0,0-1.4-.6c-.344-.124-.356-.3-.231-.6,1.208-2.889,2.416-5.779,3.6-8.679.159-.389.322-.394.649-.242.436.2.888.375,1.341.538a1.265,1.265,0,0,0,1.553-.52,1.321,1.321,0,0,0-.027-1.646,2.872,2.872,0,0,0-.268-.3c-1.108-1.166-1.109-1.166.006-2.282,1.9-1.9,3.809-3.789,5.689-5.709.367-.375.592-.415.929,0a7.065,7.065,0,0,0,.917.9,1.287,1.287,0,0,0,1.638.123,1.294,1.294,0,0,0,.587-1.6c-.05-.152-.111-.3-.171-.45-.549-1.358-.551-1.361.769-1.905,2.549-1.05,5.106-2.083,7.645-3.155.436-.184.652-.2.8.3a7.245,7.245,0,0,0,.534,1.254,1.286,1.286,0,0,0,1.477.722,1.366,1.366,0,0,0,1.15-1.278c.01-.079,0-.161.005-.241.049-1.677.049-1.677,1.71-1.677,2.606,0,5.213.03,7.818-.02.7-.013.889.2.8.843a5.388,5.388,0,0,0,0,1.046,1.331,1.331,0,0,0,1.1,1.315,1.349,1.349,0,0,0,1.551-.739,3.065,3.065,0,0,0,.126-.294c.65-1.472.651-1.472,2.186-.836,2.448,1.014,4.89,2.043,7.348,3.032.514.207.631.428.368.917a7.824,7.824,0,0,0-.48,1.19,1.27,1.27,0,0,0,.551,1.544,1.271,1.271,0,0,0,1.639-.067,10.013,10.013,0,0,0,1.037-1.011c.268-.3.44-.341.756-.02q3.254,3.3,6.555,6.552c.352.347.287.537-.037.813a11.332,11.332,0,0,0-.856.853,1.32,1.32,0,0,0-.2,1.761,1.307,1.307,0,0,0,1.686.542c.075-.029.153-.05.228-.079,1.489-.576,1.488-.576,2.09.876,1.024,2.473,2.026,4.956,3.092,7.412.242.557.1.747-.394.91a7.69,7.69,0,0,0-1.113.456,1.311,1.311,0,0,0-.765,1.531,1.361,1.361,0,0,0,1.3,1.129c.027,0,.054,0,.081,0,.583.04,1.38-.256,1.7.11.375.434.113,1.228.115,1.864q.015,6.326,0,12.653a1.526,1.526,0,0,0,.431,1.141,12.787,12.787,0,0,1,3.45,9.013,98.791,98.791,0,0,1-1.082,13.477,2.466,2.466,0,0,0,.523,2.128,8.358,8.358,0,0,1,1.839,5.293c.023,1.316-.027,2.634.024,3.948.023.588-.17.688-.714.687q-11.566-.028-23.132-.013Zm15.372-33.358a7.252,7.252,0,0,1,.725-.847,2.242,2.242,0,0,0,.735-1.917c-.048-2.793-.019-5.588-.019-8.383,0-1.957,0-1.931,1.953-1.942.568,0,.647.2.638.688-.028,1.4-.01,2.794-.01,4.191v4.544c.753-.324,1.4-.634,2.069-.878a.652.652,0,0,0,.521-.741c-.034-1.074-.011-2.149-.011-3.224,0-2.133,0-2.122,2.137-1.995.354.021.458.116.45.463-.02.94-.014,1.881,0,2.821.006.613-.193,1.416.117,1.786s1.156.019,1.757.115c.556.088.724-.073.719-.658-.018-2.055.006-2.041,2.088-1.949.4.018.5.138.485.511-.025.725-.016,1.451,0,2.176,0,.192-.109.438.176.556.78.323,1.558.651,2.4,1,0-1.763-.032-3.452.017-5.139a1.055,1.055,0,0,0-.757-1.183c-5.02-2.163-10.023-4.367-15.032-6.555-.728-.318-1.463-.621-2.306-.978v17.349a15.973,15.973,0,0,0-1.77.025c-.7.083-.816-.182-.813-.832q.037-11.316.01-22.633c0-.689.3-1.671-.129-1.985-.412-.3-1.324.072-2.013.175q-10.143,1.515-20.285,3.029c-.56.083-.789.233-.786.874.03,6.282.023,12.565.012,18.847,0,.821.36,1.952-.151,2.378-.493.412-1.583.109-2.41.12V966.8a2.093,2.093,0,0,0-.387.072q-8.654,3.78-17.309,7.559a.6.6,0,0,0-.387.684c.016,1.021.057,2.045-.012,3.061-.048.7.175.884.834.763a3.757,3.757,0,0,1,1.125-.006c.555.069.673-.168.649-.672-.03-.61-.209-1.435.1-1.781.372-.411,1.213-.07,1.845-.141.483-.054.657.088.635.606-.027.634-.291,1.485.1,1.855.429.4,1.277.081,1.94.124.027,0,.054,0,.081,0,.365.057.452-.119.445-.458-.019-.913-.006-1.827-.006-2.74,0-2.01,0-1.985,2-1.978.543,0,.6.2.591.653-.024,1.424-.014,2.848,0,4.271,0,.212-.125.5.243.582a15.912,15.912,0,0,1,2.33.869v-7.066c0-1.882,0-1.855,1.844-1.888.593-.011.759.125.753.74-.035,3.224-.018,6.448-.014,9.672a1.305,1.305,0,0,0,.193.913c.444.565.834,1.172,1.247,1.762a10.88,10.88,0,0,1-2.347,12.767,3.509,3.509,0,0,0-.932,1.456,6.89,6.89,0,0,1-2.222,3.1.9.9,0,0,0-.323,1.013,1.421,1.421,0,0,0,1.371,1.34,9.493,9.493,0,0,1,6.624,4.139c.329.509.433.1.58-.114a9.02,9.02,0,0,1,4.743-3.55,14.182,14.182,0,0,1,2.331-.606c.83-.121.641-.789.843-1.261a.687.687,0,0,0-.289-.942,4.557,4.557,0,0,1-1.526-1.745,19.836,19.836,0,0,0-2.991-4.4c-2.8-3.553-3.093-10.167.168-13.516a1.121,1.121,0,0,0,.263-.885c0-2.23.013-4.46-.014-6.689-.006-.487.1-.634.613-.626,2.176.032,4.353.026,6.529,0,.463,0,.672.063.639.6-.052.856-.014,1.718-.014,2.578,0,2.062,0,2.047,2.041,2,.425-.009.54-.123.532-.54-.025-1.343.017-2.687-.023-4.029-.015-.511.138-.619.626-.613q3.264.041,6.528,0c.485-.006.636.1.628.612-.034,1.987.011,3.976-.026,5.964a2.623,2.623,0,0,0,.72,2.18,5.107,5.107,0,0,1,1.012,1.632A11.835,11.835,0,0,1-493.7,997.1a2.129,2.129,0,0,0-.714.94,7.575,7.575,0,0,1-2.443,3.615c-.154.13-.363.208-.365.486a1.666,1.666,0,0,0,1.336,1.753c.313.076.627.144.94.219a9.326,9.326,0,0,1,5.753,3.834c.1.142.133.361.393.386.485-.8,1.268-1.384,1.068-2.591a101.346,101.346,0,0,1-1.076-10.57C-489.042,991.3-488.841,987.547-486.439,984.257Zm-14.668-38.866a28.174,28.174,0,0,1,5.087.632A27.252,27.252,0,0,1-475,968.8a.962.962,0,0,0,.651.893c1.288.53,2.56,1.1,3.838,1.656.992.431,1.006.43.983-.685-.008-.377.177-.767-.47-1a3.932,3.932,0,0,1-1.32-6.795c.264-.246.326-.406.185-.733-.571-1.329-1.119-2.668-1.662-4.009a.557.557,0,0,0-.66-.393,3.95,3.95,0,0,1-3.872-5.751.6.6,0,0,0-.13-.817c-1.02-.993-2.024-2-3.022-3.018a.558.558,0,0,0-.748-.153,3.943,3.943,0,0,1-5.8-3.861.565.565,0,0,0-.413-.651c-1.315-.537-2.628-1.078-3.935-1.633a.6.6,0,0,0-.809.179,3.941,3.941,0,0,1-6.8-1.346c-.124-.34-.238-.471-.6-.467-1.451.017-2.9.014-4.353,0-.34,0-.484.088-.615.443A3.941,3.941,0,0,1-511.388,942c-.221-.232-.363-.3-.667-.169-1.33.57-2.67,1.116-4.011,1.658a.6.6,0,0,0-.434.712,3.95,3.95,0,0,1-5.716,3.85.638.638,0,0,0-.881.146q-1.455,1.507-2.964,2.963c-.308.3-.3.507-.123.883a3.951,3.951,0,0,1-3.875,5.7.6.6,0,0,0-.706.449c-.513,1.266-1.022,2.535-1.569,3.787a.731.731,0,0,0,.217,1,3.918,3.918,0,0,1-1.33,6.658c-.5.179-.613.4-.569.853a3.974,3.974,0,0,1,0,.725c-.041.479.111.546.542.348a28.8,28.8,0,0,1,3.249-1.393,2.538,2.538,0,0,0,1.875-2.381C-526.224,955-514.786,945.4-501.107,945.391Zm14.806,47.028c.037,2.385.161,4.313.311,6.24s.418,3.838.638,5.756c.062.542.247.542.66.35a12.042,12.042,0,0,1,2.217-.713,2.671,2.671,0,0,0,1.732-1.34.768.768,0,0,0-.211-1.151,7.427,7.427,0,0,1-2.673-4.814,21.621,21.621,0,0,1-.063-3.621,5.8,5.8,0,0,1,2.761-5.086,1.933,1.933,0,0,0,1.151-2.37c-.273-1.556-.117-1.583,1.454-1.583,1.053,0,1.053,0,1.06,1.073a3.158,3.158,0,0,0,2.741,3.347c.946.183,1.908.292,2.865.417a3.885,3.885,0,0,1,3.418,3.777c.021.967.008,1.934,0,2.9a7.647,7.647,0,0,1-2.485,5.739c-.812.77-.809,1.185,0,2a2.669,2.669,0,0,0,1.322.729,9.653,9.653,0,0,1,2.139.691c.488.242.63.131.683-.406.226-2.268.587-4.526.723-6.8a31.08,31.08,0,0,0,.052-7.392,9.856,9.856,0,0,0-7.42-8.265,9.815,9.815,0,0,0-10.659,3.338A9.8,9.8,0,0,0-486.3,992.419Zm-4.449-41.6-.006-.23c-8.263-3.846-16.379-3.613-24.157,1.3a24.1,24.1,0,0,0-10.978,16.349c3.331-1.455,6.464-2.831,9.607-4.185.421-.181.327-.493.327-.8,0-2.631.022-5.262-.013-7.893-.008-.592.148-.809.746-.9,4.459-.641,8.912-1.318,13.367-1.985Zm-3.207,42.447a9.471,9.471,0,0,0,1.219-5.546,6.366,6.366,0,0,0-5.183-6.053,37.962,37.962,0,0,0-7.308-.092,4.515,4.515,0,0,0-1.767.509c-3.183,1.537-4.156,4.362-3.726,7.891a6.892,6.892,0,0,0,1.174,3.275,6.574,6.574,0,0,1,3.657-5.767c.316-.163.352-.437.446-.715a3.89,3.89,0,0,1,3.474-2.684c1.5-.07,1.5-.07,1.5,1.441,0,1.113,0,1.113-1.08,1.136-.939.02-1.51.522-1.495,1.313a1.3,1.3,0,0,0,1.463,1.262c1.047.013,2.094,0,3.141,0C-495.747,989.241-494.344,990.466-493.957,993.266Zm-25.8-.124c.026,0,.069,0,.077-.015a7.574,7.574,0,0,0,.33-7.535,7.042,7.042,0,0,0-6.312-4.063c-2.494-.1-5-.04-7.493-.018a3.474,3.474,0,0,0-3.349,2.743,3.557,3.557,0,0,0,1.684,3.783,1.7,1.7,0,0,0,2.4-.073,4.874,4.874,0,0,0,1.423-1.7,3.542,3.542,0,0,1,3.232-2.174c1.5-.1,1.5-.076,1.5,1.435,0,1.114,0,1.114-1.08,1.137-.942.02-1.511.52-1.494,1.314.015.761.564,1.246,1.47,1.26.993.016,1.993.069,2.98-.009A4.078,4.078,0,0,1-519.761,993.142Zm48.944,1.3h.008v-.563c0-2.144-.135-2.3-2.255-2.543-.08-.01-.16-.015-.24-.026-1.649-.227-3.31-.416-4.6-1.647-.24-.229-.5-.091-.747.013a3.725,3.725,0,0,0-2.456,3.373,24.958,24.958,0,0,0,0,2.975,5.161,5.161,0,0,0,5.168,4.827,5.173,5.173,0,0,0,5.122-4.88C-470.8,995.458-470.818,994.947-470.818,994.438Zm-51.586.437c0-.626,0-1.029,0-1.431-.01-1.163-.449-1.615-1.594-1.622-1.127-.007-2.254-.01-3.38,0a3.78,3.78,0,0,1-3.17-1.447c-.315-.4-.5-.327-.815-.048a3.83,3.83,0,0,0-1.349,2.817c-.028.911-.028,1.825,0,2.736a5.129,5.129,0,0,0,3.543,4.7,5.136,5.136,0,0,0,5.638-1.684A5.581,5.581,0,0,0-522.4,994.875Zm25.8.006c0-.648,0-1.077,0-1.506-.015-1.092-.473-1.545-1.582-1.553-1.073-.007-2.147-.022-3.22,0a3.9,3.9,0,0,1-3.387-1.5c-.263-.34-.435-.284-.7-.054a3.826,3.826,0,0,0-1.417,2.866c-.029.911-.028,1.824,0,2.736a5.148,5.148,0,0,0,3.608,4.736,5.136,5.136,0,0,0,5.615-1.766A5.586,5.586,0,0,0-496.606,994.881Zm9.03-42.31c0,3.523.035,6.877-.024,10.229a1.4,1.4,0,0,0,1.037,1.561c2.936,1.223,5.839,2.527,8.912,3.87A24.845,24.845,0,0,0-487.577,952.57Zm-2.66.78q-10.837,1.627-21.687,3.261c-1.454.221-1.45.25-1.45,1.637,0,1.147,0,1.14,1.137.967q9.937-1.5,19.876-3c2.351-.351,2.354-.333,2.191-2.682A.832.832,0,0,0-490.237,953.35Zm20.207,53.231a5.233,5.233,0,0,1-3.64-3.133c-.131-.321-.283-.289-.551-.225a7.522,7.522,0,0,1-3.507,0c-.219-.052-.392-.137-.512.165a5.258,5.258,0,0,1-3.652,3.2c.432.562.837,1.056,1.2,1.578a.93.93,0,0,0,.865.435c2.576-.018,5.152-.008,7.728-.012.23,0,.477.066.66-.18C-470.992,1007.808-470.529,1007.226-470.03,1006.581Zm-60.312,8.453a1.142,1.142,0,0,0-.373-.66c-1.578-2.037-3.2-4.04-4.724-6.119-.52-.71-.858-.621-1.415-.138-2.053,1.776-2.482,4.1-2.32,6.645.018.282.191.273.384.273Zm5.419,0c2.925,0,5.664,0,8.4,0,.232,0,.549.136.571-.326.1-2.2-.139-4.292-1.734-6-1.251-1.344-1.259-1.353-2.363.065C-521.64,1010.81-523.231,1012.859-524.922,1015.035Zm20.449-.012c-.115-.177-.162-.263-.221-.34q-2.443-3.144-4.89-6.287c-.725-.932-.725-.929-1.608-.131-1.935,1.747-2.318,4.012-2.174,6.46.016.261.146.3.361.3C-510.2,1015.021-507.393,1015.022-504.474,1015.022Zm5.375,0h6.762c2.325,0,2.347,0,2.145-2.351a6.423,6.423,0,0,0-2.621-4.781c-.219-.164-.422-.425-.721-.037C-495.345,1010.208-497.174,1012.549-499.1,1015.023Zm20.46,0c-1.791-2.3-3.468-4.46-5.146-6.617-.728-.935-.728-.933-1.606-.141-1.932,1.745-2.32,4.007-2.178,6.453.019.332.22.3.436.3Zm5.345,0h7.273c1.658,0,1.653,0,1.647-1.665a6.667,6.667,0,0,0-2.537-5.4c-.412-.337-.652-.354-1.005.116-1.383,1.842-2.815,3.648-4.229,5.467Zm-28.417-6.052a1.2,1.2,0,0,0-.234.1c-.729.543-1.454,1.092-2.183,1.635-.214.159-.125.3,0,.457.692.885,1.387,1.769,2.064,2.666.224.3.381.3.6,0,.4-.539.816-1.06,1.225-1.589,1.061-1.37,1.06-1.369-.321-2.4C-500.945,1009.551-501.326,1009.26-501.71,1008.969Zm-23.3,1.929c-.11-.1-.2-.2-.3-.283-2.052-1.838-2.052-1.838-4.219-.214-.064.048-.126.1-.195.142-.33.2-.4.393-.118.737.669.8,1.3,1.634,1.925,2.473.253.34.415.414.7.025.633-.864,1.3-1.7,1.959-2.549C-525.181,1011.128-525.105,1011.023-525.012,1010.9Zm16.807-31.134a10.088,10.088,0,0,1,2.274-.69c.255-.034.264-.191.291-.391.287-2.139-.01-2.461-2.111-2.34-.339.019-.469.091-.461.452C-508.19,977.756-508.205,978.717-508.205,979.764Zm12.879-.04c0-.881-.043-1.715.014-2.542.044-.643-.1-.871-.807-.849-1.768.055-1.743.016-1.782,1.8-.013.617.08.968.787,1.055A11.235,11.235,0,0,1-495.326,979.724Zm-34.068,23.471c-.594-.082-.43.483-.494.757-.091.387,2.221,1.832,2.569,1.618.661-.407,1.3-.852,1.941-1.288.393-.267.045-.586.025-.871-.023-.311-.267-.229-.491-.18A7.466,7.466,0,0,1-529.394,1003.2Zm25.8,0c-.6-.086-.433.48-.5.753-.092.386,2.219,1.835,2.567,1.622.661-.407,1.3-.853,1.941-1.288.395-.268.047-.585.027-.87-.022-.31-.264-.233-.489-.182A7.457,7.457,0,0,1-503.592,1003.2Zm29.92,8.039h-4.6c.715.923,1.373,1.764,2.02,2.613.187.246.332.306.546.022C-475.049,1013-474.38,1012.15-473.673,1011.235Zm-59.679-4.564c1.5,2.267,1.5,2.268,3.373.778.028-.022.034-.073.045-.1C-530.943,1006.509-531.96,1005.73-533.352,1006.671Zm11.6.036c-1.478-1.042-2.465-.145-3.489.681.515.388,1.031.766,1.533,1.162.229.181.386.207.581-.059C-522.674,1007.873-522.194,1007.276-521.752,1006.707Zm17.68.689c-1.083-.875-2.095-1.671-3.484-.722a2.02,2.02,0,0,0,.177.282c.495.583.839,1.6,1.481,1.659C-505.34,1008.665-504.7,1007.849-504.072,1007.4Zm4.631-.014c.512.388,1.014.774,1.521,1.151.161.119.317.308.526.029.488-.649.994-1.285,1.455-1.88C-497.4,1005.7-498.4,1006.553-499.441,1007.382Zm-35.939-13.758a8.04,8.04,0,0,1,.27-1.765c.347-.861-.073-1.159-.753-1.486-.542-.26-.663-.049-.7.4A3.213,3.213,0,0,0-535.381,993.624Z" fill="#020202"/>
      <path id="Trazado_159502" data-name="Trazado 159502" d="M-447.38,1060.173c.828-.011,1.917.292,2.41-.12.511-.427.15-1.557.151-2.378.012-6.282.018-12.565-.012-18.847,0-.641.226-.792.786-.874q10.145-1.5,20.285-3.03c.689-.1,1.6-.474,2.013-.175.432.314.129,1.3.129,1.985q.013,11.317-.01,22.633c0,.65.117.914.813.832a15.988,15.988,0,0,1,1.77-.025c.382.087.817-.155,1.158.186-2.4,3.29-2.6,7.042-2.372,10.918a101.355,101.355,0,0,0,1.076,10.57c.2,1.207-.583,1.788-1.068,2.591-.26-.025-.295-.244-.393-.386a9.326,9.326,0,0,0-5.753-3.834c-.313-.074-.627-.143-.94-.219a1.666,1.666,0,0,1-1.336-1.753c0-.278.21-.356.365-.486a7.575,7.575,0,0,0,2.443-3.615,2.13,2.13,0,0,1,.714-.94,11.835,11.835,0,0,0,2.693-12.969,5.106,5.106,0,0,0-1.012-1.632,2.623,2.623,0,0,1-.72-2.18c.037-1.987-.008-3.976.026-5.964.009-.513-.142-.618-.628-.612q-3.264.04-6.528,0c-.488-.006-.641.1-.626.614.04,1.342,0,2.686.023,4.029.008.417-.107.531-.532.54-2.042.043-2.041.058-2.041-2,0-.86-.038-1.722.014-2.578.032-.536-.176-.6-.639-.6-2.176.023-4.353.028-6.529,0-.511-.007-.619.139-.613.626.027,2.229.01,4.459.014,6.689a1.121,1.121,0,0,1-.263.885c-3.26,3.349-2.963,9.963-.168,13.516a19.837,19.837,0,0,1,2.991,4.4,4.557,4.557,0,0,0,1.526,1.745.687.687,0,0,1,.289.942c-.2.472-.013,1.14-.843,1.261a14.2,14.2,0,0,0-2.331.606,9.021,9.021,0,0,0-4.743,3.55c-.148.215-.251.623-.58.114a9.492,9.492,0,0,0-6.624-4.139,1.421,1.421,0,0,1-1.371-1.34.9.9,0,0,1,.323-1.014,6.891,6.891,0,0,0,2.222-3.1,3.509,3.509,0,0,1,.932-1.456,10.88,10.88,0,0,0,2.347-12.767C-448.195,1060.02-447.761,1060.259-447.38,1060.173Zm23.205-16.755c0-1.127-.014-2.255.008-3.381.007-.373-.081-.508-.483-.5q-3.422.028-6.844,0c-.367,0-.444.125-.442.463q.019,3.422,0,6.844c0,.337.075.466.441.463q3.422-.024,6.845,0c.4,0,.49-.132.483-.5C-424.188,1045.673-424.174,1044.545-424.174,1043.418Zm-10.319-.06c0-1.1-.01-2.2.006-3.3,0-.344-.027-.531-.461-.526-2.281.022-4.563.016-6.845,0-.337,0-.466.074-.464.441q.024,3.422,0,6.844c0,.4.131.486.5.484,2.255-.016,4.51-.024,6.764,0,.479.006.506-.2.5-.568C-434.5,1045.612-434.493,1044.485-434.493,1043.358Z" transform="translate(-68.555 -76.102)" fill="#aaadd9"/>
      <path id="Trazado_159503" data-name="Trazado 159503" d="M-472.893,954.834c-13.678.005-25.117,9.607-27.242,22.4a2.538,2.538,0,0,1-1.875,2.381,28.787,28.787,0,0,0-3.249,1.393c-.431.2-.583.131-.542-.348a3.971,3.971,0,0,0,0-.725c-.044-.45.073-.674.569-.853a3.918,3.918,0,0,0,1.33-6.658.731.731,0,0,1-.217-1c.547-1.252,1.056-2.52,1.569-3.787a.6.6,0,0,1,.706-.449,3.951,3.951,0,0,0,3.875-5.7c-.174-.377-.185-.588.123-.883q1.51-1.452,2.964-2.963a.638.638,0,0,1,.881-.146,3.95,3.95,0,0,0,5.715-3.85.6.6,0,0,1,.434-.712c1.341-.542,2.681-1.088,4.011-1.658.3-.13.446-.063.667.169a3.941,3.941,0,0,0,6.841-1.331c.132-.355.275-.446.615-.443,1.451.013,2.9.015,4.353,0,.359,0,.473.127.6.467a3.941,3.941,0,0,0,6.8,1.346.6.6,0,0,1,.809-.179c1.307.556,2.62,1.1,3.935,1.633a.565.565,0,0,1,.413.651,3.943,3.943,0,0,0,5.8,3.861.558.558,0,0,1,.748.153c1,1.014,2,2.025,3.022,3.018a.6.6,0,0,1,.13.817,3.95,3.95,0,0,0,3.872,5.751.556.556,0,0,1,.66.393c.543,1.341,1.092,2.68,1.662,4.009.141.327.078.487-.185.733a3.932,3.932,0,0,0,1.32,6.795c.647.228.462.618.47,1,.023,1.115.009,1.116-.983.686-1.278-.555-2.55-1.127-3.838-1.656a.962.962,0,0,1-.651-.893,27.252,27.252,0,0,0-21.021-22.781A28.175,28.175,0,0,0-472.893,954.834Z" transform="translate(-28.214 -9.442)" fill="#3d46c2"/>
      <path id="Trazado_159504" data-name="Trazado 159504" d="M-284.408,1152.015a9.8,9.8,0,0,1,2.416-7.183,9.815,9.815,0,0,1,10.659-3.338,9.856,9.856,0,0,1,7.42,8.265,31.08,31.08,0,0,1-.052,7.392c-.136,2.272-.5,4.53-.723,6.8-.053.536-.2.647-.683.406a9.648,9.648,0,0,0-2.139-.691,2.668,2.668,0,0,1-1.322-.729c-.8-.811-.808-1.227,0-2a7.647,7.647,0,0,0,2.485-5.739c0-.967.017-1.935,0-2.9a3.885,3.885,0,0,0-3.418-3.777c-.957-.124-1.918-.233-2.865-.417a3.158,3.158,0,0,1-2.741-3.347c-.008-1.073-.008-1.073-1.06-1.073-1.57,0-1.726.027-1.454,1.583a1.933,1.933,0,0,1-1.151,2.37,5.8,5.8,0,0,0-2.761,5.086,21.622,21.622,0,0,0,.063,3.621,7.427,7.427,0,0,0,2.673,4.814.768.768,0,0,1,.211,1.151,2.67,2.67,0,0,1-1.732,1.34,12.047,12.047,0,0,0-2.217.713c-.414.192-.6.193-.66-.35-.22-1.918-.488-3.829-.638-5.756S-284.372,1154.4-284.408,1152.015Z" transform="translate(-201.893 -159.596)" fill="#646c76"/>
      <path id="Trazado_159506" data-name="Trazado 159506" d="M-289.171,1090.18c-.341-.341-.776-.1-1.158-.186v-17.349c.843.357,1.578.659,2.306.978,5.009,2.189,10.012,4.392,15.031,6.555a1.055,1.055,0,0,1,.757,1.183c-.049,1.687-.017,3.377-.017,5.139-.839-.352-1.617-.68-2.4-1-.284-.118-.172-.364-.176-.556-.014-.725-.023-1.451,0-2.176.013-.373-.087-.494-.485-.511-2.082-.092-2.105-.106-2.088,1.949,0,.585-.163.746-.719.658-.6-.1-1.436.268-1.757-.115s-.111-1.173-.117-1.786c-.009-.94-.016-1.881,0-2.821.008-.347-.1-.442-.45-.463-2.138-.127-2.137-.138-2.137,1.995,0,1.075-.023,2.15.011,3.224a.652.652,0,0,1-.521.741c-.67.244-1.317.554-2.07.878v-4.544c0-1.4-.018-2.795.01-4.191.01-.488-.07-.692-.638-.688-1.953.011-1.953-.015-1.953,1.942,0,2.794-.029,5.589.019,8.383a2.242,2.242,0,0,1-.735,1.917A7.252,7.252,0,0,0-289.171,1090.18Z" transform="translate(-197.268 -105.923)" fill="#dce736"/>
      <path id="Trazado_159507" data-name="Trazado 159507" d="M-487.76,1090.269c-.382.086-.815-.153-1.157.184-.413-.589-.8-1.2-1.247-1.762a1.306,1.306,0,0,1-.193-.913c0-3.224-.02-6.448.014-9.672.007-.615-.16-.751-.753-.74-1.844.033-1.844.006-1.844,1.888v7.066a15.906,15.906,0,0,0-2.33-.869c-.368-.082-.242-.371-.243-.582-.011-1.424-.021-2.848,0-4.271.008-.451-.049-.651-.591-.653-2-.007-2-.033-2,1.978,0,.913-.013,1.827.006,2.74.007.339-.08.515-.445.458-.026,0-.054,0-.081,0-.663-.042-1.511.278-1.94-.124-.395-.37-.131-1.221-.1-1.855.022-.518-.152-.66-.635-.606-.632.071-1.474-.27-1.845.141-.313.346-.134,1.171-.1,1.781.025.5-.094.742-.649.672a3.762,3.762,0,0,0-1.125.006c-.659.121-.882-.061-.834-.763.069-1.016.028-2.041.012-3.061a.6.6,0,0,1,.387-.684q8.66-3.769,17.309-7.559a2.1,2.1,0,0,1,.387-.072Z" transform="translate(-28.175 -106.198)" fill="#dce736"/>
      <path id="Trazado_159508" data-name="Trazado 159508" d="M-381.243,1152.794c-.387-2.8-1.79-4.025-4.489-4.026-1.047,0-2.094.009-3.141,0a1.3,1.3,0,0,1-1.463-1.262c-.015-.791.556-1.293,1.495-1.313,1.08-.023,1.08-.023,1.08-1.136,0-1.511,0-1.511-1.5-1.441a3.89,3.89,0,0,0-3.474,2.684c-.093.278-.129.552-.446.715a6.575,6.575,0,0,0-3.657,5.767,6.891,6.891,0,0,1-1.174-3.275c-.43-3.529.542-6.354,3.726-7.891a4.513,4.513,0,0,1,1.767-.509,37.966,37.966,0,0,1,7.308.092,6.366,6.366,0,0,1,5.183,6.053A9.472,9.472,0,0,1-381.243,1152.794Z" transform="translate(-112.714 -159.528)" fill="#646c76"/>
      <path id="Trazado_159509" data-name="Trazado 159509" d="M-500.911,1152.782a4.078,4.078,0,0,0-4.636-3.915c-.988.077-1.987.025-2.98.009-.906-.015-1.454-.5-1.47-1.26-.016-.794.552-1.294,1.494-1.314,1.08-.024,1.08-.024,1.08-1.137,0-1.511,0-1.53-1.5-1.435a3.542,3.542,0,0,0-3.232,2.174,4.876,4.876,0,0,1-1.423,1.7,1.7,1.7,0,0,1-2.4.073,3.557,3.557,0,0,1-1.684-3.783,3.474,3.474,0,0,1,3.349-2.743c2.5-.022,5-.08,7.493.018a7.043,7.043,0,0,1,6.312,4.063,7.574,7.574,0,0,1-.33,7.535C-500.842,1152.782-500.885,1152.777-500.911,1152.782Z" transform="translate(-18.85 -159.64)" fill="#646c76"/>
      <path id="Trazado_159510" data-name="Trazado 159510" d="M-250.092,1183.423c0,.509.02,1.02,0,1.528a5.173,5.173,0,0,1-5.122,4.88,5.161,5.161,0,0,1-5.168-4.827,24.965,24.965,0,0,1,0-2.975,3.725,3.725,0,0,1,2.456-3.373c.248-.1.507-.242.747-.013,1.291,1.231,2.953,1.421,4.6,1.647.08.011.16.017.24.026,2.12.247,2.255.4,2.255,2.543v.563Z" transform="translate(-220.726 -188.986)" fill="#eeceb2"/>
      <path id="Trazado_159511" data-name="Trazado 159511" d="M-489.485,1185.91a5.581,5.581,0,0,1-1.128,4.02,5.136,5.136,0,0,1-5.638,1.684,5.129,5.129,0,0,1-3.543-4.7c-.027-.911-.026-1.825,0-2.736a3.83,3.83,0,0,1,1.349-2.817c.31-.279.5-.353.815.048a3.78,3.78,0,0,0,3.17,1.447c1.127-.01,2.254-.007,3.38,0,1.144.007,1.584.458,1.594,1.622C-489.482,1184.881-489.485,1185.284-489.485,1185.91Z" transform="translate(-32.919 -191.035)" fill="#eeceb2"/>
      <path id="Trazado_159512" data-name="Trazado 159512" d="M-369.755,1185.861a5.586,5.586,0,0,1-1.087,3.959,5.136,5.136,0,0,1-5.615,1.766,5.148,5.148,0,0,1-3.608-4.736c-.026-.911-.027-1.825,0-2.736a3.826,3.826,0,0,1,1.417-2.866c.266-.229.438-.285.7.054a3.9,3.9,0,0,0,3.387,1.5c1.073-.026,2.146-.01,3.22,0,1.109.007,1.567.46,1.582,1.553C-369.751,1184.784-369.755,1185.214-369.755,1185.861Z" transform="translate(-126.851 -190.981)" fill="#eeceb2"/>
      <path id="Trazado_159514" data-name="Trazado 159514" d="M-386.829,1010.582a.83.83,0,0,1,.067.184c.164,2.349.161,2.331-2.191,2.682q-9.94,1.485-19.876,3c-1.138.172-1.137.18-1.137-.967,0-1.387,0-1.416,1.45-1.637Q-397.671,1012.2-386.829,1010.582Z" transform="translate(-103.408 -57.232)" fill="#cacfd7"/>
      <path id="Trazado_159515" data-name="Trazado 159515" d="M-251.991,1245.22c-.5.644-.962,1.226-1.407,1.822-.184.246-.43.18-.66.18-2.576,0-5.152-.006-7.728.012a.931.931,0,0,1-.865-.435c-.365-.522-.771-1.016-1.2-1.578a5.258,5.258,0,0,0,3.652-3.2c.12-.3.293-.217.512-.165a7.519,7.519,0,0,0,3.507,0c.268-.064.42-.1.551.225A5.233,5.233,0,0,0-251.991,1245.22Z" transform="translate(-218.039 -238.639)" fill="#eeceb2"/>
      <path id="Trazado_159516" data-name="Trazado 159516" d="M-520.988,1270.309h-8.447c-.193,0-.366.009-.384-.273-.162-2.542.267-4.869,2.32-6.645.557-.482.9-.572,1.415.138,1.521,2.079,3.145,4.082,4.724,6.119A1.143,1.143,0,0,1-520.988,1270.309Z" transform="translate(-9.354 -255.275)" fill="#f85316"/>
      <path id="Trazado_159517" data-name="Trazado 159517" d="M-463.565,1270.153c1.691-2.175,3.282-4.224,4.876-6.271,1.1-1.418,1.113-1.409,2.363-.065,1.6,1.713,1.837,3.8,1.734,6-.022.462-.339.326-.571.327C-457.9,1270.156-460.64,1270.153-463.565,1270.153Z" transform="translate(-61.357 -255.118)" fill="#f85316"/>
      <path id="Trazado_159518" data-name="Trazado 159518" d="M-401.137,1270.087c-2.919,0-5.726,0-8.532,0-.215,0-.345-.039-.361-.3-.145-2.447.239-4.713,2.174-6.46.883-.8.883-.8,1.608.131q2.446,3.142,4.89,6.287C-401.3,1269.824-401.251,1269.91-401.137,1270.087Z" transform="translate(-103.337 -255.065)" fill="#f85316"/>
      <path id="Trazado_159519" data-name="Trazado 159519" d="M-343.708,1269.981c1.924-2.475,3.753-4.816,5.565-7.17.3-.388.5-.127.721.037a6.423,6.423,0,0,1,2.621,4.781c.2,2.349.18,2.351-2.145,2.351Z" transform="translate(-155.39 -254.958)" fill="#f85316"/>
      <path id="Trazado_159520" data-name="Trazado 159520" d="M-281.36,1270.1h-8.493c-.216,0-.417.027-.436-.3-.142-2.446.246-4.708,2.178-6.453.877-.792.878-.794,1.606.141C-284.828,1265.641-283.15,1267.8-281.36,1270.1Z" transform="translate(-197.278 -255.08)" fill="#f85316"/>
      <path id="Trazado_159521" data-name="Trazado 159521" d="M-223.941,1270.193l1.149-1.481c1.414-1.819,2.846-3.625,4.229-5.467.353-.47.594-.453,1.005-.116a6.668,6.668,0,0,1,2.537,5.4c.006,1.665.011,1.665-1.647,1.665Z" transform="translate(-249.352 -255.172)" fill="#f85316"/>
      <path id="Trazado_159522" data-name="Trazado 159522" d="M-365.1,1268.722c.384.291.766.583,1.151.87,1.381,1.03,1.381,1.029.321,2.4-.409.529-.829,1.05-1.225,1.589-.219.3-.375.3-.6,0-.677-.9-1.371-1.781-2.064-2.666-.125-.16-.213-.3,0-.457.729-.543,1.454-1.092,2.183-1.635A1.194,1.194,0,0,1-365.1,1268.722Z" transform="translate(-136.607 -259.754)" fill="#f85316"/>
      <path id="Trazado_159523" data-name="Trazado 159523" d="M-482.226,1271.526c-.093.125-.169.23-.248.332-.655.848-1.326,1.684-1.959,2.549-.285.389-.447.315-.7-.025-.622-.839-1.256-1.672-1.925-2.474-.287-.344-.213-.536.118-.737.068-.041.13-.094.195-.142,2.166-1.624,2.166-1.624,4.219.214C-482.43,1271.331-482.336,1271.422-482.226,1271.526Z" transform="translate(-42.786 -260.628)" fill="#f85316"/>
      <path id="Trazado_159524" data-name="Trazado 159524" d="M-386.007,1120.642c0-1.047.015-2.008-.008-2.968-.008-.361.122-.433.461-.452,2.1-.121,2.4.2,2.111,2.34-.027.2-.036.357-.291.391A10.085,10.085,0,0,0-386.007,1120.642Z" transform="translate(-122.199 -140.878)" fill="#f3f9ff"/>
      <path id="Trazado_159525" data-name="Trazado 159525" d="M-335.581,1120.639a11.23,11.23,0,0,0-1.788-.533c-.707-.087-.8-.438-.787-1.055.039-1.786.014-1.747,1.782-1.8.7-.022.851.206.807.849C-335.624,1118.924-335.581,1119.758-335.581,1120.639Z" transform="translate(-159.745 -140.915)" fill="#f3f9ff"/>
      <path id="Trazado_159526" data-name="Trazado 159526" d="M-486.126,1241.882a7.468,7.468,0,0,0,3.55.036c.223-.049.468-.131.491.18.02.285.368.6-.025.871-.642.437-1.28.881-1.941,1.288-.348.214-2.66-1.231-2.569-1.618C-486.556,1242.366-486.72,1241.8-486.126,1241.882Z" transform="translate(-43.268 -238.687)" fill="#eeceb2"/>
      <path id="Trazado_159527" data-name="Trazado 159527" d="M-366.39,1241.885a7.459,7.459,0,0,0,3.548.034c.225-.05.467-.127.489.182.02.285.368.6-.027.87-.643.435-1.28.881-1.941,1.288-.347.214-2.658-1.236-2.567-1.622C-366.823,1242.365-366.987,1241.8-366.39,1241.885Z" transform="translate(-137.203 -238.689)" fill="#eeceb2"/>
      <path id="Trazado_159528" data-name="Trazado 159528" d="M-242.44,1279.241c-.707.915-1.377,1.769-2.03,2.635-.214.284-.359.224-.546-.022-.647-.849-1.305-1.69-2.02-2.613Z" transform="translate(-231.232 -268.006)" fill="#f85316"/>
      <path id="Trazado_159529" data-name="Trazado 159529" d="M-502.688,1256.493c1.391-.941,2.409-.162,3.418.678-.011.027-.017.078-.045.1C-501.191,1258.761-501.191,1258.761-502.688,1256.493Z" transform="translate(-30.664 -249.823)" fill="#f85316"/>
      <path id="Trazado_159530" data-name="Trazado 159530" d="M-461.554,1256.509c-.442.57-.923,1.167-1.375,1.784-.2.266-.351.24-.581.059-.5-.4-1.018-.773-1.533-1.162C-464.019,1256.364-463.031,1255.467-461.554,1256.509Z" transform="translate(-60.198 -249.803)" fill="#f85316"/>
      <path id="Trazado_159531" data-name="Trazado 159531" d="M-379.48,1257.229c-.63.453-1.268,1.269-1.826,1.218-.642-.059-.986-1.076-1.481-1.659a2.017,2.017,0,0,1-.177-.282C-381.575,1255.558-380.563,1256.354-379.48,1257.229Z" transform="translate(-124.592 -249.833)" fill="#f85316"/>
      <path id="Trazado_159532" data-name="Trazado 159532" d="M-345.3,1257.207c1.04-.828,2.04-1.682,3.5-.7-.462.594-.967,1.23-1.455,1.88-.209.279-.365.09-.526-.029C-344.287,1257.981-344.789,1257.6-345.3,1257.207Z" transform="translate(-154.14 -249.826)" fill="#f85316"/>
      <path id="Trazado_159533" data-name="Trazado 159533" d="M-516.489,1185.255a3.213,3.213,0,0,1-1.188-2.85c.042-.449.162-.66.7-.4.68.326,1.1.625.753,1.486A8.037,8.037,0,0,0-516.489,1185.255Z" transform="translate(-18.891 -191.632)" fill="#646c76"/>
      <path id="Trazado_159534" data-name="Trazado 159534" d="M-342.409,1061.251c0,1.127-.014,2.255.008,3.382.007.373-.082.508-.483.5q-3.422-.028-6.845,0c-.367,0-.443-.126-.441-.463q.019-3.422,0-6.844c0-.338.075-.466.442-.463q3.422.024,6.844,0c.4,0,.49.132.483.5C-342.422,1059-342.409,1060.124-342.409,1061.251Zm-2.6-.047c0-1.234,0-1.234-1.267-1.234-1.294,0-1.294,0-1.294,1.287s0,1.274,1.227,1.274C-345.006,1062.531-345.006,1062.531-345.006,1061.2Z" transform="translate(-150.32 -93.935)" fill="#020202"/>
      <path id="Trazado_159535" data-name="Trazado 159535" d="M-390.31,1061.187c0,1.127-.009,2.255.006,3.382,0,.368-.023.574-.5.568-2.254-.029-4.509-.021-6.764-.005-.373,0-.507-.083-.5-.484q.028-3.422,0-6.844c0-.367.127-.443.464-.441,2.281.013,4.563.018,6.844,0,.434,0,.466.182.461.526C-390.32,1058.986-390.31,1060.086-390.31,1061.187Zm-2.6.1c0-1.32,0-1.32-1.26-1.32-1.3,0-1.3,0-1.3,1.28s0,1.28,1.3,1.28C-392.907,1062.527-392.907,1062.527-392.907,1061.287Z" transform="translate(-112.738 -93.931)" fill="#020202"/>
      <path id="Trazado_159536" data-name="Trazado 159536" d="M-335.525,1070.693c0,1.327,0,1.327-1.334,1.327-1.227,0-1.227,0-1.227-1.274s0-1.287,1.294-1.287C-335.525,1069.459-335.525,1069.459-335.525,1070.693Z" transform="translate(-159.801 -103.423)" fill="#f3f9ff"/>
      <path id="Trazado_159537" data-name="Trazado 159537" d="M-383.417,1070.78c0,1.24,0,1.24-1.26,1.24-1.3,0-1.3,0-1.3-1.28s0-1.281,1.3-1.281C-383.417,1069.459-383.417,1069.459-383.417,1070.78Z" transform="translate(-122.228 -103.423)" fill="#f3f9ff"/>
    </g>
  </g>
</svg>
