<svg xmlns="http://www.w3.org/2000/svg" xmlns:xlink="http://www.w3.org/1999/xlink" width="378.885" height="378.621" viewBox="0 0 378.885 378.621">
  <defs>
    <linearGradient id="linear-gradient" x1="-30.68" y1="-2.445" x2="159.69" y2="15.534" gradientUnits="objectBoundingBox">
      <stop offset="0" stop-color="#a737d5"/>
      <stop offset="1" stop-color="#ef497a"/>
    </linearGradient>
    <linearGradient id="linear-gradient-2" x1="-0.897" y1="-0.736" x2="7.16" y2="6.41" xlink:href="#linear-gradient"/>
    <linearGradient id="linear-gradient-3" x1="0.716" y1="-0.809" x2="0.587" y2="-0.027" gradientUnits="objectBoundingBox">
      <stop offset="0" stop-color="#09005d"/>
      <stop offset="1" stop-color="#1a0f91"/>
    </linearGradient>
    <linearGradient id="linear-gradient-4" x1="-4.524" y1="-4.313" x2="-1.131" y2="-1.062" gradientUnits="objectBoundingBox">
      <stop offset="0" stop-color="#4f52ff"/>
      <stop offset="1" stop-color="#4042e2"/>
    </linearGradient>
    <linearGradient id="linear-gradient-5" x1="5.989" y1="2.026" x2="0.641" y2="0.539" xlink:href="#linear-gradient-4"/>
    <linearGradient id="linear-gradient-6" x1="-0.158" y1="-2.536" x2="0.141" y2="-1.156" xlink:href="#linear-gradient-3"/>
    <linearGradient id="linear-gradient-7" x1="0.341" y1="-1.689" x2="0.44" y2="-0.326" xlink:href="#linear-gradient-3"/>
  </defs>
  <g id="Grupo_109787" data-name="Grupo 109787" transform="translate(8598.666 -8465.164)">
    <g id="Grupo_109733" data-name="Grupo 109733" transform="translate(-8799.78 1232)">
      <g id="Image_Place_Holder" data-name="Image Place Holder" transform="translate(201.115 7618.846) rotate(-90)">
        <rect id="Image_Place_Holder-2" data-name="Image Place Holder" width="378.621" height="378.885" transform="translate(7.061)" fill="#f3f9ff"/>
      </g>
    </g>
    <g id="Grupo_109735" data-name="Grupo 109735" transform="translate(-9027.983 8047)">
      <path id="Trazado_159394" data-name="Trazado 159394" d="M733.8,720.867a111.334,111.334,0,0,1-17.034,14.342c-55.567,39.87-121.317,28.248-135.291,25.41-20.635-4.191-60.522-12.292-89.359-46.2-43.629-51.307-36.835-132.138-2.994-185.5,6.19-9.76,38.888-63.931,105.347-72.619,40.22-5.257,87.1,5.346,121.056,33.791C786.795,549.8,781.721,670.419,733.8,720.867Z" transform="translate(0)" fill="#dce736" opacity="0.399"/>
      <g id="Grupo_109477" data-name="Grupo 109477" transform="translate(661.742 455.767)">
        <g id="Grupo_109475" data-name="Grupo 109475" transform="translate(3.189)">
          <path id="Trazado_159395" data-name="Trazado 159395" d="M2289.208,637.151s-.9-38.033,16.613-48.212,50.824-16.543,52.073-71.154c.731-31.972,1.522-45.95,2.052-52.046a3.6,3.6,0,0,0-4.251-3.855c-16.591,3.125-70.486,15.99-81.785,52.775C2260.514,558.269,2289.208,637.151,2289.208,637.151Z" transform="translate(-2270.347 -461.82)" fill="#75b62f"/>
          <path id="Trazado_159396" data-name="Trazado 159396" d="M2450.729,596.147c-18.211,16.242-39.27,44.987-50.494,73.732-1.441,4.737-5.655,14.812-7.485,32.711-1.635,14.929-.822,30.7,1.16,41.146a1.216,1.216,0,0,0,1.422.968,1.234,1.234,0,0,0,.974-1.4,166.856,166.856,0,0,1,3.863-60.083c6.627-24.6,21.407-48.455,36.694-68.685l1.573-1.992c11.844-15.21,14.337-15.322,13.23-16.383A.693.693,0,0,0,2450.729,596.147Z" transform="translate(-2378.211 -580.888)" fill="#dce736"/>
        </g>
        <g id="Grupo_109476" data-name="Grupo 109476" transform="translate(0 97.83)">
          <path id="Trazado_159397" data-name="Trazado 159397" d="M2242.146,1479.159c-2.37,1.162,22.437-30.033,30.208-79.028,3.662-23.088,3.71-52.014,16.861-63.161,10.946-9.278,48.192-3.42,60.379-1.194a1.828,1.828,0,0,1,.85,3.2c-5.845,4.908-18.347,16.486-21.6,28.154-4.294,15.379-18.915,25.161-32,27.808s-20.371,5.217-26.748,26.15S2248.88,1475.857,2242.146,1479.159Z" transform="translate(-2241.987 -1331.898)" fill="#dce736"/>
          <path id="Trazado_159398" data-name="Trazado 159398" d="M2575.7,1424.177c-15.549.651-32.24,7.744-40.709,21.049l-.8,1.27c-1.846,2.977-12.31,24.139-18.122,41.682a.417.417,0,0,0,.264.527.425.425,0,0,0,.522-.25c4.049-9.91,9.865-22.475,14.5-31.871,4.967-10.253,8.443-17.2,19.773-23.847a63.086,63.086,0,0,1,24.622-7.893.335.335,0,0,0-.048-.667Z" transform="translate(-2485.232 -1413.801)" fill="#75b62f"/>
        </g>
      </g>
      <g id="Grupo_109491" data-name="Grupo 109491" transform="translate(521.175 477.822)">
        <path id="Trazado_159399" data-name="Trazado 159399" d="M991.82,971.154a17.787,17.787,0,0,1,17.787-17.787h151.259a15.671,15.671,0,0,1,15.65,14.874l11.165,219.3a11.556,11.556,0,0,1-11.331,12.141l-173.362,3.151a10.969,10.969,0,0,1-11.168-10.967Z" transform="translate(-991.82 -920.154)" fill="#3d46c2"/>
        <path id="Trazado_159400" data-name="Trazado 159400" d="M1070.467,2808.37h-.005l-19.4-.251A11.963,11.963,0,0,1,1039.3,2796.2v-29.288a.414.414,0,1,1,.828,0V2796.2a11.132,11.132,0,0,0,10.946,11.088l19.4.251a.414.414,0,0,1-.005.829Z" transform="translate(-1033.961 -2529.422)" fill="#91b3fa"/>
        <path id="Trazado_159401" data-name="Trazado 159401" d="M1039.714,2649.2a.414.414,0,0,1-.414-.414v-4.743a.414.414,0,0,1,.828,0v4.743A.414.414,0,0,1,1039.714,2649.2Z" transform="translate(-1033.961 -2420.368)" fill="url(#linear-gradient)"/>
        <g id="Grupo_109490" data-name="Grupo 109490" transform="translate(12.392 31.388)">
          <path id="Trazado_159402" data-name="Trazado 159402" d="M1102.03,942.333a5.166,5.166,0,0,1,5.86-5.153c20.656,2.8,91.686,11.464,150.412,6.956a4.778,4.778,0,0,1,5.145,4.506l11.707,220.275a5.5,5.5,0,0,1-5.165,5.782c-24.7,1.462-126.419,7.112-162.7,3.312a4.356,4.356,0,0,1-3.9-4.311Z" transform="translate(-1102.03 -937.132)" fill="#12263f"/>
          <path id="Trazado_159403" data-name="Trazado 159403" d="M1123.67,992.972a4.972,4.972,0,0,1,5.639-4.959c19.878,2.7,88.233,11.033,144.748,6.694a4.6,4.6,0,0,1,4.951,4.336l11.266,211.98a5.291,5.291,0,0,1-4.971,5.564c-23.769,1.407-121.659,6.844-156.574,3.187a4.191,4.191,0,0,1-3.75-4.148Z" transform="translate(-1121.236 -982.251)" fill="#fff"/>
          <path id="Trazado_159404" data-name="Trazado 159404" d="M1287.3,1152.459l2.111,45.446a2.889,2.889,0,0,0,2.8,2.756c8.417.238,34.644.877,49.452.105a3.226,3.226,0,0,0,3.056-3.119c.282-8.523.9-33.33-1.042-43.7a3.641,3.641,0,0,0-3.457-2.962l-49.749-1.74A3.072,3.072,0,0,0,1287.3,1152.459Z" transform="translate(-1266.467 -1125.394)" fill="#d2e1f1" opacity="0.78"/>
          <g id="Grupo_109478" data-name="Grupo 109478" transform="translate(89.356 26.966)" opacity="0.6">
            <path id="Trazado_159405" data-name="Trazado 159405" d="M1952.76,1181.011a1.563,1.563,0,0,0,1.647-1.525,1.714,1.714,0,0,0-1.735-1.555l-54.716-.975a1.1,1.1,0,0,0-1.129,1.565l.315.894a2.565,2.565,0,0,0,2.253,1.6Z" transform="translate(-1896.736 -1176.956)" fill="#d2e1f1"/>
          </g>
          <g id="Grupo_109479" data-name="Grupo 109479" transform="translate(89.356 35.438)" opacity="0.6">
            <path id="Trazado_159406" data-name="Trazado 159406" d="M1897.956,1252.307a1.1,1.1,0,0,0-1.129,1.565l.315.894a2.565,2.565,0,0,0,2.253,1.6h53.365a1.563,1.563,0,0,0,1.647-1.525,1.714,1.714,0,0,0-1.735-1.555Z" transform="translate(-1896.736 -1252.306)" fill="#d2e1f1"/>
          </g>
          <g id="Grupo_109480" data-name="Grupo 109480" transform="translate(89.356 44.033)" opacity="0.6">
            <path id="Trazado_159407" data-name="Trazado 159407" d="M1897.956,1328.753a1.1,1.1,0,0,0-1.129,1.565l.315.894a2.565,2.565,0,0,0,2.253,1.6h53.365a1.563,1.563,0,0,0,1.647-1.525,1.714,1.714,0,0,0-1.735-1.555Z" transform="translate(-1896.736 -1328.753)" fill="#d2e1f1"/>
          </g>
          <g id="Grupo_109481" data-name="Grupo 109481" transform="translate(21.574 85.468)" opacity="0.6">
            <path id="Trazado_159408" data-name="Trazado 159408" d="M1423.006,1701.337a1.5,1.5,0,0,0,1.59-1.525,1.772,1.772,0,0,0-1.792-1.538l-127.966-1.009c-.93-.007-1.217.582-.638,1.31l1.146,1.438a3.982,3.982,0,0,0,2.745,1.323Z" transform="translate(-1293.902 -1697.265)" fill="#d2e1f1"/>
          </g>
          <g id="Grupo_109482" data-name="Grupo 109482" transform="translate(21.574 93.941)" opacity="0.6">
            <path id="Trazado_159409" data-name="Trazado 159409" d="M1294.839,1772.616c-.93-.007-1.217.582-.638,1.31l1.146,1.438a3.983,3.983,0,0,0,2.745,1.323h124.915a1.5,1.5,0,0,0,1.59-1.525,1.772,1.772,0,0,0-1.792-1.538Z" transform="translate(-1293.902 -1772.616)" fill="#d2e1f1"/>
          </g>
          <path id="Trazado_159410" data-name="Trazado 159410" d="M1282.945,1895.359c3.073-.235,8.827-.345,11.995-.389a2.871,2.871,0,0,1,2.834,2.2,46.787,46.787,0,0,1,1.349,11.6,2.549,2.549,0,0,1-2.572,2.5l-11.689-.126a2.807,2.807,0,0,1-2.765-2.546l-1.028-11A2.045,2.045,0,0,1,1282.945,1895.359Z" transform="translate(-1260.93 -1787.272)" fill="url(#linear-gradient-2)"/>
          <g id="Grupo_109483" data-name="Grupo 109483" transform="translate(42.094 112.598)" opacity="0.6">
            <path id="Trazado_159411" data-name="Trazado 159411" d="M1477.861,1938.549a1.346,1.346,0,0,0-1.438,1.6l.307,2.045a2.032,2.032,0,0,0,1.942,1.673h28.552a1.671,1.671,0,0,0,1.67-1.691l-.008-.641a1.811,1.811,0,0,0-1.711-1.762Z" transform="translate(-1476.404 -1938.548)" fill="#d2e1f1"/>
          </g>
          <path id="Trazado_159412" data-name="Trazado 159412" d="M1849.319,1895.359c3.073-.235,8.827-.345,11.995-.389a2.871,2.871,0,0,1,2.834,2.2,46.8,46.8,0,0,1,1.348,11.6,2.549,2.549,0,0,1-2.572,2.5l-11.689-.126a2.807,2.807,0,0,1-2.765-2.546l-1.028-11A2.045,2.045,0,0,1,1849.319,1895.359Z" transform="translate(-1763.622 -1787.272)" fill="#75b62f"/>
          <g id="Grupo_109484" data-name="Grupo 109484" transform="translate(105.776 112.598)" opacity="0.6">
            <path id="Trazado_159413" data-name="Trazado 159413" d="M2044.234,1938.549a1.346,1.346,0,0,0-1.439,1.6l.307,2.045a2.032,2.032,0,0,0,1.942,1.673H2073.6a1.671,1.671,0,0,0,1.67-1.691l-.008-.641a1.812,1.812,0,0,0-1.711-1.762Z" transform="translate(-2042.776 -1938.548)" fill="#d2e1f1"/>
          </g>
          <g id="Grupo_109489" data-name="Grupo 109489" transform="translate(18.317 142.346)">
            <g id="Grupo_109485" data-name="Grupo 109485" opacity="0.6">
              <path id="Trazado_159414" data-name="Trazado 159414" d="M1265.054,2206.486a3.411,3.411,0,0,0,3.352,2l128.043-.851a2.344,2.344,0,0,0,2.576-2.069,2.38,2.38,0,0,0-2.586-1.981l-128.047-.455C1266.132,2203.117,1264.478,2204.783,1265.054,2206.486Z" transform="translate(-1264.939 -2203.125)" fill="#d2e1f1"/>
            </g>
            <g id="Grupo_109486" data-name="Grupo 109486" transform="translate(0 23.118)" opacity="0.6">
              <path id="Trazado_159415" data-name="Trazado 159415" d="M1265.054,2412.093a3.412,3.412,0,0,0,3.352,1.995l128.043-.851a2.345,2.345,0,0,0,2.576-2.07,2.38,2.38,0,0,0-2.586-1.981l-128.047-.455C1266.132,2408.724,1264.478,2410.39,1265.054,2412.093Z" transform="translate(-1264.939 -2408.732)" fill="#d2e1f1"/>
            </g>
            <g id="Grupo_109487" data-name="Grupo 109487" transform="translate(0 46.236)" opacity="0.6">
              <path id="Trazado_159416" data-name="Trazado 159416" d="M1265.054,2617.7a3.41,3.41,0,0,0,3.352,2l128.043-.851a2.345,2.345,0,0,0,2.576-2.07,2.38,2.38,0,0,0-2.586-1.981l-128.047-.455C1266.132,2614.33,1264.478,2616,1265.054,2617.7Z" transform="translate(-1264.939 -2614.338)" fill="#d2e1f1"/>
            </g>
            <g id="Grupo_109488" data-name="Grupo 109488" transform="translate(0 69.354)" opacity="0.6">
              <path id="Trazado_159417" data-name="Trazado 159417" d="M1265.054,2823.306h0a3.41,3.41,0,0,0,3.352,2l128.043-.851a2.344,2.344,0,0,0,2.576-2.07,2.38,2.38,0,0,0-2.586-1.981l-128.047-.455C1266.132,2819.937,1264.478,2821.6,1265.054,2823.306Z" transform="translate(-1264.939 -2819.945)" fill="#d2e1f1"/>
            </g>
          </g>
        </g>
        <path id="Trazado_159418" data-name="Trazado 159418" d="M1761.423,661.29c-5.464-3.8-10.214-3.726-13.559-2.739a6.671,6.671,0,0,0-4.738,7.013l1.442,15.742,17.162,1.523S1772.139,668.745,1761.423,661.29Zm-7.547,12.7a4.279,4.279,0,1,1,4.279-4.279A4.279,4.279,0,0,1,1753.876,673.99Z" transform="translate(-1658.626 -657.977)" fill="#3d46c2"/>
        <path id="Trazado_159419" data-name="Trazado 159419" d="M1763.031,692.881a.414.414,0,0,1-.412-.377l-.23-2.507a.414.414,0,1,1,.825-.075l.23,2.507a.414.414,0,0,1-.375.45Zm-.45-4.913a.414.414,0,0,1-.412-.376l-.175-1.9a6.367,6.367,0,0,1,4.514-6.681,12.825,12.825,0,0,1,6.272-.258.414.414,0,1,1-.166.811,12.023,12.023,0,0,0-5.872.241,5.537,5.537,0,0,0-3.924,5.811l.174,1.9a.414.414,0,0,1-.374.45Z" transform="translate(-1675.373 -676.174)" fill="#91b3fa"/>
        <path id="Trazado_159420" data-name="Trazado 159420" d="M1547.856,855.342v-7.915a4.829,4.829,0,0,1,4.995-4.827l54.568,1.87a4.7,4.7,0,0,1,4.528,4.413l.456,7.6Z" transform="translate(-1485.336 -821.839)" fill="#3d46c2"/>
        <path id="Trazado_159421" data-name="Trazado 159421" d="M1707.024,862.608h-2.347a.414.414,0,1,1,0-.828h2.347a.414.414,0,0,1,0,.828Z" transform="translate(-1624.157 -838.865)" fill="#91b3fa"/>
        <path id="Trazado_159422" data-name="Trazado 159422" d="M1570.855,869.882a.414.414,0,0,1-.414-.414v-3.2a4.491,4.491,0,0,1,4.486-4.486h8.628a.414.414,0,0,1,0,.828h-8.628a3.662,3.662,0,0,0-3.658,3.658v3.2A.414.414,0,0,1,1570.855,869.882Z" transform="translate(-1505.382 -838.865)" fill="#91b3fa"/>
        <path id="Trazado_159423" data-name="Trazado 159423" d="M1348.411,935.055a5.142,5.142,0,0,1,5.136-4.9l95.422,0a7.053,7.053,0,0,1,6.95,5.85l.081.467a6.057,6.057,0,0,1-5.968,7.09h-97.9a3.938,3.938,0,0,1-3.934-4.127Z" transform="translate(-1308.126 -899.554)" fill="#f85316"/>
      </g>
      <g id="Grupo_109494" data-name="Grupo 109494" transform="translate(462.845 610.405)">
        <g id="Grupo_109492" data-name="Grupo 109492" transform="translate(0 118.194)">
          <rect id="Rectángulo_41143" data-name="Rectángulo 41143" width="137.18" height="31.971" transform="translate(2.856 0.895)" fill="url(#linear-gradient-3)"/>
          <path id="Rectángulo_41144" data-name="Rectángulo 41144" d="M0,0H142.452a0,0,0,0,1,0,0V7.11a5.167,5.167,0,0,1-5.167,5.167H7.733A7.733,7.733,0,0,1,0,4.544V0A0,0,0,0,1,0,0Z" transform="translate(0 18.543)" fill="#75b62f"/>
          <path id="Trazado_159434" data-name="Trazado 159434" d="M0,0H142.452V6.932a5.345,5.345,0,0,1-5.345,5.345H6.67A6.67,6.67,0,0,1,0,5.607Z" transform="translate(0 4.604)" fill="#75b62f"/>
          <path id="Rectángulo_41146" data-name="Rectángulo 41146" d="M4.546,0h133.3a4.6,4.6,0,0,1,4.6,4.6v0a0,0,0,0,1,0,0H0a0,0,0,0,1,0,0V4.546A4.546,4.546,0,0,1,4.546,0Z" transform="translate(0)" fill="#3d46c2"/>
        </g>
        <g id="Grupo_109493" data-name="Grupo 109493" transform="translate(39.403 0)">
          <ellipse id="Elipse_5200" data-name="Elipse 5200" cx="10.797" cy="9.293" rx="10.797" ry="9.293" transform="translate(210.453 148.767) rotate(-64.067)" fill="#f85316"/>
          <rect id="Rectángulo_41147" data-name="Rectángulo 41147" width="12.215" height="7.984" rx="3.992" transform="matrix(0.437, -0.899, 0.899, 0.437, 208.569, 142.637)" fill="url(#linear-gradient-4)"/>
          <path id="Trazado_159424" data-name="Trazado 159424" d="M1619.231,2485.74a25.306,25.306,0,0,1-5.718,11.7,6.91,6.91,0,0,1-6.667,2.2c-24.215-4.862-74.967-36.229-124.254-63.632-3.266-1.816-5.524-3.876-3.985-7.041l3.4-6.99c1.53-3.146,5.191-1.375,8.626.037,52.135,21.419,107.43,40.09,126.413,57.365A6.862,6.862,0,0,1,1619.231,2485.74Z" transform="translate(-1404.508 -2354.655)" fill="#f85316"/>
          <path id="Trazado_159425" data-name="Trazado 159425" d="M1433.786,2341.249l-11.54,23.731a.675.675,0,0,1-.9.312l-6.087-2.96a.675.675,0,0,1-.312-.9l11.54-23.73a.675.675,0,0,1,.9-.312l6.087,2.96A.675.675,0,0,1,1433.786,2341.249Z" transform="translate(-1348.382 -2281.079)" fill="#12263f"/>
          <path id="Trazado_159426" data-name="Trazado 159426" d="M977.593,2130.562l-11.54,23.731a.675.675,0,0,1-.9.312l-6.087-2.96a.675.675,0,0,1-.312-.9l11.54-23.731a.675.675,0,0,1,.9-.312l6.087,2.96A.674.674,0,0,1,977.593,2130.562Z" transform="translate(-943.483 -2094.081)" fill="url(#linear-gradient-5)"/>
          <path id="Trazado_159433" data-name="Trazado 159433" d="M0,0H83.38V56.489H0Z" transform="translate(3.203 87.276) rotate(-64.067)" fill="#f85316"/>
          <rect id="Rectángulo_41149" data-name="Rectángulo 41149" width="10.486" height="56.489" transform="translate(0.541 92.751) rotate(-64.067)" fill="#75b62f"/>
          <path id="Trazado_159427" data-name="Trazado 159427" d="M876.9,2648.867l-2.279,4.687a3.257,3.257,0,0,1-3.856,1.7,158.2,158.2,0,0,1-45.909-22.351,3.209,3.209,0,0,1-1.045-4.031l2.288-4.706Z" transform="translate(-823.485 -2535.672)" fill="#f85316"/>
          <path id="Trazado_159428" data-name="Trazado 159428" d="M898.76,2568.874l-1.9,3.907a.7.7,0,0,1-.939.325l-53.187-25.864a.7.7,0,0,1-.325-.939l1.9-3.908a.7.7,0,0,1,.939-.324l53.187,25.864A.7.7,0,0,1,898.76,2568.874Z" transform="translate(-840.218 -2462.746)" fill="url(#linear-gradient-6)"/>
          <path id="Trazado_159429" data-name="Trazado 159429" d="M900.908,2574.726l-1.292,2.657a.637.637,0,0,1-.851.294l-53.306-25.922a.637.637,0,0,1-.294-.851l1.292-2.657a.636.636,0,0,1,.851-.294l53.306,25.922A.637.637,0,0,1,900.908,2574.726Z" transform="translate(-842.67 -2467.973)" fill="#12263f"/>
          <rect id="Rectángulo_41150" data-name="Rectángulo 41150" width="10.486" height="56.489" transform="translate(95.349 26.956) rotate(115.933)" fill="#75b62f"/>
          <path id="Trazado_159430" data-name="Trazado 159430" d="M1252.068,1868.35l2.279-4.687a3.258,3.258,0,0,0-1.046-4.082,158.2,158.2,0,0,0-45.929-22.308,3.209,3.209,0,0,0-3.816,1.667l-2.289,4.706Z" transform="translate(-1158.79 -1837.135)" fill="#f85316"/>
          <path id="Trazado_159431" data-name="Trazado 159431" d="M1201.422,1946.474l1.9-3.907a.7.7,0,0,0-.325-.939l-53.187-25.864a.7.7,0,0,0-.939.325l-1.9,3.907a.7.7,0,0,0,.325.939l53.187,25.864A.7.7,0,0,0,1201.422,1946.474Z" transform="translate(-1110.535 -1906.859)" fill="url(#linear-gradient-7)"/>
          <path id="Trazado_159432" data-name="Trazado 159432" d="M1204.177,1951.076l1.292-2.658a.637.637,0,0,0-.294-.851l-53.306-25.922a.637.637,0,0,0-.851.294l-1.292,2.657a.637.637,0,0,0,.294.851l53.306,25.922A.637.637,0,0,0,1204.177,1951.076Z" transform="translate(-1112.987 -1912.086)" fill="#12263f"/>
        </g>
      </g>
    </g>
  </g>
</svg>
