<svg xmlns="http://www.w3.org/2000/svg" width="116.49" height="148.14" viewBox="0 0 116.49 148.14">
  <g id="Grupo_109782" data-name="Grupo 109782" transform="translate(7753.379 -6576.739)">
    <g id="Grupo_109729" data-name="Grupo 109729" transform="translate(-8803.133 1217.758)">
      <g id="documentos" transform="translate(1049.754 5358.981)">
        <g id="Grupo_107578" data-name="Grupo 107578" transform="translate(2.387 2.387)">
          <path id="Trazado_157123" data-name="Trazado 157123" d="M873,222.471V350.42a1.593,1.593,0,0,1-1.591,1.591H777.2A15.915,15.915,0,0,1,761.284,336.1v-4.138a1.591,1.591,0,0,1,1.591-1.591h9.55a.339.339,0,0,0,.055,0,1.591,1.591,0,0,0,1.538-1.588V222.471a1.591,1.591,0,0,1,1.59-1.591h95.8A1.592,1.592,0,0,1,873,222.471Z" transform="translate(-761.284 -220.88)" fill="#f3f9ff"/>
          <path id="Trazado_157124" data-name="Trazado 157124" d="M806.361,261.962H778.988a1.591,1.591,0,0,1-1.591-1.591V233a1.59,1.59,0,0,1,1.591-1.591h27.373A1.59,1.59,0,0,1,807.952,233h0v27.373a1.591,1.591,0,0,1-1.591,1.591Z" transform="translate(-753.527 -215.812)" fill="#dce736"/>
          <g id="Grupo_107577" data-name="Grupo 107577" transform="translate(0 17.346)">
            <path id="Trazado_157125" data-name="Trazado 157125" d="M841.329,252.4H806.318a2.387,2.387,0,1,1,0-4.775h35.011a2.387,2.387,0,0,1,0,4.775Z" transform="translate(-740.752 -225.348)" fill="#2b597f"/>
            <path id="Trazado_157126" data-name="Trazado 157126" d="M827.468,267.012h-35.33a2.387,2.387,0,1,1,0-4.775h35.33a2.387,2.387,0,0,1,0,4.775Z" transform="translate(-747.579 -218.315)" fill="#2b597f"/>
            <path id="Trazado_157127" data-name="Trazado 157127" d="M841.329,244.884H806.318a2.387,2.387,0,1,1,0-4.775h35.011a2.387,2.387,0,0,1,0,4.775Z" transform="translate(-740.752 -228.968)" fill="#2b597f"/>
            <path id="Trazado_157128" data-name="Trazado 157128" d="M841.329,237.364H806.318a2.387,2.387,0,1,1,0-4.775h35.011a2.387,2.387,0,0,1,0,4.775Z" transform="translate(-740.752 -232.589)" fill="#2b597f"/>
            <path id="Trazado_157129" data-name="Trazado 157129" d="M854.88,286.134H778.173a2.387,2.387,0,1,1,0-4.775h76.705a2.387,2.387,0,0,1,0,4.775Z" transform="translate(-754.303 -209.109)" fill="#2b597f"/>
            <path id="Trazado_157130" data-name="Trazado 157130" d="M843.5,276.466h-41.7a2.387,2.387,0,1,1,0-4.775h41.7a2.387,2.387,0,0,1,0,4.775Z" transform="translate(-742.924 -213.763)" fill="#2b597f"/>
            <path id="Trazado_157131" data-name="Trazado 157131" d="M802.1,276.466H778.066a2.387,2.387,0,1,1,0-4.775H802.1a2.387,2.387,0,0,1,0,4.775Z" transform="translate(-754.354 -213.763)" fill="#2b597f"/>
            <path id="Trazado_157132" data-name="Trazado 157132" d="M857.336,316.427H777.2a15.914,15.914,0,0,1-15.914-15.912v-4.138a1.59,1.59,0,0,1,1.591-1.591h9.55a.332.332,0,0,0,.055,0h67.51a1.59,1.59,0,0,1,1.591,1.591h0v4.148A15.916,15.916,0,0,0,857.336,316.427Z" transform="translate(-761.284 -202.644)" fill="#3d46c2"/>
          </g>
        </g>
        <g id="Grupo_107579" data-name="Grupo 107579">
          <path id="Trazado_158466" data-name="Trazado 158466" d="M873.776,219.269H774.791a2.386,2.386,0,0,0-2.387,2.387v107.1H762.06a2.386,2.386,0,0,0-2.387,2.387v5.73a18.322,18.322,0,0,0,18.3,18.3h7.693a8.434,8.434,0,0,1,.964-.058,7.917,7.917,0,0,1,1.55.156,8.12,8.12,0,0,1,1.6-.156,8.462,8.462,0,0,1,.966.058h83.024a2.387,2.387,0,0,0,2.387-2.387V221.656A2.386,2.386,0,0,0,873.776,219.269ZM871.389,350.4H858.181a13.542,13.542,0,0,1-13.527-13.527v-5.729a2.386,2.386,0,0,0-2.387-2.387H825.716a2.387,2.387,0,1,0,0,4.775H839.88v3.342a18.258,18.258,0,0,0,5.986,13.527H777.975a13.542,13.542,0,0,1-13.527-13.527v-3.344h50.129a2.387,2.387,0,0,0,0-4.775h-37.4V224.044h94.212Z" transform="translate(-759.673 -219.269)" fill="#12263f"/>
          <path id="Trazado_157134" data-name="Trazado 157134" d="M778.173,265.126h30.555a2.387,2.387,0,0,0,2.387-2.387h0V232.183a2.386,2.386,0,0,0-2.387-2.387H778.173a2.386,2.386,0,0,0-2.386,2.387h0v30.555a2.387,2.387,0,0,0,2.385,2.388Zm2.387-30.555h25.777v25.777H780.559Z" transform="translate(-751.915 -214.201)" fill="#12263f"/>
          <path id="Trazado_157135" data-name="Trazado 157135" d="M841.329,247.628H806.318a2.387,2.387,0,1,0,0,4.775h35.011a2.387,2.387,0,0,0,0-4.775Z" transform="translate(-738.365 -205.615)" fill="#12263f"/>
          <path id="Trazado_157136" data-name="Trazado 157136" d="M789.751,264.625a2.387,2.387,0,0,0,2.387,2.387h35.33a2.387,2.387,0,0,0,0-4.775h-35.33a2.386,2.386,0,0,0-2.387,2.387Z" transform="translate(-745.192 -198.582)" fill="#12263f"/>
          <path id="Trazado_157137" data-name="Trazado 157137" d="M841.329,240.109H806.318a2.387,2.387,0,1,0,0,4.775h35.011a2.387,2.387,0,0,0,0-4.775Z" transform="translate(-738.365 -209.236)" fill="#12263f"/>
          <path id="Trazado_157138" data-name="Trazado 157138" d="M841.329,232.589H806.318a2.387,2.387,0,1,0,0,4.775h35.011a2.387,2.387,0,0,0,0-4.775Z" transform="translate(-738.365 -212.856)" fill="#12263f"/>
          <path id="Trazado_157139" data-name="Trazado 157139" d="M854.88,281.359H778.173a2.387,2.387,0,1,0,0,4.775h76.705a2.387,2.387,0,0,0,0-4.775Z" transform="translate(-751.916 -189.376)" fill="#12263f"/>
          <path id="Trazado_157140" data-name="Trazado 157140" d="M843.5,271.691h-41.7a2.387,2.387,0,1,0,0,4.775h41.7a2.387,2.387,0,0,0,0-4.775Z" transform="translate(-740.537 -194.03)" fill="#12263f"/>
          <path id="Trazado_157141" data-name="Trazado 157141" d="M778.066,276.466H802.1a2.387,2.387,0,0,0,0-4.775H778.066a2.387,2.387,0,1,0,0,4.775Z" transform="translate(-751.967 -194.03)" fill="#12263f"/>
        </g>
      </g>
      <path id="Trazado_158467" data-name="Trazado 158467" d="M821.484,302.431h16.508v23.321l-8.254-4.13-8.254,4.13Z" transform="translate(319.84 5179.751)" fill="#ff642b" stroke="#12263f" stroke-miterlimit="10" stroke-width="2"/>
      <circle id="Elipse_5152" data-name="Elipse 5152" cx="10.718" cy="10.718" r="10.718" transform="translate(1138.86 5466.176)" fill="#ff642b" stroke="#12263f" stroke-miterlimit="10" stroke-width="2"/>
      <circle id="Elipse_5153" data-name="Elipse 5153" cx="6.322" cy="6.322" r="6.322" transform="translate(1143.256 5470.572)" fill="#ff642b" stroke="#12263f" stroke-miterlimit="10" stroke-width="2"/>
    </g>
  </g>
</svg>
