<svg xmlns="http://www.w3.org/2000/svg" width="161" height="160.998" viewBox="0 0 161 160.998">
  <g id="Grupo_109738" data-name="Grupo 109738" transform="translate(-267.36 1575.808)">
    <path id="Trazado_160192" data-name="Trazado 160192" d="M391.309,99.964a78.5,78.5,0,1,1-78.5-78.5A78.5,78.5,0,0,1,391.309,99.964Z" transform="translate(35.051 -1595.274)" fill="#f6f6f6" stroke="#75b62f" stroke-width="4"/>
    <g id="Grupo_109721" data-name="Grupo 109721" transform="translate(-139.263 1675.933)">
      <path id="Trazado_160095" data-name="Trazado 160095" d="M22.633,0H54.1C66.6,0,76.732-4.654,76.732,7.846V37.362c0,12.5-10.133,10.944-22.633,10.944H22.633c-12.5,0-20.313,6.517-20.313-5.983L.234,7.846C.234-4.654,10.133,0,22.633,0Z" transform="translate(445.458 -3203.584)" fill="#dee4f0"/>
      <path id="Trazado_160078" data-name="Trazado 160078" d="M444.123-3201.34c.284-.132.24-.431.323-.658a5.627,5.627,0,0,1,5.192-3.709c2.03-.026,4.061-.016,6.091,0a1.538,1.538,0,0,1,1.681,1.552,1.536,1.536,0,0,1-1.671,1.563c-1.926.015-3.852,0-5.779.006a2.507,2.507,0,0,0-2.712,2.726q0,20.072,0,40.143a2.514,2.514,0,0,0,2.773,2.745q34.088,0,68.176,0a2.519,2.519,0,0,0,2.78-2.816q0-19.993,0-39.987a2.533,2.533,0,0,0-2.862-2.812H468.995c-1.407,0-2.165-.543-2.173-1.554s.759-1.571,2.155-1.571c2.6,0,5.207-.028,7.809.019.681.013.8-.2.781-.818-.043-1.847.025-3.7-.033-5.544a2.063,2.063,0,0,1,1.111-2.093H489.58a2.118,2.118,0,0,1,1.11,2.171c-.059,1.795.014,3.593-.032,5.388-.017.675.118.9.86.9,8.876-.03,17.753-.021,26.63-.019a5.617,5.617,0,0,1,5.954,5.972q0,19.954,0,39.909a5.627,5.627,0,0,1-6.023,5.983q-7.731,0-15.462,0h-.925c.146.313.246.544.36.767q4.123,8.122,8.248,16.244c.811,1.6.161,2.671-1.615,2.673-3.046,0-6.092-.022-9.137.013a2,2,0,0,1-2.03-1.238c-2.1-4.2-4.242-8.381-6.376-12.565-.114-.224-.167-.509-.467-.692,0,4.244,0,8.409,0,12.574,0,1.338-.563,1.9-1.892,1.906q-4.646.006-9.293,0c-1.393,0-1.934-.544-1.935-1.941q0-5.936-.006-11.871c0-.206.084-.442-.111-.672-2.257,4.437-4.507,8.821-6.711,13.227a2.049,2.049,0,0,1-2.088,1.272c-3.019-.039-6.039-.013-9.059-.014-1.831,0-2.466-1.056-1.63-2.706q4.121-8.123,8.24-16.247c.111-.219.326-.412.237-.73h-.543q-7.965,0-15.931,0a5.6,5.6,0,0,1-5.572-3.938c-.055-.151-.013-.386-.258-.434Zm36.553,55.776c0,2.549.015,5.1-.012,7.646-.005.515.141.649.646.64,1.872-.03,3.745-.022,5.617,0,.429,0,.639-.037.636-.569q-.034-7.724,0-15.448c0-.445-.128-.565-.565-.56-1.9.022-3.8.03-5.695,0-.526-.009-.639.157-.634.652C480.689-3150.661,480.676-3148.113,480.676-3145.564Zm-4.243-8.285c-1.893,0-3.783.022-5.672-.014a.942.942,0,0,0-1.007.611q-3.853,7.655-7.742,15.292c-.1.2-.3.375-.185.672,1.863,0,3.735-.02,5.606.013a1,1,0,0,0,1.063-.645c2.54-5.059,5.112-10.1,7.67-15.153A1.236,1.236,0,0,0,476.433-3153.849Zm15.358,0c-.014.138-.026.168-.017.187q4.063,8.028,8.127,16.055a.475.475,0,0,0,.468.323c2.018-.009,4.036-.005,6.052-.005.008-.126.03-.186.011-.224q-4.048-7.992-8.1-15.982a.524.524,0,0,0-.524-.359C495.81-3153.843,493.809-3153.849,491.792-3153.849Zm-7.716-51.865c.987,0,1.975-.02,2.961.01.414.012.528-.116.521-.525q-.036-2.143,0-4.286c.007-.416-.121-.523-.526-.519q-2.922.029-5.845,0c-.413,0-.528.116-.521.524q.035,2.143,0,4.286c-.007.416.121.531.527.519C482.153-3205.733,483.115-3205.715,484.076-3205.715Z" fill="#010101"/>
      <path id="Trazado_160079" data-name="Trazado 160079" d="M645.893-3066.175q-7.924,0-15.847,0c-1.327,0-2.126-1.049-1.658-2.146a1.564,1.564,0,0,1,1.541-.98c.564-.014,1.357.257,1.631-.11.29-.389.109-1.139.113-1.732.008-1.327,0-2.654,0-3.981.006-1.244.575-1.824,1.8-1.83,1.691-.008,3.383-.025,5.074.012.529.011.654-.156.63-.651-.04-.8-.011-1.613-.011-2.42,0-1.658.461-2.112,2.147-2.113,1.587,0,3.175-.022,4.762.013.493.011.628-.135.6-.61-.04-.648-.025-1.3,0-1.951a1.53,1.53,0,0,1,1.559-1.608q3.747-.048,7.494,0c1.022.015,1.562.705,1.563,1.841,0,4.789.016,9.577-.016,14.365,0,.655.156.852.8.792.745-.07,1.76.252,2.183-.127.487-.436.146-1.465.148-2.234.014-5.309.007-10.618.008-15.927a5.879,5.879,0,0,1,.017-.78,1.589,1.589,0,0,1,1.562-1.365,1.587,1.587,0,0,1,1.52,1.323,4.431,4.431,0,0,1,.023.7q0,9.72,0,19.44c0,1.588-.5,2.078-2.113,2.079Zm8.277-10.081c0-2.1-.013-4.209.01-6.313.005-.469-.113-.636-.605-.619-1.064.037-2.13.027-3.195,0-.413-.009-.6.074-.595.547q.025,6.43,0,12.861c0,.373.112.492.485.485,1.091-.021,2.183-.037,3.273.006.529.021.641-.163.635-.656C654.155-3072.047,654.17-3074.152,654.17-3076.256Zm-7.5,2.116c0-1.429-.013-2.858.008-4.287.006-.419-.081-.6-.549-.586-1.09.033-2.183.03-3.273,0-.442-.012-.571.123-.569.567q.028,4.287,0,8.575c0,.419.085.6.549.582,1.09-.032,2.183-.03,3.273,0,.44.012.578-.115.569-.563C646.654-3071.282,646.671-3072.711,646.671-3074.141Zm-7.5,2.763c0-.226,0-.329,0-.433-.016-.644.212-1.5-.114-1.876-.383-.44-1.264-.127-1.927-.141-.747-.016-1.751-.259-2.175.12-.491.439-.128,1.461-.15,2.23-.02.694-.241,1.625.112,2.026.41.466,1.362.126,2.078.145.694.019,1.625.24,2.025-.113C639.488-3069.832,639.1-3070.785,639.173-3071.378Z" transform="translate(-145.688 -98.453)" fill="#010101"/>
      <path id="Trazado_160080" data-name="Trazado 160080" d="M491.311-3094.749a14.29,14.29,0,0,1-14.222-13.4A14.26,14.26,0,0,1,489-3123.039c.53-.084.789-.221.769-.854-.044-1.414.569-1.958,2-1.937a16.848,16.848,0,0,1,16.219,14.623c.077.645.13,1.295.143,1.943.025,1.214-.578,1.869-1.8,1.82-.7-.028-.894.223-1,.86A14.221,14.221,0,0,1,491.311-3094.749Zm10.971-12.6a1.866,1.866,0,0,0-.844-.07c-3.147,0-6.293-.024-9.44.01a2.814,2.814,0,0,1-2.212-.9c-2.216-2.271-4.476-4.5-6.72-6.74-.2-.2-.4-.387-.608-.583a11.01,11.01,0,0,0-.682,12.34,11.177,11.177,0,0,0,11.7,5.212A11.1,11.1,0,0,0,502.283-3107.348Zm-3.382-3.2c1.769,0,3.54-.029,5.308.016.638.016.725-.2.647-.762a13.915,13.915,0,0,0-11.3-11.253c-.469-.063-.7-.015-.7.568.026,3.591.021,7.183,0,10.774,0,.5.122.679.653.669C495.309-3110.564,497.105-3110.545,498.9-3110.545Zm-9.156-2.235c0-2.391-.007-4.565.006-6.739,0-.431-.206-.454-.536-.393a11.112,11.112,0,0,0-4.2,1.756c-.287.193-.318.33-.058.587C486.5-3116.037,488.037-3114.49,489.745-3112.779Z" transform="translate(-26.052 -69.881)" fill="#010101"/>
      <path id="Trazado_160081" data-name="Trazado 160081" d="M638.833-3123.457q-4.334,0-8.667,0c-1.179,0-1.919-.623-1.9-1.583.017-.926.753-1.539,1.875-1.54q8.667,0,17.334,0c1.135,0,1.847.606,1.856,1.551s-.7,1.568-1.829,1.57Q643.167-3123.451,638.833-3123.457Z" transform="translate(-145.696 -69.286)" fill="#010101"/>
      <path id="Trazado_160082" data-name="Trazado 160082" d="M634.789-3087.548c-1.588,0-3.175.007-4.763,0a1.6,1.6,0,0,1-1.762-1.565,1.617,1.617,0,0,1,1.781-1.554q4.763-.012,9.525,0a1.6,1.6,0,0,1,1.793,1.534c.018.95-.693,1.581-1.812,1.586C637.964-3087.542,636.377-3087.548,634.789-3087.548Z" transform="translate(-145.697 -97.696)" fill="#010101"/>
      <path id="Trazado_160083" data-name="Trazado 160083" d="M524.343-3170.611a1.6,1.6,0,0,1-1.547-1.538,1.594,1.594,0,0,1,1.585-1.578,1.547,1.547,0,0,1,1.527,1.616A1.547,1.547,0,0,1,524.343-3170.611Z" transform="translate(-62.247 -31.984)" fill="#010101"/>
      <path id="Trazado_160084" data-name="Trazado 160084" d="M745.73-3123.438a1.562,1.562,0,0,1-1.559-1.59,1.589,1.589,0,0,1,1.557-1.524,1.579,1.579,0,0,1,1.559,1.6A1.564,1.564,0,0,1,745.73-3123.438Z" transform="translate(-237.404 -69.309)" fill="#010101"/>
      <path id="Trazado_160085" data-name="Trazado 160085" d="M619.155-2917.089c0-2.549.013-5.1-.011-7.646,0-.5.108-.662.634-.652,1.9.033,3.8.026,5.695,0,.437-.005.567.115.565.56q-.023,7.724,0,15.448c0,.532-.208.573-.636.569-1.872-.018-3.745-.025-5.617,0-.506.008-.652-.125-.646-.64C619.17-2911.991,619.155-2914.54,619.155-2917.089Z" transform="translate(-138.479 -228.475)" fill="#dce736"/>
      <path id="Trazado_160086" data-name="Trazado 160086" d="M543.4-2925.378a1.235,1.235,0,0,1-.266.775c-2.558,5.05-5.13,10.094-7.67,15.153a1,1,0,0,1-1.063.645c-1.871-.033-3.743-.013-5.606-.013-.114-.3.085-.476.185-.672q3.871-7.646,7.742-15.292a.942.942,0,0,1,1.007-.61C539.617-2925.357,541.507-2925.378,543.4-2925.378Z" transform="translate(-66.967 -228.471)" fill="#dce736"/>
      <path id="Trazado_160087" data-name="Trazado 160087" d="M672.368-2925.346c2.017,0,4.018.006,6.018-.007a.525.525,0,0,1,.524.36q4.047,7.993,8.1,15.982c.019.038,0,.1-.011.224-2.015,0-4.034,0-6.052.005a.475.475,0,0,1-.468-.323q-4.062-8.028-8.127-16.055C672.341-2925.178,672.354-2925.209,672.368-2925.346Z" transform="translate(-180.576 -228.503)" fill="#dce736"/>
      <path id="Trazado_160088" data-name="Trazado 160088" d="M622.565-3193.909c-.961,0-1.923-.019-2.883.009-.406.012-.534-.1-.526-.52q.038-2.142,0-4.286c-.007-.408.108-.529.521-.524q2.922.031,5.845,0c.405,0,.534.1.526.519q-.038,2.143,0,4.286c.007.409-.107.537-.521.525C624.54-3193.929,623.552-3193.909,622.565-3193.909Z" transform="translate(-138.488 -11.805)" fill="#dce736"/>
      <path id="Trazado_160089" data-name="Trazado 160089" d="M735.768-3051.513c0,2.1-.015,4.209.011,6.313.006.493-.106.677-.635.656-1.09-.042-2.182-.026-3.273-.005-.373.007-.486-.112-.485-.485q.017-6.431,0-12.861c0-.473.182-.556.595-.547,1.065.023,2.131.033,3.195,0,.493-.017.61.149.605.619C735.755-3055.722,735.768-3053.617,735.768-3051.513Z" transform="translate(-227.286 -123.196)" fill="#f85316"/>
      <path id="Trazado_160090" data-name="Trazado 160090" d="M699.858-3033.576c0,1.429-.017,2.858.01,4.287.009.448-.129.575-.569.563-1.09-.03-2.183-.032-3.273,0-.464.014-.552-.162-.549-.582q.023-4.287,0-8.574c0-.445.126-.579.569-.567,1.091.029,2.183.032,3.273,0,.469-.014.556.167.549.586C699.844-3036.435,699.858-3035.005,699.858-3033.576Z" transform="translate(-198.875 -139.018)" fill="#3d46c2"/>
      <path id="Trazado_160091" data-name="Trazado 160091" d="M663.6-3011.516c-.069.593.315,1.546-.151,1.957-.4.353-1.331.132-2.025.113-.716-.019-1.668.321-2.078-.145-.352-.4-.131-1.331-.112-2.026.022-.768-.341-1.791.15-2.23.424-.379,1.428-.136,2.175-.12.664.014,1.545-.3,1.927.141.326.375.1,1.232.114,1.876C663.6-3011.845,663.6-3011.741,663.6-3011.516Z" transform="translate(-170.111 -158.316)" fill="#75b62f"/>
      <path id="Trazado_160092" data-name="Trazado 160092" d="M514.271-3068.693a11.1,11.1,0,0,1-8.808,9.271,11.178,11.178,0,0,1-11.7-5.212,11.01,11.01,0,0,1,.682-12.34c.2.2.41.385.608.583,2.244,2.243,4.5,4.47,6.72,6.74a2.813,2.813,0,0,0,2.212.9c3.146-.034,6.293-.015,9.44-.01A1.87,1.87,0,0,1,514.271-3068.693Z" transform="translate(-38.04 -108.536)" fill="#75b62f"/>
      <path id="Trazado_160093" data-name="Trazado 160093" d="M558.808-3098.166c-1.8,0-3.591-.02-5.387.012-.531.01-.655-.173-.653-.669.017-3.591.022-7.182,0-10.774,0-.583.226-.631.7-.568a13.915,13.915,0,0,1,11.3,11.253c.079.564-.009.778-.647.762C562.348-3098.2,560.578-3098.166,558.808-3098.166Z" transform="translate(-85.959 -82.259)" fill="#f85316"/>
      <path id="Trazado_160094" data-name="Trazado 160094" d="M519.026-3090.442c-1.708-1.711-3.243-3.257-4.792-4.79-.26-.256-.229-.394.058-.586a11.111,11.111,0,0,1,4.2-1.756c.33-.062.539-.038.536.393C519.019-3095.007,519.026-3092.833,519.026-3090.442Z" transform="translate(-55.333 -92.218)" fill="#3d46c2"/>
    </g>
  </g>
</svg>
