<svg xmlns="http://www.w3.org/2000/svg" width="164.029" height="164.809" viewBox="0 0 164.029 164.809">
  <g id="Grupo_109736" data-name="Grupo 109736" transform="translate(-470.845 2110.934)">
    <path id="Trazado_160191" data-name="Trazado 160191" d="M66.772,0c36.805-.072,66.583,29.472,66.511,65.987s-29.967,66.176-66.772,66.248S-.072,102.764,0,66.248,29.967.072,66.772,0Z" transform="matrix(0.229, -0.973, 0.973, 0.229, 473.25, -1978.781)" fill="#f6f6f6" stroke="#75b62f" stroke-width="4"/>
    <g id="Grupo_109719" data-name="Grupo 109719" transform="translate(153.497 1024.8)">
      <path id="Trazado_160047" data-name="Trazado 160047" d="M652.366-2845.762a2.081,2.081,0,0,1-.937-2.028c.032-6.429.01-12.857.03-19.286,0-.555-.087-.817-.706-.73-.408.058-.832,0-1.247.014a1.54,1.54,0,0,1-1.6-.875,1.573,1.573,0,0,1,.3-1.738q2.862-3.7,5.7-7.423c.491-.64.969-1.289,1.473-1.918a1.486,1.486,0,0,1,2.56-.042c2.44,3.142,4.848,6.309,7.272,9.464a1.49,1.49,0,0,1,.2,1.74,1.538,1.538,0,0,1-1.5.793c-.645-.006-1.516-.221-1.877.107-.424.386-.129,1.271-.13,1.938-.01,5.986-.028,11.973.015,17.958.007,1.029-.227,1.737-1.271,2.024h-.156c-.381-.375-.934-.618-.957-1.264q.011-10.612.022-21.223c0-.234-.012-.469.005-.7a1.153,1.153,0,0,1,1.194-1.177c.5-.024,1.011,0,1.653,0l-5.729-7.465-5.723,7.464c.634,0,1.1-.013,1.569,0a1.149,1.149,0,0,1,1.259,1.262c.018,1.378,0,2.757.006,4.136q.011,8.856.023,17.711c-.051.807-.662,1.042-1.288,1.26Z" transform="translate(-226.886 -171.565)" fill="#030202"/>
      <path id="Trazado_160048" data-name="Trazado 160048" d="M620.995-2869a1.252,1.252,0,0,1-.092,1.876c-1.672,1.492-1.988,3.335-1.954,5.514.119,7.7.038,15.411.059,23.117a1.657,1.657,0,0,1-.8,1.632h-.781a1.575,1.575,0,0,1-.8-1.408c.008-.259.024-.518.024-.778q0-11.424,0-22.849c.008-4.339-.363-3.2,2.391-6.635l.05-.06C619.734-2869.345,620.064-2869.416,620.995-2869Z" transform="translate(-202.256 -180.463)" fill="#030202"/>
      <path id="Trazado_160049" data-name="Trazado 160049" d="M481.254-3027.914c-.011,1.959-.047,3.918-.02,5.877a1.364,1.364,0,0,1-1.128,1.573c-.992-.281-1.221-.569-1.222-1.594q-.006-4.8,0-9.606a2.507,2.507,0,0,0-.221-1.129,4.984,4.984,0,0,1-.458-2.193c.006-2.786-.008-5.571.005-8.357a5.318,5.318,0,0,1,3.368-5.146,5.251,5.251,0,0,1,5.948,1.275c.3.3.414.286.706.005a5.324,5.324,0,0,1,7.849.042c.276.262.378.244.642-.016a5.333,5.333,0,0,1,7.8-.065c.391.39.513.253.819-.044a5.415,5.415,0,0,1,9.054,2.359,12.527,12.527,0,0,1,.187,4.039,2.616,2.616,0,0,0,1.316,2.692,7.162,7.162,0,0,1,3.212,6.185c.056,3.7.028,7.393.008,11.09a6.089,6.089,0,0,1-1.387,3.891c-.934,1.152-1.884,2.291-2.81,3.449a1.316,1.316,0,0,1-1.705.5,1.27,1.27,0,0,1-.067-2.031q1.329-1.634,2.668-3.261a4.146,4.146,0,0,0,.969-2.731c0-3.539.016-7.078-.005-10.617a5.551,5.551,0,0,0-5.761-5.747c-1.847-.007-3.695-.011-5.542,0a2.762,2.762,0,0,0-2.921,2.78,2.8,2.8,0,0,0,2.883,2.843c1.2.024,2.394.011,3.59,0a1.116,1.116,0,0,1,1.276.989,1.07,1.07,0,0,1-.935,1.3c-.385.075-.436.271-.458.573-.076,1.064-.169,2.126-.239,3.19-.091,1.387-.4,1.679-1.761,1.7a16.435,16.435,0,0,0-3.882.229,7.064,7.064,0,0,0-5.291,6.4c-.048.8-.118,1.609-.147,2.415a1.3,1.3,0,0,1-1.087,1.4c-1-.164-1.292-.5-1.254-1.5.031-.832.079-1.663.156-2.491a9.258,9.258,0,0,1,5.272-7.827,9.7,9.7,0,0,1,4.994-.944c.536.024.739-.143.753-.674.018-.675.08-1.35.161-2.021.041-.336-.1-.409-.38-.4a6.446,6.446,0,0,1-2.973-.468c-.254-.116-.45.027-.664.1a5.276,5.276,0,0,1-5.8-1.312c-.332-.327-.453-.288-.76.015a5.321,5.321,0,0,1-7.677.057c-.418-.414-.577-.32-.936.03a5.339,5.339,0,0,1-4.484,1.525c-.572-.057-1.3-.646-1.609-.248s-.068,1.2-.068,1.819A.4.4,0,0,0,481.254-3027.914Zm28.52-18.562a3.062,3.062,0,0,0-3.7,3.151c-.019.961.028,1.924-.016,2.883-.025.55.2.641.679.629,1.22-.029,2.442.012,3.662-.019.611-.016,1.469.322,1.766-.1s.072-1.245.075-1.891c.008-.542.035-1.085.022-1.627A3.044,3.044,0,0,0,509.773-3046.476Zm-6.083,4.965c0-.775.06-1.553,0-2.323a2.92,2.92,0,0,0-2.821-2.669,2.941,2.941,0,0,0-3.273,2.789q-.075,4.521,0,9.043a2.93,2.93,0,0,0,3.284,2.752c.039-.257-.143-.437-.234-.645a5,5,0,0,1,2-6.441,1.736,1.736,0,0,0,1.078-2.044C503.709-3041.2,503.7-3041.357,503.69-3041.511Zm-19.682-4.981a2.956,2.956,0,0,0-3.435,2.773q-.08,4.525,0,9.051a2.942,2.942,0,0,0,3.447,2.735,2.86,2.86,0,0,0,2.639-2.7q.08-4.59,0-9.183A2.862,2.862,0,0,0,484.008-3046.492Zm8.588,0a2.991,2.991,0,0,0-3.535,2.927c-.068,2.91-.073,5.825,0,8.735a2.967,2.967,0,0,0,3.544,2.878,2.959,2.959,0,0,0,2.619-2.985q.045-4.285,0-8.571A2.985,2.985,0,0,0,492.6-3046.49Z" transform="translate(-92.73 -38.306)" fill="#030202"/>
      <path id="Trazado_160050" data-name="Trazado 160050" d="M388.944-3063.885c-.212.846-.635,1.224-1.3,1.161-.684-.065-1.067-.574-1.068-1.466,0-6.534-.015-13.067.017-19.6,0-.725-.194-.962-.892-.867-.358.049-.729-.008-1.092.012a1.5,1.5,0,0,1-1.555-.815,1.58,1.58,0,0,1,.291-1.8c1.593-2.056,3.17-4.123,4.753-6.187.792-1.032,1.577-2.068,2.376-3.094a1.521,1.521,0,0,1,2.656-.007q3.6,4.662,7.177,9.342a1.529,1.529,0,0,1,.258,1.74,1.562,1.562,0,0,1-1.552.83c-.641,0-1.482-.289-1.873.114s-.11,1.236-.11,1.88q-.013,9.175,0,18.351c0,.643-.091,1.211-.752,1.48-.746.3-1.342-.105-1.619-1.076.008-.285.022-.571.022-.857q0-10.26,0-20.521c0-1.371.34-1.709,1.688-1.723a2.627,2.627,0,0,0,1.088-.084l-5.656-7.362-5.7,7.45c.548,0,.885,0,1.222,0,1.221.006,1.594.368,1.6,1.568,0,1.821,0,3.641,0,5.462Q388.93-3071.921,388.944-3063.885Z" transform="translate(-17.309 0)" fill="#030202"/>
      <path id="Trazado_160051" data-name="Trazado 160051" d="M377.96-2843.44q.024-1.3.047-2.6c.666-.142,1.189-.459,1.191-1.217q.02-5.345,0-10.691a1.123,1.123,0,0,0-1.186-1.18c-.5-.024-1.011,0-1.653,0l5.728-7.465,5.724,7.464c-.637,0-1.1-.012-1.572,0a1.155,1.155,0,0,0-1.261,1.26c-.016.52,0,1.041,0,1.561q-.011,10.144-.023,20.288h-5.72c-.008-1.99-.011-3.98-.024-5.97C379.2-2842.946,378.922-2843.257,377.96-2843.44Z" transform="translate(-12.143 -182.562)" fill="#3d46c2"/>
      <path id="Trazado_160052" data-name="Trazado 160052" d="M401.122-3052.926q-.013-8.036-.024-16.072c0-1.821,0-3.641,0-5.461,0-1.2-.376-1.562-1.6-1.568-.337,0-.674,0-1.222,0l5.7-7.451,5.656,7.362a2.627,2.627,0,0,1-1.088.084c-1.348.014-1.688.352-1.688,1.723q0,10.26,0,20.521c0,.286-.014.571-.022.857Z" transform="translate(-29.487 -10.959)" fill="#3d46c2"/>
      <path id="Trazado_160053" data-name="Trazado 160053" d="M372.807-2846.8q.012-10.144.023-20.288c0-.52-.012-1.041,0-1.561a1.155,1.155,0,0,1,1.261-1.26c.467-.015.935,0,1.572,0l-5.724-7.464-5.728,7.465c.642,0,1.149-.019,1.653,0a1.123,1.123,0,0,1,1.186,1.18q.027,5.346,0,10.691c0,.757-.525,1.074-1.191,1.217a1.376,1.376,0,0,1-1.153-1.582c.03-2.837-.005-5.675.026-8.512.006-.554-.139-.732-.685-.671-.437.048-.884,0-1.326.012a1.538,1.538,0,0,1-1.547-.843,1.518,1.518,0,0,1,.263-1.736c2.222-2.884,4.494-5.733,6.63-8.679,1.314-1.813,2.363-1.9,3.75.018,2.086,2.886,4.31,5.674,6.491,8.492a1.675,1.675,0,0,1,.368,1.931,1.676,1.676,0,0,1-1.716.822c-1.8-.016-1.8,0-1.8,1.794q0,9.294,0,18.587c0,1.035-.431,1.533-1.262,1.489C373.21-2845.738,372.919-2846.184,372.807-2846.8Z" transform="translate(0 -171.782)" fill="#030202"/>
      <path id="Trazado_160054" data-name="Trazado 160054" d="M482.644-2900.36a1.345,1.345,0,0,1,1.128,1.594c-.039.569,0,1.144-.008,1.716a8.01,8.01,0,0,0,2.72,6.38,4.712,4.712,0,0,1,1.647,3.844c-.048,7.644-.022,15.289-.021,22.933,0,.285.016.571.025.856a1.266,1.266,0,0,1-.905,1.381,1.112,1.112,0,0,1-1.283-.512,1.769,1.769,0,0,1-.179-1.058q0-11.908.013-23.816a2.157,2.157,0,0,0-.754-1.773,10.5,10.5,0,0,1-3.6-8.459c.01-.468,0-.937,0-1.405C481.429-2899.78,481.614-2900.032,482.644-2900.36Z" transform="translate(-95.273 -155.85)" fill="#030202"/>
      <path id="Trazado_160055" data-name="Trazado 160055" d="M379.863-2755.652c.963.183,1.239.494,1.246,1.444.013,1.99.017,3.98.024,5.97-.275.913-.649,1.207-1.409,1.107-.629-.083-.952-.571-.954-1.462,0-1.872.012-3.745-.007-5.617A1.258,1.258,0,0,1,379.863-2755.652Z" transform="translate(-14.046 -270.35)" fill="#030202"/>
      <path id="Trazado_160056" data-name="Trazado 160056" d="M671.66-2836.03l-5.721,0q-.012-8.856-.023-17.711c0-1.378.012-2.757-.006-4.135a1.149,1.149,0,0,0-1.259-1.262c-.467-.016-.935,0-1.569,0l5.723-7.464,5.729,7.465c-.642,0-1.149-.019-1.653,0a1.154,1.154,0,0,0-1.194,1.177c-.017.233,0,.468-.005.7Q671.671-2846.641,671.66-2836.03Z" transform="translate(-239.014 -182.561)" fill="#3d46c2"/>
      <path id="Trazado_160057" data-name="Trazado 160057" d="M523.965-2988.394a5.551,5.551,0,0,0-5.761-5.747c-1.847-.007-3.694-.011-5.542,0a2.761,2.761,0,0,0-2.921,2.78,2.8,2.8,0,0,0,2.883,2.843c1.2.024,2.393.01,3.59,0a1.116,1.116,0,0,1,1.276.99,1.069,1.069,0,0,1-.935,1.3c-.384.075-.436.271-.458.573-.076,1.063-.169,2.126-.239,3.19-.091,1.387-.4,1.679-1.761,1.7a16.409,16.409,0,0,0-3.882.229,7.064,7.064,0,0,0-5.291,6.4c-.048.8-.118,1.609-.147,2.415a1.3,1.3,0,0,1-1.087,1.4c-1-.164-1.292-.5-1.254-1.5.031-.832.079-1.663.155-2.491a9.258,9.258,0,0,1,5.272-7.827,9.7,9.7,0,0,1,4.994-.944c.536.024.739-.143.753-.674.018-.675.08-1.35.161-2.021.041-.336-.1-.409-.38-.4a6.443,6.443,0,0,1-2.973-.469c-.254-.116-.45.028-.664.1a5.276,5.276,0,0,1-5.8-1.312c-.332-.326-.453-.288-.76.016a5.321,5.321,0,0,1-7.677.057c-.418-.414-.577-.32-.936.031a5.339,5.339,0,0,1-4.484,1.525c-.572-.057-1.3-.646-1.609-.248s-.068,1.2-.068,1.819a.393.393,0,0,0,.015.076c-.011,1.959-.047,3.918-.02,5.877a1.363,1.363,0,0,1-1.128,1.573q0,1.28,0,2.56a1.346,1.346,0,0,1,1.128,1.594c-.039.569,0,1.143-.008,1.715a8.01,8.01,0,0,0,2.72,6.38,4.712,4.712,0,0,1,1.647,3.844c-.048,7.644-.022,15.289-.02,22.933,0,.286.016.571.025.856a5.883,5.883,0,0,0,2.211.315q8.609-.016,17.218,0a7.093,7.093,0,0,0,2.081-.163c.008-.259.024-.518.024-.778q0-11.424.005-22.849c.008-4.338-.363-3.2,2.391-6.635l.05-.06c.636-.75.966-.821,1.9-.409.58-.644.9-1.526,1.746-1.928a1.27,1.27,0,0,1-.067-2.031q1.329-1.634,2.668-3.261a4.145,4.145,0,0,0,.969-2.731C523.969-2981.315,523.986-2984.854,523.965-2988.394Z" transform="translate(-99.915 -81.641)" fill="#fedece"/>
      <path id="Trazado_160058" data-name="Trazado 160058" d="M536.174-3034.4a2.985,2.985,0,0,0-2.63-2.984,2.991,2.991,0,0,0-3.535,2.927c-.068,2.911-.073,5.825,0,8.735a2.968,2.968,0,0,0,3.544,2.879,2.96,2.96,0,0,0,2.619-2.985Q536.22-3030.116,536.174-3034.4Z" transform="translate(-133.679 -47.409)" fill="#fedece"/>
      <path id="Trazado_160059" data-name="Trazado 160059" d="M495.477-3034.7a2.863,2.863,0,0,0-2.652-2.682,5.926,5.926,0,0,0-1.119,3.962,5.926,5.926,0,0,1,1.119-3.962,2.956,2.956,0,0,0-3.436,2.773q-.08,4.525,0,9.051a2.942,2.942,0,0,0,3.447,2.735,2.859,2.859,0,0,0,2.639-2.694Q495.559-3030.106,495.477-3034.7Zm-3.722,4.792c0,.633-.008,1.266-.024,1.9C491.747-3028.641,491.756-3029.273,491.755-3029.907Z" transform="translate(-101.548 -47.418)" fill="#fedece"/>
      <path id="Trazado_160060" data-name="Trazado 160060" d="M577.1-3031.931c-.025-.153-.029-.309-.043-.463a5.969,5.969,0,0,0-1.03.313,5.969,5.969,0,0,1,1.03-.313c0-.775.06-1.553,0-2.322a2.92,2.92,0,0,0-2.821-2.669,2.94,2.94,0,0,0-3.273,2.789q-.075,4.521,0,9.043a2.929,2.929,0,0,0,3.284,2.751c.039-.257-.143-.436-.234-.644a5,5,0,0,1,2-6.441A1.736,1.736,0,0,0,577.1-3031.931Z" transform="translate(-166.1 -47.423)" fill="#fedece"/>
      <path id="Trazado_160061" data-name="Trazado 160061" d="M617.8-3032.726c.009-.542.035-1.085.022-1.627a3.044,3.044,0,0,0-2.488-3.024,3.062,3.062,0,0,0-3.7,3.151c-.019.961.028,1.924-.016,2.883-.025.55.2.641.679.629,1.22-.029,2.442.012,3.662-.019.611-.016,1.469.322,1.766-.1S617.8-3032.08,617.8-3032.726Z" transform="translate(-198.291 -47.405)" fill="#fedece"/>
    </g>
  </g>
</svg>
