<svg xmlns="http://www.w3.org/2000/svg" width="155.18" height="155.18" viewBox="0 0 155.18 155.18">
  <g id="Grupo_109739" data-name="Grupo 109739" transform="translate(-679.86 1575.809)">
    <g id="Grupo_109715" data-name="Grupo 109715" transform="translate(681.86 -1573.809)">
      <path id="Trazado_158784" data-name="Trazado 158784" d="M385.489,306.992A75.59,75.59,0,1,1,309.9,231.4,75.593,75.593,0,0,1,385.489,306.992Z" transform="translate(-234.309 -231.404)" fill="#f6f6f6" stroke="#75b62f" stroke-width="4"/>
    </g>
    <g id="Grupo_109722" data-name="Grupo 109722" transform="translate(25.916 1681.134)">
      <path id="Trazado_160097" data-name="Trazado 160097" d="M758.373-3038.04a2.213,2.213,0,0,1-1.18-2.245c.05-2.931.016-5.865.018-8.8a17.117,17.117,0,0,1,14.217-17.258,15.713,15.713,0,0,1,3.3-.262c.54.01,1.08,0,1.768,0a12.2,12.2,0,0,1-3.42-6.187,11.911,11.911,0,0,1-.261-2.469c.007-2.518-.006-5.035,0-7.553a11.988,11.988,0,0,1,10.833-11.987,12,12,0,0,1,12.852,9.6,11.9,11.9,0,0,1,.229,2.474q-.02,3.61,0,7.221a11.926,11.926,0,0,1-3.366,8.564c-.069.073-.135.147-.286.313,1.513.08,2.911.016,4.3.169a17.162,17.162,0,0,1,14.787,14.814c.4,4,.1,8.017.155,12.025.012.791-.572,1.2-1.151,1.581Zm23.864-3.321a3.249,3.249,0,0,0-.1-.347q-4.334-10.52-8.662-21.042c-.176-.429-.405-.464-.818-.417a13.839,13.839,0,0,0-12.12,13.339c-.037,2.572.014,5.146-.027,7.717-.01.627.155.77.771.765,3.706-.031,7.413-.016,11.119-.016Zm5.018,0c7.173,0,14.2,0,21.223.01.446,0,.549-.139.546-.561-.02-2.738.051-5.479-.033-8.215A13.85,13.85,0,0,0,797-3063.16c-.6-.073-.8.1-1.012.613-1.736,4.266-3.5,8.521-5.257,12.778C789.586-3047,788.439-3044.224,787.255-3041.361Zm-11.115-35.5h0c0,.608-.013,1.216,0,1.824a8.673,8.673,0,0,0,7.776,8.4,8.655,8.655,0,0,0,9.18-6.394c.541-2.042.215-4.124.306-6.187.018-.406-.272-.332-.507-.339a17.148,17.148,0,0,1-7.683-2.054.859.859,0,0,0-.919.026,16.933,16.933,0,0,1-7.608,2.017c-.418.011-.586.1-.562.554C776.167-3078.295,776.14-3077.575,776.14-3076.856Zm8.685,32.677,7.879-19.1c-2.034,0-3.937.011-5.839-.009-.4,0-.439.172-.435.494.014,1.078.012,2.156,0,3.234-.009,1.178-.689,1.943-1.694,1.921a1.7,1.7,0,0,1-1.624-1.908c-.008-1.078,0-2.156,0-3.234,0-.232.084-.506-.331-.5-1.942.011-3.884,0-5.856,0C777.2-3062.309,784.392-3044.917,784.824-3044.18Zm-.008-47.292a8.662,8.662,0,0,0-8.62,7.885c-.051.533.064.722.64.677a13.8,13.8,0,0,0,6.489-2,2.393,2.393,0,0,1,2.9,0,13.788,13.788,0,0,0,6.569,2.01c.488.035.6-.121.565-.592A8.664,8.664,0,0,0,784.817-3091.472Z" transform="translate(-52.332 -98.814)" fill="#020202"/>
      <path id="Trazado_160098" data-name="Trazado 160098" d="M717.588-3200.873a1.74,1.74,0,0,1,.348,2.734,14.964,14.964,0,0,1-10.518,6.659c-.411.063-.557.17-.555.6q.021,7.343,0,14.686c0,.512.232.506.595.5,2.019-.008,4.038-.015,6.056,0a1.705,1.705,0,0,1,1.824,1.552,1.625,1.625,0,0,1-1.6,1.749q-4.272.047-8.545,0c-1.032-.011-1.63-.748-1.631-1.9q-.009-7.26,0-14.52c0-.691-.024-1.384.009-2.074.02-.428-.134-.541-.551-.6a15.262,15.262,0,0,1-12.783-12.137c-.055-.269.028-.619-.29-.8v-4.317c.316-.186.236-.534.29-.8a15.306,15.306,0,0,1,11.858-11.989,15.227,15.227,0,0,1,15.856,6.51,1.749,1.749,0,0,1-.35,2.733c-1.277.351-1.672.186-2.532-1.06a11.922,11.922,0,0,0-14.686-4.167,11.865,11.865,0,0,0-6.8,13.515,11.358,11.358,0,0,0,9.409,9.123c4.983.96,9.066-.824,12.073-4.942C715.946-3201.04,716.315-3201.225,717.588-3200.873Z" transform="translate(0 -0.016)" fill="#020202"/>
      <path id="Trazado_160099" data-name="Trazado 160099" d="M952.3-3182.434q0,4.026,0,8.051c0,1.374-.607,1.991-1.959,1.994q-3.942.01-7.884,0c-1.192,0-1.951-.668-1.941-1.676s.763-1.639,1.974-1.642c1.964-.005,3.928-.015,5.892.008.447.005.611-.085.609-.577q-.029-7.262,0-14.524c0-.489-.126-.633-.628-.7a15.307,15.307,0,0,1-12.991-14.51,15.283,15.283,0,0,1,12.255-15.546A15.284,15.284,0,0,1,965.9-3205.7a15.313,15.313,0,0,1-12.964,14.19c-.569.08-.645.288-.642.775C952.309-3187.967,952.3-3185.2,952.3-3182.434Zm-13.615-24.185a11.981,11.981,0,0,0,11.888,11.98,11.981,11.981,0,0,0,12.02-11.932,11.977,11.977,0,0,0-11.89-11.977A11.973,11.973,0,0,0,938.684-3206.619Z" transform="translate(-190.966)" fill="#020202"/>
      <path id="Trazado_160100" data-name="Trazado 160100" d="M729.23-3189.329c-1.273-.352-1.642-.167-2.536,1.057-3.007,4.118-7.09,5.9-12.073,4.942a11.358,11.358,0,0,1-9.409-9.123,11.865,11.865,0,0,1,6.8-13.515A11.922,11.922,0,0,1,726.7-3201.8c.86,1.246,1.255,1.411,2.532,1.06a12.638,12.638,0,0,1,1.1,4.021c-1.055.354-1.515.865-1.515,1.685s.458,1.33,1.515,1.686A12.841,12.841,0,0,1,729.23-3189.329Zm-16.692.259a2.022,2.022,0,0,0,1.37-.662c.836-.846,1.7-1.668,2.517-2.53.323-.34.524-.357.854-.007.8.845,1.629,1.657,2.459,2.47.9.879,1.815.957,2.554.237.759-.74.683-1.69-.228-2.615-.815-.829-1.629-1.658-2.47-2.46-.317-.3-.314-.493,0-.795.859-.822,1.7-1.668,2.527-2.521a1.67,1.67,0,0,0,.17-2.556,1.657,1.657,0,0,0-2.495.181c-.854.829-1.7,1.664-2.519,2.528-.33.349-.531.336-.854-.006-.759-.8-1.557-1.573-2.342-2.353-.992-.984-1.9-1.1-2.673-.347s-.676,1.7.292,2.672c.779.786,1.546,1.586,2.355,2.34.377.351.378.562,0,.917-.905.854-1.778,1.743-2.642,2.639a1.568,1.568,0,0,0-.377,1.828A1.707,1.707,0,0,0,712.538-3189.07Z" transform="translate(-11.641 -11.56)" fill="#f85316"/>
      <path id="Trazado_160101" data-name="Trazado 160101" d="M814.184-3157.313c-1.056-.356-1.514-.865-1.515-1.686s.459-1.331,1.515-1.685c1.151.159,1.773.729,1.8,1.645C816-3158.091,815.365-3157.477,814.184-3157.313Z" transform="translate(-95.498 -47.596)" fill="#020202"/>
      <path id="Trazado_160102" data-name="Trazado 160102" d="M793.888-2930.3h-9.831c-3.707,0-7.413-.016-11.119.016-.616.005-.781-.138-.771-.765.041-2.572-.01-5.145.027-7.717a13.839,13.839,0,0,1,12.119-13.339c.413-.047.642-.012.818.417q4.317,10.526,8.662,21.042A3.233,3.233,0,0,1,793.888-2930.3Z" transform="translate(-63.983 -209.876)" fill="#3d46c2"/>
      <path id="Trazado_160103" data-name="Trazado 160103" d="M892.665-2930.277c1.184-2.863,2.332-5.635,3.476-8.408,1.757-4.258,3.521-8.512,5.257-12.778.208-.512.414-.686,1.012-.613a13.849,13.849,0,0,1,11.991,13.033c.084,2.736.012,5.477.033,8.215,0,.422-.1.562-.546.561C906.863-2930.281,899.838-2930.277,892.665-2930.277Z" transform="translate(-157.742 -209.899)" fill="#3d46c2"/>
      <path id="Trazado_160104" data-name="Trazado 160104" d="M842.533-3030.825c0-.719.028-1.438-.01-2.155-.024-.451.145-.543.562-.554a16.932,16.932,0,0,0,7.608-2.016.859.859,0,0,1,.919-.026,17.141,17.141,0,0,0,7.683,2.054c.235.008.525-.066.507.34-.091,2.063.235,4.145-.306,6.187a8.655,8.655,0,0,1-9.18,6.394,8.673,8.673,0,0,1-7.776-8.4c-.015-.607,0-1.216,0-1.824Z" transform="translate(-118.725 -144.846)" fill="#fdbd9d"/>
      <path id="Trazado_160105" data-name="Trazado 160105" d="M854.014-2933.486c-.433-.737-7.624-18.129-7.9-19.1,1.972,0,3.914.006,5.856,0,.414,0,.33.271.331.5,0,1.078,0,2.156,0,3.234a1.7,1.7,0,0,0,1.624,1.907c1,.021,1.685-.743,1.694-1.921.008-1.078.011-2.156,0-3.234,0-.323.034-.5.435-.494,1.9.02,3.805.009,5.839.009Z" transform="translate(-121.521 -209.509)" fill="#fefefe"/>
      <path id="Trazado_160106" data-name="Trazado 160106" d="M851.416-3079.6a8.664,8.664,0,0,1,8.538,7.971c.032.471-.076.626-.565.592a13.791,13.791,0,0,1-6.57-2.01,2.392,2.392,0,0,0-2.9,0,13.8,13.8,0,0,1-6.489,2c-.576.045-.691-.144-.64-.677A8.662,8.662,0,0,1,851.416-3079.6Z" transform="translate(-118.931 -110.685)" fill="#12263f"/>
      <path id="Trazado_160107" data-name="Trazado 160107" d="M950.324-3195.031a11.973,11.973,0,0,1,12.019-11.93,11.977,11.977,0,0,1,11.89,11.977,11.981,11.981,0,0,1-12.02,11.932A11.981,11.981,0,0,1,950.324-3195.031Zm18.4-3.03a1.666,1.666,0,0,0-1-1.467,1.608,1.608,0,0,0-1.9.384c-1.47,1.464-2.944,2.923-4.393,4.408-.324.332-.517.351-.835,0-.579-.631-1.193-1.232-1.814-1.823a1.64,1.64,0,0,0-2.435-.1,1.619,1.619,0,0,0,.078,2.431q1.645,1.7,3.346,3.343a1.616,1.616,0,0,0,2.5-.025c1.969-1.943,3.914-3.91,5.872-5.864A1.961,1.961,0,0,0,968.722-3198.061Z" transform="translate(-202.606 -11.588)" fill="#dce736"/>
      <path id="Trazado_160108" data-name="Trazado 160108" d="M733.557-3168.022a1.708,1.708,0,0,1-1.5-1.04,1.568,1.568,0,0,1,.377-1.828c.864-.9,1.737-1.786,2.642-2.639.376-.355.375-.566,0-.917-.809-.754-1.575-1.554-2.355-2.34-.968-.976-1.069-1.913-.292-2.671s1.681-.637,2.673.346c.786.779,1.583,1.548,2.342,2.353.323.342.524.355.854.006.817-.864,1.665-1.7,2.519-2.528a1.657,1.657,0,0,1,2.495-.181,1.67,1.67,0,0,1-.17,2.556c-.83.852-1.667,1.7-2.527,2.521-.315.3-.318.492,0,.795.841.8,1.655,1.631,2.47,2.46.91.926.987,1.876.228,2.615-.74.72-1.658.642-2.554-.237-.83-.813-1.662-1.626-2.459-2.47-.331-.35-.531-.333-.854.007-.819.862-1.681,1.684-2.517,2.53A2.025,2.025,0,0,1,733.557-3168.022Z" transform="translate(-32.661 -32.608)" fill="#020202"/>
      <path id="Trazado_160109" data-name="Trazado 160109" d="M988.049-3172.55a1.96,1.96,0,0,1-.582,1.29c-1.958,1.954-3.9,3.922-5.872,5.864a1.616,1.616,0,0,1-2.5.025q-1.7-1.64-3.346-3.343a1.619,1.619,0,0,1-.078-2.431,1.64,1.64,0,0,1,2.435.1c.62.591,1.235,1.192,1.814,1.823.318.347.511.328.835,0,1.449-1.484,2.923-2.944,4.393-4.408a1.608,1.608,0,0,1,1.9-.384A1.666,1.666,0,0,1,988.049-3172.55Z" transform="translate(-221.932 -37.1)" fill="#020202"/>
    </g>
  </g>
</svg>
