<svg xmlns="http://www.w3.org/2000/svg" width="164.81" height="164.81" viewBox="0 0 164.81 164.81">
  <g id="Grupo_109735" data-name="Grupo 109735" transform="translate(-45.455 2109.933)">
    <g id="Grupo_109734" data-name="Grupo 109734">
      <circle id="Elipse_5277" data-name="Elipse 5277" cx="66.529" cy="66.529" r="66.529" transform="translate(47.86 -1978.008) rotate(-76.758)" fill="#f6f6f6" stroke="#75b62f" stroke-width="4"/>
      <path id="Trazado_160031" data-name="Trazado 160031" d="M373.924-3076.382c1.854-1.846,3.819-3.6,5.523-5.571a31.845,31.845,0,0,0,2.719-4.346,6.681,6.681,0,0,1,.569-.926c.462-.531.336-.922-.056-1.47a6.342,6.342,0,0,1-.7-6.286q1.919-5.007,3.886-9.995a.877.877,0,0,0-.23-1.132,7.892,7.892,0,0,1-1.584-9.048,7.866,7.866,0,0,1,7.631-4.526,7.578,7.578,0,0,1,6.94,4.966,7.766,7.766,0,0,1-1.473,8.349c-.148.174-.308.337-.549.6,1.25.237,2.4.459,3.558.674.252.047.443-.121.647-.224,2.2-1.111,4.4-2.22,6.587-3.344a4.049,4.049,0,0,0,.821-.58c3.48-3.083,6.944-6.185,10.441-9.248.508-.445.464-.647.021-1.106a7.973,7.973,0,0,1-1.482-8.683,7.878,7.878,0,0,1,7.446-4.689,7.508,7.508,0,0,1,6.972,4.423,7.755,7.755,0,0,1-.757,8.309c-.1.141-.208.276-.4.529h1.1c2.676,0,5.352-.022,8.028.015.679.01.912-.124.908-.871-.034-6.571-.01-13.142-.032-19.713a2.237,2.237,0,0,1,.827-2.037h.936c.024.042.038.1.074.123,2.908,1.451,5.82,2.893,8.726,4.349a6.724,6.724,0,0,1,2.894,1.919v.624a8.769,8.769,0,0,1-1.7,1.252c-2.777,1.34-5.511,2.77-8.293,4.1a1.252,1.252,0,0,0-.807,1.361c.023,7.633.014,15.266.014,22.9,0,1.972,0,1.948-2,1.956-.573,0-.679-.192-.672-.713.027-2.207,0-4.413.02-6.62,0-.473-.075-.689-.628-.685q-4.869.039-9.739,0a.563.563,0,0,0-.664.55c-.19,1.019-.389,2.037-.626,3.045-.111.471.035.643.494.708,1.078.154,2.149.355,3.225.522,2.643.411,3.912,1.876,3.914,4.54,0,2.882.012,5.764-.011,8.646,0,.5.118.681.642.658.933-.042,1.869-.013,2.8-.011l14.023.031v2.65q-13.326-.008-26.652-.031a1.758,1.758,0,0,0-1.463.656c-3.491,3.914-7.016,7.8-10.506,11.713a2.557,2.557,0,0,1-2.1.936c-6.182-.032-12.365-.008-18.548-.03-.607,0-.787.149-.779.771.035,2.7.016,5.4.014,8.1,0,1.262-.278,1.616-1.479,1.891-5,1.146-10.007,2.285-15,3.449-.282.066-.722-.055-.818.419l-2.657.026v-1.871a2.675,2.675,0,0,1,1.545-.927c5.029-1.131,10.051-2.3,15.081-3.426.516-.116.7-.293.7-.855-.035-2.854-.021-5.709-.013-8.564,0-1.165.492-1.638,1.667-1.657a3.133,3.133,0,0,1,.467,0c.4.054.534-.094.527-.511-.025-1.479-.007-2.958-.013-4.437a.737.737,0,0,0-.081-.439c-.277-.319-1.743-.108-2,.271q-2.138,3.2-4.274,6.4a8.064,8.064,0,0,1-.983,1.3c-2.008,1.993-4,4-6.007,6-.976.974-1.593.977-2.567,0-1.354-1.352-2.7-2.714-4.048-4.072Zm40.794-28.285a31.955,31.955,0,0,1-2.737,2.015c-3.018,1.772-6.08,3.47-9.12,5.2a2.545,2.545,0,0,1-1.33.352c-1.559-.016-3.118.01-4.676-.017-.433-.008-.659.092-.746.543-.123.635-.291,1.263-.471,1.885-.116.4,0,.534.412.593,1.1.16,2.2.385,3.3.555a4.11,4.11,0,0,1,3.864,4.518c0,2.857.013,5.714-.01,8.57,0,.5.118.655.638.651q4.442-.038,8.885,0a1.184,1.184,0,0,0,.971-.5c3.524-3.921,7.07-7.824,10.575-11.763a2.445,2.445,0,0,1,2.28-1.028c.369.052.568-.042.56-.49-.025-1.48-.009-2.96-.011-4.441,0-.151.026-.313-.126-.423a2.044,2.044,0,0,0-2,.391q-2.249,3.365-4.5,6.73a5.757,5.757,0,0,1-.676.85q-3.049,3.067-6.117,6.116c-.888.884-1.52.891-2.4.022q-1.748-1.723-3.473-3.47c-.891-.9-.881-1.542.032-2.457,1.486-1.49,2.98-2.971,4.467-4.459a3.654,3.654,0,0,0,.563-.641c1.1-1.818,2.192-3.645,3.285-5.469.122-.2.24-.382.028-.622A7,7,0,0,1,414.718-3104.667Zm-18.177,21.258c0,1.013.02,2.026-.009,3.038-.013.446.133.584.574.57.908-.029,1.819-.035,2.727,0,.507.02.662-.137.658-.652-.023-2.908-.006-5.817-.014-8.725,0-1.142-.354-1.527-1.469-1.711-1.689-.278-3.38-.542-5.063-.853-1.2-.222-1.586-.821-1.305-1.992q.571-2.381,1.2-4.749a1.425,1.425,0,0,1,1.669-1.273c1.767-.008,3.533-.014,5.3.005a2.459,2.459,0,0,0,1.324-.343c1.928-1.123,3.87-2.222,5.81-3.326,1.368-.779,1.351-.763.5-2.059-.271-.41-.485-.481-.928-.253-1.729.891-3.514,1.679-5.208,2.631a4.793,4.793,0,0,1-3.422.466c-3.313-.594-6.613-1.358-10.026-1.143a.889.889,0,0,0-.954.67c-.475,1.343-1.026,2.66-1.521,4a52.42,52.42,0,0,0-2.146,5.832,3.815,3.815,0,0,0,3.293,4.74c2.549.31,5.113.5,7.668.761a1.322,1.322,0,0,1,1.346,1.486C396.552-3085.331,396.54-3084.37,396.541-3083.409Zm34.36-33.648c-2.469,0-4.937,0-7.406,0a4.589,4.589,0,0,0-1.987.108c-.545.293-.571,1.167-.814,1.789-1.028,2.633-2.086,5.255-3.032,7.918a3.934,3.934,0,0,0,3.531,5.463c2.3.211,4.592.414,6.888.626,1.113.1,1.745.473,1.7,1.814-.059,1.816,0,3.636-.025,5.454-.009.59.138.857.785.819a23.4,23.4,0,0,1,2.571,0c.571.03.691-.2.687-.721-.021-2.909-.006-5.819-.013-8.728a1.406,1.406,0,0,0-1.318-1.625c-1.729-.326-3.467-.6-5.2-.909-1.212-.213-1.625-.758-1.4-1.95.376-1.957.783-3.908,1.2-5.858.268-1.262.636-1.548,1.911-1.549q4.833,0,9.667,0c1.858,0,1.83,0,1.855-1.887.008-.627-.184-.785-.792-.779C436.774-3117.041,433.838-3117.057,430.9-3117.057Zm-39.649,10.626a5.294,5.294,0,0,0,5.282-5.3,5.357,5.357,0,0,0-5.294-5.317,5.352,5.352,0,0,0-5.317,5.368A5.285,5.285,0,0,0,391.252-3106.431Zm38.511-18.633a5.245,5.245,0,0,0-5.3-5.254,5.238,5.238,0,0,0-5.277,5.3,5.235,5.235,0,0,0,5.363,5.3A5.248,5.248,0,0,0,429.763-3125.064Zm-40.641,39.383a12.938,12.938,0,0,1-2.9-.472c-.794-.339-1.11-.066-1.488.6-1.663,2.927-3.247,5.915-5.933,8.1-.578.471-1.445,1.049-1.474,1.613-.033.65.976,1.1,1.467,1.695.317.383.542.4.906.018,1.054-1.11,2.1-2.231,3.245-3.249C385.552-3079.7,387.012-3082.843,389.122-3085.681Zm33.121-13.153a.725.725,0,0,0-.653-.285,6.438,6.438,0,0,1-2.429-.43c-.509-.226-.715-.077-.952.365a31.183,31.183,0,0,1-7.293,9.574c-.02.016-.035.039-.055.055-.429.324-.342.614.021.94a14.093,14.093,0,0,1,1.154,1.155c.332.375.565.368.946.017a48.359,48.359,0,0,0,8.982-10.958C422.042-3098.534,422.131-3098.661,422.243-3098.833Zm27.2-36.825c-2.032-1.016-3.934-1.966-5.835-2.92-.281-.141-.48-.2-.478.241q.013,2.648,0,5.3c0,.36.113.48.462.306C445.494-3133.688,447.4-3134.635,449.445-3135.659Zm-32.278,22.23a1.623,1.623,0,0,0-.87.552c-1.64,1.466-3.265,2.949-4.923,4.4-1.224,1.067-1.247.805-.267,2.242.332.486.59.461.989.153.922-.711,1.853-1.41,2.784-2.109a1.327,1.327,0,0,0,.5-.573C415.962-3110.285,416.544-3111.8,417.167-3113.428Z" transform="translate(-286.059 1074.785)" fill="#010101"/>
      <path id="Trazado_160032" data-name="Trazado 160032" d="M386.677-2865.451c.1-.474.537-.353.818-.419,5-1.164,10-2.3,15-3.449,1.2-.275,1.478-.63,1.479-1.891,0-2.7.021-5.4-.014-8.1-.008-.621.172-.773.779-.771,6.182.022,12.365,0,18.548.03a2.557,2.557,0,0,0,2.1-.936c3.49-3.915,7.015-7.8,10.506-11.713a1.758,1.758,0,0,1,1.463-.656q13.326.04,26.652.031v27.9l-76.242,0C387.4-2865.428,387.04-2865.443,386.677-2865.451Z" transform="translate(-296.155 877.701)" fill="#f85316"/>
      <path id="Trazado_160033" data-name="Trazado 160033" d="M385.93-3142.314a15.9,15.9,0,0,1,3.89,1.4,25.41,25.41,0,0,0,4.409,1.261,8.051,8.051,0,0,1,7.613,7.538c.034,1.294-.436,1.778-1.762,1.779q-8.219.006-16.437,0c-2.467,0-4.934-.025-7.4.013a2.807,2.807,0,0,1-2.318-.775v-2.026c.193-.074.138-.253.168-.4a10.624,10.624,0,0,1,7.131-8.245,10.379,10.379,0,0,0,1.9-.555Zm13.081,9.327a4.535,4.535,0,0,0-.8-1.744,5.167,5.167,0,0,0-5.769-2,1.939,1.939,0,0,1-2.293-.605,3.528,3.528,0,0,0-.4-.375,8,8,0,0,0-12.933,4.146c-.1.438-.082.592.424.591C384.464-3132.991,391.683-3132.987,399.011-3132.987Z" transform="translate(-286.059 1074.785)" fill="#010101"/>
      <path id="Trazado_160034" data-name="Trazado 160034" d="M376.581-2759.426c.363.008.727.023,1.09.023l76.242,0c-.14.322-.421.145-.623.146-3.115.014-6.231.01-9.346.01q-34.66,0-69.319-.01c-.228,0-.528.179-.7-.146Z" transform="translate(-286.059 771.676)" fill="#fdfdfd"/>
      <path id="Trazado_160035" data-name="Trazado 160035" d="M522.136-3072.05c1.293,0,1.293,0,1.293,1.287,0,1.369,0,1.369-1.366,1.369-1.3,0-1.3,0-1.3-1.288C520.761-3072.05,520.761-3072.05,522.136-3072.05Z" transform="translate(-402.301 1019.161)" fill="#010101"/>
      <path id="Trazado_160036" data-name="Trazado 160036" d="M471.1-3072.05c1.27,0,1.27,0,1.27,1.231,0,1.425,0,1.425-1.387,1.425-1.271,0-1.271,0-1.271-1.233C469.717-3072.05,469.717-3072.05,471.1-3072.05Z" transform="translate(-361.893 1019.161)" fill="#010101"/>
      <path id="Trazado_160037" data-name="Trazado 160037" d="M497.88-3070.713c0,1.319,0,1.319-1.337,1.319s-1.322,0-1.322-1.339c0-1.318,0-1.318,1.342-1.318C497.88-3072.05,497.88-3072.05,497.88-3070.713Z" transform="translate(-382.083 1019.161)" fill="#010101"/>
      <path id="Trazado_160038" data-name="Trazado 160038" d="M435.261-2944.9c0-.961.011-1.922,0-2.882a1.322,1.322,0,0,0-1.346-1.486c-2.555-.262-5.119-.452-7.668-.761a3.815,3.815,0,0,1-3.293-4.74,52.42,52.42,0,0,1,2.146-5.832c.5-1.336,1.046-2.653,1.521-4a.889.889,0,0,1,.954-.67c3.413-.215,6.713.549,10.026,1.143a4.793,4.793,0,0,0,3.422-.466c1.694-.952,3.479-1.74,5.208-2.631.442-.228.657-.157.928.253.854,1.3.871,1.28-.5,2.059-1.939,1.1-3.882,2.2-5.81,3.326a2.459,2.459,0,0,1-1.324.343c-1.766-.019-3.533-.013-5.3-.005a1.425,1.425,0,0,0-1.669,1.273q-.62,2.369-1.2,4.749c-.281,1.172.1,1.77,1.305,1.992,1.683.311,3.374.575,5.063.853,1.115.184,1.465.569,1.469,1.711.008,2.908-.009,5.817.014,8.725,0,.515-.151.672-.658.652-.908-.036-1.819-.031-2.727,0-.44.014-.587-.124-.574-.57C435.282-2942.876,435.262-2943.89,435.261-2944.9Z" transform="translate(-324.78 936.278)" fill="#dce736"/>
      <path id="Trazado_160039" data-name="Trazado 160039" d="M596-3021.293c2.936,0,5.873.016,8.809-.013.608-.006.8.152.792.779-.025,1.886,0,1.887-1.855,1.887q-4.833,0-9.667,0c-1.275,0-1.643.288-1.911,1.549-.413,1.949-.821,3.9-1.2,5.858-.229,1.192.184,1.737,1.4,1.95,1.734.3,3.472.583,5.2.909a1.406,1.406,0,0,1,1.318,1.625c.007,2.909-.008,5.819.013,8.728,0,.522-.116.75-.687.721a23.406,23.406,0,0,0-2.571,0c-.647.038-.794-.229-.785-.819.029-1.818-.034-3.638.025-5.454.043-1.341-.589-1.711-1.7-1.814-2.3-.212-4.592-.415-6.888-.626a3.934,3.934,0,0,1-3.531-5.463c.946-2.663,2-5.285,3.032-7.918.243-.622.269-1.5.814-1.789a4.589,4.589,0,0,1,1.987-.108C591.06-3021.3,593.529-3021.293,596-3021.293Z" transform="translate(-451.155 979.02)" fill="#75b62f"/>
      <path id="Trazado_160040" data-name="Trazado 160040" d="M436.842-3010.429a5.285,5.285,0,0,1-5.329-5.247,5.352,5.352,0,0,1,5.317-5.368,5.357,5.357,0,0,1,5.294,5.317A5.294,5.294,0,0,1,436.842-3010.429Z" transform="translate(-331.649 978.783)" fill="#dce736"/>
      <path id="Trazado_160041" data-name="Trazado 160041" d="M601.727-3079.488a5.248,5.248,0,0,1-5.215,5.344,5.235,5.235,0,0,1-5.363-5.3,5.238,5.238,0,0,1,5.277-5.3A5.245,5.245,0,0,1,601.727-3079.488Z" transform="translate(-458.023 1029.209)" fill="#75b62f"/>
      <path id="Trazado_160042" data-name="Trazado 160042" d="M402.052-2872.856c-2.111,2.837-3.57,5.983-6.176,8.308-1.141,1.018-2.191,2.139-3.245,3.249-.365.384-.589.366-.906-.018-.491-.595-1.5-1.045-1.467-1.695.029-.564.9-1.142,1.474-1.613,2.686-2.188,4.27-5.177,5.933-8.1.378-.666.694-.939,1.488-.6A12.938,12.938,0,0,0,402.052-2872.856Z" transform="translate(-298.989 861.961)" fill="#dce736"/>
      <path id="Trazado_160043" data-name="Trazado 160043" d="M561.486-2936.747c-.112.172-.2.3-.279.433a48.359,48.359,0,0,1-8.982,10.958c-.381.351-.614.358-.946-.017a14.144,14.144,0,0,0-1.154-1.155c-.363-.325-.45-.616-.021-.939.02-.015.035-.038.055-.055a31.183,31.183,0,0,0,7.293-9.574c.237-.441.443-.591.952-.365a6.443,6.443,0,0,0,2.429.43A.725.725,0,0,1,561.486-2936.747Z" transform="translate(-425.302 912.698)" fill="#75b62f"/>
      <path id="Trazado_160044" data-name="Trazado 160044" d="M712.393-3121.866c-2.049,1.023-3.951,1.971-5.849,2.923-.348.175-.463.054-.462-.305q.008-2.648,0-5.3c0-.445.2-.382.478-.241C708.458-3123.831,710.361-3122.882,712.393-3121.866Z" transform="translate(-549.007 1060.991)" fill="#3d46c2"/>
      <path id="Trazado_160045" data-name="Trazado 160045" d="M555.791-3003.682c-.623,1.627-1.2,3.143-1.784,4.66a1.327,1.327,0,0,1-.5.573c-.931.7-1.863,1.4-2.784,2.109-.4.308-.657.333-.989-.153-.98-1.437-.957-1.175.267-2.242,1.658-1.446,3.282-2.929,4.923-4.4A1.624,1.624,0,0,1,555.791-3003.682Z" transform="translate(-424.683 965.038)" fill="#75b62f"/>
      <path id="Trazado_160046" data-name="Trazado 160046" d="M409.835-3122.8c-7.329,0-14.548,0-21.767.009-.505,0-.524-.153-.424-.591a8,8,0,0,1,12.933-4.146,3.509,3.509,0,0,1,.4.375,1.939,1.939,0,0,0,2.293.605,5.167,5.167,0,0,1,5.769,2A4.534,4.534,0,0,1,409.835-3122.8Z" transform="translate(-296.883 1064.601)" fill="#f5f2ea"/>
    </g>
  </g>
</svg>
