<svg xmlns="http://www.w3.org/2000/svg" width="80.357" height="90" viewBox="0 0 80.357 90">
  <g id="Grupo_109742" data-name="Grupo 109742" transform="translate(-122.86 272.118)">
    <g id="Grupo_109741" data-name="Grupo 109741">
      <path id="Trazado_160110" data-name="Trazado 160110" d="M1060.535-3567.44a1.458,1.458,0,0,1-1.236-1.641q.019-9.485,0-18.97a3.034,3.034,0,0,1,1.94-2.83h29.356a3.233,3.233,0,0,1,1.952,3.533c-.089,1.195,0,2.4-.026,3.6-.009.416.1.575.535.546.525-.035,1.054-.008,1.581-.008h36.649c2.3,0,3.253.943,3.253,3.235q0,12.7-.008,25.4c0,.586-.045.991.791,1.034a1.942,1.942,0,0,1,1.728,1.827,7.8,7.8,0,0,1,.05,1.051q0,23.421,0,46.843c0,2.249-.689,2.938-2.928,2.939h-74.528c-2.186,0-2.9-.707-2.9-2.879q0-23.509,0-47.018c0-1.914.392-2.434,2.248-2.817.509-.105.3-.43.3-.657.016-2.637.035-5.273,0-7.909a1.6,1.6,0,0,1,1.242-1.837c1.176.291,1.408.587,1.414,1.81q.016,3.31.03,6.621a9.158,9.158,0,0,1-.041,1.132c-.111.718.205.854.863.844,2.359-.038,4.718-.022,7.077-.011a8.989,8.989,0,0,1,2.429.132,2.451,2.451,0,0,1,1.354,2.446c-.015.727.023,1.456.037,2.184-.015.232-.043.465-.045.7-.011,1.365-.009,1.365,1.314,1.365h43.292c2.058,0,2.058,0,1.884-2.062.014-.728.053-1.457.037-2.184a2.449,2.449,0,0,1,1.355-2.445c.433-.046.866-.129,1.3-.131,2.751-.012,5.5-.028,8.253.01.645.009.834-.139.826-.81-.039-3.307-.018-6.614-.018-9.921,0-2.424,0-2.424-2.5-2.227-1.7-.013-3.394-.037-5.092-.037q-15.68-.005-31.36,0c-2.057,0-3.053-1.013-3.056-3.076,0-1.288-.022-2.577.011-3.865.013-.509-.084-.707-.659-.705q-13.308.029-26.617,0c-.539,0-.7.139-.684.684.038,1.492.019,2.986.012,4.479C1061.942-3568,1061.621-3567.644,1060.535-3567.44Zm1.444-20.63q0,4.569,0,9.138c-.01.262-.028.525-.029.788-.006,1.267,0,1.267,1.232,1.267q13.038,0,26.076,0a4.121,4.121,0,0,1,2.043.373,3.01,3.01,0,0,1,1.238,2.71c-.042.864.009,1.733.019,2.6-.01.41.008.822-.036,1.228-.061.557.116.742.71.742q18.98-.027,37.961,0c.6,0,.717-.2.712-.749-.024-2.782-.011-5.565-.011-8.348,0-2.407,0-2.407-2.452-2.189-.379-.017-.758-.048-1.137-.048q-17.517,0-35.034,0c-.263,0-.528.012-.79-.007a2.664,2.664,0,0,1-2.593-2.761c-.014-1.375-.047-2.753.015-4.126.031-.69-.205-.8-.834-.8-4.39.028-8.78.01-13.171.016q-6.892.01-13.783.035Q1061.944-3588.242,1061.979-3588.07Zm34.911,84.543v-.009q18.276,0,36.552.02c.825,0,1-.236,1-1.017q-.037-16.694-.017-33.388c0-4.071-.013-8.143.013-12.213,0-.629-.12-.854-.81-.847q-4.964.055-9.928-.009c-.718-.01-.885.223-.858.888.048,1.17.032,2.343.007,3.514a2.22,2.22,0,0,1-2.458,2.448q-23.46.008-46.921,0a2.217,2.217,0,0,1-2.471-2.433c-.026-1.2-.049-2.4.01-3.6.034-.688-.213-.818-.846-.812-3.251.031-6.5.039-9.753,0-.78-.01-1.024.165-1.022.992q.04,22.713,0,45.426c0,.824.167,1.069,1.038,1.066Q1078.657-3503.554,1096.89-3503.527Z" transform="translate(-933.883 3318.763)" fill="#050403"/>
      <path id="Trazado_160111" data-name="Trazado 160111" d="M1086.05-3494.636c-.014-.728-.052-1.456-.037-2.184a2.452,2.452,0,0,0-1.354-2.446c0-.175,0-.35,0-.525,0-1.531-.03-1.559-1.577-1.561l-8.754-.011q-.015-3.31-.03-6.621c-.006-1.222-.238-1.518-1.414-1.809q0-1.721,0-3.441c1.086-.2,1.407-.564,1.412-1.631.008-1.493.027-2.987-.011-4.479-.014-.545.145-.685.684-.684q13.308.025,26.617,0c.576,0,.672.2.659.705-.033,1.288-.013,2.576-.011,3.865,0,2.063,1,3.075,3.056,3.075q15.68.005,31.36,0c1.7,0,3.394.024,5.092.037a8.13,8.13,0,0,1,.406,1.606c-.01,2.9-.016,5.8.005,8.7,0,.543-.185.707-.713.7-1.815-.024-3.63,0-5.446-.011-2.169-.012-2.152-.13-2.111,2.089a2.449,2.449,0,0,0-1.355,2.445c.016.727-.023,1.456-.037,2.183Z" transform="translate(-946.234 3264.557)" fill="#75b62f"/>
      <path id="Trazado_160112" data-name="Trazado 160112" d="M1105.5-3373.611q-18.232,0-36.464.022c-.872,0-1.04-.242-1.038-1.066q.039-22.713,0-45.426c0-.827.242-1,1.022-.992,3.25.043,6.5.035,9.753,0,.633-.006.88.124.846.812-.059,1.2-.036,2.4-.01,3.6a2.217,2.217,0,0,0,2.471,2.433q23.461.008,46.921,0a2.22,2.22,0,0,0,2.458-2.448c.025-1.171.041-2.344-.007-3.514-.027-.665.14-.9.858-.888q4.964.065,9.928.009c.69-.008.814.217.81.847-.026,4.071-.013,8.142-.013,12.213q0,16.694.017,33.388c0,.781-.171,1.019-1,1.017q-18.276-.044-36.552-.02Zm3.49-25.864,3.544.012a1.437,1.437,0,0,0,1.665,1.3c1.228-.032,2.459,0,3.688-.011a2.3,2.3,0,0,0,2.521-2.505c.029-1.609.026-3.219,0-4.829a2.329,2.329,0,0,0-2.636-2.572q-12.249-.008-24.5,0a2.33,2.33,0,0,0-2.62,2.587q-.033,2.37,0,4.741a2.33,2.33,0,0,0,2.627,2.577q6.981.013,13.962,0C1108.393-3398.17,1108.648-3398.372,1108.989-3399.475Z" transform="translate(-942.493 3188.847)" fill="#3d46c2"/>
      <path id="Trazado_160113" data-name="Trazado 160113" d="M1079.169-3579.661q6.892-.018,13.783-.035c4.39-.006,8.78.012,13.171-.016.628,0,.865.109.834.8-.062,1.373-.029,2.75-.015,4.126a2.664,2.664,0,0,0,2.593,2.761c.262.019.527.007.79.007q17.517,0,35.034,0c.379,0,.758.031,1.137.048a7.206,7.206,0,0,1,.358,2.754c-.024,1.872-.048,3.747.012,5.617.026.8-.248.965-1,.964q-18.128-.035-36.257-.019c-.01-.866-.061-1.735-.019-2.6a3.01,3.01,0,0,0-1.238-2.71c0-2.064-.714-2.45-2.409-2.442-8.971.043-17.942.019-26.913.017q0-4.569,0-9.138Z" transform="translate(-950.936 3310.218)" fill="#dce736"/>
      <path id="Trazado_160114" data-name="Trazado 160114" d="M1128.77-3411.934h46.444c.175,2.062.175,2.062-1.884,2.062h-43.292c-1.323,0-1.325,0-1.314-1.365C1128.727-3411.469,1128.754-3411.7,1128.77-3411.934Z" transform="translate(-988.954 3181.854)" fill="#75b62f"/>
      <path id="Trazado_160115" data-name="Trazado 160115" d="M1209.044-3537.722q18.128,0,36.256.018c.75,0,1.024-.16,1-.964-.061-1.871-.036-3.745-.012-5.617a7.205,7.205,0,0,0-.358-2.754c2.452-.217,2.452-.217,2.452,2.189,0,2.783-.013,5.565.011,8.348,0,.548-.11.75-.712.749q-18.981-.027-37.961,0c-.594,0-.771-.184-.71-.742C1209.052-3536.9,1209.034-3537.313,1209.044-3537.722Z" transform="translate(-1050.369 3285.289)" fill="#dce736"/>
      <path id="Trazado_160116" data-name="Trazado 160116" d="M1078.935-3540.071c8.971,0,17.942.026,26.913-.017,1.695-.008,2.41.377,2.409,2.442a4.121,4.121,0,0,0-2.043-.373q-13.038.008-26.076,0c-1.236,0-1.238,0-1.232-1.267C1078.907-3539.546,1078.925-3539.809,1078.935-3540.071Z" transform="translate(-950.839 3279.903)" fill="#dce736"/>
      <path id="Trazado_160117" data-name="Trazado 160117" d="M1332.516-3474.486c-.041-2.219-.059-2.1,2.111-2.089,1.815.01,3.631-.013,5.446.011.528.007.717-.157.713-.7-.021-2.9-.016-5.8-.005-8.7a8.132,8.132,0,0,0-.406-1.606c2.5-.2,2.5-.2,2.5,2.227,0,3.307-.021,6.614.018,9.921.008.672-.181.819-.826.81-2.751-.037-5.5-.022-8.253-.01C1333.382-3474.615,1332.949-3474.531,1332.516-3474.486Z" transform="translate(-1144.864 3239.778)" fill="#75b62f"/>
      <path id="Trazado_160118" data-name="Trazado 160118" d="M1078.828-3440.567l8.754.011c1.547,0,1.576.029,1.577,1.561,0,.175,0,.35,0,.525a9,9,0,0,0-2.43-.132c-2.359-.011-4.719-.027-7.077.011-.658.01-.974-.126-.863-.844A9.158,9.158,0,0,0,1078.828-3440.567Z" transform="translate(-950.732 3203.761)" fill="#75b62f"/>
      <path id="Trazado_160119" data-name="Trazado 160119" d="M1079.149-3579.515l-.137.136Q1078.977-3579.551,1079.149-3579.515Z" transform="translate(-950.917 3310.072)" fill="#e7b700"/>
      <path id="Trazado_160120" data-name="Trazado 160120" d="M1182.726-3357.16c-.34,1.1-.6,1.3-1.747,1.306q-6.981.006-13.962,0a2.33,2.33,0,0,1-2.627-2.577q-.031-2.37,0-4.741a2.33,2.33,0,0,1,2.62-2.587q12.249-.008,24.5,0a2.329,2.329,0,0,1,2.636,2.572c.025,1.609.027,3.22,0,4.829a2.3,2.3,0,0,1-2.521,2.505c-1.229.016-2.459-.021-3.688.011a1.437,1.437,0,0,1-1.665-1.3c.284-1.066.623-1.337,1.715-1.347.936-.009,1.873-.036,2.807,0,.531.023.722-.116.7-.676a29.713,29.713,0,0,1,0-3.158c.045-.7-.215-.8-.839-.8-2.9.031-5.792.01-8.688.009-4.709,0-9.419.015-14.129-.018-.672,0-.843.175-.8.822a23.189,23.189,0,0,1,0,2.982c-.052.728.226.849.88.845,4.329-.027,8.659-.016,12.988-.013C1182.081-3358.494,1182.4-3358.252,1182.726-3357.16Z" transform="translate(-1016.23 3146.532)" fill="#050403"/>
      <path id="Trazado_160121" data-name="Trazado 160121" d="M1191.364-3348.578c-.323-1.093-.644-1.334-1.824-1.335-4.329,0-8.659-.014-12.988.013-.655,0-.932-.117-.88-.845a23.167,23.167,0,0,0,0-2.982c-.038-.647.133-.827.8-.822,4.709.033,9.419.017,14.129.018,2.9,0,5.792.022,8.688-.009.624-.007.884.1.839.8a29.778,29.778,0,0,0,0,3.158c.024.56-.168.7-.7.676-.934-.039-1.872-.012-2.808,0-1.092.01-1.431.281-1.715,1.347Z" transform="translate(-1024.868 3137.95)" fill="#fdfdfd"/>
    </g>
  </g>
</svg>
