<svg xmlns="http://www.w3.org/2000/svg" width="100" height="100" viewBox="0 0 100 100">
  <g id="Grupo_109790" data-name="Grupo 109790" transform="translate(3935.719 1636.375)">
    <path id="Trazado_160256" data-name="Trazado 160256" d="M50,0A50,50,0,1,1,0,50,50,50,0,0,1,50,0Z" transform="translate(-3935.719 -1636.375)" fill="#f6f6f6"/>
    <path id="Trazado_159987" data-name="Trazado 159987" d="M721.176-2871.656q0,12.735,0,25.471a4.586,4.586,0,0,1-3.562,4.778,5.925,5.925,0,0,1-1.344.114q-19.442.009-38.885,0a4.589,4.589,0,0,1-4.941-4.933c0-1.189-.022-2.379.01-3.567.013-.484-.1-.66-.621-.644-1.236.039-2.473.02-3.71.011a4.567,4.567,0,0,1-4.81-4.848q-.008-25.578,0-51.157a4.56,4.56,0,0,1,4.871-4.857q19.478-.008,38.956,0a4.576,4.576,0,0,1,4.905,4.9c0,1.189.027,2.379-.011,3.567-.016.517.1.705.657.683,1.211-.047,2.425-.02,3.638-.014a4.571,4.571,0,0,1,4.847,4.882Q721.183-2884.463,721.176-2871.656Zm-12.2-9.163q0-12.7,0-25.4c0-1.583-.455-2.037-2.035-2.037H668.415c-1.58,0-2.036.455-2.036,2.037q0,25.36,0,50.72c0,1.579.459,2.038,2.035,2.038h38.45c1.675,0,2.107-.432,2.107-2.11Q708.973-2868.192,708.973-2880.819Zm9.133,9.1q0-12.77,0-25.54c0-1.334-.527-1.851-1.859-1.854-1.142,0-2.286.046-3.424-.018-.676-.038-.792.193-.791.816.018,14.292-.01,28.584.032,42.876a4.8,4.8,0,0,1-5.015,5.048c-4.9-.091-9.8-.025-14.7-.025-5.374,0-10.749.01-16.123-.015-.609,0-.753.178-.729.754.045,1.092.013,2.188.013,3.281,0,1.631.446,2.077,2.069,2.077h38.453c1.626,0,2.071-.445,2.071-2.074Q718.106-2859.06,718.105-2871.723Z" transform="translate(-4577.961 1289.913)" fill="#040404"/>
    <path id="Trazado_159988" data-name="Trazado 159988" d="M722.009-2867.935q0,12.627,0,25.253c0,1.678-.432,2.11-2.107,2.11h-38.45c-1.576,0-2.035-.459-2.035-2.039q0-25.36,0-50.72c0-1.581.456-2.036,2.036-2.036h38.522c1.581,0,2.035.453,2.035,2.037Q722.01-2880.633,722.009-2867.935Zm-21.291-21.329a12.135,12.135,0,0,0-12.168,12.119,12.144,12.144,0,0,0,12.014,12.2,12.137,12.137,0,0,0,12.308-11.978A12.12,12.12,0,0,0,700.718-2889.264Zm6.132,31.175c2.494,0,4.988.011,7.482-.005a1.517,1.517,0,0,0,1.606-1.536,1.52,1.52,0,0,0-1.594-1.484q-7.554-.015-15.108,0a1.474,1.474,0,0,0-1.388.83,1.5,1.5,0,0,0,1.448,2.195C701.814-2858.073,704.332-2858.088,706.85-2858.089Zm0,6.1c-2.494,0-4.988-.005-7.482,0a1.513,1.513,0,0,0-1.681,1.523,1.468,1.468,0,0,0,1.62,1.5q7.483.015,14.965,0a1.651,1.651,0,0,0,1.012-.271,1.512,1.512,0,0,0,.565-1.7,1.483,1.483,0,0,0-1.515-1.057C711.839-2851.993,709.345-2851.987,706.85-2851.988Zm-16.858-6.1c1,0,1.994.013,2.99,0a1.475,1.475,0,0,0,1.622-1.5,1.487,1.487,0,0,0-1.6-1.526q-2.954-.022-5.909,0a1.523,1.523,0,0,0-1.606,1.541,1.52,1.52,0,0,0,1.585,1.48C688.046-2858.074,689.019-2858.09,689.992-2858.088Zm.013,9.131c1.02,0,2.041.019,3.061-.005a1.458,1.458,0,0,0,1.539-1.507,1.475,1.475,0,0,0-1.544-1.511q-2.99-.029-5.98,0a1.522,1.522,0,0,0-1.593,1.482,1.524,1.524,0,0,0,1.6,1.54C688.059-2848.941,689.032-2848.956,690.005-2848.957Z" transform="translate(-4590.998 1277.029)" fill="#f3f9ff"/>
    <path id="Trazado_159989" data-name="Trazado 159989" d="M769.83-2820.176q0,12.663,0,25.326c0,1.629-.445,2.074-2.071,2.074H729.305c-1.623,0-2.067-.446-2.069-2.077,0-1.094.032-2.189-.013-3.281-.024-.576.12-.757.73-.755,5.374.026,10.749.015,16.123.015,4.9,0,9.8-.065,14.7.025a4.8,4.8,0,0,0,5.015-5.048c-.042-14.292-.014-28.584-.032-42.876,0-.623.115-.854.791-.816,1.138.064,2.282.015,3.424.018,1.332,0,1.859.521,1.859,1.855Q769.833-2832.947,769.83-2820.176Z" transform="translate(-4629.686 1238.366)" fill="#dee4f0"/>
    <path id="Trazado_159990" data-name="Trazado 159990" d="M739.474-2863.364a12.12,12.12,0,0,1,12.154,12.343,12.137,12.137,0,0,1-12.308,11.978,12.143,12.143,0,0,1-12.014-12.2A12.134,12.134,0,0,1,739.474-2863.364Zm-.007,3.028a9.157,9.157,0,0,0-9.129,9.027,9.14,9.14,0,0,0,9.062,9.235,9.137,9.137,0,0,0,9.2-9.1A9.138,9.138,0,0,0,739.467-2860.335Z" transform="translate(-4629.754 1251.129)" fill="#020202"/>
    <path id="Trazado_159991" data-name="Trazado 159991" d="M784.281-2712.767c-2.518,0-5.036.015-7.554-.006a1.5,1.5,0,0,1-1.448-2.195,1.475,1.475,0,0,1,1.388-.83q7.554,0,15.108,0a1.52,1.52,0,0,1,1.594,1.484,1.517,1.517,0,0,1-1.606,1.536C789.27-2712.757,786.776-2712.767,784.281-2712.767Z" transform="translate(-4668.43 1131.708)" fill="#020202"/>
    <path id="Trazado_159992" data-name="Trazado 159992" d="M784.383-2667.916c2.494,0,4.988-.006,7.482,0a1.482,1.482,0,0,1,1.515,1.057,1.511,1.511,0,0,1-.565,1.7,1.653,1.653,0,0,1-1.012.271q-7.483,0-14.965,0a1.467,1.467,0,0,1-1.62-1.5,1.513,1.513,0,0,1,1.681-1.524C779.395-2667.922,781.889-2667.916,784.383-2667.916Z" transform="translate(-4668.531 1092.958)" fill="#020202"/>
    <path id="Trazado_159993" data-name="Trazado 159993" d="M715.759-2712.792c-.973,0-1.946.015-2.919-.005a1.519,1.519,0,0,1-1.585-1.48,1.522,1.522,0,0,1,1.606-1.541q2.954-.023,5.909,0a1.487,1.487,0,0,1,1.6,1.526,1.475,1.475,0,0,1-1.622,1.5C717.753-2712.777,716.756-2712.79,715.759-2712.792Z" transform="translate(-4616.765 1131.732)" fill="#020202"/>
    <path id="Trazado_159994" data-name="Trazado 159994" d="M715.769-2664.906c-.973,0-1.946.016-2.919,0a1.524,1.524,0,0,1-1.6-1.54,1.521,1.521,0,0,1,1.593-1.481q2.99-.023,5.98,0a1.475,1.475,0,0,1,1.544,1.512,1.458,1.458,0,0,1-1.539,1.506C717.811-2664.888,716.79-2664.907,715.769-2664.906Z" transform="translate(-4616.762 1092.979)" fill="#020202"/>
    <path id="Trazado_159995" data-name="Trazado 159995" d="M752.333-2847.481a9.138,9.138,0,0,1,9.131,9.166,9.137,9.137,0,0,1-9.2,9.1,9.14,9.14,0,0,1-9.062-9.235A9.157,9.157,0,0,1,752.333-2847.481Zm6.062,6.056a1.462,1.462,0,0,0-.938-1.348,1.493,1.493,0,0,0-1.746.418c-1.48,1.476-2.975,2.936-4.421,4.443-.405.422-.621.367-.966-.025-.438-.5-.921-.96-1.407-1.412a1.518,1.518,0,0,0-2.223-.027,1.511,1.511,0,0,0,.071,2.17c.958.99,1.929,1.967,2.922,2.92a1.475,1.475,0,0,0,2.268-.018c1.993-1.969,3.965-3.959,5.947-5.939A1.619,1.619,0,0,0,758.395-2841.426Z" transform="translate(-4642.62 1238.276)" fill="#dce736"/>
    <path id="Trazado_159996" data-name="Trazado 159996" d="M771.4-2822a1.618,1.618,0,0,1-.492,1.182c-1.983,1.98-3.955,3.97-5.948,5.939a1.475,1.475,0,0,1-2.268.017c-.994-.953-1.965-1.93-2.922-2.92a1.511,1.511,0,0,1-.071-2.17,1.518,1.518,0,0,1,2.223.027c.486.452.968.914,1.407,1.412.345.392.561.448.966.025,1.447-1.507,2.942-2.968,4.421-4.443a1.494,1.494,0,0,1,1.746-.418A1.463,1.463,0,0,1,771.4-2822Z" transform="translate(-4655.625 1218.847)" fill="#040404"/>
  </g>
</svg>
