<svg xmlns="http://www.w3.org/2000/svg" width="70.697" height="80" viewBox="0 0 70.697 80">
  <g id="Grupo_109723" data-name="Grupo 109723" transform="translate(-3049 8058.106)">
    <path id="Trazado_159656" data-name="Trazado 159656" d="M1889.747-570.582c.9-1.977,1.786-3.965,2.721-5.927a5.2,5.2,0,0,1,5.5-3,5.207,5.207,0,0,1,4.371,4.207,5.472,5.472,0,0,1-.514,3.457c-3.34,7.293-6.648,14.6-10.005,21.887a23.762,23.762,0,0,1-2.134,4.331c-.133.181-.071.518-.071.783q0,11.709,0,23.418c0,1.339-.334,1.678-1.666,1.678h-45.782c-1.328,0-1.658-.337-1.658-1.684,0-2.971-.015-5.942.013-8.913,0-.551-.111-.73-.7-.72-2.187.038-4.375.018-6.563.014-1.154,0-1.518-.35-1.518-1.472q0-29.981,0-59.962a7.107,7.107,0,0,1,7.29-7.262q22.08.024,44.16.078c3.674.009,6.4,2.882,6.41,6.8.022,7.131,0,14.262,0,21.392v.884Zm-2.407-17c-1.636,1.419-3.449,1.571-5.349,1.569-12.828-.014-25.655.014-38.482.005-.607,0-.75.144-.75.75q.026,31.232,0,62.463c0,.644.171.79.8.789q21.51-.028,43.019,0c.667,0,.778-.208.776-.812-.02-6.805-.013-13.611-.013-20.416v-.672c-.1-.023-.136-.042-.15-.032-1.29.885-2.57,1.783-3.868,2.656-1.013.681-1.85.273-1.986-.94-.2-1.8-.323-3.607-.632-5.385a7.875,7.875,0,0,1,.8-4.969c1.937-4.025,3.738-8.116,5.594-12.18a2.161,2.161,0,0,0,.251-.921C1887.338-572.914,1887.34-580.15,1887.34-587.584Zm-53.328,24.149q0,14.66-.013,29.319c0,.607.113.83.777.807,1.591-.055,3.187-.062,4.777,0,.76.03.974-.141.972-.944q-.041-26.12-.038-52.24a2.17,2.17,0,0,1,1.118-2.11,4.783,4.783,0,0,0,1.789-5.849,4.872,4.872,0,0,0-5.379-2.936,4.821,4.821,0,0,0-4,4.955Q1834.005-577.932,1834.012-563.435Zm10.623-24.838h.976l37.192-.026a4.21,4.21,0,0,0,4.474-3.792c.435-2.606-1.39-5.567-4.373-5.328-.885.071-1.781,0-2.672,0q-13.41-.027-26.819-.052c-3.04-.005-6.079,0-9.152,0C1846.5-593.244,1846.571-591.658,1844.636-588.272Zm43.705,40.055c.337-.038.342-.337.434-.536q4.37-9.543,8.731-19.091c.187-.408.23-.622-.275-.835-1.438-.606-2.854-1.266-4.262-1.939-.422-.2-.626-.2-.845.28q-4.368,9.633-8.785,19.245c-.2.428-.1.576.308.752,1.431.622,2.844,1.286,4.264,1.934C1888.057-548.341,1888.205-548.277,1888.341-548.217Zm11.8-25.817a3.049,3.049,0,0,0-2.208-3.152,2.9,2.9,0,0,0-3.248,1.381c-.435.8-.761,1.658-1.17,2.474-.175.349-.015.457.26.58q2.24,1.006,4.472,2.029c.195.089.433.251.55-.034A14.25,14.25,0,0,0,1900.138-574.034Zm-16.713,29.9,3.31-2.293-3.749-1.7C1883.135-546.766,1883.272-545.52,1883.424-544.134Z" transform="translate(1217.263 -7458.354)" fill="#030303"/>
    <path id="Trazado_159657" data-name="Trazado 159657" d="M1927.206-543.574c0,7.434,0,14.67.006,21.906a2.158,2.158,0,0,1-.251.921c-1.856,4.064-3.657,8.155-5.594,12.18a7.875,7.875,0,0,0-.8,4.969c.309,1.778.431,3.589.632,5.385.136,1.213.973,1.622,1.986.94,1.3-.873,2.578-1.771,3.868-2.656.014-.01.048.009.15.032v.672c0,6.805-.007,13.61.013,20.416,0,.6-.109.813-.776.812q-21.51-.033-43.019,0c-.627,0-.8-.145-.8-.789q.028-31.231,0-62.463c0-.605.143-.75.75-.75,12.827.009,25.655-.019,38.482,0C1923.757-542,1925.57-542.155,1927.206-543.574ZM1904.924-512.3a11.368,11.368,0,0,0,11.368-11.372,11.409,11.409,0,0,0-11.333-11.346,11.407,11.407,0,0,0-11.409,11.351A11.368,11.368,0,0,0,1904.924-512.3Zm-1.239,8.928q6.395,0,12.789,0a5.969,5.969,0,0,0,.888-.034,1.016,1.016,0,0,0,.937-1.04,1.018,1.018,0,0,0-.832-1.128,3.7,3.7,0,0,0-.882-.065q-12.91,0-25.821,0a3.531,3.531,0,0,0-.958.092,1,1,0,0,0-.749,1.109,1.014,1.014,0,0,0,.871,1.019,4.839,4.839,0,0,0,.887.045Q1897.25-503.37,1903.685-503.371Zm.913,8.231h13.844a6.371,6.371,0,0,0,.808-.017,1.042,1.042,0,0,0,.99-1,1.065,1.065,0,0,0-.849-1.206,2.551,2.551,0,0,0-.722-.048q-14.006,0-28.012,0a2.865,2.865,0,0,0-.8.066,1.035,1.035,0,0,0-.8,1.159,1.037,1.037,0,0,0,.967,1.021,5.911,5.911,0,0,0,.808.021Zm0,8.245h13.925a3.489,3.489,0,0,0,.806-.031,1.066,1.066,0,0,0,.917-1.154,1.067,1.067,0,0,0-1-1.076,3.6,3.6,0,0,0-.566-.009h-28.012a3.7,3.7,0,0,0-.647.016,1.055,1.055,0,0,0-.956,1.038,1.066,1.066,0,0,0,.887,1.179,3.377,3.377,0,0,0,.806.036Q1897.673-486.894,1904.6-486.9Z" transform="translate(1177.397 -7502.365)" fill="#f3f9ff"/>
    <path id="Trazado_159658" data-name="Trazado 159658" d="M1842.2-555.158q0-14.5,0-29a4.821,4.821,0,0,1,4-4.955,4.872,4.872,0,0,1,5.379,2.936,4.783,4.783,0,0,1-1.789,5.849,2.17,2.17,0,0,0-1.118,2.11q.036,26.12.038,52.24c0,.8-.213.974-.972.944-1.59-.064-3.186-.056-4.777,0-.664.023-.778-.2-.777-.807Q1842.21-540.5,1842.2-555.158Z" transform="translate(1209.08 -7466.631)" fill="#d2e1f1"/>
    <path id="Trazado_159659" data-name="Trazado 159659" d="M1889.93-580.041c1.935-3.386,1.862-4.971-.375-9.2,3.072,0,6.112,0,9.152,0q13.41.023,26.82.052c.891,0,1.788.075,2.673,0,2.983-.239,4.808,2.721,4.373,5.328a4.21,4.21,0,0,1-4.474,3.792l-37.192.026Z" transform="translate(1171.968 -7466.585)" fill="#d2e1f1"/>
    <path id="Trazado_159660" data-name="Trazado 159660" d="M2074.624-443.3c-.135-.06-.283-.124-.43-.191-1.42-.648-2.833-1.312-4.265-1.934-.4-.176-.5-.324-.308-.752q4.413-9.613,8.785-19.245c.219-.484.424-.481.845-.28,1.409.672,2.824,1.333,4.263,1.939.505.213.462.427.275.835q-4.374,9.542-8.73,19.091C2074.966-443.64,2074.96-443.341,2074.624-443.3Z" transform="translate(1030.98 -7563.269)" fill="#dce736"/>
    <path id="Trazado_159661" data-name="Trazado 159661" d="M2123.309-492.744a14.244,14.244,0,0,1-1.344,3.279c-.116.285-.355.123-.55.034q-2.234-1.018-4.472-2.029c-.275-.124-.434-.231-.26-.58.408-.815.735-1.673,1.17-2.474a2.9,2.9,0,0,1,3.248-1.381A3.048,3.048,0,0,1,2123.309-492.744Z" transform="translate(994.092 -7539.645)" fill="#f85316"/>
    <path id="Trazado_159662" data-name="Trazado 159662" d="M2068.786-357.413l-.439-3.993,3.749,1.7Z" transform="translate(1031.902 -7645.076)" fill="#f85316"/>
    <path id="Trazado_159663" data-name="Trazado 159663" d="M1944.435-481.353a11.368,11.368,0,0,1-11.375-11.367,11.407,11.407,0,0,1,11.409-11.351,11.409,11.409,0,0,1,11.333,11.346A11.368,11.368,0,0,1,1944.435-481.353Zm-.034-2.266a9.114,9.114,0,0,0,9.144-9.068,9.163,9.163,0,0,0-9.035-9.117,9.151,9.151,0,0,0-9.181,9.048A9.112,9.112,0,0,0,1944.4-483.62Z" transform="translate(1137.886 -7533.311)" fill="#030303"/>
    <path id="Trazado_159664" data-name="Trazado 159664" d="M1926.941-366.178q-6.435,0-12.87,0a4.834,4.834,0,0,1-.887-.045,1.014,1.014,0,0,1-.871-1.019,1,1,0,0,1,.749-1.109,3.53,3.53,0,0,1,.958-.092q12.91-.007,25.821,0a3.7,3.7,0,0,1,.882.065,1.018,1.018,0,0,1,.833,1.128,1.017,1.017,0,0,1-.937,1.04,5.969,5.969,0,0,1-.888.034Q1933.335-366.177,1926.941-366.178Z" transform="translate(1154.141 -7639.558)" fill="#030303"/>
    <path id="Trazado_159665" data-name="Trazado 159665" d="M1927.855-328.177h-13.763a5.912,5.912,0,0,1-.808-.021,1.036,1.036,0,0,1-.967-1.021,1.035,1.035,0,0,1,.8-1.159,2.864,2.864,0,0,1,.8-.067q14.006,0,28.012,0a2.551,2.551,0,0,1,.722.048,1.065,1.065,0,0,1,.849,1.206,1.042,1.042,0,0,1-.99,1,6.364,6.364,0,0,1-.808.017Z" transform="translate(1154.14 -7669.328)" fill="#030303"/>
    <path id="Trazado_159666" data-name="Trazado 159666" d="M1927.854-290.132q-6.922,0-13.844,0a3.373,3.373,0,0,1-.805-.036,1.066,1.066,0,0,1-.887-1.179,1.055,1.055,0,0,1,.956-1.038,3.692,3.692,0,0,1,.646-.016h28.012a3.6,3.6,0,0,1,.566.009,1.067,1.067,0,0,1,1,1.076,1.067,1.067,0,0,1-.917,1.154,3.486,3.486,0,0,1-.806.031Q1934.817-290.131,1927.854-290.132Z" transform="translate(1154.138 -7699.128)" fill="#030303"/>
    <path id="Trazado_159667" data-name="Trazado 159667" d="M1952.6-475.423a9.112,9.112,0,0,1-9.072-9.137,9.151,9.151,0,0,1,9.181-9.048,9.162,9.162,0,0,1,9.034,9.117A9.114,9.114,0,0,1,1952.6-475.423Zm-.022-17.465a1.067,1.067,0,0,0-1.1,1.153c.025.582-.227.769-.7.974a3.866,3.866,0,0,0-2.414,3.613,4.016,4.016,0,0,0,2.734,3.569,8.314,8.314,0,0,0,1.83.306,1.776,1.776,0,0,1,1.7,1.641,1.867,1.867,0,0,1-1.747,1.622,2.519,2.519,0,0,1-2.029-.809,1.121,1.121,0,0,0-1.656-.007,1.119,1.119,0,0,0,.175,1.7,4.346,4.346,0,0,0,1.6,1.075.716.716,0,0,1,.594.8,1.022,1.022,0,0,0,1.113,1.119,1.042,1.042,0,0,0,1.116-1.129c0-.508.211-.67.632-.849a3.869,3.869,0,0,0,2.449-3.978,4.094,4.094,0,0,0-3.661-3.45,10.348,10.348,0,0,1-1.2-.153,1.676,1.676,0,0,1-1.361-1.515,1.608,1.608,0,0,1,1.2-1.551,2.539,2.539,0,0,1,2.661.706,1.15,1.15,0,0,0,1.655.13,1.169,1.169,0,0,0-.04-1.73,3.669,3.669,0,0,0-1.677-1.09.9.9,0,0,1-.755-1.024A1.067,1.067,0,0,0,1952.581-492.889Z" transform="translate(1129.683 -7541.508)" fill="#dce736"/>
    <path id="Trazado_159668" data-name="Trazado 159668" d="M1970.063-490.28a1.066,1.066,0,0,1,1.117,1.124.9.9,0,0,0,.755,1.025,3.669,3.669,0,0,1,1.677,1.09,1.169,1.169,0,0,1,.04,1.73,1.15,1.15,0,0,1-1.655-.13,2.539,2.539,0,0,0-2.661-.706,1.608,1.608,0,0,0-1.2,1.551,1.677,1.677,0,0,0,1.361,1.515,10.359,10.359,0,0,0,1.2.153,4.093,4.093,0,0,1,3.661,3.45,3.869,3.869,0,0,1-2.449,3.978c-.421.179-.632.341-.632.849a1.042,1.042,0,0,1-1.117,1.129,1.022,1.022,0,0,1-1.113-1.119.716.716,0,0,0-.594-.8,4.348,4.348,0,0,1-1.6-1.075,1.119,1.119,0,0,1-.175-1.7,1.121,1.121,0,0,1,1.656.007,2.519,2.519,0,0,0,2.029.809,1.867,1.867,0,0,0,1.748-1.622,1.777,1.777,0,0,0-1.7-1.641,8.309,8.309,0,0,1-1.83-.306,4.016,4.016,0,0,1-2.735-3.57,3.867,3.867,0,0,1,2.414-3.613c.475-.2.727-.392.7-.974A1.066,1.066,0,0,1,1970.063-490.28Z" transform="translate(1112.202 -7544.115)" fill="#030303"/>
  </g>
</svg>
