<svg xmlns="http://www.w3.org/2000/svg" xmlns:xlink="http://www.w3.org/1999/xlink" width="610" height="312.001" viewBox="0 0 610 312.001">
  <defs>
    <filter id="Trazado_156548" x="13" y="88.734" width="144.722" height="140.533" filterUnits="userSpaceOnUse">
      <feOffset dy="3" input="SourceAlpha"/>
      <feGaussianBlur stdDeviation="3" result="blur"/>
      <feFlood flood-opacity="0.161"/>
      <feComposite operator="in" in2="blur"/>
      <feComposite in="SourceGraphic"/>
    </filter>
    <filter id="Trazado_156549" x="305.195" y="88.734" width="144.722" height="140.533" filterUnits="userSpaceOnUse">
      <feOffset dy="3" input="SourceAlpha"/>
      <feGaussianBlur stdDeviation="3" result="blur-2"/>
      <feFlood flood-opacity="0.161"/>
      <feComposite operator="in" in2="blur-2"/>
      <feComposite in="SourceGraphic"/>
    </filter>
    <filter id="Trazado_156550" x="452.863" y="88.734" width="144.722" height="140.533" filterUnits="userSpaceOnUse">
      <feOffset dy="3" input="SourceAlpha"/>
      <feGaussianBlur stdDeviation="3" result="blur-3"/>
      <feFlood flood-opacity="0.161"/>
      <feComposite operator="in" in2="blur-3"/>
      <feComposite in="SourceGraphic"/>
    </filter>
    <filter id="Trazado_156551" x="158.574" y="88.734" width="144.722" height="140.533" filterUnits="userSpaceOnUse">
      <feOffset dy="3" input="SourceAlpha"/>
      <feGaussianBlur stdDeviation="3" result="blur-4"/>
      <feFlood flood-opacity="0.161"/>
      <feComposite operator="in" in2="blur-4"/>
      <feComposite in="SourceGraphic"/>
    </filter>
  </defs>
  <g id="Grupo_109731" data-name="Grupo 109731" transform="translate(-247.86 4351.333)">
    <path id="Trazado_160193" data-name="Trazado 160193" d="M0,0H610V312H0Z" transform="translate(247.86 -4351.333)" fill="none"/>
    <path id="Trazado_156547" data-name="Trazado 156547" d="M976.076,868.637a2.071,2.071,0,0,1-.8-.161,2.106,2.106,0,0,1-1.293-1.947V789.583H657.287a12.209,12.209,0,0,1-12.156-12.234V647.926a12.209,12.209,0,0,1,12.156-12.234H973.981V558.746a2.108,2.108,0,0,1,1.293-1.948,2.079,2.079,0,0,1,2.282.458l152.9,153.891a2.118,2.118,0,0,1,0,2.981l-152.9,153.891A2.086,2.086,0,0,1,976.076,868.637ZM657.287,639.908a8,8,0,0,0-7.967,8.018V777.349a8,8,0,0,0,7.967,8.018H976.076a2.1,2.1,0,0,1,2.095,2.108v73.964l147.848-148.8L978.17,563.835V637.8a2.1,2.1,0,0,1-2.095,2.108Z" transform="translate(-334.951 -4907.969)" fill="#f85316"/>
    <g transform="matrix(1, 0, 0, 1, 247.86, -4351.33)" filter="url(#Trazado_156548)">
      <path id="Trazado_156548-2" data-name="Trazado 156548" d="M717.046,768.671H622.938a16.326,16.326,0,0,1-16.307-16.307V662.446a16.327,16.327,0,0,1,16.307-16.308h94.108a16.327,16.327,0,0,1,16.307,16.308v89.917A16.326,16.326,0,0,1,717.046,768.671Zm-94.108-117.3a11.084,11.084,0,0,0-11.071,11.072v89.917a11.083,11.083,0,0,0,11.071,11.071h94.108a11.083,11.083,0,0,0,11.071-11.071V662.446a11.084,11.084,0,0,0-11.071-11.072Z" transform="translate(-584.63 -551.4)" fill="#fff"/>
    </g>
    <g transform="matrix(1, 0, 0, 1, 247.86, -4351.33)" filter="url(#Trazado_156549)">
      <path id="Trazado_156549-2" data-name="Trazado 156549" d="M996.046,768.671H901.938a16.326,16.326,0,0,1-16.307-16.307V662.446a16.327,16.327,0,0,1,16.307-16.308h94.108a16.327,16.327,0,0,1,16.307,16.308v89.917A16.326,16.326,0,0,1,996.046,768.671Zm-94.108-117.3a11.084,11.084,0,0,0-11.071,11.072v89.917a11.083,11.083,0,0,0,11.071,11.071h94.108a11.083,11.083,0,0,0,11.071-11.071V662.446a11.084,11.084,0,0,0-11.071-11.072Z" transform="translate(-571.44 -551.4)" fill="#fff"/>
    </g>
    <g transform="matrix(1, 0, 0, 1, 247.86, -4351.33)" filter="url(#Trazado_156550)">
      <path id="Trazado_156550-2" data-name="Trazado 156550" d="M1137.046,768.671h-94.108a16.326,16.326,0,0,1-16.307-16.307V662.446a16.327,16.327,0,0,1,16.307-16.308h94.108a16.327,16.327,0,0,1,16.307,16.308v89.917A16.326,16.326,0,0,1,1137.046,768.671Zm-94.108-117.3a11.084,11.084,0,0,0-11.071,11.072v89.917a11.083,11.083,0,0,0,11.071,11.071h94.108a11.083,11.083,0,0,0,11.071-11.071V662.446a11.084,11.084,0,0,0-11.071-11.072Z" transform="translate(-564.77 -551.4)" fill="#fff"/>
    </g>
    <g transform="matrix(1, 0, 0, 1, 247.86, -4351.33)" filter="url(#Trazado_156551)">
      <path id="Trazado_156551-2" data-name="Trazado 156551" d="M856.046,768.671H761.938a16.326,16.326,0,0,1-16.307-16.307V662.446a16.327,16.327,0,0,1,16.307-16.308h94.108a16.327,16.327,0,0,1,16.307,16.308v89.917A16.326,16.326,0,0,1,856.046,768.671Zm-94.108-117.3a11.084,11.084,0,0,0-11.071,11.072v89.917a11.083,11.083,0,0,0,11.071,11.071h94.108a11.083,11.083,0,0,0,11.071-11.071V662.446a11.084,11.084,0,0,0-11.071-11.072Z" transform="translate(-578.06 -551.4)" fill="#fff"/>
    </g>
    <path id="Trazado_160194" data-name="Trazado 160194" d="M13.071,0h95.343a13.071,13.071,0,0,1,13.071,13.071v91.154A13.071,13.071,0,0,1,108.415,117.3H13.071A13.071,13.071,0,0,1,0,104.225V13.071A13.071,13.071,0,0,1,13.071,0Z" transform="translate(272.478 -4253.98)" fill="#3d46c2"/>
    <path id="Trazado_156552" data-name="Trazado 156552" d="M-36.08-3.63v4.2h-2.455V-11.345h4.647a5.377,5.377,0,0,1,2.361.491,3.618,3.618,0,0,1,1.567,1.4A3.89,3.89,0,0,1-29.412-7.4a3.421,3.421,0,0,1-1.2,2.761,4.992,4.992,0,0,1-3.318,1.01Zm0-1.988h2.193A2.156,2.156,0,0,0-32.4-6.076a1.666,1.666,0,0,0,.511-1.309A1.965,1.965,0,0,0-32.407-8.8a1.926,1.926,0,0,0-1.424-.556h-2.25ZM-25.386.568h-2.373V-12h2.373Zm7.077,0a2.626,2.626,0,0,1-.237-.794A2.861,2.861,0,0,1-20.78.731a3.143,3.143,0,0,1-2.156-.753,2.421,2.421,0,0,1-.855-1.9,2.5,2.5,0,0,1,1.043-2.16,5.148,5.148,0,0,1,3.015-.761h1.088v-.507a1.459,1.459,0,0,0-.315-.982,1.239,1.239,0,0,0-.994-.368,1.409,1.409,0,0,0-.937.286.973.973,0,0,0-.34.785h-2.365A2.375,2.375,0,0,1-23.12-7.05a3.137,3.137,0,0,1,1.342-1.027,4.89,4.89,0,0,1,1.947-.372,3.864,3.864,0,0,1,2.6.822,2.877,2.877,0,0,1,.961,2.311v3.837A4.232,4.232,0,0,0-15.92.428V.568Zm-1.955-1.645A2.037,2.037,0,0,0-19.3-1.31a1.532,1.532,0,0,0,.655-.626V-3.458h-.884q-1.775,0-1.89,1.227l-.008.139a.947.947,0,0,0,.311.728A1.208,1.208,0,0,0-20.264-1.077Zm7.986-7.208.074,1.023A3.091,3.091,0,0,1-9.661-8.449a2.569,2.569,0,0,1,2.095.826,3.856,3.856,0,0,1,.7,2.471V.568H-9.227V-5.094a1.534,1.534,0,0,0-.327-1.092,1.465,1.465,0,0,0-1.088-.34,1.627,1.627,0,0,0-1.5.851V.568H-14.5V-8.285ZM-1,.731A4.346,4.346,0,0,1-4.166-.463,4.246,4.246,0,0,1-5.39-3.646v-.229A5.348,5.348,0,0,1-4.874-6.26a3.783,3.783,0,0,1,1.46-1.62,4.1,4.1,0,0,1,2.156-.569A3.674,3.674,0,0,1,1.6-7.3,4.655,4.655,0,0,1,2.645-4.055v.965H-2.992A2.2,2.2,0,0,0-2.3-1.7a2.09,2.09,0,0,0,1.46.524A2.552,2.552,0,0,0,1.3-2.165l1.162,1.3A3.55,3.55,0,0,1,1.017.31,4.725,4.725,0,0,1-1,.731Zm-.27-7.274a1.478,1.478,0,0,0-1.141.477A2.468,2.468,0,0,0-2.968-4.7H.321v-.189A1.76,1.76,0,0,0-.1-6.111,1.524,1.524,0,0,0-1.266-6.543ZM9.117.568A2.626,2.626,0,0,1,8.88-.226,2.861,2.861,0,0,1,6.646.731,3.143,3.143,0,0,1,4.49-.022a2.421,2.421,0,0,1-.855-1.9A2.5,2.5,0,0,1,4.678-4.08a5.148,5.148,0,0,1,3.015-.761H8.782v-.507a1.459,1.459,0,0,0-.315-.982A1.239,1.239,0,0,0,7.472-6.7a1.409,1.409,0,0,0-.937.286.973.973,0,0,0-.34.785H3.831A2.375,2.375,0,0,1,4.306-7.05,3.137,3.137,0,0,1,5.648-8.077,4.89,4.89,0,0,1,7.6-8.449a3.864,3.864,0,0,1,2.6.822,2.877,2.877,0,0,1,.961,2.311v3.837A4.232,4.232,0,0,0,11.506.428V.568ZM7.162-1.077a2.037,2.037,0,0,0,.965-.233,1.532,1.532,0,0,0,.655-.626V-3.458H7.9q-1.775,0-1.89,1.227L6-2.092a.947.947,0,0,0,.311.728A1.208,1.208,0,0,0,7.162-1.077Zm9.491-.1a1.551,1.551,0,0,0,1.064-.36,1.261,1.261,0,0,0,.425-.957h2.217a3.033,3.033,0,0,1-.491,1.649A3.239,3.239,0,0,1,18.547.318a4.136,4.136,0,0,1-1.853.413A3.843,3.843,0,0,1,13.7-.476,4.776,4.776,0,0,1,12.6-3.81v-.155A4.721,4.721,0,0,1,13.691-7.23a3.8,3.8,0,0,1,2.986-1.219A3.724,3.724,0,0,1,19.34-7.5a3.346,3.346,0,0,1,1.019,2.516H18.142a1.625,1.625,0,0,0-.425-1.123,1.419,1.419,0,0,0-1.08-.432,1.424,1.424,0,0,0-1.248.6,3.49,3.49,0,0,0-.421,1.954v.246a3.535,3.535,0,0,0,.417,1.967A1.442,1.442,0,0,0,16.653-1.175ZM24.2.568H21.832V-8.285H24.2ZM21.693-10.576a1.164,1.164,0,0,1,.356-.875,1.337,1.337,0,0,1,.97-.344,1.34,1.34,0,0,1,.965.344,1.158,1.158,0,0,1,.36.875,1.161,1.161,0,0,1-.364.884,1.343,1.343,0,0,1-.961.344,1.343,1.343,0,0,1-.961-.344A1.161,1.161,0,0,1,21.693-10.576Zm4.091,6.636a5.25,5.25,0,0,1,.507-2.348,3.714,3.714,0,0,1,1.46-1.6,4.261,4.261,0,0,1,2.213-.565,4.031,4.031,0,0,1,2.925,1.1,4.4,4.4,0,0,1,1.264,2.978l.016.605A4.627,4.627,0,0,1,33.033-.5,3.953,3.953,0,0,1,29.981.731,3.973,3.973,0,0,1,26.925-.5a4.708,4.708,0,0,1-1.141-3.338Zm2.365.168a3.309,3.309,0,0,0,.475,1.93,1.565,1.565,0,0,0,1.358.668,1.569,1.569,0,0,0,1.342-.66,3.621,3.621,0,0,0,.483-2.11,3.276,3.276,0,0,0-.483-1.918,1.569,1.569,0,0,0-1.358-.68,1.544,1.544,0,0,0-1.342.676A3.682,3.682,0,0,0,28.148-3.773ZM30.431-12h2.577L30.742-9.464H28.819ZM37.8-8.285l.074,1.023a3.091,3.091,0,0,1,2.545-1.186,2.569,2.569,0,0,1,2.095.826,3.856,3.856,0,0,1,.7,2.471V.568H40.855V-5.094a1.534,1.534,0,0,0-.327-1.092,1.465,1.465,0,0,0-1.088-.34,1.627,1.627,0,0,0-1.5.851V.568H35.578V-8.285Zm-60.354,23.4a4.8,4.8,0,0,1-.176,1.387,3.1,3.1,0,0,1-.56,1q-.393.483-1.145,1.272a2.8,2.8,0,0,0-.843,1.6l-.016.3a1.835,1.835,0,0,0,.475,1.362,1.859,1.859,0,0,0,1.366.47,1.907,1.907,0,0,0,1.33-.462,1.55,1.55,0,0,0,.511-1.207H-20.1a2.823,2.823,0,0,1-.937,2.152,3.461,3.461,0,0,1-2.418.835A3.483,3.483,0,0,1-25.93,23a2.985,2.985,0,0,1-.875-2.287A4.269,4.269,0,0,1-25.5,17.869l.892-.925a2.762,2.762,0,0,0,.54-1.833Zm.065-2.59a.91.91,0,0,1-.225.625.843.843,0,0,1-.667.255.856.856,0,0,1-.671-.255.9.9,0,0,1-.229-.625.86.86,0,0,1,.229-.608.871.871,0,0,1,.671-.247.858.858,0,0,1,.667.247A.869.869,0,0,1-22.486,12.522ZM-8.953,15.1A7.358,7.358,0,0,1-9.5,18.078a4.6,4.6,0,0,1-1.538,1.951L-8.912,21.7l-1.072.99-2.512-2a5.111,5.111,0,0,1-1.244.147,4.553,4.553,0,0,1-2.5-.691,4.569,4.569,0,0,1-1.69-1.972,7.071,7.071,0,0,1-.618-2.966v-.859a7.282,7.282,0,0,1,.6-3.036A4.553,4.553,0,0,1-16.255,9.3a4.534,4.534,0,0,1,2.5-.7,4.613,4.613,0,0,1,2.532.7,4.486,4.486,0,0,1,1.681,2,7.348,7.348,0,0,1,.589,3.048Zm-1.571-.769a5.406,5.406,0,0,0-.839-3.244,2.792,2.792,0,0,0-2.393-1.141,2.768,2.768,0,0,0-2.336,1.133,5.232,5.232,0,0,0-.88,3.146V15.1a5.391,5.391,0,0,0,.855,3.224,2.772,2.772,0,0,0,2.377,1.178A2.777,2.777,0,0,0-11.383,18.4a5.319,5.319,0,0,0,.859-3.179ZM-1.3,19.8A3.215,3.215,0,0,1-3.9,20.839a2.752,2.752,0,0,1-2.156-.822A3.559,3.559,0,0,1-6.8,17.583v-5.76h1.514v5.719q0,2.013,1.636,2.013a2.266,2.266,0,0,0,2.307-1.293V11.823H.17v8.853H-1.27Zm7.446,1.039a3.868,3.868,0,0,1-2.929-1.182,4.388,4.388,0,0,1-1.129-3.162v-.278a5.312,5.312,0,0,1,.5-2.352A3.925,3.925,0,0,1,4,12.244a3.538,3.538,0,0,1,1.96-.585A3.316,3.316,0,0,1,8.638,12.8,4.924,4.924,0,0,1,9.6,16.053v.63h-6A3.147,3.147,0,0,0,4.363,18.8a2.4,2.4,0,0,0,1.861.806,2.636,2.636,0,0,0,1.358-.327,3.413,3.413,0,0,0,.974-.867l.925.72A3.718,3.718,0,0,1,6.143,20.839ZM5.955,12.9a2.019,2.019,0,0,0-1.538.667,3.241,3.241,0,0,0-.769,1.87H8.082v-.115a2.883,2.883,0,0,0-.622-1.788A1.9,1.9,0,0,0,5.955,12.9Zm.736-4.795H8.524L6.331,10.514l-1.219,0ZM20.649,18.327a1.114,1.114,0,0,0-.462-.953,4.45,4.45,0,0,0-1.612-.585,7.621,7.621,0,0,1-1.825-.589,2.6,2.6,0,0,1-1-.818,1.957,1.957,0,0,1-.323-1.129,2.3,2.3,0,0,1,.92-1.841,3.6,3.6,0,0,1,2.352-.753,3.7,3.7,0,0,1,2.442.777,2.469,2.469,0,0,1,.937,1.988H20.559a1.366,1.366,0,0,0-.528-1.072,1.977,1.977,0,0,0-1.33-.45,2.069,2.069,0,0,0-1.293.36,1.133,1.133,0,0,0-.466.941.918.918,0,0,0,.434.826,5.335,5.335,0,0,0,1.567.532,8.164,8.164,0,0,1,1.837.605,2.679,2.679,0,0,1,1.043.847,2.082,2.082,0,0,1,.34,1.207,2.266,2.266,0,0,1-.949,1.9,3.981,3.981,0,0,1-2.463.716,4.458,4.458,0,0,1-1.882-.376,3.061,3.061,0,0,1-1.28-1.051,2.534,2.534,0,0,1-.462-1.46H16.64a1.567,1.567,0,0,0,.61,1.207,2.365,2.365,0,0,0,1.5.446,2.441,2.441,0,0,0,1.379-.348A1.068,1.068,0,0,0,20.649,18.327Zm7.159,2.512a3.868,3.868,0,0,1-2.929-1.182,4.388,4.388,0,0,1-1.129-3.162v-.278a5.312,5.312,0,0,1,.5-2.352,3.925,3.925,0,0,1,1.407-1.62,3.538,3.538,0,0,1,1.96-.585A3.316,3.316,0,0,1,30.3,12.8a4.924,4.924,0,0,1,.957,3.256v.63h-6a3.147,3.147,0,0,0,.765,2.115,2.4,2.4,0,0,0,1.861.806,2.636,2.636,0,0,0,1.358-.327,3.413,3.413,0,0,0,.974-.867l.925.72A3.718,3.718,0,0,1,27.809,20.839ZM27.621,12.9a2.019,2.019,0,0,0-1.538.667,3.241,3.241,0,0,0-.769,1.87h4.435v-.115a2.883,2.883,0,0,0-.622-1.788A1.9,1.9,0,0,0,27.621,12.9ZM-47.625,36.283a5.2,5.2,0,0,1,.957-3.3A3.1,3.1,0,0,1-44.1,31.767a3.1,3.1,0,0,1,2.479,1.055l.065-.892h1.391V44.187h-1.514V39.965a3.177,3.177,0,0,1-2.438.982A3.053,3.053,0,0,1-46.672,39.7a5.312,5.312,0,0,1-.953-3.31Zm1.514.172a3.939,3.939,0,0,0,.642,2.389,2.043,2.043,0,0,0,1.73.867,2.267,2.267,0,0,0,2.062-1.195V34.181a2.274,2.274,0,0,0-2.045-1.17,2.058,2.058,0,0,0-1.743.871A4.288,4.288,0,0,0-46.111,36.455Zm13.844,3.453a3.215,3.215,0,0,1-2.594,1.039,2.752,2.752,0,0,1-2.156-.822,3.559,3.559,0,0,1-.749-2.434v-5.76h1.514V37.65q0,2.013,1.636,2.013a2.266,2.266,0,0,0,2.307-1.293V31.931h1.514v8.853h-1.44Zm5.416.875h-1.514V31.931h1.514Zm-1.636-11.2a.9.9,0,0,1,.225-.622.845.845,0,0,1,.667-.254.858.858,0,0,1,.671.254.894.894,0,0,1,.229.622.865.865,0,0,1-.229.614.873.873,0,0,1-.671.245.86.86,0,0,1-.667-.245A.874.874,0,0,1-28.487,29.582Zm7.732,11.365a3.868,3.868,0,0,1-2.929-1.182A4.388,4.388,0,0,1-24.814,36.6v-.278a5.312,5.312,0,0,1,.5-2.352,3.925,3.925,0,0,1,1.407-1.62,3.538,3.538,0,0,1,1.96-.585A3.316,3.316,0,0,1-18.26,32.9a4.924,4.924,0,0,1,.957,3.256v.63h-6a3.147,3.147,0,0,0,.765,2.115,2.4,2.4,0,0,0,1.861.806,2.636,2.636,0,0,0,1.358-.327,3.413,3.413,0,0,0,.974-.867l.925.72A3.718,3.718,0,0,1-20.755,40.947Zm-.188-7.937a2.019,2.019,0,0,0-1.538.667,3.241,3.241,0,0,0-.769,1.87h4.435v-.115a2.883,2.883,0,0,0-.622-1.788A1.9,1.9,0,0,0-20.944,33.011Zm9.671.278a4.536,4.536,0,0,0-.745-.057A2,2,0,0,0-14.038,34.5v6.284h-1.514V31.931h1.473l.025,1.023a2.357,2.357,0,0,1,2.111-1.186,1.546,1.546,0,0,1,.671.115Zm4.909,7.658a3.868,3.868,0,0,1-2.929-1.182A4.388,4.388,0,0,1-10.422,36.6v-.278a5.312,5.312,0,0,1,.5-2.352,3.925,3.925,0,0,1,1.407-1.62,3.538,3.538,0,0,1,1.96-.585A3.316,3.316,0,0,1-3.868,32.9a4.924,4.924,0,0,1,.957,3.256v.63h-6a3.147,3.147,0,0,0,.765,2.115,2.4,2.4,0,0,0,1.861.806,2.636,2.636,0,0,0,1.358-.327,3.413,3.413,0,0,0,.974-.867l.925.72A3.718,3.718,0,0,1-6.363,40.947Zm-.188-7.937a2.019,2.019,0,0,0-1.538.667,3.241,3.241,0,0,0-.769,1.87h4.435v-.115a2.883,2.883,0,0,0-.622-1.788A1.9,1.9,0,0,0-6.551,33.011ZM4.633,40.784H3.12V28.216H4.633Zm2.021-4.508a5.229,5.229,0,0,1,.511-2.34,3.815,3.815,0,0,1,1.424-1.6,3.875,3.875,0,0,1,2.082-.565A3.733,3.733,0,0,1,13.6,33.019a4.816,4.816,0,0,1,1.117,3.33v.106a5.275,5.275,0,0,1-.5,2.32,3.759,3.759,0,0,1-1.415,1.6,3.92,3.92,0,0,1-2.115.573A3.724,3.724,0,0,1,7.771,39.7a4.792,4.792,0,0,1-1.117-3.314Zm1.522.18a3.787,3.787,0,0,0,.683,2.365,2.186,2.186,0,0,0,1.829.892,2.173,2.173,0,0,0,1.833-.9,4.142,4.142,0,0,0,.679-2.532,3.781,3.781,0,0,0-.691-2.361,2.2,2.2,0,0,0-1.837-.9,2.174,2.174,0,0,0-1.808.892A4.111,4.111,0,0,0,8.176,36.455Zm8.076-.172a5.2,5.2,0,0,1,.957-3.293,3.061,3.061,0,0,1,2.536-1.223,3.045,3.045,0,0,1,2.528,1.145l.074-.982H23.73v8.64a3.6,3.6,0,0,1-1.019,2.708,3.759,3.759,0,0,1-2.737.99A4.553,4.553,0,0,1,18.1,43.86a3.225,3.225,0,0,1-1.4-1.121l.785-.908a2.96,2.96,0,0,0,2.381,1.2,2.319,2.319,0,0,0,1.722-.622,2.377,2.377,0,0,0,.618-1.751V39.9a3.111,3.111,0,0,1-2.479,1.047A3.024,3.024,0,0,1,17.213,39.7,5.471,5.471,0,0,1,16.252,36.283Zm1.522.172a3.969,3.969,0,0,0,.614,2.352,1.994,1.994,0,0,0,1.718.855,2.217,2.217,0,0,0,2.1-1.3V34.32a2.243,2.243,0,0,0-2.086-1.268,2.012,2.012,0,0,0-1.726.859A4.323,4.323,0,0,0,17.774,36.455Zm12.518-3.166a4.536,4.536,0,0,0-.745-.057A2,2,0,0,0,27.526,34.5v6.284H26.013V31.931h1.473l.025,1.023a2.357,2.357,0,0,1,2.111-1.186,1.546,1.546,0,0,1,.671.115Zm6.529,7.495a3.18,3.18,0,0,1-.213-.933,3.377,3.377,0,0,1-2.52,1.1,3.125,3.125,0,0,1-2.148-.74,2.4,2.4,0,0,1-.839-1.878,2.5,2.5,0,0,1,1.051-2.148,4.957,4.957,0,0,1,2.958-.765h1.473v-.7a1.7,1.7,0,0,0-.475-1.264,1.907,1.907,0,0,0-1.4-.47,2.207,2.207,0,0,0-1.358.409,1.205,1.205,0,0,0-.548.99H31.282a2.089,2.089,0,0,1,.47-1.28,3.211,3.211,0,0,1,1.276-.978,4.294,4.294,0,0,1,1.771-.36,3.5,3.5,0,0,1,2.4.765,2.76,2.76,0,0,1,.9,2.107v4.075a4.982,4.982,0,0,0,.311,1.939v.131ZM34.309,39.63a2.66,2.66,0,0,0,1.35-.368,2.227,2.227,0,0,0,.925-.957V36.488H35.4q-2.782,0-2.782,1.628a1.378,1.378,0,0,0,.475,1.113A1.824,1.824,0,0,0,34.309,39.63Zm10.44-6.341A4.536,4.536,0,0,0,44,33.232,2,2,0,0,0,41.984,34.5v6.284H40.47V31.931h1.473l.025,1.023a2.357,2.357,0,0,1,2.111-1.186,1.546,1.546,0,0,1,.671.115Zm3.166,4.126a4.883,4.883,0,0,1,.221-1.536,3.939,3.939,0,0,1,.835-1.25l1.072-1.1a2.472,2.472,0,0,0,.687-1.666,1.9,1.9,0,0,0-.45-1.343,1.7,1.7,0,0,0-1.309-.486,1.97,1.97,0,0,0-1.342.442,1.494,1.494,0,0,0-.507,1.186H45.609a2.756,2.756,0,0,1,.945-2.14,3.534,3.534,0,0,1,2.418-.814,3.336,3.336,0,0,1,2.41.829,3.006,3.006,0,0,1,.863,2.275,4.111,4.111,0,0,1-1.325,2.818l-.892.882a2.747,2.747,0,0,0-.6,1.9Zm-.065,2.6a.9.9,0,0,1,.225-.624.848.848,0,0,1,.667-.252.861.861,0,0,1,.671.252.892.892,0,0,1,.229.624.863.863,0,0,1-.229.615.877.877,0,0,1-.671.244.81.81,0,0,1-.892-.859Z" transform="translate(330.969 -4211.107)" fill="#fff"/>
    <path id="Trazado_160195" data-name="Trazado 160195" d="M13.071,0h95.343a13.071,13.071,0,0,1,13.071,13.071v91.154A13.071,13.071,0,0,1,108.415,117.3H13.071A13.071,13.071,0,0,1,0,104.225V13.071A13.071,13.071,0,0,1,13.071,0Z" transform="translate(418.052 -4253.98)" fill="#3d46c2"/>
    <path id="Trazado_156553" data-name="Trazado 156553" d="M-36.43-5.119a7.192,7.192,0,0,1-.622,3.085A4.683,4.683,0,0,1-38.831.011a4.923,4.923,0,0,1-2.655.72A4.956,4.956,0,0,1-44.129.019a4.729,4.729,0,0,1-1.8-2.033,6.986,6.986,0,0,1-.646-3.04v-.589a7.154,7.154,0,0,1,.634-3.1,4.721,4.721,0,0,1,1.792-2.054,4.929,4.929,0,0,1,2.647-.716,4.929,4.929,0,0,1,2.647.716,4.721,4.721,0,0,1,1.792,2.054,7.133,7.133,0,0,1,.634,3.089Zm-2.487-.54a5.013,5.013,0,0,0-.671-2.847A2.186,2.186,0,0,0-41.5-9.48a2.187,2.187,0,0,0-1.906.961A4.956,4.956,0,0,0-44.088-5.7v.581a5.076,5.076,0,0,0,.671,2.831,2.181,2.181,0,0,0,1.931,1.006,2.161,2.161,0,0,0,1.9-.97,5.046,5.046,0,0,0,.671-2.827Zm9.09-.409a6.424,6.424,0,0,0-.851-.065,1.732,1.732,0,0,0-1.759.908V.568H-34.8V-8.285h2.234L-32.5-7.23a2.191,2.191,0,0,1,1.972-1.219,2.478,2.478,0,0,1,.736.106Zm.638,2.144a5.188,5.188,0,0,1,.97-3.281,3.142,3.142,0,0,1,2.614-1.244,2.755,2.755,0,0,1,2.266,1l.1-.835H-21.1V.273a3.784,3.784,0,0,1-.528,2.021A3.389,3.389,0,0,1-23.11,3.6a5.221,5.221,0,0,1-2.242.45,4.854,4.854,0,0,1-1.9-.389,3.369,3.369,0,0,1-1.4-1l1.047-1.44a2.77,2.77,0,0,0,2.144.99,2.027,2.027,0,0,0,1.465-.5A1.887,1.887,0,0,0-23.47.281V-.193a2.735,2.735,0,0,1-2.152.925A3.133,3.133,0,0,1-28.2-.517a5.187,5.187,0,0,1-.986-3.31Zm2.365.176a3.231,3.231,0,0,0,.483,1.889,1.536,1.536,0,0,0,1.325.684,1.642,1.642,0,0,0,1.546-.811V-5.715A1.638,1.638,0,0,0-25-6.526a1.545,1.545,0,0,0-1.338.7A3.641,3.641,0,0,0-26.824-3.748ZM-14.15.568a2.626,2.626,0,0,1-.237-.794,2.861,2.861,0,0,1-2.234.957,3.143,3.143,0,0,1-2.156-.753,2.421,2.421,0,0,1-.855-1.9,2.5,2.5,0,0,1,1.043-2.16,5.148,5.148,0,0,1,3.015-.761h1.088v-.507A1.459,1.459,0,0,0-14.8-6.33a1.239,1.239,0,0,0-.994-.368,1.409,1.409,0,0,0-.937.286.973.973,0,0,0-.34.785h-2.365a2.375,2.375,0,0,1,.475-1.424,3.137,3.137,0,0,1,1.342-1.027,4.89,4.89,0,0,1,1.947-.372,3.864,3.864,0,0,1,2.6.822,2.877,2.877,0,0,1,.961,2.311v3.837A4.232,4.232,0,0,0-11.761.428V.568Zm-1.955-1.645a2.037,2.037,0,0,0,.965-.233,1.532,1.532,0,0,0,.655-.626V-3.458h-.884q-1.775,0-1.89,1.227l-.008.139a.947.947,0,0,0,.311.728A1.208,1.208,0,0,0-16.106-1.077ZM-8.12-8.285l.074,1.023A3.091,3.091,0,0,1-5.5-8.449a2.569,2.569,0,0,1,2.095.826,3.856,3.856,0,0,1,.7,2.471V.568H-5.068V-5.094A1.534,1.534,0,0,0-5.4-6.187a1.465,1.465,0,0,0-1.088-.34,1.627,1.627,0,0,0-1.5.851V.568h-2.365V-8.285ZM1.584.568H-.789V-8.285H1.584ZM-.928-10.576a1.164,1.164,0,0,1,.356-.875A1.337,1.337,0,0,1,.4-11.8a1.34,1.34,0,0,1,.965.344,1.158,1.158,0,0,1,.36.875,1.161,1.161,0,0,1-.364.884A1.343,1.343,0,0,1,.4-9.349a1.343,1.343,0,0,1-.961-.344A1.161,1.161,0,0,1-.928-10.576ZM6.247-1.339h4.328V.568H3.228V-.873L7.393-6.379H3.351V-8.285h7.094v1.393ZM17.187.568a2.626,2.626,0,0,1-.237-.794,2.861,2.861,0,0,1-2.234.957A3.143,3.143,0,0,1,12.56-.022a2.421,2.421,0,0,1-.855-1.9,2.5,2.5,0,0,1,1.043-2.16,5.148,5.148,0,0,1,3.015-.761h1.088v-.507a1.459,1.459,0,0,0-.315-.982,1.239,1.239,0,0,0-.994-.368,1.409,1.409,0,0,0-.937.286.973.973,0,0,0-.34.785H11.9a2.375,2.375,0,0,1,.475-1.424,3.137,3.137,0,0,1,1.342-1.027,4.89,4.89,0,0,1,1.947-.372,3.864,3.864,0,0,1,2.6.822,2.877,2.877,0,0,1,.961,2.311v3.837A4.232,4.232,0,0,0,19.576.428V.568ZM15.231-1.077A2.037,2.037,0,0,0,16.2-1.31a1.532,1.532,0,0,0,.655-.626V-3.458h-.884q-1.775,0-1.89,1.227l-.008.139a.947.947,0,0,0,.311.728A1.208,1.208,0,0,0,15.231-1.077Zm9.491-.1a1.551,1.551,0,0,0,1.064-.36,1.261,1.261,0,0,0,.425-.957h2.217a3.033,3.033,0,0,1-.491,1.649A3.239,3.239,0,0,1,26.616.318a4.136,4.136,0,0,1-1.853.413A3.843,3.843,0,0,1,21.769-.476a4.776,4.776,0,0,1-1.1-3.334v-.155A4.721,4.721,0,0,1,21.76-7.23a3.8,3.8,0,0,1,2.986-1.219A3.724,3.724,0,0,1,27.41-7.5a3.346,3.346,0,0,1,1.019,2.516H26.211a1.625,1.625,0,0,0-.425-1.123,1.419,1.419,0,0,0-1.08-.432,1.424,1.424,0,0,0-1.248.6,3.49,3.49,0,0,0-.421,1.954v.246a3.535,3.535,0,0,0,.417,1.967A1.442,1.442,0,0,0,24.722-1.175ZM32.274.568H29.9V-8.285h2.373ZM29.762-10.576a1.164,1.164,0,0,1,.356-.875,1.337,1.337,0,0,1,.97-.344,1.34,1.34,0,0,1,.965.344,1.158,1.158,0,0,1,.36.875,1.161,1.161,0,0,1-.364.884,1.343,1.343,0,0,1-.961.344,1.343,1.343,0,0,1-.961-.344A1.161,1.161,0,0,1,29.762-10.576Zm4.091,6.636a5.25,5.25,0,0,1,.507-2.348,3.714,3.714,0,0,1,1.46-1.6,4.261,4.261,0,0,1,2.213-.565,4.031,4.031,0,0,1,2.925,1.1,4.4,4.4,0,0,1,1.264,2.978l.016.605A4.627,4.627,0,0,1,41.1-.5,3.953,3.953,0,0,1,38.051.731,3.973,3.973,0,0,1,34.995-.5a4.708,4.708,0,0,1-1.141-3.338Zm2.365.168a3.309,3.309,0,0,0,.475,1.93,1.565,1.565,0,0,0,1.358.668,1.569,1.569,0,0,0,1.342-.66,3.621,3.621,0,0,0,.483-2.11,3.276,3.276,0,0,0-.483-1.918,1.569,1.569,0,0,0-1.358-.68,1.544,1.544,0,0,0-1.342.676A3.682,3.682,0,0,0,36.218-3.773ZM38.5-12h2.577L38.812-9.464H36.889Zm7.372,3.715.074,1.023a3.091,3.091,0,0,1,2.545-1.186,2.569,2.569,0,0,1,2.095.826,3.856,3.856,0,0,1,.7,2.471V.568H48.925V-5.094A1.534,1.534,0,0,0,48.6-6.187a1.465,1.465,0,0,0-1.088-.34,1.627,1.627,0,0,0-1.5.851V.568H43.647V-8.285Zm-86.831,23.4a4.8,4.8,0,0,1-.176,1.387,3.1,3.1,0,0,1-.56,1q-.393.483-1.145,1.272a2.8,2.8,0,0,0-.843,1.6l-.016.3a1.835,1.835,0,0,0,.475,1.362,1.859,1.859,0,0,0,1.366.47,1.907,1.907,0,0,0,1.33-.462,1.55,1.55,0,0,0,.511-1.207H-38.5a2.823,2.823,0,0,1-.937,2.152,3.461,3.461,0,0,1-2.418.835A3.483,3.483,0,0,1-44.338,23a2.985,2.985,0,0,1-.875-2.287A4.269,4.269,0,0,1-43.9,17.869l.892-.925a2.762,2.762,0,0,0,.54-1.833Zm.065-2.59a.91.91,0,0,1-.225.625.843.843,0,0,1-.667.255.856.856,0,0,1-.671-.255.9.9,0,0,1-.229-.625.86.86,0,0,1,.229-.608.871.871,0,0,1,.671-.247.858.858,0,0,1,.667.247A.869.869,0,0,1-40.893,12.522ZM-27.7,16.9a4.383,4.383,0,0,1-1.4,2.917,4.572,4.572,0,0,1-3.121,1.027A4.2,4.2,0,0,1-35.6,19.326a6.09,6.09,0,0,1-1.272-4.05V14.13a6.788,6.788,0,0,1,.593-2.921,4.431,4.431,0,0,1,1.681-1.935,4.682,4.682,0,0,1,2.52-.675,4.3,4.3,0,0,1,3.044,1.06A4.436,4.436,0,0,1-27.7,12.592h-1.579a3.423,3.423,0,0,0-.888-2.068,2.686,2.686,0,0,0-1.91-.64A2.811,2.811,0,0,0-34.433,11a5.113,5.113,0,0,0-.855,3.169v1.155a5.255,5.255,0,0,0,.81,3.087,2.617,2.617,0,0,0,2.266,1.146,3.023,3.023,0,0,0,2.009-.593,3.292,3.292,0,0,0,.929-2.066Zm1.505-.728a5.229,5.229,0,0,1,.511-2.34,3.815,3.815,0,0,1,1.424-1.6,3.875,3.875,0,0,1,2.082-.565,3.733,3.733,0,0,1,2.925,1.252,4.816,4.816,0,0,1,1.117,3.33v.106a5.275,5.275,0,0,1-.5,2.32,3.759,3.759,0,0,1-1.415,1.6,3.92,3.92,0,0,1-2.115.573,3.724,3.724,0,0,1-2.917-1.252,4.792,4.792,0,0,1-1.117-3.314Zm1.522.18a3.787,3.787,0,0,0,.683,2.365,2.186,2.186,0,0,0,1.829.892,2.173,2.173,0,0,0,1.833-.9,4.142,4.142,0,0,0,.679-2.532,3.781,3.781,0,0,0-.691-2.361,2.2,2.2,0,0,0-1.837-.9,2.174,2.174,0,0,0-1.808.892A4.111,4.111,0,0,0-24.668,16.347Zm3.183-8.239h1.833l-2.193,2.406-1.219,0Zm6.676,3.715.041.982a3.269,3.269,0,0,1,2.626-1.145,2.531,2.531,0,0,1,2.528,1.424,3.354,3.354,0,0,1,1.15-1.031,3.4,3.4,0,0,1,1.673-.393q2.913,0,2.962,3.085v5.932H-5.342V14.834a2.033,2.033,0,0,0-.434-1.42,1.91,1.91,0,0,0-1.456-.47,2.007,2.007,0,0,0-1.4.5A2.041,2.041,0,0,0-9.278,14.8v5.875H-10.8v-5.8a1.689,1.689,0,0,0-1.89-1.931,2.025,2.025,0,0,0-2.037,1.268v6.464h-1.514V11.823Zm12.862,4.345a5.229,5.229,0,0,1,.511-2.34,3.815,3.815,0,0,1,1.424-1.6,3.875,3.875,0,0,1,2.082-.565A3.733,3.733,0,0,1,5,12.911a4.816,4.816,0,0,1,1.117,3.33v.106a5.275,5.275,0,0,1-.5,2.32,3.759,3.759,0,0,1-1.415,1.6,3.92,3.92,0,0,1-2.115.573A3.724,3.724,0,0,1-.83,19.587a4.792,4.792,0,0,1-1.117-3.314Zm1.522.18a3.787,3.787,0,0,0,.683,2.365,2.186,2.186,0,0,0,1.829.892,2.173,2.173,0,0,0,1.833-.9A4.142,4.142,0,0,0,4.6,16.167a3.781,3.781,0,0,0-.691-2.361,2.2,2.2,0,0,0-1.837-.9,2.174,2.174,0,0,0-1.808.892A4.111,4.111,0,0,0-.425,16.347Zm15.48,2.111,2.062-6.636h1.62L15.178,22.042q-.826,2.209-2.626,2.209l-.286-.025L11.7,24.12V22.893l.409.033a2.014,2.014,0,0,0,1.2-.311,2.25,2.25,0,0,0,.708-1.137l.335-.9-3.158-8.755h1.653ZM27.786,19.6a2.18,2.18,0,0,0,1.415-.491,1.727,1.727,0,0,0,.671-1.227H31.3a2.745,2.745,0,0,1-.524,1.448,3.449,3.449,0,0,1-1.289,1.1,3.718,3.718,0,0,1-1.706.409,3.647,3.647,0,0,1-2.876-1.207,4.807,4.807,0,0,1-1.068-3.3v-.254a5.33,5.33,0,0,1,.475-2.3,3.614,3.614,0,0,1,1.362-1.563,3.87,3.87,0,0,1,2.1-.556,3.551,3.551,0,0,1,2.475.892A3.187,3.187,0,0,1,31.3,14.866H29.873a2.086,2.086,0,0,0-.65-1.411,2.024,2.024,0,0,0-1.444-.552,2.119,2.119,0,0,0-1.788.83,3.9,3.9,0,0,0-.634,2.4v.286a3.822,3.822,0,0,0,.63,2.356A2.129,2.129,0,0,0,27.786,19.6Zm4.819-3.436a5.229,5.229,0,0,1,.511-2.34,3.815,3.815,0,0,1,1.424-1.6,3.875,3.875,0,0,1,2.082-.565,3.733,3.733,0,0,1,2.925,1.252,4.816,4.816,0,0,1,1.117,3.33v.106a5.274,5.274,0,0,1-.5,2.32,3.759,3.759,0,0,1-1.415,1.6,3.92,3.92,0,0,1-2.115.573,3.724,3.724,0,0,1-2.917-1.252,4.792,4.792,0,0,1-1.117-3.314Zm1.522.18a3.787,3.787,0,0,0,.683,2.365,2.315,2.315,0,0,0,3.661-.012,4.142,4.142,0,0,0,.679-2.532,3.781,3.781,0,0,0-.691-2.361,2.2,2.2,0,0,0-1.837-.9,2.174,2.174,0,0,0-1.808.892A4.111,4.111,0,0,0,34.127,16.347Zm9.867-4.525.049,1.113a3.226,3.226,0,0,1,2.651-1.276q2.806,0,2.831,3.166v5.85H48.012V14.817a2.038,2.038,0,0,0-.438-1.415,1.754,1.754,0,0,0-1.338-.458,2.185,2.185,0,0,0-1.293.393,2.667,2.667,0,0,0-.867,1.031v6.308H42.563V11.823ZM-51.738,36.283a5.2,5.2,0,0,1,.957-3.3,3.1,3.1,0,0,1,2.569-1.215,3.1,3.1,0,0,1,2.479,1.055l.065-.892h1.391V44.187H-45.79V39.965a3.177,3.177,0,0,1-2.438.982A3.053,3.053,0,0,1-50.785,39.7a5.312,5.312,0,0,1-.953-3.31Zm1.514.172a3.939,3.939,0,0,0,.642,2.389,2.043,2.043,0,0,0,1.73.867,2.267,2.267,0,0,0,2.062-1.195V34.181a2.274,2.274,0,0,0-2.045-1.17,2.058,2.058,0,0,0-1.743.871A4.288,4.288,0,0,0-50.225,36.455Zm13.844,3.453a3.215,3.215,0,0,1-2.594,1.039,2.752,2.752,0,0,1-2.156-.822,3.559,3.559,0,0,1-.749-2.434v-5.76h1.514V37.65q0,2.013,1.636,2.013a2.266,2.266,0,0,0,2.307-1.293V31.931h1.514v8.853h-1.44Zm7.446,1.039a3.868,3.868,0,0,1-2.929-1.182A4.388,4.388,0,0,1-32.993,36.6v-.278a5.312,5.312,0,0,1,.5-2.352,3.925,3.925,0,0,1,1.407-1.62,3.538,3.538,0,0,1,1.96-.585A3.316,3.316,0,0,1-26.44,32.9a4.924,4.924,0,0,1,.957,3.256v.63h-6a3.147,3.147,0,0,0,.765,2.115,2.4,2.4,0,0,0,1.861.806,2.636,2.636,0,0,0,1.358-.327,3.413,3.413,0,0,0,.974-.867l.925.72A3.718,3.718,0,0,1-28.935,40.947Zm-.188-7.937a2.019,2.019,0,0,0-1.538.667,3.241,3.241,0,0,0-.769,1.87H-27v-.115a2.883,2.883,0,0,0-.622-1.788A1.9,1.9,0,0,0-29.123,33.011Zm.736-4.795h1.833l-2.193,2.406-1.219,0Zm12.478,12.731a3.868,3.868,0,0,1-2.929-1.182A4.388,4.388,0,0,1-19.968,36.6v-.278a5.312,5.312,0,0,1,.5-2.352,3.925,3.925,0,0,1,1.407-1.62,3.538,3.538,0,0,1,1.96-.585A3.316,3.316,0,0,1-13.414,32.9a4.924,4.924,0,0,1,.957,3.256v.63h-6a3.147,3.147,0,0,0,.765,2.115,2.4,2.4,0,0,0,1.861.806,2.636,2.636,0,0,0,1.358-.327,3.413,3.413,0,0,0,.974-.867l.925.72A3.718,3.718,0,0,1-15.909,40.947Zm-.188-7.937a2.019,2.019,0,0,0-1.538.667,3.241,3.241,0,0,0-.769,1.87h4.435v-.115a2.883,2.883,0,0,0-.622-1.788A1.9,1.9,0,0,0-16.1,33.011Zm7.036,7.773h-1.514V28.216h1.514Zm6.1.164a3.868,3.868,0,0,1-2.929-1.182A4.388,4.388,0,0,1-7.024,36.6v-.278a5.312,5.312,0,0,1,.5-2.352,3.925,3.925,0,0,1,1.407-1.62,3.538,3.538,0,0,1,1.96-.585A3.316,3.316,0,0,1-.47,32.9a4.924,4.924,0,0,1,.957,3.256v.63h-6a3.147,3.147,0,0,0,.765,2.115,2.4,2.4,0,0,0,1.861.806,2.636,2.636,0,0,0,1.358-.327,3.413,3.413,0,0,0,.974-.867l.925.72A3.718,3.718,0,0,1-2.966,40.947Zm-.188-7.937a2.019,2.019,0,0,0-1.538.667,3.241,3.241,0,0,0-.769,1.87h4.435v-.115a2.883,2.883,0,0,0-.622-1.788A1.9,1.9,0,0,0-3.154,33.011Zm6.816-1.08.041.982a3.269,3.269,0,0,1,2.626-1.145,2.531,2.531,0,0,1,2.528,1.424,3.354,3.354,0,0,1,1.15-1.031,3.4,3.4,0,0,1,1.673-.393q2.913,0,2.962,3.085v5.932H13.128V34.942a2.033,2.033,0,0,0-.434-1.42,1.91,1.91,0,0,0-1.456-.47,2.007,2.007,0,0,0-1.4.5,2.041,2.041,0,0,0-.646,1.354v5.875H7.671v-5.8a1.689,1.689,0,0,0-1.89-1.931A2.025,2.025,0,0,0,3.744,34.32v6.464H2.23V31.931ZM20.6,40.947a3.868,3.868,0,0,1-2.929-1.182A4.388,4.388,0,0,1,16.54,36.6v-.278a5.312,5.312,0,0,1,.5-2.352,3.925,3.925,0,0,1,1.407-1.62,3.538,3.538,0,0,1,1.96-.585A3.316,3.316,0,0,1,23.094,32.9a4.924,4.924,0,0,1,.957,3.256v.63h-6a3.147,3.147,0,0,0,.765,2.115,2.4,2.4,0,0,0,1.861.806,2.636,2.636,0,0,0,1.358-.327,3.413,3.413,0,0,0,.974-.867l.925.72A3.718,3.718,0,0,1,20.6,40.947Zm-.188-7.937a2.019,2.019,0,0,0-1.538.667,3.241,3.241,0,0,0-.769,1.87h4.435v-.115a2.883,2.883,0,0,0-.622-1.788A1.9,1.9,0,0,0,20.41,33.011Zm6.824-1.08.049,1.113a3.226,3.226,0,0,1,2.651-1.276q2.806,0,2.831,3.166v5.85H31.251V34.925a2.038,2.038,0,0,0-.438-1.415,1.754,1.754,0,0,0-1.338-.458,2.185,2.185,0,0,0-1.293.393,2.667,2.667,0,0,0-.867,1.031v6.308H25.8V31.931ZM37.1,29.787v2.144h1.653V33.1H37.1v5.5a1.229,1.229,0,0,0,.221.8.93.93,0,0,0,.753.266,3.665,3.665,0,0,0,.72-.1v1.22a4.414,4.414,0,0,1-1.162.163,1.885,1.885,0,0,1-1.53-.614,2.636,2.636,0,0,1-.515-1.743V33.1H33.976v-1.17h1.612V29.787Zm2.856,6.488a5.229,5.229,0,0,1,.511-2.34,3.815,3.815,0,0,1,1.424-1.6,3.875,3.875,0,0,1,2.082-.565A3.733,3.733,0,0,1,46.9,33.019a4.816,4.816,0,0,1,1.117,3.33v.106a5.274,5.274,0,0,1-.5,2.32,3.759,3.759,0,0,1-1.415,1.6,3.92,3.92,0,0,1-2.115.573A3.724,3.724,0,0,1,41.074,39.7a4.792,4.792,0,0,1-1.117-3.314Zm1.522.18a3.787,3.787,0,0,0,.683,2.365,2.315,2.315,0,0,0,3.661-.012,4.142,4.142,0,0,0,.679-2.532,3.781,3.781,0,0,0-.691-2.361,2.2,2.2,0,0,0-1.837-.9,2.174,2.174,0,0,0-1.808.892A4.111,4.111,0,0,0,41.479,36.455Zm13.59,1.98a1.114,1.114,0,0,0-.462-.953A4.45,4.45,0,0,0,53,36.9a7.621,7.621,0,0,1-1.825-.589,2.6,2.6,0,0,1-1-.818,1.957,1.957,0,0,1-.323-1.129,2.3,2.3,0,0,1,.92-1.841,3.6,3.6,0,0,1,2.352-.753,3.7,3.7,0,0,1,2.442.777,2.469,2.469,0,0,1,.937,1.988H54.979a1.366,1.366,0,0,0-.528-1.072,1.977,1.977,0,0,0-1.33-.45,2.069,2.069,0,0,0-1.293.36,1.133,1.133,0,0,0-.466.941.918.918,0,0,0,.434.826,5.335,5.335,0,0,0,1.567.532,8.164,8.164,0,0,1,1.837.605,2.679,2.679,0,0,1,1.043.847,2.082,2.082,0,0,1,.34,1.207,2.266,2.266,0,0,1-.949,1.9,3.981,3.981,0,0,1-2.463.716,4.458,4.458,0,0,1-1.882-.376,3.061,3.061,0,0,1-1.28-1.051,2.534,2.534,0,0,1-.462-1.46H51.06a1.567,1.567,0,0,0,.61,1.207,2.365,2.365,0,0,0,1.5.446,2.441,2.441,0,0,0,1.379-.348A1.068,1.068,0,0,0,55.069,38.435ZM-32.012,58.543a1.114,1.114,0,0,0-.462-.953,4.45,4.45,0,0,0-1.612-.585,7.621,7.621,0,0,1-1.825-.589,2.6,2.6,0,0,1-1-.818,1.957,1.957,0,0,1-.323-1.129,2.3,2.3,0,0,1,.92-1.841,3.6,3.6,0,0,1,2.352-.753,3.7,3.7,0,0,1,2.442.777,2.469,2.469,0,0,1,.937,1.988H-32.1a1.367,1.367,0,0,0-.528-1.072,1.977,1.977,0,0,0-1.33-.45,2.069,2.069,0,0,0-1.293.36,1.133,1.133,0,0,0-.466.941.918.918,0,0,0,.434.826,5.335,5.335,0,0,0,1.567.532,8.164,8.164,0,0,1,1.837.605,2.679,2.679,0,0,1,1.043.847,2.082,2.082,0,0,1,.34,1.207,2.266,2.266,0,0,1-.949,1.9,3.981,3.981,0,0,1-2.463.716,4.458,4.458,0,0,1-1.882-.376,3.061,3.061,0,0,1-1.28-1.051,2.534,2.534,0,0,1-.462-1.46h1.514a1.567,1.567,0,0,0,.61,1.207,2.365,2.365,0,0,0,1.5.446,2.441,2.441,0,0,0,1.379-.348A1.068,1.068,0,0,0-32.012,58.543Zm7.159,2.512a3.868,3.868,0,0,1-2.929-1.182,4.388,4.388,0,0,1-1.129-3.162v-.278a5.312,5.312,0,0,1,.5-2.352A3.925,3.925,0,0,1-27,52.46a3.538,3.538,0,0,1,1.96-.585,3.316,3.316,0,0,1,2.684,1.137,4.924,4.924,0,0,1,.957,3.256v.63h-6a3.147,3.147,0,0,0,.765,2.115,2.4,2.4,0,0,0,1.861.806,2.636,2.636,0,0,0,1.358-.327,3.413,3.413,0,0,0,.974-.867l.925.72A3.718,3.718,0,0,1-24.852,61.055Zm-.188-7.937a2.019,2.019,0,0,0-1.538.667,3.241,3.241,0,0,0-.769,1.87h4.435v-.115a2.883,2.883,0,0,0-.622-1.788A1.9,1.9,0,0,0-25.04,53.119Zm11.185,7.773h-1.514V48.324h1.514Zm2.021-4.508a5.229,5.229,0,0,1,.511-2.34A3.815,3.815,0,0,1-9.9,52.44a3.875,3.875,0,0,1,2.082-.565,3.733,3.733,0,0,1,2.925,1.252,4.816,4.816,0,0,1,1.117,3.33v.106a5.275,5.275,0,0,1-.5,2.32,3.759,3.759,0,0,1-1.415,1.6,3.92,3.92,0,0,1-2.115.573A3.724,3.724,0,0,1-10.718,59.8a4.792,4.792,0,0,1-1.117-3.314Zm1.522.18a3.787,3.787,0,0,0,.683,2.365A2.186,2.186,0,0,0-7.8,59.82a2.173,2.173,0,0,0,1.833-.9,4.142,4.142,0,0,0,.679-2.532,3.781,3.781,0,0,0-.691-2.361,2.2,2.2,0,0,0-1.837-.9,2.174,2.174,0,0,0-1.808.892A4.111,4.111,0,0,0-10.313,56.563Zm8.076-.172A5.2,5.2,0,0,1-1.28,53.1a3.061,3.061,0,0,1,2.536-1.223,3.045,3.045,0,0,1,2.528,1.145l.074-.982H5.241v8.64a3.6,3.6,0,0,1-1.019,2.708,3.759,3.759,0,0,1-2.737.99,4.553,4.553,0,0,1-1.874-.409,3.225,3.225,0,0,1-1.4-1.121L-1,61.939a2.96,2.96,0,0,0,2.381,1.2A2.319,2.319,0,0,0,3.1,62.52a2.377,2.377,0,0,0,.618-1.751v-.761A3.111,3.111,0,0,1,1.24,61.055,3.024,3.024,0,0,1-1.276,59.8,5.471,5.471,0,0,1-2.237,56.391Zm1.522.172A3.969,3.969,0,0,0-.1,58.916a1.994,1.994,0,0,0,1.718.855,2.217,2.217,0,0,0,2.1-1.3V54.428A2.243,2.243,0,0,0,1.633,53.16a2.012,2.012,0,0,0-1.726.859A4.323,4.323,0,0,0-.715,56.563ZM11.8,53.4a4.536,4.536,0,0,0-.745-.057,2,2,0,0,0-2.021,1.268v6.284H7.524V52.039H9l.025,1.023a2.357,2.357,0,0,1,2.111-1.186,1.546,1.546,0,0,1,.671.115Zm6.529,7.495a3.18,3.18,0,0,1-.213-.933,3.377,3.377,0,0,1-2.52,1.1,3.125,3.125,0,0,1-2.148-.74,2.4,2.4,0,0,1-.839-1.878,2.5,2.5,0,0,1,1.051-2.148,4.957,4.957,0,0,1,2.958-.765h1.473v-.7a1.7,1.7,0,0,0-.475-1.264,1.907,1.907,0,0,0-1.4-.47,2.207,2.207,0,0,0-1.358.409,1.205,1.205,0,0,0-.548.99H12.793a2.089,2.089,0,0,1,.47-1.28,3.211,3.211,0,0,1,1.276-.978,4.294,4.294,0,0,1,1.771-.36,3.5,3.5,0,0,1,2.4.765,2.76,2.76,0,0,1,.9,2.107v4.075a4.982,4.982,0,0,0,.311,1.939v.131ZM15.82,59.738a2.66,2.66,0,0,0,1.35-.368,2.227,2.227,0,0,0,.925-.957V56.6H16.908q-2.782,0-2.782,1.628a1.378,1.378,0,0,0,.475,1.113A1.824,1.824,0,0,0,15.82,59.738ZM26.26,53.4a4.536,4.536,0,0,0-.745-.057,2,2,0,0,0-2.021,1.268v6.284H21.981V52.039h1.473l.025,1.023a2.357,2.357,0,0,1,2.111-1.186,1.546,1.546,0,0,1,.671.115Zm6.529,7.495a3.18,3.18,0,0,1-.213-.933,3.377,3.377,0,0,1-2.52,1.1,3.125,3.125,0,0,1-2.148-.74,2.4,2.4,0,0,1-.839-1.878,2.5,2.5,0,0,1,1.051-2.148,4.957,4.957,0,0,1,2.958-.765h1.473v-.7a1.7,1.7,0,0,0-.475-1.264,1.907,1.907,0,0,0-1.4-.47,2.207,2.207,0,0,0-1.358.409,1.205,1.205,0,0,0-.548.99H27.251a2.089,2.089,0,0,1,.47-1.28A3.211,3.211,0,0,1,29,52.235a4.294,4.294,0,0,1,1.771-.36,3.5,3.5,0,0,1,2.4.765,2.76,2.76,0,0,1,.9,2.107v4.075a4.982,4.982,0,0,0,.311,1.939v.131Zm-2.512-1.154a2.66,2.66,0,0,0,1.35-.368,2.227,2.227,0,0,0,.925-.957V56.6H31.366q-2.782,0-2.782,1.628a1.378,1.378,0,0,0,.475,1.113A1.824,1.824,0,0,0,30.278,59.738Zm1.4-11.414H33.51L31.317,50.73l-1.219,0Zm6.537,9.2a4.883,4.883,0,0,1,.221-1.536,3.939,3.939,0,0,1,.835-1.25l1.072-1.1a2.472,2.472,0,0,0,.687-1.666,1.9,1.9,0,0,0-.45-1.343,1.7,1.7,0,0,0-1.309-.486,1.97,1.97,0,0,0-1.342.442,1.494,1.494,0,0,0-.507,1.186H35.907a2.756,2.756,0,0,1,.945-2.14,3.534,3.534,0,0,1,2.418-.814,3.336,3.336,0,0,1,2.41.829,3.006,3.006,0,0,1,.863,2.275,4.111,4.111,0,0,1-1.325,2.818l-.892.882a2.747,2.747,0,0,0-.6,1.9Zm-.065,2.6a.9.9,0,0,1,.225-.624.848.848,0,0,1,.667-.252.861.861,0,0,1,.671.252.892.892,0,0,1,.229.624.863.863,0,0,1-.229.615.877.877,0,0,1-.671.244.81.81,0,0,1-.892-.859Z" transform="translate(476.348 -4221.161)" fill="#fff"/>
    <path id="Trazado_160196" data-name="Trazado 160196" d="M13.071,0h95.343a13.071,13.071,0,0,1,13.071,13.071v91.154A13.071,13.071,0,0,1,108.415,117.3H13.071A13.071,13.071,0,0,1,0,104.225V13.071A13.071,13.071,0,0,1,13.071,0Z" transform="translate(564.673 -4253.98)" fill="#3d46c2"/>
    <path id="Trazado_156554" data-name="Trazado 156554" d="M-32.4.568V-11.345h3.666a5.567,5.567,0,0,1,2.811.708,4.935,4.935,0,0,1,1.935,2.013,6.208,6.208,0,0,1,.7,2.966v.548a6.226,6.226,0,0,1-.683,2.954,4.893,4.893,0,0,1-1.927,2,5.609,5.609,0,0,1-2.806.72Zm2.455-9.925V-1.4h1.186a2.666,2.666,0,0,0,2.2-.941,4.252,4.252,0,0,0,.777-2.692v-.63a4.32,4.32,0,0,0-.753-2.753,2.656,2.656,0,0,0-2.2-.937ZM-19.165.568h-2.373V-8.285h2.373Zm-2.512-11.144a1.164,1.164,0,0,1,.356-.875,1.337,1.337,0,0,1,.97-.344,1.34,1.34,0,0,1,.965.344,1.158,1.158,0,0,1,.36.875,1.161,1.161,0,0,1-.364.884,1.343,1.343,0,0,1-.961.344,1.343,1.343,0,0,1-.961-.344A1.161,1.161,0,0,1-21.677-10.576Zm9.434,4.508a6.424,6.424,0,0,0-.851-.065,1.732,1.732,0,0,0-1.759.908V.568h-2.365V-8.285h2.234l.065,1.055a2.191,2.191,0,0,1,1.972-1.219,2.478,2.478,0,0,1,.736.106Zm5.056,6.8A4.346,4.346,0,0,1-10.358-.463a4.246,4.246,0,0,1-1.223-3.183v-.229a5.348,5.348,0,0,1,.515-2.385A3.783,3.783,0,0,1-9.6-7.88a4.1,4.1,0,0,1,2.156-.569A3.674,3.674,0,0,1-4.589-7.3,4.655,4.655,0,0,1-3.546-4.055v.965H-9.183A2.2,2.2,0,0,0-8.492-1.7a2.09,2.09,0,0,0,1.46.524A2.552,2.552,0,0,0-4.9-2.165l1.162,1.3A3.55,3.55,0,0,1-5.174.31,4.725,4.725,0,0,1-7.187.731Zm-.27-7.274A1.478,1.478,0,0,0-8.6-6.066,2.468,2.468,0,0,0-9.159-4.7H-5.87v-.189A1.76,1.76,0,0,0-6.3-6.111,1.524,1.524,0,0,0-7.457-6.543ZM1.478-1.175a1.551,1.551,0,0,0,1.064-.36,1.261,1.261,0,0,0,.425-.957H5.184A3.033,3.033,0,0,1,4.693-.844,3.239,3.239,0,0,1,3.372.318,4.136,4.136,0,0,1,1.519.731,3.843,3.843,0,0,1-1.476-.476a4.776,4.776,0,0,1-1.1-3.334v-.155A4.721,4.721,0,0,1-1.484-7.23,3.8,3.8,0,0,1,1.5-8.449,3.724,3.724,0,0,1,4.165-7.5,3.346,3.346,0,0,1,5.184-4.988H2.967a1.625,1.625,0,0,0-.425-1.123,1.419,1.419,0,0,0-1.08-.432,1.424,1.424,0,0,0-1.248.6A3.49,3.49,0,0,0-.208-3.986v.246A3.535,3.535,0,0,0,.209-1.773,1.442,1.442,0,0,0,1.478-1.175Zm8.738,0a1.551,1.551,0,0,0,1.064-.36,1.261,1.261,0,0,0,.425-.957h2.217a3.033,3.033,0,0,1-.491,1.649A3.239,3.239,0,0,1,12.11.318a4.136,4.136,0,0,1-1.853.413A3.843,3.843,0,0,1,7.262-.476a4.776,4.776,0,0,1-1.1-3.334v-.155A4.721,4.721,0,0,1,7.254-7.23a3.8,3.8,0,0,1,2.986-1.219A3.724,3.724,0,0,1,12.9-7.5a3.346,3.346,0,0,1,1.019,2.516H11.705a1.625,1.625,0,0,0-.425-1.123,1.419,1.419,0,0,0-1.08-.432,1.424,1.424,0,0,0-1.248.6,3.49,3.49,0,0,0-.421,1.954v.246a3.535,3.535,0,0,0,.417,1.967A1.442,1.442,0,0,0,10.216-1.175ZM17.768.568H15.4V-8.285h2.373ZM15.256-10.576a1.164,1.164,0,0,1,.356-.875,1.337,1.337,0,0,1,.97-.344,1.34,1.34,0,0,1,.965.344,1.158,1.158,0,0,1,.36.875,1.161,1.161,0,0,1-.364.884,1.343,1.343,0,0,1-.961.344,1.343,1.343,0,0,1-.961-.344A1.161,1.161,0,0,1,15.256-10.576Zm4.091,6.636a5.25,5.25,0,0,1,.507-2.348,3.714,3.714,0,0,1,1.46-1.6,4.261,4.261,0,0,1,2.213-.565,4.031,4.031,0,0,1,2.925,1.1,4.4,4.4,0,0,1,1.264,2.978l.016.605A4.627,4.627,0,0,1,26.6-.5,3.953,3.953,0,0,1,23.544.731,3.973,3.973,0,0,1,20.489-.5a4.708,4.708,0,0,1-1.141-3.338Zm2.365.168a3.309,3.309,0,0,0,.475,1.93,1.565,1.565,0,0,0,1.358.668,1.569,1.569,0,0,0,1.342-.66,3.621,3.621,0,0,0,.483-2.11,3.276,3.276,0,0,0-.483-1.918,1.569,1.569,0,0,0-1.358-.68,1.544,1.544,0,0,0-1.342.676A3.682,3.682,0,0,0,21.712-3.773ZM23.994-12h2.577L24.305-9.464H22.383Zm7.372,3.715.074,1.023a3.091,3.091,0,0,1,2.545-1.186,2.569,2.569,0,0,1,2.095.826,3.856,3.856,0,0,1,.7,2.471V.568H34.418V-5.094a1.534,1.534,0,0,0-.327-1.092A1.465,1.465,0,0,0,33-6.526a1.627,1.627,0,0,0-1.5.851V.568H29.141V-8.285ZM-37.01,15.169h-5.163v4.222h6v1.285h-7.568V8.763h7.487v1.285h-5.916v3.837h5.163Zm5.261,3.453,2.193-6.8h1.546l-3.175,8.853h-1.154l-3.207-8.853H-34Zm6.84,2.054h-1.514V11.823h1.514Zm-1.636-11.2a.9.9,0,0,1,.225-.622.845.845,0,0,1,.667-.254.858.858,0,0,1,.671.254.894.894,0,0,1,.229.622.865.865,0,0,1-.229.614.873.873,0,0,1-.671.245.86.86,0,0,1-.667-.245A.874.874,0,0,1-26.546,9.474Zm3.69,6.7A5.186,5.186,0,0,1-21.89,12.9a3.053,3.053,0,0,1,2.528-1.24A3.07,3.07,0,0,1-16.9,12.723V8.108h1.514V20.676h-1.391l-.074-.949a3.083,3.083,0,0,1-2.528,1.113,3.024,3.024,0,0,1-2.508-1.26,5.245,5.245,0,0,1-.97-3.289Zm1.514.172A3.927,3.927,0,0,0-20.72,18.7,2.01,2.01,0,0,0-19,19.555a2.208,2.208,0,0,0,2.1-1.293V14.2a2.225,2.225,0,0,0-2.086-1.252,2.02,2.02,0,0,0-1.735.859A4.323,4.323,0,0,0-21.342,16.347Zm11.978,4.492a3.868,3.868,0,0,1-2.929-1.182,4.388,4.388,0,0,1-1.129-3.162v-.278a5.312,5.312,0,0,1,.5-2.352,3.925,3.925,0,0,1,1.407-1.62,3.538,3.538,0,0,1,1.96-.585A3.316,3.316,0,0,1-6.868,12.8a4.924,4.924,0,0,1,.957,3.256v.63h-6a3.147,3.147,0,0,0,.765,2.115,2.4,2.4,0,0,0,1.861.806,2.636,2.636,0,0,0,1.358-.327,3.413,3.413,0,0,0,.974-.867l.925.72A3.718,3.718,0,0,1-9.363,20.839ZM-9.552,12.9a2.019,2.019,0,0,0-1.538.667,3.241,3.241,0,0,0-.769,1.87h4.435v-.115a2.883,2.883,0,0,0-.622-1.788A1.9,1.9,0,0,0-9.552,12.9Zm6.824-1.08.049,1.113A3.226,3.226,0,0,1-.028,11.659q2.806,0,2.831,3.166v5.85H1.289V14.817A2.038,2.038,0,0,0,.852,13.4a1.754,1.754,0,0,0-1.338-.458,2.185,2.185,0,0,0-1.293.393,2.667,2.667,0,0,0-.867,1.031v6.308H-4.16V11.823ZM8.637,19.6a2.18,2.18,0,0,0,1.415-.491,1.727,1.727,0,0,0,.671-1.227h1.432a2.745,2.745,0,0,1-.524,1.448,3.449,3.449,0,0,1-1.289,1.1,3.718,3.718,0,0,1-1.706.409,3.647,3.647,0,0,1-2.876-1.207,4.807,4.807,0,0,1-1.068-3.3v-.254a5.33,5.33,0,0,1,.475-2.3A3.614,3.614,0,0,1,6.53,12.215a3.87,3.87,0,0,1,2.1-.556,3.551,3.551,0,0,1,2.475.892,3.187,3.187,0,0,1,1.051,2.315H10.723a2.086,2.086,0,0,0-.65-1.411A2.024,2.024,0,0,0,8.629,12.9a2.119,2.119,0,0,0-1.788.83,3.9,3.9,0,0,0-.634,2.4v.286a3.822,3.822,0,0,0,.63,2.356A2.129,2.129,0,0,0,8.637,19.6ZM15.5,20.676H13.988V11.823H15.5Zm-1.636-11.2a.9.9,0,0,1,.225-.622.845.845,0,0,1,.667-.254.858.858,0,0,1,.671.254.894.894,0,0,1,.229.622.865.865,0,0,1-.229.614.873.873,0,0,1-.671.245.86.86,0,0,1-.667-.245A.874.874,0,0,1,13.865,9.474Zm9.524,11.2a3.18,3.18,0,0,1-.213-.933,3.377,3.377,0,0,1-2.52,1.1,3.125,3.125,0,0,1-2.148-.74,2.4,2.4,0,0,1-.839-1.878,2.5,2.5,0,0,1,1.051-2.148,4.957,4.957,0,0,1,2.958-.765h1.473v-.7a1.7,1.7,0,0,0-.475-1.264,1.907,1.907,0,0,0-1.4-.47,2.207,2.207,0,0,0-1.358.409,1.205,1.205,0,0,0-.548.99H17.85A2.089,2.089,0,0,1,18.32,13a3.211,3.211,0,0,1,1.276-.978,4.294,4.294,0,0,1,1.771-.36,3.5,3.5,0,0,1,2.4.765,2.76,2.76,0,0,1,.9,2.107v4.075a4.982,4.982,0,0,0,.311,1.939v.131Zm-2.512-1.154a2.66,2.66,0,0,0,1.35-.368,2.227,2.227,0,0,0,.925-.957V16.38H21.965q-2.782,0-2.782,1.628a1.378,1.378,0,0,0,.475,1.113A1.824,1.824,0,0,0,20.877,19.522Zm10.44-6.341a4.536,4.536,0,0,0-.745-.057,2,2,0,0,0-2.021,1.268v6.284H27.038V11.823h1.473l.025,1.023a2.357,2.357,0,0,1,2.111-1.186,1.546,1.546,0,0,1,.671.115ZM38.5,20.676H36.987V8.108H38.5Zm2.021-4.508a5.229,5.229,0,0,1,.511-2.34,3.815,3.815,0,0,1,1.424-1.6,3.875,3.875,0,0,1,2.082-.565,3.733,3.733,0,0,1,2.925,1.252,4.816,4.816,0,0,1,1.117,3.33v.106a5.274,5.274,0,0,1-.5,2.32,3.759,3.759,0,0,1-1.415,1.6,3.92,3.92,0,0,1-2.115.573,3.724,3.724,0,0,1-2.917-1.252,4.792,4.792,0,0,1-1.117-3.314Zm1.522.18a3.787,3.787,0,0,0,.683,2.365,2.315,2.315,0,0,0,3.661-.012,4.142,4.142,0,0,0,.679-2.532,3.781,3.781,0,0,0-.691-2.361,2.2,2.2,0,0,0-1.837-.9,2.174,2.174,0,0,0-1.808.892A4.111,4.111,0,0,0,42.044,16.347ZM-44.48,36.283a5.2,5.2,0,0,1,.957-3.3,3.1,3.1,0,0,1,2.569-1.215,3.1,3.1,0,0,1,2.479,1.055l.065-.892h1.391V44.187h-1.514V39.965a3.177,3.177,0,0,1-2.438.982A3.053,3.053,0,0,1-43.527,39.7a5.312,5.312,0,0,1-.953-3.31Zm1.514.172a3.939,3.939,0,0,0,.642,2.389,2.043,2.043,0,0,0,1.73.867,2.267,2.267,0,0,0,2.062-1.195V34.181a2.274,2.274,0,0,0-2.045-1.17,2.058,2.058,0,0,0-1.743.871A4.288,4.288,0,0,0-42.967,36.455Zm13.844,3.453a3.215,3.215,0,0,1-2.594,1.039,2.752,2.752,0,0,1-2.156-.822,3.559,3.559,0,0,1-.749-2.434v-5.76h1.514V37.65q0,2.013,1.636,2.013a2.266,2.266,0,0,0,2.307-1.293V31.931h1.514v8.853h-1.44Zm7.446,1.039a3.868,3.868,0,0,1-2.929-1.182A4.388,4.388,0,0,1-25.736,36.6v-.278a5.312,5.312,0,0,1,.5-2.352,3.925,3.925,0,0,1,1.407-1.62,3.538,3.538,0,0,1,1.96-.585A3.316,3.316,0,0,1-19.182,32.9a4.924,4.924,0,0,1,.957,3.256v.63h-6a3.147,3.147,0,0,0,.765,2.115,2.4,2.4,0,0,0,1.861.806,2.636,2.636,0,0,0,1.358-.327,3.413,3.413,0,0,0,.974-.867l.925.72A3.718,3.718,0,0,1-21.677,40.947Zm-.188-7.937a2.019,2.019,0,0,0-1.538.667,3.241,3.241,0,0,0-.769,1.87h4.435v-.115a2.883,2.883,0,0,0-.622-1.788A1.9,1.9,0,0,0-21.865,33.011Zm14.695,5.425a1.114,1.114,0,0,0-.462-.953A4.45,4.45,0,0,0-9.245,36.9a7.621,7.621,0,0,1-1.825-.589,2.6,2.6,0,0,1-1-.818,1.957,1.957,0,0,1-.323-1.129,2.3,2.3,0,0,1,.92-1.841,3.6,3.6,0,0,1,2.352-.753,3.7,3.7,0,0,1,2.442.777,2.469,2.469,0,0,1,.937,1.988H-7.261a1.367,1.367,0,0,0-.528-1.072,1.977,1.977,0,0,0-1.33-.45,2.069,2.069,0,0,0-1.293.36,1.133,1.133,0,0,0-.466.941.918.918,0,0,0,.434.826,5.335,5.335,0,0,0,1.567.532,8.164,8.164,0,0,1,1.837.605A2.679,2.679,0,0,1-6,37.122a2.082,2.082,0,0,1,.34,1.207,2.266,2.266,0,0,1-.949,1.9,3.981,3.981,0,0,1-2.463.716,4.458,4.458,0,0,1-1.882-.376,3.061,3.061,0,0,1-1.28-1.051,2.534,2.534,0,0,1-.462-1.46h1.514a1.567,1.567,0,0,0,.61,1.207,2.365,2.365,0,0,0,1.5.446,2.441,2.441,0,0,0,1.379-.348A1.068,1.068,0,0,0-7.171,38.435Zm7.159,2.512a3.868,3.868,0,0,1-2.929-1.182A4.388,4.388,0,0,1-4.07,36.6v-.278a5.312,5.312,0,0,1,.5-2.352,3.925,3.925,0,0,1,1.407-1.62A3.538,3.538,0,0,1-.2,31.767,3.316,3.316,0,0,1,2.484,32.9a4.924,4.924,0,0,1,.957,3.256v.63h-6a3.147,3.147,0,0,0,.765,2.115,2.4,2.4,0,0,0,1.861.806,2.636,2.636,0,0,0,1.358-.327,3.413,3.413,0,0,0,.974-.867l.925.72A3.718,3.718,0,0,1-.011,40.947ZM-.2,33.011a2.019,2.019,0,0,0-1.538.667,3.241,3.241,0,0,0-.769,1.87H1.928v-.115a2.883,2.883,0,0,0-.622-1.788A1.9,1.9,0,0,0-.2,33.011ZM10.854,33a3.218,3.218,0,0,1,2.618-1.235q2.806,0,2.831,3.166v5.85H14.79V34.925a2.038,2.038,0,0,0-.438-1.415,1.754,1.754,0,0,0-1.338-.458,2.185,2.185,0,0,0-1.293.393,2.667,2.667,0,0,0-.867,1.031v6.308H9.341V28.216h1.514Zm13.181,7.781a3.18,3.18,0,0,1-.213-.933,3.377,3.377,0,0,1-2.52,1.1,3.125,3.125,0,0,1-2.148-.74,2.4,2.4,0,0,1-.839-1.878,2.5,2.5,0,0,1,1.051-2.148,4.957,4.957,0,0,1,2.958-.765H23.8v-.7a1.7,1.7,0,0,0-.475-1.264,1.907,1.907,0,0,0-1.4-.47,2.207,2.207,0,0,0-1.358.409,1.205,1.205,0,0,0-.548.99H18.5a2.089,2.089,0,0,1,.47-1.28,3.211,3.211,0,0,1,1.276-.978,4.294,4.294,0,0,1,1.771-.36,3.5,3.5,0,0,1,2.4.765,2.76,2.76,0,0,1,.9,2.107v4.075a4.982,4.982,0,0,0,.311,1.939v.131ZM21.524,39.63a2.66,2.66,0,0,0,1.35-.368A2.227,2.227,0,0,0,23.8,38.3V36.488H22.612q-2.782,0-2.782,1.628a1.378,1.378,0,0,0,.475,1.113A1.824,1.824,0,0,0,21.524,39.63Zm5.8-3.346a5.2,5.2,0,0,1,.957-3.293,3.3,3.3,0,0,1,5.065-.078l.074-.982H34.8v8.64a3.6,3.6,0,0,1-1.019,2.708,3.759,3.759,0,0,1-2.737.99,4.553,4.553,0,0,1-1.874-.409,3.225,3.225,0,0,1-1.4-1.121l.785-.908a2.96,2.96,0,0,0,2.381,1.2,2.319,2.319,0,0,0,1.722-.622,2.377,2.377,0,0,0,.618-1.751V39.9A3.111,3.111,0,0,1,30.8,40.947,3.024,3.024,0,0,1,28.286,39.7,5.471,5.471,0,0,1,27.325,36.283Zm1.522.172a3.969,3.969,0,0,0,.614,2.352,1.994,1.994,0,0,0,1.718.855,2.217,2.217,0,0,0,2.1-1.3V34.32a2.243,2.243,0,0,0-2.086-1.268,2.012,2.012,0,0,0-1.726.859A4.323,4.323,0,0,0,28.846,36.455Zm13.7,4.328a3.18,3.18,0,0,1-.213-.933,3.377,3.377,0,0,1-2.52,1.1,3.125,3.125,0,0,1-2.148-.74,2.4,2.4,0,0,1-.839-1.878,2.5,2.5,0,0,1,1.051-2.148,4.957,4.957,0,0,1,2.958-.765h1.473v-.7a1.7,1.7,0,0,0-.475-1.264,1.907,1.907,0,0,0-1.4-.47,2.207,2.207,0,0,0-1.358.409,1.205,1.205,0,0,0-.548.99H37.012a2.089,2.089,0,0,1,.47-1.28,3.211,3.211,0,0,1,1.276-.978,4.294,4.294,0,0,1,1.771-.36,3.5,3.5,0,0,1,2.4.765,2.76,2.76,0,0,1,.9,2.107v4.075a4.982,4.982,0,0,0,.311,1.939v.131ZM40.039,39.63a2.66,2.66,0,0,0,1.35-.368,2.227,2.227,0,0,0,.925-.957V36.488H41.128q-2.782,0-2.782,1.628a1.378,1.378,0,0,0,.475,1.113A1.824,1.824,0,0,0,40.039,39.63Zm6.194.36a.948.948,0,0,1,.233-.655.889.889,0,0,1,.7-.262.915.915,0,0,1,.708.262.929.929,0,0,1,.241.655.878.878,0,0,1-.241.63.932.932,0,0,1-.708.254.842.842,0,0,1-.933-.884Z" transform="translate(623.312 -4211.107)" fill="#fff"/>
    <path id="Trazado_160197" data-name="Trazado 160197" d="M13.071,0h95.343a13.071,13.071,0,0,1,13.071,13.071v91.154A13.071,13.071,0,0,1,108.415,117.3H13.071A13.071,13.071,0,0,1,0,104.225V13.071A13.071,13.071,0,0,1,13.071,0Z" transform="translate(712.341 -4253.98)" fill="#3d46c2"/>
    <path id="Trazado_156555" data-name="Trazado 156555" d="M-14.7-3.4A4.216,4.216,0,0,1-16.12-.373,4.986,4.986,0,0,1-19.5.731,4.483,4.483,0,0,1-23.1-.811a6.324,6.324,0,0,1-1.313-4.234v-.728A7.141,7.141,0,0,1-23.807-8.8a4.537,4.537,0,0,1,1.73-2.009,4.848,4.848,0,0,1,2.614-.7,4.857,4.857,0,0,1,3.322,1.1,4.53,4.53,0,0,1,1.456,3.1h-2.455a2.488,2.488,0,0,0-.642-1.673,2.378,2.378,0,0,0-1.681-.52,2.086,2.086,0,0,0-1.837.88,4.929,4.929,0,0,0-.626,2.729v.9a5.276,5.276,0,0,0,.585,2.823,2.047,2.047,0,0,0,1.845.892,2.423,2.423,0,0,0,1.7-.52A2.347,2.347,0,0,0-17.155-3.4Zm1.088-.54a5.25,5.25,0,0,1,.507-2.348,3.714,3.714,0,0,1,1.46-1.6,4.261,4.261,0,0,1,2.213-.565,4.031,4.031,0,0,1,2.925,1.1A4.4,4.4,0,0,1-5.242-4.374l.016.605A4.627,4.627,0,0,1-6.363-.5,3.953,3.953,0,0,1-9.415.731,3.973,3.973,0,0,1-12.471-.5a4.708,4.708,0,0,1-1.141-3.338Zm2.365.168a3.309,3.309,0,0,0,.475,1.93,1.565,1.565,0,0,0,1.358.668,1.569,1.569,0,0,0,1.342-.66,3.621,3.621,0,0,0,.483-2.11,3.276,3.276,0,0,0-.483-1.918,1.569,1.569,0,0,0-1.358-.68,1.544,1.544,0,0,0-1.342.676A3.682,3.682,0,0,0-11.248-3.773Zm9.655-4.512.074,1.023A3.091,3.091,0,0,1,1.025-8.449a2.569,2.569,0,0,1,2.095.826,3.856,3.856,0,0,1,.7,2.471V.568H1.459V-5.094a1.534,1.534,0,0,0-.327-1.092,1.465,1.465,0,0,0-1.088-.34,1.627,1.627,0,0,0-1.5.851V.568H-3.819V-8.285ZM8.446-10.462v2.176H9.96v1.735H8.446v4.418a1.055,1.055,0,0,0,.188.7.945.945,0,0,0,.72.213,3.771,3.771,0,0,0,.7-.057V.518A4.868,4.868,0,0,1,8.618.731,2.258,2.258,0,0,1,6.082-1.781v-4.77H4.789V-8.285H6.082v-2.176Zm7.806,4.394a6.424,6.424,0,0,0-.851-.065,1.732,1.732,0,0,0-1.759.908V.568H11.277V-8.285h2.234l.065,1.055a2.191,2.191,0,0,1,1.972-1.219,2.478,2.478,0,0,1,.736.106Zm.475,2.127a5.25,5.25,0,0,1,.507-2.348,3.714,3.714,0,0,1,1.46-1.6,4.261,4.261,0,0,1,2.213-.565,4.031,4.031,0,0,1,2.925,1.1A4.4,4.4,0,0,1,25.1-4.374l.016.605A4.627,4.627,0,0,1,23.976-.5,3.953,3.953,0,0,1,20.924.731,3.973,3.973,0,0,1,17.868-.5a4.708,4.708,0,0,1-1.141-3.338Zm2.365.168a3.309,3.309,0,0,0,.475,1.93,1.565,1.565,0,0,0,1.358.668,1.569,1.569,0,0,0,1.342-.66,3.621,3.621,0,0,0,.483-2.11,3.276,3.276,0,0,0-.483-1.918,1.569,1.569,0,0,0-1.358-.68,1.544,1.544,0,0,0-1.342.676A3.682,3.682,0,0,0,19.091-3.773ZM29.065.568H26.692V-12h2.373ZM-46,15.169H-51.16v4.222h6v1.285H-52.73V8.763h7.487v1.285H-51.16v3.837H-46Zm5.261,3.453,2.193-6.8H-37l-3.175,8.853h-1.154l-3.207-8.853h1.546ZM-30.2,20.676a3.18,3.18,0,0,1-.213-.933,3.377,3.377,0,0,1-2.52,1.1,3.125,3.125,0,0,1-2.148-.74,2.4,2.4,0,0,1-.839-1.878,2.5,2.5,0,0,1,1.051-2.148,4.957,4.957,0,0,1,2.958-.765h1.473v-.7a1.7,1.7,0,0,0-.475-1.264,1.907,1.907,0,0,0-1.4-.47,2.207,2.207,0,0,0-1.358.409,1.205,1.205,0,0,0-.548.99h-1.522a2.089,2.089,0,0,1,.47-1.28,3.211,3.211,0,0,1,1.276-.978,4.294,4.294,0,0,1,1.771-.36,3.5,3.5,0,0,1,2.4.765,2.76,2.76,0,0,1,.9,2.107v4.075a4.982,4.982,0,0,0,.311,1.939v.131Zm-2.512-1.154a2.66,2.66,0,0,0,1.35-.368,2.227,2.227,0,0,0,.925-.957V16.38h-1.186q-2.782,0-2.782,1.628a1.378,1.378,0,0,0,.475,1.113A1.824,1.824,0,0,0-32.709,19.522Zm7.806,1.154h-1.514V8.108H-24.9Zm7.887-.875a3.215,3.215,0,0,1-2.594,1.039,2.752,2.752,0,0,1-2.156-.822,3.559,3.559,0,0,1-.749-2.434v-5.76H-21v5.719q0,2.013,1.636,2.013a2.266,2.266,0,0,0,2.307-1.293V11.823h1.514v8.853h-1.44Zm9.237.875a3.18,3.18,0,0,1-.213-.933,3.377,3.377,0,0,1-2.52,1.1,3.125,3.125,0,0,1-2.148-.74,2.4,2.4,0,0,1-.839-1.878,2.5,2.5,0,0,1,1.051-2.148,4.957,4.957,0,0,1,2.958-.765h1.473v-.7a1.7,1.7,0,0,0-.475-1.264,1.907,1.907,0,0,0-1.4-.47,2.207,2.207,0,0,0-1.358.409,1.205,1.205,0,0,0-.548.99h-1.522a2.089,2.089,0,0,1,.47-1.28,3.211,3.211,0,0,1,1.276-.978,4.294,4.294,0,0,1,1.771-.36,3.5,3.5,0,0,1,2.4.765,2.76,2.76,0,0,1,.9,2.107v4.075a4.982,4.982,0,0,0,.311,1.939v.131Zm-2.512-1.154a2.66,2.66,0,0,0,1.35-.368,2.227,2.227,0,0,0,.925-.957V16.38H-9.2q-2.782,0-2.782,1.628a1.378,1.378,0,0,0,.475,1.113A1.824,1.824,0,0,0-10.291,19.522ZM.15,13.181a4.536,4.536,0,0,0-.745-.057,2,2,0,0,0-2.021,1.268v6.284H-4.13V11.823h1.473l.025,1.023A2.357,2.357,0,0,1-.521,11.659a1.546,1.546,0,0,1,.671.115Zm1.342,6.7a.948.948,0,0,1,.233-.655.889.889,0,0,1,.7-.262.915.915,0,0,1,.708.262.929.929,0,0,1,.241.655.878.878,0,0,1-.241.63.932.932,0,0,1-.708.254.9.9,0,0,1-.7-.254A.9.9,0,0,1,1.491,19.882ZM1.5,12.657A.948.948,0,0,1,1.733,12a.889.889,0,0,1,.7-.262A.915.915,0,0,1,3.14,12a.929.929,0,0,1,.241.655.878.878,0,0,1-.241.63.932.932,0,0,1-.708.254.9.9,0,0,1-.7-.254A.9.9,0,0,1,1.5,12.657Zm11.913,2.455a4.8,4.8,0,0,1-.176,1.387,3.1,3.1,0,0,1-.56,1q-.393.483-1.145,1.272a2.8,2.8,0,0,0-.843,1.6l-.016.3a1.835,1.835,0,0,0,.475,1.362,1.859,1.859,0,0,0,1.366.47,1.907,1.907,0,0,0,1.33-.462,1.55,1.55,0,0,0,.511-1.207h1.514a2.823,2.823,0,0,1-.937,2.152,3.461,3.461,0,0,1-2.418.835A3.483,3.483,0,0,1,10.033,23a2.985,2.985,0,0,1-.875-2.287,4.269,4.269,0,0,1,1.309-2.847l.892-.925a2.762,2.762,0,0,0,.54-1.833Zm.065-2.59a.91.91,0,0,1-.225.625.843.843,0,0,1-.667.255.856.856,0,0,1-.671-.255.9.9,0,0,1-.229-.625.86.86,0,0,1,.229-.608.871.871,0,0,1,.671-.247.858.858,0,0,1,.667.247A.869.869,0,0,1,13.478,12.522ZM21.226,19.6a2.18,2.18,0,0,0,1.415-.491,1.727,1.727,0,0,0,.671-1.227h1.432a2.745,2.745,0,0,1-.524,1.448,3.449,3.449,0,0,1-1.289,1.1,3.718,3.718,0,0,1-1.706.409,3.647,3.647,0,0,1-2.876-1.207,4.807,4.807,0,0,1-1.068-3.3v-.254a5.33,5.33,0,0,1,.475-2.3,3.614,3.614,0,0,1,1.362-1.563,3.87,3.87,0,0,1,2.1-.556,3.551,3.551,0,0,1,2.475.892,3.187,3.187,0,0,1,1.051,2.315H23.313a2.086,2.086,0,0,0-.65-1.411,2.024,2.024,0,0,0-1.444-.552,2.119,2.119,0,0,0-1.788.83,3.9,3.9,0,0,0-.634,2.4v.286a3.822,3.822,0,0,0,.63,2.356A2.129,2.129,0,0,0,21.226,19.6Zm4.819-3.436a5.229,5.229,0,0,1,.511-2.34,3.815,3.815,0,0,1,1.424-1.6,3.875,3.875,0,0,1,2.082-.565,3.733,3.733,0,0,1,2.925,1.252,4.816,4.816,0,0,1,1.117,3.33v.106a5.275,5.275,0,0,1-.5,2.32,3.759,3.759,0,0,1-1.415,1.6,3.92,3.92,0,0,1-2.115.573,3.724,3.724,0,0,1-2.917-1.252,4.792,4.792,0,0,1-1.117-3.314Zm1.522.18a3.787,3.787,0,0,0,.683,2.365,2.315,2.315,0,0,0,3.661-.012,4.142,4.142,0,0,0,.679-2.532,3.781,3.781,0,0,0-.691-2.361,2.2,2.2,0,0,0-1.837-.9,2.174,2.174,0,0,0-1.808.892A4.111,4.111,0,0,0,27.567,16.347ZM30.75,8.108h1.833L30.39,10.514l-1.219,0Zm6.676,3.715.041.982a3.269,3.269,0,0,1,2.626-1.145,2.531,2.531,0,0,1,2.528,1.424,3.354,3.354,0,0,1,1.15-1.031,3.4,3.4,0,0,1,1.673-.393q2.913,0,2.962,3.085v5.932H46.893V14.834a2.033,2.033,0,0,0-.434-1.42A1.91,1.91,0,0,0,45,12.944a2.007,2.007,0,0,0-1.4.5,2.041,2.041,0,0,0-.646,1.354v5.875H41.436v-5.8a1.689,1.689,0,0,0-1.89-1.931,2.025,2.025,0,0,0-2.037,1.268v6.464H35.995V11.823Zm12.862,4.345a5.229,5.229,0,0,1,.511-2.34,3.815,3.815,0,0,1,1.424-1.6,3.875,3.875,0,0,1,2.082-.565,3.733,3.733,0,0,1,2.925,1.252,4.816,4.816,0,0,1,1.117,3.33v.106a5.275,5.275,0,0,1-.5,2.32,3.759,3.759,0,0,1-1.415,1.6,3.92,3.92,0,0,1-2.115.573,3.724,3.724,0,0,1-2.917-1.252,4.792,4.792,0,0,1-1.117-3.314Zm1.522.18a3.787,3.787,0,0,0,.683,2.365,2.315,2.315,0,0,0,3.661-.012,4.142,4.142,0,0,0,.679-2.532,3.781,3.781,0,0,0-.691-2.361,2.2,2.2,0,0,0-1.837-.9,2.174,2.174,0,0,0-1.808.892A4.111,4.111,0,0,0,51.811,16.347ZM-30.68,38.435a1.114,1.114,0,0,0-.462-.953,4.45,4.45,0,0,0-1.612-.585,7.621,7.621,0,0,1-1.825-.589,2.6,2.6,0,0,1-1-.818,1.957,1.957,0,0,1-.323-1.129,2.3,2.3,0,0,1,.92-1.841,3.6,3.6,0,0,1,2.352-.753,3.7,3.7,0,0,1,2.442.777,2.469,2.469,0,0,1,.937,1.988H-30.77a1.366,1.366,0,0,0-.528-1.072,1.977,1.977,0,0,0-1.33-.45,2.069,2.069,0,0,0-1.293.36,1.133,1.133,0,0,0-.466.941.918.918,0,0,0,.434.826,5.335,5.335,0,0,0,1.567.532,8.164,8.164,0,0,1,1.837.605,2.679,2.679,0,0,1,1.043.847,2.082,2.082,0,0,1,.34,1.207,2.266,2.266,0,0,1-.949,1.9,3.981,3.981,0,0,1-2.463.716,4.458,4.458,0,0,1-1.882-.376,3.061,3.061,0,0,1-1.28-1.051,2.534,2.534,0,0,1-.462-1.46h1.514a1.567,1.567,0,0,0,.61,1.207,2.365,2.365,0,0,0,1.5.446,2.441,2.441,0,0,0,1.379-.348A1.068,1.068,0,0,0-30.68,38.435Zm7.159,2.512a3.868,3.868,0,0,1-2.929-1.182A4.388,4.388,0,0,1-27.579,36.6v-.278a5.312,5.312,0,0,1,.5-2.352,3.925,3.925,0,0,1,1.407-1.62,3.538,3.538,0,0,1,1.96-.585A3.316,3.316,0,0,1-21.025,32.9a4.924,4.924,0,0,1,.957,3.256v.63h-6a3.147,3.147,0,0,0,.765,2.115,2.4,2.4,0,0,0,1.861.806,2.636,2.636,0,0,0,1.358-.327,3.413,3.413,0,0,0,.974-.867l.925.72A3.718,3.718,0,0,1-23.521,40.947Zm-.188-7.937a2.019,2.019,0,0,0-1.538.667,3.241,3.241,0,0,0-.769,1.87h4.435v-.115a2.883,2.883,0,0,0-.622-1.788A1.9,1.9,0,0,0-23.709,33.011Zm13.819.278a4.536,4.536,0,0,0-.745-.057A2,2,0,0,0-12.655,34.5v6.284h-1.514V31.931H-12.7l.025,1.023a2.357,2.357,0,0,1,2.111-1.186,1.546,1.546,0,0,1,.671.115Zm4.909,7.658A3.868,3.868,0,0,1-7.91,39.765,4.388,4.388,0,0,1-9.039,36.6v-.278a5.312,5.312,0,0,1,.5-2.352,3.925,3.925,0,0,1,1.407-1.62,3.538,3.538,0,0,1,1.96-.585A3.316,3.316,0,0,1-2.485,32.9a4.924,4.924,0,0,1,.957,3.256v.63h-6a3.147,3.147,0,0,0,.765,2.115,2.4,2.4,0,0,0,1.861.806,2.636,2.636,0,0,0,1.358-.327,3.413,3.413,0,0,0,.974-.867l.925.72A3.718,3.718,0,0,1-4.98,40.947Zm-.188-7.937a2.019,2.019,0,0,0-1.538.667,3.241,3.241,0,0,0-.769,1.87h4.435v-.115a2.883,2.883,0,0,0-.622-1.788A1.9,1.9,0,0,0-5.169,33.011ZM5.689,40.784a3.18,3.18,0,0,1-.213-.933,3.377,3.377,0,0,1-2.52,1.1,3.125,3.125,0,0,1-2.148-.74A2.4,2.4,0,0,1-.03,38.329a2.5,2.5,0,0,1,1.051-2.148,4.957,4.957,0,0,1,2.958-.765H5.452v-.7a1.7,1.7,0,0,0-.475-1.264,1.907,1.907,0,0,0-1.4-.47A2.207,2.207,0,0,0,2.22,33.4a1.205,1.205,0,0,0-.548.99H.15A2.089,2.089,0,0,1,.62,33.1,3.211,3.211,0,0,1,1.9,32.127a4.294,4.294,0,0,1,1.771-.36,3.5,3.5,0,0,1,2.4.765,2.76,2.76,0,0,1,.9,2.107v4.075a4.982,4.982,0,0,0,.311,1.939v.131ZM3.177,39.63a2.66,2.66,0,0,0,1.35-.368,2.227,2.227,0,0,0,.925-.957V36.488H4.265q-2.782,0-2.782,1.628a1.378,1.378,0,0,0,.475,1.113A1.824,1.824,0,0,0,3.177,39.63Zm7.806,1.154H9.469V28.216h1.514Zm4.066,0H13.535V31.931h1.514Zm-1.636-11.2a.9.9,0,0,1,.225-.622.845.845,0,0,1,.667-.254.858.858,0,0,1,.671.254.894.894,0,0,1,.229.622.865.865,0,0,1-.229.614.873.873,0,0,1-.671.245.86.86,0,0,1-.667-.245A.874.874,0,0,1,13.413,29.582Zm5.482,9.966h5.179v1.235H17.045V39.671l4.885-6.488H17.119V31.931h6.709V33Zm6.349-3.273a5.229,5.229,0,0,1,.511-2.34,3.815,3.815,0,0,1,1.424-1.6,3.875,3.875,0,0,1,2.082-.565,3.733,3.733,0,0,1,2.925,1.252,4.816,4.816,0,0,1,1.117,3.33v.106a5.275,5.275,0,0,1-.5,2.32,3.759,3.759,0,0,1-1.415,1.6,3.92,3.92,0,0,1-2.115.573A3.724,3.724,0,0,1,26.361,39.7a4.792,4.792,0,0,1-1.117-3.314Zm1.522.18a3.787,3.787,0,0,0,.683,2.365,2.315,2.315,0,0,0,3.661-.012,4.142,4.142,0,0,0,.679-2.532,3.781,3.781,0,0,0-.691-2.361,2.2,2.2,0,0,0-1.837-.9,2.174,2.174,0,0,0-1.808.892A4.111,4.111,0,0,0,26.766,36.455Zm3.183-8.239h1.833l-2.193,2.406-1.219,0Zm7.028,9.2a4.883,4.883,0,0,1,.221-1.536,3.939,3.939,0,0,1,.835-1.25l1.072-1.1a2.472,2.472,0,0,0,.687-1.666,1.9,1.9,0,0,0-.45-1.343,1.7,1.7,0,0,0-1.309-.486,1.97,1.97,0,0,0-1.342.442,1.494,1.494,0,0,0-.507,1.186H34.669a2.756,2.756,0,0,1,.945-2.14,3.534,3.534,0,0,1,2.418-.814,3.336,3.336,0,0,1,2.41.829,3.006,3.006,0,0,1,.863,2.275,4.111,4.111,0,0,1-1.325,2.818l-.892.882a2.747,2.747,0,0,0-.6,1.9Zm-.065,2.6a.9.9,0,0,1,.225-.624.848.848,0,0,1,.667-.252.861.861,0,0,1,.671.252.892.892,0,0,1,.229.624.863.863,0,0,1-.229.615.877.877,0,0,1-.671.244.81.81,0,0,1-.892-.859Z" transform="translate(770.59 -4211.12)" fill="#fff"/>
  </g>
</svg>
