<svg xmlns="http://www.w3.org/2000/svg" width="199.04" height="180" viewBox="0 0 199.04 180">
  <g id="Grupo_109746" data-name="Grupo 109746" transform="translate(-937.86 -628.668)">
    <g id="Grupo_109745" data-name="Grupo 109745">
      <g id="Grupo_109744" data-name="Grupo 109744">
        <g id="Grupo_109730" data-name="Grupo 109730" transform="translate(66.033 4230.527)">
          <path id="Trazado_160129" data-name="Trazado 160129" d="M988.95-3547.977q.009,58.89.008,117.78c0,4.981-3.155,8.1-8.157,8.109-14.969.022-29.936-.033-44.9.055-2.151.013-4.032-1.714-5.824-1.273-1.913.47-3.732,1.24-5.777,1.237-14.515-.021-29.03-.048-43.543.014-3.96.017-6.918-1.333-8.514-5.114-.062-.146-.272-.229-.412-.341v-163.682c.461-.745.881-1.521,1.393-2.229a7.223,7.223,0,0,1,5.886-3.218c2.584-.062,5.171.027,7.754-.043,2.078-.057,3.309.828,3.682,2.88-.631,2.388-1.356,2.968-3.786,2.983-1.813.012-3.627,0-5.441,0-3.484,0-3.639.152-3.639,3.58q0,67.608,0,135.216,0,10.685.022,21.37c.005,2.137.517,2.677,2.6,2.678q22.249.015,44.5.019c1.717,0,2.7-.509,2.657-2.437-.071-3.236-.025-6.476-.017-9.713.006-2.6.494-3.259,2.947-4.073,2.541.847,2.913,1.355,2.922,4.06.011,3.045.006,6.091.016,9.135.009,2.592.439,3.018,3.065,3.019q21.774,0,43.548,0c2.871,0,3.152-.271,3.152-3.069q0-78.333,0-156.665c0-2.882-.225-3.107-3.095-3.108q-20.9-.009-41.8-.012c-.972,0-1.944-.009-2.916.01a1.827,1.827,0,0,0-1.959,1.944c-.036.581-.011,1.166-.011,1.749q0,65.7,0,131.4c0,2.947-.446,3.581-2.916,4.2-2.413-.59-2.954-1.348-2.955-4.19q0-66.046,0-132.092c0-2.726-.274-3-3-3q-11.268-.014-22.537-.022c-2.427,0-3.225-.657-3.759-2.985.608-2.278,1.317-2.853,3.67-2.857,7.839-.011,15.679.022,23.518-.022,1.888-.01,3.532,1.348,5.1,1.315,1.6-.033,3.238-1.317,5.127-1.313q22.74.044,45.48.007a7.668,7.668,0,0,1,5.9,2.454,1.354,1.354,0,0,0,1.454.54c11.586-2.069,23.183-4.073,34.779-6.083,3.888-.674,7.771-1.377,11.671-1.973,4.729-.722,8.268,1.777,9.123,6.523,1.272,7.064,2.421,14.15,3.634,21.226q4.768,27.823,9.545,55.643,4.754,27.726,9.5,55.454c1.354,7.9,2.677,15.813,4.057,23.712.839,4.806-1.55,8.569-6.324,9.41-14.14,2.493-28.3,4.892-42.449,7.315a26.867,26.867,0,0,1-4.417.594,7.332,7.332,0,0,1-7.257-6.1c-1.861-10.441-3.634-20.9-5.429-31.35q-4.777-27.82-9.538-55.644-2.831-16.541-5.642-33.083c.225-.94-.28-1.7-.606-3.1A6.563,6.563,0,0,0,988.95-3547.977Zm46.881-47.986c-.482.075-1.187.174-1.889.294q-8.609,1.465-17.215,2.936-12.816,2.188-25.632,4.376c-1.651.281-2.278,1.125-1.946,2.865.762,4,1.376,8.032,2.065,12.047q4.969,28.971,9.944,57.94,4.937,28.779,9.865,57.561,2.39,13.96,4.749,27.926c.289,1.723,1.068,2.537,2.9,2.165,1.711-.347,3.446-.566,5.167-.86q19.414-3.318,38.826-6.648c2.208-.38,2.562-.959,2.177-3.186-.585-3.377-1.138-6.76-1.717-10.138q-4.93-28.78-9.866-57.559-5.166-30.117-10.338-60.233-2.346-13.672-4.674-27.347C1038.031-3595.1,1037.593-3596.082,1035.831-3595.962Z" transform="translate(0)" fill="#020201"/>
          <path id="Trazado_160130" data-name="Trazado 160130" d="M935.793-3436.729c-2.453.814-2.941,1.478-2.947,4.073-.008,3.238-.053,6.477.017,9.714.042,1.928-.939,2.439-2.657,2.437q-22.249-.037-44.5-.02c-2.085,0-2.6-.542-2.6-2.678q-.025-10.685-.022-21.37,0-67.608,0-135.216c0-3.428.155-3.579,3.639-3.58,1.814,0,3.627.009,5.441,0,2.43-.016,3.156-.6,3.786-2.984l7.6,0c.533,2.329,1.332,2.982,3.758,2.986q11.269.022,22.537.022c2.728,0,3,.277,3,3q0,66.046,0,132.091c0,2.843.541,3.6,2.955,4.19Q935.8-3440.4,935.793-3436.729Zm-7.914-86.371q0-19.235-.006-38.47c-.006-4.243-2.118-6.335-6.308-6.335q-13.215,0-26.429.01c-5.137,0-7.026,1.888-7.026,7.006q0,37.789,0,75.58c0,5.224,1.926,7.164,7.123,7.167,8.55.005,17.1-.009,25.651.006,4.964.007,6.99-1.959,6.992-6.883Q927.885-3504.059,927.879-3523.1Zm-19.945,87.776v.114c2.135,0,4.27.015,6.406,0a12.5,12.5,0,0,0,12.316-11.4c.433-6.985-4.094-12.817-10.825-13.511a79.286,79.286,0,0,0-15.5-.021,12.294,12.294,0,0,0-11.04,12.021,12.409,12.409,0,0,0,10.7,12.747A60.21,60.21,0,0,0,907.934-3435.324Z" transform="translate(-5.408 -7.446)" fill="#75b62f"/>
          <path id="Trazado_160131" data-name="Trazado 160131" d="M1097.1-3501.083a6.563,6.563,0,0,1,.09-3.164c.326,1.4.831,2.159.606,3.1C1097.533-3501.434,1097.323-3501.188,1097.1-3501.083Z" transform="translate(-108.148 -46.894)" fill="#576a74"/>
          <path id="Trazado_160132" data-name="Trazado 160132" d="M984.527-3433.966q0-3.669.007-7.336c2.47-.623,2.916-1.257,2.916-4.2q0-65.7,0-131.4c0-.583-.025-1.168.011-1.749a1.826,1.826,0,0,1,1.959-1.943c.972-.02,1.944-.011,2.916-.011q20.9.006,41.8.013c2.87,0,3.095.225,3.095,3.107q0,78.333,0,156.666c0,2.8-.281,3.068-3.152,3.069q-21.774,0-43.547,0c-2.626,0-3.056-.427-3.065-3.018-.01-3.045,0-6.09-.016-9.136C987.44-3432.61,987.068-3433.119,984.527-3433.966Zm7.946-86.167q0,19.039,0,38.078c0,4.528,2.1,6.648,6.66,6.66q13.408.034,26.815.007c4.094-.01,6.3-2.156,6.3-6.2q.03-38.661,0-77.322c0-4.109-2.149-6.222-6.227-6.227q-13.407-.018-26.815.007c-4.71.006-6.733,2.034-6.735,6.729Q992.469-3539.27,992.473-3520.133Zm19.321,87.686c2.62,0,4.756.021,6.89,0a12.478,12.478,0,0,0,12.348-11.566c.405-6.924-4.229-12.743-10.983-13.369a85.841,85.841,0,0,0-15.311,0,12.345,12.345,0,0,0-11.07,11.605,12.578,12.578,0,0,0,9.715,12.994C1006.327-3432.1,1009.317-3432.639,1011.794-3432.448Z" transform="translate(-54.142 -10.209)" fill="#f85316"/>
          <path id="Trazado_160133" data-name="Trazado 160133" d="M1144.227-3590.52c1.762-.119,2.2.86,2.417,2.137q2.322,13.676,4.674,27.348,5.167,30.116,10.339,60.232,4.937,28.779,9.866,57.559c.579,3.378,1.133,6.761,1.717,10.138.385,2.228.031,2.806-2.177,3.186q-19.411,3.338-38.825,6.649c-1.721.294-3.457.513-5.167.86-1.834.372-2.613-.442-2.9-2.165q-2.34-13.968-4.749-27.926-4.927-28.781-9.865-57.56-4.969-28.971-9.944-57.94c-.688-4.016-1.3-8.045-2.065-12.047-.331-1.74.3-2.583,1.947-2.865q12.816-2.184,25.632-4.376,8.607-1.469,17.215-2.935C1143.039-3590.345,1143.744-3590.445,1144.227-3590.52Zm-5.753,104.749c.8,1.7,2.019,2.616,4.008,2.26,3.757-.672,7.534-1.237,11.278-1.971a5.491,5.491,0,0,0,4.329-6.385c-.212-1.472-.466-2.939-.717-4.4q-4.769-27.823-9.545-55.644c-1.008-5.864-1.966-11.736-3.084-17.579a5.314,5.314,0,0,0-6.119-4.413q-14.26,2.377-28.5,4.891a5.491,5.491,0,0,0-4.506,6.437c.126.832.286,1.657.428,2.486q4.75,27.728,9.5,55.458c1.08,6.311,2.109,12.63,3.231,18.934.689,3.869,3.2,5.569,7.128,4.982.639-.1,1.279-.2,1.912-.324,2.486-.5,2.991-1.057,3.266-3.562Zm.205,46.3a13.4,13.4,0,0,0,1.656-.107c4.331-.735,8.683-1.376,12.98-2.276a12.422,12.422,0,0,0,9.654-14.745,12.475,12.475,0,0,0-14.116-9.848q-6.332.905-12.62,2.1a12.527,12.527,0,0,0-10.178,13.922A12.59,12.59,0,0,0,1138.679-3439.472Z" transform="translate(-108.395 -5.443)" fill="#3d46c2"/>
          <path id="Trazado_160134" data-name="Trazado 160134" d="M932.526-3506.037q0,19.042,0,38.082c0,4.923-2.029,6.89-6.992,6.882-8.55-.014-17.1,0-25.651-.006-5.2,0-7.123-1.943-7.123-7.167q0-37.789,0-75.58c0-5.119,1.889-7,7.026-7.006q13.214-.009,26.429-.009c4.189,0,6.3,2.092,6.308,6.334Q932.545-3525.271,932.526-3506.037Zm-33.909-.073h.006c0,12.5.017,25-.026,37.5,0,1.22.251,1.635,1.567,1.625q12.436-.1,24.873,0c1.244.008,1.62-.287,1.617-1.583q-.06-37.4,0-74.8c0-1.25-.3-1.617-1.584-1.607q-12.339.088-24.679-.013c-1.423-.013-1.82.292-1.812,1.778C898.648-3530.851,898.618-3518.481,898.618-3506.111Z" transform="translate(-10.055 -24.509)" fill="#020201"/>
          <path id="Trazado_160135" data-name="Trazado 160135" d="M913.67-3318.974a60.128,60.128,0,0,1-7.946-.058,12.408,12.408,0,0,1-10.7-12.746,12.294,12.294,0,0,1,11.04-12.021,79.284,79.284,0,0,1,15.5.021c6.731.694,11.259,6.527,10.825,13.512a12.5,12.5,0,0,1-12.316,11.4c-2.135.018-4.271,0-6.406,0Zm.059-5.77c2.068,0,4.138.042,6.2-.01a6.622,6.622,0,0,0,6.575-6.729,6.4,6.4,0,0,0-6.527-6.479q-6.107-.085-12.215-.055c-4.017.024-6.9,2.8-6.9,6.563a6.8,6.8,0,0,0,6.848,6.7C909.722-3324.719,911.726-3324.743,913.729-3324.744Z" transform="translate(-11.144 -123.796)" fill="#020201"/>
          <path id="Trazado_160136" data-name="Trazado 160136" d="M999.819-3505.838q0-19.137,0-38.272c0-4.694,2.025-6.722,6.735-6.729q13.407-.019,26.815-.007c4.078.005,6.224,2.118,6.227,6.228q.026,38.661,0,77.322c0,4.047-2.205,6.193-6.3,6.2q-13.407.034-26.815-.008c-4.555-.012-6.657-2.132-6.66-6.659Q999.812-3486.8,999.819-3505.838Zm5.866-.179h.008c0,12.431.021,24.862-.03,37.293-.005,1.33.3,1.745,1.691,1.733q12.335-.1,24.672,0c1.363.01,1.706-.349,1.7-1.706q-.063-37.294,0-74.587c0-1.347-.31-1.722-1.687-1.71q-12.239.1-24.478-.009c-1.493-.014-1.927.335-1.918,1.886C1005.716-3530.75,1005.684-3518.384,1005.684-3506.018Z" transform="translate(-61.487 -24.504)" fill="#020201"/>
          <path id="Trazado_160137" data-name="Trazado 160137" d="M1020.225-3318.838c-2.477-.191-5.467.345-8.411-.345a12.578,12.578,0,0,1-9.715-12.994,12.346,12.346,0,0,1,11.07-11.606,85.841,85.841,0,0,1,15.311.005c6.755.626,11.389,6.445,10.983,13.369a12.477,12.477,0,0,1-12.348,11.566C1024.981-3318.818,1022.845-3318.838,1020.225-3318.838Zm.731-19.107V-3338c-2.133,0-4.266-.037-6.4.008a6.547,6.547,0,0,0-6.627,6.458,6.742,6.742,0,0,0,6.393,6.773c4.39.136,8.793.153,13.181-.013a6.483,6.483,0,0,0,6.055-6.975,6.374,6.374,0,0,0-6.4-6.188C1025.091-3337.978,1023.023-3337.946,1020.955-3337.946Z" transform="translate(-62.573 -123.819)" fill="#020201"/>
          <path id="Trazado_160138" data-name="Trazado 160138" d="M1151.535-3464.831l-7.389,1.164c-1.179-2.3-1.913-2.738-4.489-2.12-1.605.384-2.271-.06-2.3-1.657a6.449,6.449,0,0,0-.166-.955q-3.977-23.232-7.953-46.464c-1.476-8.6-2.979-17.2-4.452-25.807-.146-.849-.495-1.724.988-1.966,8.3-1.358,16.578-2.8,24.861-4.235,1.047-.181,1.55-.1,1.766,1.215,1.654,10.081,3.427,20.143,5.16,30.211q3.768,21.888,7.55,43.775c.208,1.194-.165,1.564-1.329,1.729-2.943.418-5.865.986-8.8,1.494C1152.435-3468,1151.868-3467.411,1151.535-3464.831Zm-6.172-23.663c-.493-2.88-1.039-6.062-1.582-9.244-1.466-8.594-2.916-17.191-4.406-25.781-.385-2.218-1.778-3.374-3.493-3.06-1.794.329-2.672,1.8-2.313,3.987.662,4.014,1.349,8.024,2.034,12.034q1.94,11.364,3.9,22.723c.338,1.947,1.6,2.96,3.328,2.764C1144.376-3485.247,1145.388-3486.487,1145.363-3488.493Zm10.9-1.811c-.355-2.068-.773-4.486-1.185-6.9q-2.392-14.038-4.79-28.075c-.41-2.378-1.723-3.456-3.607-3.1-1.812.343-2.6,1.729-2.214,4.016q1.821,10.893,3.674,21.781,1.1,6.5,2.255,12.98a2.908,2.908,0,0,0,3.217,2.675C1155.191-3487.061,1156.243-3488.26,1156.26-3490.3Z" transform="translate(-121.456 -26.382)" fill="#fdfdfd"/>
          <path id="Trazado_160139" data-name="Trazado 160139" d="M1145.952-3470.471c.333-2.58.9-3.173,3.455-3.616,2.931-.507,5.853-1.075,8.8-1.493,1.164-.166,1.537-.535,1.329-1.729q-3.807-21.882-7.55-43.775c-1.733-10.068-3.506-20.129-5.16-30.211-.216-1.316-.72-1.4-1.766-1.215-8.283,1.436-16.565,2.878-24.861,4.235-1.482.243-1.133,1.118-.988,1.967,1.473,8.6,2.976,17.2,4.452,25.807q3.986,23.23,7.953,46.464a6.426,6.426,0,0,1,.166.955c.026,1.6.692,2.041,2.3,1.656,2.576-.618,3.31-.177,4.489,2.121-.275,2.5-.779,3.062-3.266,3.562-.633.127-1.273.229-1.912.324-3.929.587-6.439-1.113-7.128-4.981-1.122-6.3-2.151-12.623-3.231-18.934q-4.745-27.73-9.5-55.458c-.142-.829-.3-1.655-.428-2.486a5.491,5.491,0,0,1,4.506-6.437q14.235-2.52,28.5-4.891a5.313,5.313,0,0,1,6.119,4.413c1.118,5.842,2.077,11.715,3.084,17.579q4.78,27.82,9.545,55.644c.251,1.466.505,2.933.718,4.405a5.492,5.492,0,0,1-4.329,6.385c-3.744.734-7.521,1.3-11.278,1.971C1147.971-3467.854,1146.752-3468.768,1145.952-3470.471Z" transform="translate(-115.873 -20.743)" fill="#020201"/>
          <path id="Trazado_160140" data-name="Trazado 160140" d="M1165.048-3324.869a12.589,12.589,0,0,1-12.625-10.951,12.527,12.527,0,0,1,10.178-13.922q6.282-1.2,12.62-2.1a12.474,12.474,0,0,1,14.116,9.848,12.422,12.422,0,0,1-9.654,14.745c-4.3.9-8.649,1.542-12.98,2.276A13.359,13.359,0,0,1,1165.048-3324.869Zm.852-5.918c3.765-.679,8.55-1.4,13.26-2.448a5.869,5.869,0,0,0,4.391-5.548c.3-4.844-2.97-7.77-8.242-7.112-3.964.494-7.907,1.2-11.829,1.962a6.612,6.612,0,0,0-5.224,7.514C1158.633-3333.255,1161.517-3330.8,1165.9-3330.787Z" transform="translate(-134.765 -120.046)" fill="#020201"/>
          <path id="Trazado_160141" data-name="Trazado 160141" d="M904-3500.708c0-12.37.03-24.74-.04-37.11-.008-1.487.389-1.792,1.812-1.778q12.339.114,24.679.013c1.287-.009,1.586.358,1.584,1.607q-.055,37.4,0,74.8c0,1.3-.374,1.592-1.617,1.584q-12.437-.081-24.873,0c-1.316.01-1.571-.4-1.567-1.625.043-12.5.026-25,.026-37.5Zm11.45-.157q0-7.671,0-15.343c0-1.035.039-2.076-.048-3.1a2.715,2.715,0,0,0-2.722-2.736,2.83,2.83,0,0,0-3.087,2.583,8.223,8.223,0,0,0-.061,1.355q0,17.092.01,34.182a6.135,6.135,0,0,0,.288,2.093,2.653,2.653,0,0,0,2.888,1.817,2.665,2.665,0,0,0,2.592-2.214,8.975,8.975,0,0,0,.135-1.93Q915.457-3492.513,915.449-3500.865Zm5.181,4.71c0,4.206-.014,8.412.005,12.618.01,2.275,1.091,3.543,2.934,3.535s2.945-1.29,2.949-3.561q.025-12.716,0-25.43c0-2.2-1.194-3.573-2.979-3.565s-2.895,1.333-2.9,3.591C920.617-3504.7,920.63-3500.426,920.63-3496.155Z" transform="translate(-15.437 -29.911)" fill="#fdfdfd"/>
          <path id="Trazado_160142" data-name="Trazado 160142" d="M919.135-3319.063c-2,0-4.008.024-6.011,0a6.8,6.8,0,0,1-6.848-6.7c0-3.761,2.88-6.539,6.9-6.563q6.107-.036,12.215.055a6.4,6.4,0,0,1,6.527,6.479,6.622,6.622,0,0,1-6.575,6.729C923.272-3319.022,921.2-3319.063,919.135-3319.063Z" transform="translate(-16.55 -129.476)" fill="#dce736"/>
          <path id="Trazado_160143" data-name="Trazado 160143" d="M1011.073-3500.61c0-12.366.031-24.733-.039-37.1-.009-1.551.425-1.9,1.918-1.887q12.238.115,24.478.009c1.378-.011,1.69.364,1.688,1.71q-.064,37.293,0,74.587c0,1.356-.34,1.716-1.7,1.706q-12.336-.1-24.672,0c-1.387.011-1.7-.4-1.691-1.733.05-12.431.03-24.862.03-37.293Zm11.491-.2c0-5.7.009-11.395-.011-17.091a7.259,7.259,0,0,0-.263-2.294,2.647,2.647,0,0,0-2.858-1.857,2.622,2.622,0,0,0-2.579,1.976,7.589,7.589,0,0,0-.214,2.111q-.018,16.9,0,33.793a7.9,7.9,0,0,0,.2,2.113,2.649,2.649,0,0,0,2.724,2.048,2.649,2.649,0,0,0,2.768-1.988,7.372,7.372,0,0,0,.226-2.108C1022.572-3489.677,1022.565-3495.245,1022.565-3500.812Zm5.144-.2c0,5.829-.01,11.657.005,17.485.006,2.254,1.112,3.542,2.953,3.526s2.92-1.312,2.922-3.58q.016-17.484,0-34.97c0-2.251-1.122-3.53-2.975-3.512s-2.9,1.271-2.9,3.566C1027.7-3512.667,1027.709-3506.839,1027.709-3501.01Z" transform="translate(-66.876 -29.912)" fill="#fdfdfd"/>
          <path id="Trazado_160144" data-name="Trazado 160144" d="M1026.364-3332.3c2.068,0,4.136-.032,6.2.007a6.374,6.374,0,0,1,6.4,6.188,6.483,6.483,0,0,1-6.055,6.975c-4.388.167-8.791.15-13.181.014a6.741,6.741,0,0,1-6.393-6.773,6.547,6.547,0,0,1,6.627-6.458c2.132-.045,4.265-.008,6.4-.008Z" transform="translate(-67.981 -129.465)" fill="#dce736"/>
          <path id="Trazado_160145" data-name="Trazado 160145" d="M1153.538-3469.711c.025,2.007-.987,3.246-2.537,3.423-1.723.2-2.99-.817-3.328-2.764q-1.969-11.358-3.9-22.722c-.685-4.01-1.372-8.02-2.034-12.035-.36-2.184.519-3.658,2.313-3.987,1.716-.314,3.109.842,3.493,3.06,1.49,8.59,2.94,17.187,4.406,25.781C1152.5-3475.773,1153.045-3472.591,1153.538-3469.711Z" transform="translate(-129.632 -45.164)" fill="#020201"/>
          <path id="Trazado_160146" data-name="Trazado 160146" d="M1174.5-3473.205c-.016,2.043-1.069,3.243-2.648,3.373a2.908,2.908,0,0,1-3.217-2.675q-1.163-6.483-2.256-12.98-1.852-10.888-3.674-21.781c-.382-2.287.4-3.672,2.214-4.016,1.883-.357,3.2.72,3.606,3.1q2.421,14.034,4.79,28.076C1173.723-3477.691,1174.141-3475.274,1174.5-3473.205Z" transform="translate(-139.693 -43.48)" fill="#020201"/>
          <path id="Trazado_160147" data-name="Trazado 160147" d="M1171.313-3325.25c-4.383-.018-7.267-2.468-7.643-5.632a6.613,6.613,0,0,1,5.224-7.514c3.923-.762,7.866-1.468,11.829-1.962,5.271-.657,8.546,2.268,8.242,7.112a5.87,5.87,0,0,1-4.392,5.548C1179.863-3326.648,1175.079-3325.929,1171.313-3325.25Z" transform="translate(-140.178 -125.583)" fill="#dce736"/>
          <path id="Trazado_160148" data-name="Trazado 160148" d="M920.6-3484.649q0,8.351-.006,16.7a8.985,8.985,0,0,1-.136,1.93,2.665,2.665,0,0,1-2.592,2.214,2.653,2.653,0,0,1-2.888-1.817,6.136,6.136,0,0,1-.288-2.093q-.025-17.09-.01-34.182a8.227,8.227,0,0,1,.061-1.355,2.831,2.831,0,0,1,3.087-2.583,2.715,2.715,0,0,1,2.722,2.736c.088,1.029.048,2.07.048,3.1Q920.6-3492.321,920.6-3484.649Z" transform="translate(-20.584 -46.127)" fill="#020201"/>
          <path id="Trazado_160149" data-name="Trazado 160149" d="M936.038-3471.155c0-4.271-.012-8.542.005-12.812.009-2.257,1.107-3.583,2.9-3.591s2.975,1.366,2.979,3.565q.026,12.714,0,25.43c0,2.271-1.1,3.552-2.949,3.561s-2.924-1.26-2.934-3.535C936.025-3462.743,936.038-3466.949,936.038-3471.155Z" transform="translate(-30.845 -54.911)" fill="#020201"/>
          <path id="Trazado_160150" data-name="Trazado 160150" d="M1027.739-3484.6c0,5.567.007,11.135-.009,16.7a7.372,7.372,0,0,1-.226,2.108,2.65,2.65,0,0,1-2.768,1.989,2.65,2.65,0,0,1-2.724-2.048,7.912,7.912,0,0,1-.2-2.113q-.017-16.9,0-33.792a7.586,7.586,0,0,1,.214-2.111,2.621,2.621,0,0,1,2.579-1.976,2.646,2.646,0,0,1,2.858,1.857,7.259,7.259,0,0,1,.263,2.294C1027.748-3495.992,1027.739-3490.294,1027.739-3484.6Z" transform="translate(-72.051 -46.126)" fill="#020201"/>
          <path id="Trazado_160151" data-name="Trazado 160151" d="M1043.122-3484.8c0-5.828-.009-11.657,0-17.484.005-2.3,1.049-3.549,2.9-3.566s2.972,1.261,2.975,3.512q.018,17.486,0,34.971c0,2.267-1.092,3.563-2.922,3.579s-2.948-1.271-2.953-3.526C1043.112-3473.142,1043.122-3478.969,1043.122-3484.8Z" transform="translate(-82.29 -46.124)" fill="#020201"/>
        </g>
      </g>
    </g>
  </g>
</svg>
