<svg xmlns="http://www.w3.org/2000/svg" width="364.167" height="175.925" viewBox="0 0 364.167 175.925">
  <g id="Grupo_109797" data-name="Grupo 109797" transform="translate(4120.864 -769.875)">
    <g id="Grupo_109796" data-name="Grupo 109796">
      <g id="Grupo_109795" data-name="Grupo 109795">
        <path id="Trazado_159998" data-name="Trazado 159998" d="M626.144-2969.812c3.039-3.057,5.769-5.814,8.511-8.561,4.218-4.223,8.422-8.461,12.671-12.653,4.23-4.172,10.1-4.1,14.418-.02,3.139,2.964,4.91,6.315,3.767,10.73a10.691,10.691,0,0,1-3.05,4.89c-5.949,5.917-11.88,11.854-18.126,18.091,3.412,0,6.495-.008,9.577.007.63,0,.61-.388.607-.82a21.173,21.173,0,0,1,.019-2.126,2.656,2.656,0,0,1,2.731-2.7q5.759-.115,11.524,0c1.771.034,2.737,1.248,2.743,3.236.019,6.146.007,12.292.007,18.438q0,12.764,0,25.529c0,2.915-.9,3.828-3.781,3.833q-4.787.008-9.575,0c-2.687-.007-3.806-.965-3.615-3.584.138-1.9-.55-2.253-2.229-2.117-2.348.19-4.718-.132-7.067.331a15.342,15.342,0,0,0-7.826,3.857,23.845,23.845,0,0,1-10.489,6.315c-.923.238-.815.811-.815,1.443q0,7.8,0,15.6c0,2.756-.951,3.689-3.747,3.689q-61.525,0-123.051,0c-2.781,0-3.721-.937-3.721-3.712q0-84.211,0-168.421c0-2.87.916-3.765,3.842-3.765q51.507,0,103.015-.026a4.887,4.887,0,0,1,3.744,1.59q9.046,9.133,18.185,18.171a5.435,5.435,0,0,1,1.766,4.209q-.07,33.063-.031,66.127Zm-2.872,33.69-12.377,12.8c4.332.119,8.847.347,12.833-2.4,6.081-3.311,9.2-10.71,7.944-18.4Zm-29.989-18.372h-82.5c-3.814,0-3.717,0-3.857-3.827-.059-1.616.437-1.886,1.938-1.884q43.711.071,87.422.048c2.543,0,5.04.078,7.34-1.342a10.307,10.307,0,0,1,2.687-.84c3.714-1.024,7.516-.59,11.286-.66,2.435-.045,2.869-.44,2.869-2.865q0-33.6,0-67.2c0-3.709,0-3.6-3.753-3.754-1.7-.068-1.958.519-1.954,2.044q.077,26.772.032,53.546c0,3.171-.842,4.034-3.939,4.035q-50.006,0-100.012,0c-3,0-3.87-.885-3.87-3.922q0-32.89,0-65.78c0-3.258.808-4.061,4.083-4.061h85.469c4.106,0,4.037,0,4.121-4.088.028-1.366-.373-1.616-1.66-1.615q-48.056.057-96.112-.006c-1.38,0-1.612.4-1.605,1.667.054,10.047.03,20.095.03,30.142q0,65.514-.009,131.029c0,1.05-.126,1.793,1.468,1.791q58.163-.083,116.326-.013c1.233,0,1.427-.411,1.409-1.5-.06-3.722-.073-7.448.006-11.169.025-1.193-.211-1.621-1.511-1.583-3.485.1-6.98-.091-10.46.066-4.352.2-7.943-.916-10.114-5.194a7.975,7.975,0,0,1-3.513,2.522c-5.1,1.647-10.186,3.359-15.266,5.079-1.368.463-2.655.652-3.769-.51-1.056-1.1-.841-2.342-.4-3.637,1.476-4.353,2.88-8.731,4.405-13.066a2.031,2.031,0,0,0-.613-2.592c-2.009-1.725-3.754-3.752-3.978-6.478-.141-1.713-.941-1.709-2.216-1.707q-31.21.039-62.419.019c-3.672,0-3.572,0-3.716-3.612-.067-1.686.339-2.115,2.076-2.109q33.16.1,66.32.033c.614,0,1.306.271,1.845-.292l5.137-5.367H510.919c-3.953,0-3.882,0-3.984-3.868-.037-1.434.271-1.85,1.792-1.847,24.116.056,48.235-.11,72.348.156C586.349-2948.646,590.548-2949.532,593.282-2954.494Zm-32.4-28.372c15.546,0,31.092-.019,46.638.034,1.328,0,1.651-.31,1.632-1.634-.083-5.613-.035-11.229-.035-16.843,0-11.289-.026-22.578.035-33.866.007-1.334-.313-1.746-1.64-1.623a28.881,28.881,0,0,1-4.075.01,2.76,2.76,0,0,1-2.813-2.815,25.03,25.03,0,0,1,.011-3.9c.161-1.482-.326-1.821-1.8-1.818q-42.2.075-84.409,0c-1.47,0-1.819.335-1.814,1.811q.084,29.433,0,58.866c0,1.475.343,1.818,1.814,1.812C529.911-2982.889,545.4-2982.866,560.884-2982.866Zm21.528,72.1c3.306-1.094,6.255-2.105,9.228-3.036a7.352,7.352,0,0,0,3.093-1.934q16.082-16.135,32.21-32.224c5.6-5.6,11.18-11.218,16.82-16.776.893-.88.894-1.382-.013-2.218-1.737-1.6-3.423-3.267-5.012-5.013-.93-1.022-1.478-1.01-2.473-.012Q611.68-2947.3,587.019-2922.7a4.036,4.036,0,0,0-1.16,1.535C584.754-2917.811,583.638-2914.463,582.412-2910.769Zm72.106-26.568q0-6.556,0-13.112c0-.668.1-1.241-.94-1.23-4.724.05-9.45,0-14.175.034a1.88,1.88,0,0,0-2.055,1.895c.291,3.423.143,6.84.116,10.254a22.171,22.171,0,0,1-16.882,21.224c-4.492,1.107-9.053.506-13.583.65-2.249.072-3.529,1.045-3.545,2.821s1.272,2.852,3.5,2.858c4.312.012,8.625-.062,12.935.021a17.431,17.431,0,0,0,13.1-5.17,21.663,21.663,0,0,1,10.276-5.6,33.735,33.735,0,0,1,9.159-.553c1.632.052,2.215-.253,2.142-2.049C654.406-2929.3,654.518-2933.322,654.518-2937.337Zm-40.907-19.941c-5.844-.32-10.468,1.4-14.309,5.265-5.574,5.61-11.184,11.185-16.77,16.784-2.416,2.422-2.368,4.425-.046,6.87.86.906,1.336.873,2.2,0,5.218-5.3,10.494-10.54,15.756-15.794C604.736-2948.445,609.039-2952.724,613.611-2957.278Zm52.256,19.788v-15.758c0-4.113,0-4.042-4.095-4.122-1.389-.027-1.613.417-1.608,1.681.049,11.272.029,22.544.029,33.817,0,4.33,0,4.277,4.272,4.293,1.214,0,1.433-.4,1.425-1.5C665.841-2925.215,665.866-2931.353,665.867-2937.491Zm-11.659-51a4.436,4.436,0,0,0-2.713,1.332c-3.049,3.046-6.08,6.111-9.16,9.125-.676.661-.647,1.063.016,1.7,1.875,1.8,3.726,3.624,5.507,5.514.74.786,1.182.826,1.959.022,2.832-2.929,5.727-5.8,8.627-8.657,1.406-1.388,2.235-2.9,1.417-4.9C659.024-2986.41,656.285-2988.5,654.208-2988.491Zm-38.384-53.972-9.523-9.626c0,2.861.017,5.794-.013,8.727-.007.682.2.92.9.913C610.122-3042.48,613.058-3042.463,615.824-3042.463Z" transform="translate(-4428.244 3832.204)" fill="#010101"/>
        <path id="Trazado_159999" data-name="Trazado 159999" d="M599.548-2948.207c-2.734,4.961-6.934,5.848-12.208,5.79-24.113-.267-48.232-.1-72.348-.156-1.521,0-1.829.413-1.792,1.846.1,3.866.031,3.868,3.984,3.868h71.386l-5.137,5.367c-.539.563-1.23.292-1.845.292q-33.16.024-66.32-.033c-1.736-.005-2.143.423-2.076,2.11.144,3.608.044,3.612,3.716,3.612q31.209,0,62.419-.019c1.275,0,2.075-.005,2.216,1.708.224,2.725,1.968,4.753,3.978,6.478a2.031,2.031,0,0,1,.613,2.592c-1.525,4.335-2.929,8.713-4.405,13.066-.439,1.3-.655,2.536.4,3.638,1.114,1.162,2.4.974,3.768.51,5.08-1.72,10.162-3.432,15.266-5.079a7.979,7.979,0,0,0,3.513-2.522c2.171,4.278,5.762,5.39,10.114,5.194,3.48-.157,6.975.034,10.46-.066,1.3-.038,1.536.39,1.51,1.583-.079,3.722-.066,7.447-.006,11.169.017,1.086-.176,1.5-1.409,1.5q-58.163-.056-116.326.013c-1.594,0-1.468-.741-1.468-1.791q.016-65.514.009-131.029c0-10.047.024-20.095-.03-30.142-.007-1.27.225-1.668,1.605-1.667q48.055.07,96.112.006c1.287,0,1.689.249,1.66,1.615-.084,4.086-.015,4.088-4.121,4.088H517.321c-3.275,0-4.083.8-4.083,4.061q0,32.89,0,65.78c0,3.037.872,3.922,3.87,3.922q50.006,0,100.012,0c3.1,0,3.938-.864,3.939-4.035q0-26.773-.032-53.546c0-1.524.251-2.111,1.954-2.043,3.749.149,3.753.044,3.753,3.754q0,33.6,0,67.2c0,2.425-.435,2.82-2.869,2.865-3.77.07-7.572-.365-11.286.66a10.325,10.325,0,0,0-2.687.84c-2.3,1.42-4.8,1.344-7.34,1.342q-43.711-.03-87.422-.048c-1.5,0-2,.267-1.938,1.884.14,3.823.043,3.827,3.857,3.827h82.5Zm-32.4-17.024H516.972c-3.737,0-3.645,0-3.777,3.724-.058,1.632.42,1.99,2.008,1.988q50.973-.073,101.945-.037c3.919,0,3.839,0,3.953-3.9.044-1.5-.37-1.814-1.83-1.81C601.9-2965.211,584.522-2965.231,567.147-2965.231Zm-2.87,68.091H565.7c4.4,0,4.37,0,4.316-4.412-.012-.977-.231-1.315-1.259-1.288-2.717.072-5.437.01-8.156.029a2.968,2.968,0,0,1-3.2-2.461c-.294-1.141-.53-2.3-.918-3.413a8.224,8.224,0,0,0-7.727-5.477,8.215,8.215,0,0,0-7.848,5.552,36.385,36.385,0,0,0-.969,3.583c-.321,1.388-1.1,2.263-2.568,2.171a2.36,2.36,0,0,1-2.246-2.319q-.628-4.023-1.352-8.03a7.885,7.885,0,0,0-7.821-6.625,7.86,7.86,0,0,0-7.737,6.712c-.377,2.21-.732,4.424-1.094,6.638-.219,1.345-.707,2.781-2.035,3.091-2,.467-1.988,1.7-1.856,3.21a9.1,9.1,0,0,1-.006,1.947c-.136,1.05.373,1.147,1.227,1.044a9.446,9.446,0,0,0,8.016-7.259c.548-2.475.934-4.987,1.335-7.492.217-1.354.869-2.235,2.289-2.193,1.326.039,1.923.916,2.123,2.184.406,2.564.883,5.117,1.315,7.677a8.125,8.125,0,0,0,7.616,7.124,8.152,8.152,0,0,0,8.3-6.344c.29-1.082.464-2.2.834-3.254a2.434,2.434,0,0,1,2.433-1.723,2.436,2.436,0,0,1,2.435,1.719c.353,1,.523,2.055.8,3.079a8.532,8.532,0,0,0,8.43,6.528C561.676-2897.125,562.976-2897.14,564.277-2897.14Z" transform="translate(-4434.51 3825.917)" fill="#dfdfdf"/>
        <path id="Trazado_160000" data-name="Trazado 160000" d="M579.738-2963.986c-15.487,0-30.973-.023-46.46.038-1.472.006-1.819-.337-1.814-1.812q.084-29.433,0-58.866c0-1.476.344-1.813,1.814-1.811q42.2.075,84.409,0c1.477,0,1.963.336,1.8,1.818a25.053,25.053,0,0,0-.011,3.9,2.761,2.761,0,0,0,2.813,2.815,28.881,28.881,0,0,0,4.075-.01c1.327-.124,1.647.289,1.64,1.623-.061,11.288-.035,22.577-.035,33.866,0,5.615-.048,11.23.035,16.843.019,1.324-.3,1.639-1.632,1.634C610.83-2964,595.284-2963.986,579.738-2963.986Zm-17.025-53.689a6.955,6.955,0,0,1,.008-1.062c.238-1.528-.229-2.1-1.925-2.037-3.754.149-3.785.045-3.743,4.089.013,1.233-.06,2.057-1.528,2.631a10.517,10.517,0,0,0-6.916,9.276,10.843,10.843,0,0,0,4.824,10.393,12.237,12.237,0,0,0,6.829,2.073,5.6,5.6,0,0,1,5.262,5.086,5.714,5.714,0,0,1-4.364,6.064c-2.547.644-5.727-.644-6.335-3.214-.57-2.409-1.876-2.464-3.684-2.312a6.507,6.507,0,0,1-1.416,0c-1.059-.145-1.315.289-1.155,1.287.529,3.305,1.817,6.522,4.845,7.82,3.484,1.493,4.06,3.756,3.621,6.92-.1.731.14.984.947,1.033,4.726.285,4.753.313,4.71-4.341a2,2,0,0,1,1.462-2.315,11.1,11.1,0,0,0,6.232-14.616c-1.954-4.637-5.6-6.954-10.645-7.139a5.7,5.7,0,0,1-5.515-5.035,5.653,5.653,0,0,1,4.107-6.062c2.643-.786,5.806.374,6.539,3.054.68,2.487,2.077,2.574,3.993,2.388a3.054,3.054,0,0,1,.884,0c1.6.324,1.565-.6,1.349-1.712a11.171,11.171,0,0,0-7.281-8.859c-.9-.347-1.207-.746-1.118-1.637C562.761-3016.489,562.713-3017.085,562.713-3017.675Zm34.048.385c.567,1.8-.427,2.743-2.391,3.664a10.959,10.959,0,0,0-5.524,13.479c1.556,4.7,5.422,7.467,10.887,7.8a5.725,5.725,0,0,1,5.508,5.046,5.7,5.7,0,0,1-4.286,6.114c-2.548.682-5.734-.553-6.373-3.121s-2.111-2.52-4-2.377a5.456,5.456,0,0,1-1.239-.006c-1.029-.16-1.183.35-1.057,1.209.475,3.246,1.709,6.408,4.64,7.76,3.427,1.581,4.464,3.743,3.833,7.159-.122.662.164.867.864.928,4.806.417,4.855.437,4.774-4.26a2.113,2.113,0,0,1,1.565-2.435,11.046,11.046,0,0,0,6.705-12.64c-1.138-5.371-5.3-8.761-11.133-9.061a5.765,5.765,0,0,1-5.585-4.971,5.688,5.688,0,0,1,4.2-6.174c2.626-.736,5.844.5,6.487,3.176.615,2.561,2.073,2.405,3.875,2.3a6.27,6.27,0,0,1,1.239.006c1.066.153,1.311-.3,1.147-1.29-.646-3.919-2.493-7.148-6.19-8.675-2.111-.871-2.532-2.038-2.276-3.941a3.946,3.946,0,0,0,0-.531c0-2.6,0-2.6-2.548-2.6C596.761-3020.728,596.761-3020.728,596.761-3017.29Z" transform="translate(-4447.098 3813.324)" fill="#dce736"/>
        <path id="Trazado_160001" data-name="Trazado 160001" d="M678.735-2811.334c1.227-3.694,2.342-7.042,3.447-10.393a4.035,4.035,0,0,1,1.16-1.535q24.635-24.632,49.247-49.287c.994-1,1.543-1.01,2.473.012,1.589,1.747,3.275,3.413,5.012,5.014.907.836.906,1.338.013,2.218-5.64,5.558-11.22,11.178-16.82,16.776q-16.111,16.106-32.211,32.224a7.35,7.35,0,0,1-3.093,1.934C684.99-2813.44,682.041-2812.428,678.735-2811.334Z" transform="translate(-4524.567 3732.769)" fill="#3d46c2"/>
        <path id="Trazado_160002" data-name="Trazado 160002" d="M774.2-2814.534c0,4.016-.112,8.037.051,12.046.073,1.8-.51,2.1-2.142,2.049a33.744,33.744,0,0,0-9.159.553,21.663,21.663,0,0,0-10.276,5.6,17.432,17.432,0,0,1-13.1,5.169c-4.31-.082-8.623-.008-12.935-.02-2.228-.006-3.515-1.076-3.5-2.858s1.3-2.75,3.545-2.821c4.53-.145,9.092.457,13.583-.65a22.171,22.171,0,0,0,16.882-21.225c.027-3.414.175-6.832-.116-10.254a1.88,1.88,0,0,1,2.055-1.895c4.725-.031,9.451.015,14.175-.034,1.039-.011.941.562.94,1.23Q774.189-2821.09,774.2-2814.534Z" transform="translate(-4547.923 3709.4)" fill="#f7d8af"/>
        <path id="Trazado_160003" data-name="Trazado 160003" d="M708.071-2840.731c-4.572,4.555-8.875,8.834-13.169,13.122-5.263,5.254-10.538,10.5-15.756,15.794-.863.876-1.338.908-2.2,0-2.322-2.446-2.37-4.449.045-6.87,5.585-5.6,11.2-11.173,16.77-16.784C697.6-2839.332,702.227-2841.051,708.071-2840.731Z" transform="translate(-4522.704 3715.656)" fill="#f7d8af"/>
        <path id="Trazado_160004" data-name="Trazado 160004" d="M848.483-2821c0,6.137-.026,12.275.023,18.413.009,1.1-.211,1.5-1.425,1.5-4.272-.016-4.272.037-4.272-4.293,0-11.272.02-22.545-.029-33.817-.006-1.265.219-1.708,1.608-1.681,4.093.081,4.095.009,4.095,4.122Z" transform="translate(-4610.86 3715.718)" fill="#f85316"/>
        <path id="Trazado_160005" data-name="Trazado 160005" d="M816.487-2906.542c2.077-.014,4.816,2.081,5.654,4.13.818,2-.011,3.517-1.417,4.9-2.9,2.861-5.8,5.729-8.627,8.657-.777.8-1.219.763-1.959-.022-1.781-1.89-3.632-3.716-5.507-5.514-.664-.636-.693-1.038-.016-1.7,3.081-3.014,6.112-6.079,9.16-9.125A4.436,4.436,0,0,1,816.487-2906.542Z" transform="translate(-4590.523 3750.255)" fill="#3d46c2"/>
        <path id="Trazado_160006" data-name="Trazado 160006" d="M764.943-2804.942l8.4-8.01c1.259,7.694-1.863,15.093-7.944,18.4-.646-.477-.405-1.175-.412-1.787C764.953-2799.205,764.954-2802.074,764.943-2804.942Z" transform="translate(-4569.915 3701.024)" fill="#fefefe"/>
        <path id="Trazado_160007" data-name="Trazado 160007" d="M751.207-2796.052c.011,2.868.01,5.737.044,8.606.007.612-.234,1.311.412,1.787-3.986,2.749-8.5,2.521-12.833,2.4Z" transform="translate(-4556.179 3692.134)" fill="#dfdfdf"/>
        <path id="Trazado_160008" data-name="Trazado 160008" d="M738.645-3031.1c-2.766,0-5.7-.018-8.636.013-.7.007-.907-.231-.9-.913.029-2.932.013-5.865.013-8.727Z" transform="translate(-4551.065 3820.839)" fill="#dfdfdf"/>
        <path id="Trazado_160009" data-name="Trazado 160009" d="M573.425-2870.771c17.375,0,34.75.02,52.125-.037,1.46,0,1.873.315,1.83,1.81-.114,3.9-.034,3.9-3.953,3.9q-50.973,0-101.945.037c-1.588,0-2.067-.355-2.008-1.988.133-3.721.041-3.725,3.778-3.725Z" transform="translate(-4440.788 3731.458)" fill="#010101"/>
        <path id="Trazado_160010" data-name="Trazado 160010" d="M570.542-2752.254c-1.3,0-2.6.015-3.9,0a8.532,8.532,0,0,1-8.43-6.527c-.277-1.024-.447-2.084-.8-3.08a2.436,2.436,0,0,0-2.435-1.719,2.434,2.434,0,0,0-2.433,1.723c-.369,1.053-.544,2.172-.834,3.254a8.152,8.152,0,0,1-8.3,6.344,8.125,8.125,0,0,1-7.616-7.124c-.432-2.56-.91-5.113-1.315-7.677-.2-1.269-.8-2.146-2.123-2.184-1.42-.042-2.073.839-2.289,2.193-.4,2.5-.786,5.017-1.335,7.492a9.445,9.445,0,0,1-8.016,7.259c-.854.1-1.363.006-1.227-1.044a9.094,9.094,0,0,0,.006-1.948c-.132-1.513-.145-2.743,1.856-3.21,1.328-.309,1.816-1.746,2.035-3.091.362-2.214.717-4.428,1.094-6.638a7.86,7.86,0,0,1,7.737-6.712,7.886,7.886,0,0,1,7.821,6.626q.724,4.006,1.352,8.03a2.36,2.36,0,0,0,2.246,2.319c1.464.092,2.246-.783,2.568-2.171a36.39,36.39,0,0,1,.969-3.583,8.215,8.215,0,0,1,7.848-5.551,8.224,8.224,0,0,1,7.727,5.477c.388,1.109.624,2.272.918,3.414a2.968,2.968,0,0,0,3.2,2.461c2.719-.019,5.439.042,8.156-.029,1.028-.027,1.247.311,1.259,1.288.054,4.412.086,4.412-4.316,4.412Z" transform="translate(-4440.774 3681.031)" fill="#010101"/>
        <path id="Trazado_160011" data-name="Trazado 160011" d="M581.65-3011.4c0,.59.047,1.186-.011,1.771-.089.892.215,1.291,1.118,1.637a11.171,11.171,0,0,1,7.281,8.859c.215,1.113.254,2.036-1.349,1.712a3.045,3.045,0,0,0-.884,0c-1.916.186-3.313.1-3.993-2.388-.733-2.68-3.9-3.84-6.539-3.054a5.653,5.653,0,0,0-4.107,6.062,5.7,5.7,0,0,0,5.515,5.035c5.041.185,8.692,2.5,10.645,7.139a11.1,11.1,0,0,1-6.232,14.616,2,2,0,0,0-1.462,2.315c.044,4.654.017,4.626-4.71,4.341-.806-.048-1.047-.3-.946-1.033.439-3.164-.137-5.427-3.621-6.92-3.028-1.3-4.317-4.515-4.845-7.821-.16-1,.1-1.432,1.155-1.287a6.539,6.539,0,0,0,1.416,0c1.808-.152,3.114-.1,3.684,2.312.608,2.57,3.788,3.858,6.335,3.214a5.714,5.714,0,0,0,4.364-6.064,5.6,5.6,0,0,0-5.262-5.086,12.241,12.241,0,0,1-6.829-2.073,10.844,10.844,0,0,1-4.824-10.393,10.517,10.517,0,0,1,6.916-9.276c1.468-.574,1.541-1.4,1.528-2.631-.042-4.043-.011-3.94,3.743-4.089,1.7-.067,2.163.51,1.925,2.037A6.962,6.962,0,0,0,581.65-3011.4Z" transform="translate(-4466.035 3807.044)" fill="#010101"/>
        <path id="Trazado_160012" data-name="Trazado 160012" d="M659.789-3010.953c0-3.437,0-3.437,3.129-3.437,2.548,0,2.548,0,2.548,2.6a3.956,3.956,0,0,1,0,.531c-.256,1.9.165,3.07,2.276,3.94,3.7,1.527,5.544,4.756,6.191,8.675.164.991-.081,1.442-1.147,1.289a6.307,6.307,0,0,0-1.239-.006c-1.8.1-3.26.259-3.875-2.3-.643-2.676-3.861-3.912-6.487-3.176a5.688,5.688,0,0,0-4.2,6.174,5.765,5.765,0,0,0,5.585,4.972c5.829.3,10,3.69,11.133,9.061a11.046,11.046,0,0,1-6.705,12.64,2.113,2.113,0,0,0-1.565,2.435c.081,4.7.032,4.677-4.774,4.26-.7-.061-.986-.266-.864-.928.631-3.416-.406-5.579-3.833-7.159-2.932-1.352-4.165-4.515-4.64-7.76-.126-.859.028-1.369,1.057-1.208a5.455,5.455,0,0,0,1.238.005c1.885-.142,3.359-.18,4,2.378s3.825,3.8,6.373,3.121a5.7,5.7,0,0,0,4.286-6.114,5.725,5.725,0,0,0-5.508-5.046c-5.465-.331-9.331-3.1-10.887-7.8a10.959,10.959,0,0,1,5.524-13.48C659.363-3008.21,660.356-3009.15,659.789-3010.953Z" transform="translate(-4510.126 3806.987)" fill="#010101"/>
        <path id="Trazado_160013" data-name="Trazado 160013" d="M98.461-2953.937c.617-.185.45-.785.555-1.182,2.885-11,11.452-17.708,22.841-17.725q30.671-.045,61.343-.009c12.883,0,25.766-.02,38.649.031a3.918,3.918,0,0,0,3.071-1.3q15.878-15.963,31.831-31.851c4.9-4.883,11.711-5.684,17.127-2.1a13.266,13.266,0,0,1,4.452,17.335,2.235,2.235,0,0,0-.038,2.514,12.726,12.726,0,0,1-1.863,15.368c-1.577,1.667-3.269,3.225-4.976,4.9a23.269,23.269,0,0,1,8.042,12.961,24.058,24.058,0,0,1,.56,5.271q-.015,32.973-.014,65.947a22.8,22.8,0,0,1-23.022,23.058c-9.1.026-18.2.008-27.3,0-2.329,0-2.965-.51-3.6-2.79.452-1.936,1.7-2.57,3.635-2.557q13.637.088,27.275.013a17.41,17.41,0,0,0,17.682-17.579c.054-22.137.02-44.274.01-66.412a12.994,12.994,0,0,0-1.061-5.671,14.552,14.552,0,0,0-3.894-6.495c-1.072,5.72-4.152,9.335-9.816,9.851-5.615.512-9.3-2.472-11.465-8.037a17.311,17.311,0,0,1-1.262,1.66c-7.008,7.029-14.059,14.013-21.038,21.07-7.059,7.138-15.685,9.969-25.546,9.513a2.688,2.688,0,0,1-2.843-2.767c-.494-9.793,2.248-18.407,9.318-25.436q5.027-5,10.019-10.032c.283-.287.858-.467.683-1.054h-7.629c-.645-.03-1.289-.088-1.933-.088q-19.083-.008-38.166,0c-.7,0-1.406.066-2.109.1a1.358,1.358,0,0,0-.341-.09c-15.887.015-31.774-.093-47.659.107-7.781.1-14.642,6.454-15.858,14.192-.783,4.982-.246,10.02-.3,15.031-.021,1.933-.668,3.164-2.559,3.659a4.459,4.459,0,0,1-2.8-1.683Zm128.267,7.794c.59-.021.814-.411,1.1-.692q10.41-10.395,20.822-20.787c.787-.781.722-1.283-.031-2.019q-4.817-4.707-9.547-9.5c-.663-.672-1.069-.632-1.714.016q-10.375,10.43-20.805,20.8c-.729.725-.871,1.229-.063,2.023,3.2,3.146,6.346,6.352,9.517,9.531C226.245-2946.523,226.525-2946.316,226.728-2946.143Zm47.8-50.88a7.62,7.62,0,0,0-4.572-7.034,7.279,7.279,0,0,0-8.553,1.163c-3.175,2.9-6.12,6.049-9.195,9.06-.565.554-.513.884.021,1.414q4.9,4.857,9.723,9.783c.654.67,1.017.645,1.657-.011,2.84-2.912,5.738-5.767,8.608-8.65A7.978,7.978,0,0,0,274.53-2997.023Zm-69.017,63.358a25.285,25.285,0,0,0,16.554-7.452c.782-.772.935-1.211.051-2.058q-4.732-4.534-9.3-9.243c-.82-.844-1.266-.805-2.066.015a26.059,26.059,0,0,0-7.523,16.373C203-2933.464,202.982-2933.466,205.513-2933.665ZM273.892-2985c-6.4,6.328-12.827,12.49-19.009,18.886-2.369,2.452-1.13,6.688,1.928,8.023a4.976,4.976,0,0,0,5.739-.918,4.884,4.884,0,0,0,1.478-5.616,3.634,3.634,0,0,1,1.085-4.42c2.419-2.248,4.717-4.629,7.028-6.992C274.772-2978.73,275.357-2981.744,273.892-2985Zm-14.96,6.988c-.216-.262-.378-.5-.576-.694-3.34-3.336-6.7-6.655-10.017-10.011-.565-.572-.89-.486-1.4.048-1.344,1.409-2.713,2.8-4.135,4.126-.663.62-.71,1-.024,1.669,3.287,3.222,6.529,6.49,9.756,9.771.551.561.9.727,1.521.068,1.373-1.461,2.828-2.846,4.245-4.266C258.5-2977.5,258.681-2977.728,258.932-2978.013Z" transform="translate(-4219.325 3804.83)" fill="#030303"/>
        <path id="Trazado_160014" data-name="Trazado 160014" d="M219.11-2771.653c-.482,2.151-1.215,2.784-3.38,2.785q-47.377.009-94.753-.017a22.766,22.766,0,0,1-21.867-17.371c-.142-.578-.009-1.309-.649-1.716v-45.748a3.271,3.271,0,0,1,2.8-1.966c1.853.418,2.54,1.594,2.535,3.464q-.055,19.922-.016,39.844c.012,10.617,7.558,18.173,18.159,18.187q17.267.022,34.534,0c2.536,0,5.072-.049,7.608-.075.648.026,1.3.074,1.944.074q24.738.007,49.474.006C217.89-2774.185,218.438-2773.786,219.11-2771.653Z" transform="translate(-4219.325 3712.982)" fill="#030303"/>
        <path id="Trazado_160015" data-name="Trazado 160015" d="M276.58-2816.042c-.672-2.133-1.22-2.532-3.605-2.532q-24.737-.007-49.474-.006c-.648,0-1.3-.048-1.944-.074a5.171,5.171,0,0,0-.484-1.119,68.847,68.847,0,0,1-7.169-12.7c-1.093-2.372-2.377-4.714-2.656-7.394,1.878-.032,3.756-.076,5.634-.094s3.765.047,5.644-.031a2.714,2.714,0,0,0,2.83-2.746,2.723,2.723,0,0,0-2.842-2.544c-.645-.036-1.293,0-1.94-.011q-5.725-.062-11.449-.127a7.485,7.485,0,0,0-.234-1.713c-.451-2.264-1.21-4.48-1.176-6.828.392-.126.779-.27,1.176-.376a29.373,29.373,0,0,0,20.556-36.755c-2.071-6.958-6.348-12.244-12.193-16.377a71.306,71.306,0,0,1,4.689-7.476c1.2-1.644,2.709-3.093,3.505-5.024.7-.035,1.406-.1,2.109-.1q19.083-.01,38.166,0c.645,0,1.289.057,1.933.088-2.362,2.8-5.126,5.215-7.66,7.852a38.727,38.727,0,0,0-7.974,12.587c-2.219,5.512-2.331,11.266-2.069,17.049.144,3.175,3.923,7.018,7.114,7.172a43.385,43.385,0,0,0,15.2-1.513c6.367-1.984,11.573-5.707,16.248-10.286,4.219-4.134,8.363-8.345,12.54-12.521,2.685-2.683,4.641-2.943,8.114-1.354a16.148,16.148,0,0,0,14.641-.047,18.879,18.879,0,0,0,7.318-7.21,12.994,12.994,0,0,1,1.061,5.671c.009,22.137.043,44.274-.01,66.412a17.41,17.41,0,0,1-17.682,17.579q-13.637.085-27.275-.013c-1.933-.012-3.184.622-3.635,2.557Zm3.482-53.267c-10.992,0-21.984-.017-32.975.009-4.241.01-7.5,2.6-8.189,6.387-.959,5.279,2.774,9.592,8.373,9.6q27.124.024,54.25.006c3.96,0,7.92.052,11.878-.014a8,8,0,0,0,7.791-10.194,7.954,7.954,0,0,0-7.975-5.781C302.164-2869.324,291.113-2869.307,280.062-2869.308Zm30.49,37.331c2.539,0,5.078.01,7.617,0,2.071-.011,3.3-.984,3.334-2.6.036-1.669-1.255-2.711-3.415-2.715-4.783-.01-9.566-.034-14.348.018a1.932,1.932,0,0,1-2.216-1.493,5.8,5.8,0,0,0-3.113-3.461c-2.942-1.427-5.459-.5-7.842,1.407-1.7,1.357-2,1.23-2.846-.775a6.274,6.274,0,0,0-8.967-3.222c-4.126,2.511-8.1,5.272-12.1,7.987a2.547,2.547,0,0,0-.815,3.572c.869,1.409,2.392,1.7,3.993.656,3.551-2.324,7.062-4.709,10.6-7.052,1.5-1,1.91-.863,2.574.792a6.4,6.4,0,0,0,4.393,4.017c2.608.726,4.7-.334,6.683-1.9,1.665-1.312,1.96-1.2,2.788.68a6.294,6.294,0,0,0,6.064,4.078C305.474-2831.951,308.013-2831.981,310.552-2831.977Z" transform="translate(-4276.795 3757.371)" fill="#f1f4c3"/>
        <path id="Trazado_160016" data-name="Trazado 160016" d="M156.882-2839.862c.279,2.68,1.563,5.021,2.656,7.394a68.838,68.838,0,0,0,7.169,12.7,5.177,5.177,0,0,1,.484,1.119c-2.536.026-5.072.074-7.608.076q-17.267.012-34.534,0c-10.6-.014-18.147-7.57-18.159-18.187q-.023-19.922.016-39.844c.005-1.869-.682-3.046-2.535-3.464q0-3.5-.008-6.99c1.891-.5,2.538-1.726,2.559-3.659.056-5.011-.481-10.049.3-15.031,1.216-7.738,8.077-14.094,15.858-14.192,15.884-.2,31.772-.092,47.659-.107a1.358,1.358,0,0,1,.341.09c-.8,1.932-2.3,3.381-3.505,5.024a71.3,71.3,0,0,0-4.689,7.476c-.364-.187-.737-.358-1.092-.563a29.181,29.181,0,0,0-19.243-3.718c-12.231,1.751-21.95,11.222-24.482,23.8-2.352,11.681,3.3,24.143,13.811,30.421a29.692,29.692,0,0,0,21.467,3.567c-.034,2.348.725,4.564,1.176,6.829a7.48,7.48,0,0,1,.234,1.712c-.644.042-1.288.121-1.932.122q-12.767.012-25.534.005c-.473,0-.947-.016-1.418.007-1.78.085-2.951,1.137-2.953,2.638a2.708,2.708,0,0,0,2.943,2.658c4.728.054,9.457.011,14.185.028C145.66-2839.936,151.271-2839.895,156.882-2839.862Zm-18.267,13.221c4.069,0,8.138.012,12.206,0,2.05-.009,3.252-1.03,3.232-2.673s-1.225-2.636-3.29-2.639q-12.295-.016-24.589,0c-2.017,0-3.275,1.079-3.255,2.7s1.25,2.606,3.313,2.614C130.36-2826.63,134.488-2826.641,138.615-2826.641Z" transform="translate(-4222.43 3757.371)" fill="#f1f4c3"/>
        <path id="Trazado_160017" data-name="Trazado 160017" d="M377.9-2908.148a18.881,18.881,0,0,1-7.318,7.21,16.148,16.148,0,0,1-14.641.047c-3.473-1.588-5.429-1.329-8.114,1.354-4.178,4.176-8.321,8.387-12.54,12.521-4.675,4.58-9.881,8.3-16.248,10.287a43.385,43.385,0,0,1-15.2,1.513c-3.191-.154-6.97-4-7.114-7.171-.262-5.784-.149-11.537,2.069-17.05a38.733,38.733,0,0,1,7.974-12.587c2.534-2.636,5.3-5.048,7.66-7.852h7.629c.175.587-.4.767-.683,1.054q-4.987,5.038-10.019,10.032c-7.07,7.029-9.812,15.643-9.318,25.436a2.689,2.689,0,0,0,2.843,2.767c9.861.456,18.487-2.375,25.546-9.512,6.979-7.057,14.03-14.042,21.038-21.07a17.285,17.285,0,0,0,1.262-1.66c2.17,5.565,5.85,8.549,11.465,8.037,5.664-.516,8.744-4.13,9.816-9.85A14.553,14.553,0,0,1,377.9-2908.148Z" transform="translate(-4323.563 3757.269)" fill="#f1f4c3"/>
        <path id="Trazado_160018" data-name="Trazado 160018" d="M357.108-2912.115c-.2-.173-.483-.38-.726-.624-3.171-3.18-6.315-6.385-9.517-9.532-.808-.794-.666-1.3.063-2.023q10.43-10.374,20.805-20.8c.645-.648,1.051-.688,1.714-.016q4.729,4.794,9.547,9.5c.753.736.818,1.238.031,2.018q-10.438,10.367-20.822,20.787C357.922-2912.526,357.7-2912.135,357.108-2912.115Z" transform="translate(-4349.706 3770.801)" fill="#4b475b"/>
        <path id="Trazado_160019" data-name="Trazado 160019" d="M444.722-2991.082a7.978,7.978,0,0,1-2.311,5.725c-2.869,2.883-5.768,5.738-8.608,8.65-.64.656-1,.681-1.657.011q-4.813-4.939-9.723-9.783c-.534-.53-.586-.86-.021-1.414,3.075-3.01,6.02-6.16,9.195-9.059a7.279,7.279,0,0,1,8.553-1.163A7.62,7.62,0,0,1,444.722-2991.082Z" transform="translate(-4389.517 3798.888)" fill="#f85316"/>
        <path id="Trazado_160020" data-name="Trazado 160020" d="M321.685-2870.122c-2.531.2-2.51.2-2.281-2.365a26.061,26.061,0,0,1,7.523-16.373c.8-.82,1.246-.858,2.066-.015q4.568,4.7,9.3,9.244c.884.847.731,1.285-.051,2.058A25.285,25.285,0,0,1,321.685-2870.122Z" transform="translate(-4335.498 3741.286)" fill="#dce736"/>
        <path id="Trazado_160021" data-name="Trazado 160021" d="M446.12-2956.936c1.466,3.258.88,6.271-1.751,8.964-2.31,2.364-4.608,4.744-7.028,6.992a3.635,3.635,0,0,0-1.085,4.42,4.885,4.885,0,0,1-1.478,5.616,4.976,4.976,0,0,1-5.739.917c-3.058-1.336-4.3-5.572-1.928-8.023C433.292-2944.446,439.717-2950.607,446.12-2956.936Z" transform="translate(-4391.553 3776.764)" fill="#4b475b"/>
        <path id="Trazado_160022" data-name="Trazado 160022" d="M418.556-2954.508c-.251.285-.428.511-.629.712-1.417,1.42-2.872,2.8-4.245,4.266-.619.658-.969.492-1.521-.068-3.227-3.282-6.469-6.55-9.756-9.771-.686-.672-.639-1.049.024-1.669,1.421-1.33,2.791-2.717,4.135-4.126.509-.534.833-.62,1.4-.048,3.32,3.356,6.676,6.675,10.017,10.011C418.177-2955,418.34-2954.77,418.556-2954.508Z" transform="translate(-4378.949 3781.324)" fill="#dce736"/>
        <path id="Trazado_160023" data-name="Trazado 160023" d="M167.975-2845.076a29.692,29.692,0,0,1-21.467-3.568c-10.511-6.278-16.163-18.741-13.811-30.421,2.532-12.578,12.251-22.049,24.482-23.8a29.179,29.179,0,0,1,19.243,3.718c.354.2.727.376,1.092.563,5.845,4.133,10.122,9.419,12.193,16.377a29.373,29.373,0,0,1-20.556,36.755C168.754-2845.345,168.367-2845.2,167.975-2845.076Zm-6.318-4.678a24.163,24.163,0,0,0,24.012-24.036,24.171,24.171,0,0,0-24.133-24.1,24.178,24.178,0,0,0-24.019,24.216A24.176,24.176,0,0,0,161.657-2849.753Z" transform="translate(-4237.057 3748.491)" fill="#030303"/>
        <path id="Trazado_160024" data-name="Trazado 160024" d="M314.5-2812.977c11.051,0,22.1-.017,33.152.009a7.955,7.955,0,0,1,7.975,5.781,8,8,0,0,1-7.791,10.194c-3.959.066-7.919.014-11.878.014q-27.125,0-54.25-.006c-5.6,0-9.332-4.318-8.373-9.6.688-3.787,3.949-6.377,8.189-6.387C292.521-2812.994,303.513-2812.977,314.5-2812.977Zm.02,10.642v.019q16.126,0,32.251-.007a6.9,6.9,0,0,0,1.921-.179,2.427,2.427,0,0,0,1.87-2.668,2.47,2.47,0,0,0-2.369-2.434,13.284,13.284,0,0,0-1.416-.032q-29.15,0-58.3,0c-2.481,0-4.962-.016-7.441.052a2.342,2.342,0,0,0-2.439,2.317,2.478,2.478,0,0,0,2.087,2.84,7.212,7.212,0,0,0,1.762.087Q298.488-2802.331,314.525-2802.334Z" transform="translate(-4311.238 3701.04)" fill="#030303"/>
        <path id="Trazado_160025" data-name="Trazado 160025" d="M374.606-2749.422c-2.539,0-5.078.028-7.617-.011a6.294,6.294,0,0,1-6.063-4.078c-.828-1.883-1.123-1.991-2.788-.68-1.985,1.563-4.075,2.624-6.683,1.9a6.4,6.4,0,0,1-4.393-4.017c-.665-1.656-1.07-1.788-2.574-.792-3.538,2.343-7.05,4.727-10.6,7.052-1.6,1.048-3.123.753-3.993-.656a2.547,2.547,0,0,1,.815-3.572c4-2.715,7.973-5.476,12.1-7.987a6.274,6.274,0,0,1,8.967,3.222c.849,2.005,1.15,2.132,2.846.775,2.384-1.908,4.9-2.833,7.842-1.407a5.8,5.8,0,0,1,3.113,3.461,1.932,1.932,0,0,0,2.216,1.493c4.782-.052,9.565-.028,14.348-.018,2.16,0,3.451,1.046,3.415,2.715-.034,1.617-1.263,2.59-3.334,2.6C379.685-2749.409,377.145-2749.42,374.606-2749.422Z" transform="translate(-4340.849 3674.814)" fill="#030303"/>
        <path id="Trazado_160026" data-name="Trazado 160026" d="M177.479-2757.008c-5.611-.032-11.222-.074-16.832-.094-4.729-.017-9.458.026-14.185-.028a2.708,2.708,0,0,1-2.943-2.658c0-1.5,1.173-2.553,2.953-2.638.472-.022.946-.007,1.418-.007q12.767,0,25.534-.005c.644,0,1.288-.08,1.932-.122q5.725.064,11.449.127c.647.007,1.3-.025,1.94.011a2.722,2.722,0,0,1,2.842,2.543,2.714,2.714,0,0,1-2.83,2.746c-1.878.078-3.762.013-5.644.031S179.357-2757.04,177.479-2757.008Z" transform="translate(-4243.027 3674.516)" fill="#030303"/>
        <path id="Trazado_160027" data-name="Trazado 160027" d="M159.209-2728.861c-4.127,0-8.255.011-12.382,0-2.063-.008-3.293-1-3.313-2.614s1.238-2.694,3.255-2.7q12.295-.021,24.589,0c2.066,0,3.271,1,3.29,2.638s-1.182,2.664-3.232,2.673C167.347-2728.849,163.278-2728.861,159.209-2728.861Z" transform="translate(-4243.024 3659.591)" fill="#030303"/>
        <path id="Trazado_160028" data-name="Trazado 160028" d="M167.592-2843.868a24.176,24.176,0,0,1-24.14-23.916A24.178,24.178,0,0,1,167.472-2892a24.171,24.171,0,0,1,24.133,24.1A24.163,24.163,0,0,1,167.592-2843.868Zm-.171-42.714a2.446,2.446,0,0,0-2.46,2.233,14.266,14.266,0,0,0-.064,2.3,1.586,1.586,0,0,1-.912,1.685c-3.569,2.021-5.025,5.16-4.245,8.87.7,3.35,3.46,5.674,7.314,6.169,2.16.277,3.239,1.255,3.142,2.847-.1,1.7-1.321,2.6-3.546,2.612-1.537.012-3.076-.031-4.609.039a2.384,2.384,0,0,0-2.479,2.478c-.062,1.5.829,2.746,2.262,2.65,2.5-.168,3.38.644,3.177,3.155-.116,1.435,1.09,2.229,2.464,2.252a2.4,2.4,0,0,0,2.6-2.169,9.114,9.114,0,0,0,.08-2.12,1.783,1.783,0,0,1,1.2-2.049,6.841,6.841,0,0,0,3.122-3.042,7.944,7.944,0,0,0-6.088-11.815c-2.452-.261-3.59-1.18-3.539-2.86.054-1.754,1.33-2.622,3.875-2.633,1.3,0,2.6.036,3.9-.018,1.826-.074,2.9-1.113,2.86-2.679a2.461,2.461,0,0,0-2.81-2.516c-2.167.189-2.683-.635-2.567-2.638A2.516,2.516,0,0,0,167.421-2886.583Z" transform="translate(-4242.992 3742.606)" fill="#dce736"/>
        <path id="Trazado_160029" data-name="Trazado 160029" d="M320.511-2796.4q-16.037,0-32.074,0a7.212,7.212,0,0,1-1.762-.087,2.479,2.479,0,0,1-2.087-2.841,2.342,2.342,0,0,1,2.439-2.317c2.479-.069,4.961-.053,7.441-.053q29.151-.005,58.3,0a13.284,13.284,0,0,1,1.416.032,2.47,2.47,0,0,1,2.369,2.434,2.427,2.427,0,0,1-1.87,2.668,6.9,6.9,0,0,1-1.921.179q-16.126.015-32.251.007Z" transform="translate(-4317.224 3695.109)" fill="#75b62f"/>
        <path id="Trazado_160030" data-name="Trazado 160030" d="M185.271-2880.569a2.516,2.516,0,0,1,2.672,2.751c-.117,2,.4,2.827,2.567,2.638a2.461,2.461,0,0,1,2.81,2.516c.038,1.566-1.035,2.605-2.86,2.679-1.3.053-2.6.012-3.9.018-2.545.01-3.822.878-3.875,2.632-.051,1.68,1.086,2.6,3.539,2.86a7.944,7.944,0,0,1,6.088,11.816,6.841,6.841,0,0,1-3.122,3.042,1.783,1.783,0,0,0-1.2,2.05,9.116,9.116,0,0,1-.08,2.12,2.4,2.4,0,0,1-2.6,2.169c-1.374-.023-2.58-.817-2.464-2.252.2-2.511-.674-3.323-3.177-3.155-1.432.1-2.324-1.148-2.262-2.65a2.384,2.384,0,0,1,2.479-2.478c1.534-.069,3.073-.027,4.609-.039,2.225-.017,3.443-.917,3.546-2.612.1-1.593-.982-2.57-3.142-2.847-3.854-.495-6.611-2.82-7.314-6.169-.779-3.71.677-6.849,4.245-8.87a1.585,1.585,0,0,0,.912-1.685,14.262,14.262,0,0,1,.064-2.3A2.446,2.446,0,0,1,185.271-2880.569Z" transform="translate(-4260.842 3736.593)" fill="#030303"/>
      </g>
    </g>
  </g>
</svg>
