<svg xmlns="http://www.w3.org/2000/svg" width="94.075" height="106.455" viewBox="0 0 94.075 106.455">
  <g id="Grupo_109786" data-name="Grupo 109786" transform="translate(8304.78 -8068.959)">
    <g id="Grupo_109740" data-name="Grupo 109740" transform="translate(-10136.518 8668.711)">
      <path id="Trazado_159656" data-name="Trazado 159656" d="M1908.93-560.936c1.2-2.63,2.376-5.276,3.62-7.887a6.922,6.922,0,0,1,7.317-4,6.929,6.929,0,0,1,5.817,5.6,7.282,7.282,0,0,1-.684,4.6c-4.445,9.705-8.846,19.43-13.313,29.124a31.622,31.622,0,0,1-2.839,5.763c-.177.241-.094.689-.094,1.042q-.006,15.581,0,31.162c0,1.782-.445,2.232-2.217,2.232q-30.461,0-60.922,0c-1.768,0-2.206-.448-2.206-2.241,0-3.954-.02-7.907.017-11.861.007-.733-.148-.972-.927-.958-2.911.051-5.822.024-8.734.019-1.535,0-2.019-.466-2.019-1.958q0-39.9.006-79.791a9.458,9.458,0,0,1,9.7-9.663q29.381.032,58.762.1c4.889.011,8.513,3.834,8.53,9.043.03,9.489.006,18.978,0,28.466v1.177Zm-3.2-22.624c-2.177,1.888-4.589,2.09-7.117,2.088-17.069-.018-34.138.018-51.207.007-.807,0-1,.192-1,1q.035,41.559,0,83.118c0,.857.228,1.051,1.063,1.05q28.622-.037,57.245,0c.887,0,1.035-.277,1.033-1.08-.027-9.056-.017-18.111-.017-27.167v-.895c-.137-.031-.181-.056-.2-.043-1.716,1.178-3.42,2.373-5.147,3.534-1.347.906-2.462.363-2.642-1.251-.268-2.391-.429-4.8-.841-7.166a10.479,10.479,0,0,1,1.06-6.613c2.578-5.356,4.974-10.8,7.444-16.208a2.875,2.875,0,0,0,.334-1.225C1905.724-564.039,1905.727-573.668,1905.727-583.56Zm-70.962,32.135q0,19.507-.017,39.014c0,.808.15,1.1,1.034,1.074,2.117-.073,4.24-.082,6.357,0,1.011.04,1.3-.187,1.294-1.256q-.055-34.757-.051-69.515a2.888,2.888,0,0,1,1.488-2.808,6.364,6.364,0,0,0,2.38-7.782,6.483,6.483,0,0,0-7.158-3.907,6.415,6.415,0,0,0-5.323,6.593Q1834.755-570.717,1834.765-551.425Zm14.136-33.051h1.3l49.49-.035a5.6,5.6,0,0,0,5.953-5.046c.579-3.468-1.849-7.408-5.819-7.089-1.177.094-2.37,0-3.556-.005q-17.844-.036-35.688-.069c-4.045-.007-8.09,0-12.178,0C1851.378-591.091,1851.476-588.981,1848.9-584.476Zm58.158,53.3c.448-.05.456-.448.577-.713q5.815-12.7,11.618-25.4c.249-.543.307-.828-.366-1.111-1.913-.806-3.8-1.685-5.672-2.58-.561-.268-.833-.271-1.125.373q-5.813,12.819-11.69,25.608c-.261.57-.128.767.41,1,1.9.828,3.785,1.711,5.674,2.573C1906.681-531.34,1906.878-531.255,1907.059-531.175Zm15.7-34.354a4.057,4.057,0,0,0-2.938-4.194,3.859,3.859,0,0,0-4.322,1.838c-.578,1.065-1.013,2.206-1.556,3.292-.232.464-.02.608.346.772q2.98,1.339,5.951,2.7c.259.118.576.334.731-.045C1921.611-562.741,1922.628-564.178,1922.757-565.529Zm-22.24,39.787,4.405-3.051-4.989-2.263C1900.132-529.244,1900.314-527.587,1900.516-525.743Z" fill="#030303"/>
      <path id="Trazado_159657" data-name="Trazado 159657" d="M1941.948-543.574c0,9.892,0,19.521.008,29.149a2.87,2.87,0,0,1-.334,1.225c-2.47,5.408-4.866,10.852-7.444,16.208a10.48,10.48,0,0,0-1.059,6.613c.412,2.366.573,4.776.841,7.166.181,1.614,1.3,2.158,2.642,1.251,1.727-1.162,3.431-2.357,5.147-3.534.019-.013.063.012.2.043v.895c0,9.056-.01,18.111.017,27.167,0,.8-.146,1.081-1.033,1.08q-28.622-.044-57.245,0c-.835,0-1.063-.193-1.063-1.05q.037-41.559,0-83.118c0-.805.19-1,1-1,17.069.012,34.138-.025,51.207-.007C1937.359-541.484,1939.771-541.686,1941.948-543.574ZM1912.3-501.958a15.127,15.127,0,0,0,15.128-15.133,15.182,15.182,0,0,0-15.081-15.1,15.179,15.179,0,0,0-15.182,15.1A15.128,15.128,0,0,0,1912.3-501.958Zm-1.648,11.881q8.509,0,17.018,0a7.95,7.95,0,0,0,1.182-.045,1.353,1.353,0,0,0,1.247-1.384,1.354,1.354,0,0,0-1.108-1.5,4.925,4.925,0,0,0-1.173-.087q-17.18-.006-34.359,0a4.7,4.7,0,0,0-1.275.123,1.333,1.333,0,0,0-1,1.476,1.35,1.35,0,0,0,1.16,1.356,6.431,6.431,0,0,0,1.18.06Q1902.087-490.075,1910.649-490.077Zm1.215,10.953h18.422a8.467,8.467,0,0,0,1.076-.023,1.387,1.387,0,0,0,1.317-1.327,1.417,1.417,0,0,0-1.129-1.6,3.4,3.4,0,0,0-.961-.063q-18.638,0-37.275,0a3.81,3.81,0,0,0-1.064.088,1.378,1.378,0,0,0-1.062,1.543,1.379,1.379,0,0,0,1.286,1.359,7.867,7.867,0,0,0,1.076.027Q1902.707-479.123,1911.864-479.124Zm0,10.971q9.265,0,18.53,0a4.642,4.642,0,0,0,1.073-.041,1.419,1.419,0,0,0,1.22-1.535,1.42,1.42,0,0,0-1.336-1.432,4.788,4.788,0,0,0-.753-.012h-37.276a4.914,4.914,0,0,0-.86.021,1.4,1.4,0,0,0-1.272,1.381,1.418,1.418,0,0,0,1.18,1.569,4.489,4.489,0,0,0,1.072.048Q1902.649-468.152,1911.86-468.153Z" transform="translate(-36.221 -39.986)" fill="#f3f9ff"/>
      <path id="Trazado_159658" data-name="Trazado 159658" d="M1842.2-543.905q0-19.292,0-38.583a6.415,6.415,0,0,1,5.323-6.593,6.483,6.483,0,0,1,7.158,3.907,6.364,6.364,0,0,1-2.38,7.783,2.888,2.888,0,0,0-1.488,2.808q.048,34.758.051,69.515c0,1.069-.283,1.3-1.294,1.256-2.116-.085-4.24-.075-6.357,0-.883.03-1.035-.267-1.034-1.074Q1842.219-524.4,1842.2-543.905Z" transform="translate(-7.435 -7.52)" fill="#d2e1f1"/>
      <path id="Trazado_159659" data-name="Trazado 159659" d="M1890.055-577c2.575-4.505,2.477-6.615-.5-12.245,4.088,0,8.133-.006,12.178,0q17.844.03,35.688.069c1.186,0,2.379.1,3.556.005,3.97-.318,6.4,3.621,5.819,7.089a5.6,5.6,0,0,1-5.954,5.046l-49.49.035Z" transform="translate(-41.154 -7.479)" fill="#d2e1f1"/>
      <path id="Trazado_159660" data-name="Trazado 159660" d="M2076.31-435.853c-.18-.08-.377-.165-.573-.254-1.889-.862-3.77-1.745-5.675-2.573-.538-.234-.672-.431-.41-1q5.872-12.792,11.69-25.608c.292-.644.564-.64,1.125-.373,1.875.894,3.758,1.773,5.672,2.58.672.283.615.568.366,1.111q-5.82,12.7-11.617,25.4C2076.766-436.3,2076.758-435.9,2076.31-435.853Z" transform="translate(-169.251 -95.322)" fill="#dce736"/>
      <path id="Trazado_159661" data-name="Trazado 159661" d="M2125.524-491.671c-.128,1.351-1.146,2.788-1.789,4.363-.155.379-.472.163-.731.045q-2.973-1.355-5.951-2.7c-.366-.165-.578-.308-.345-.772.543-1.085.978-2.227,1.556-3.292a3.86,3.86,0,0,1,4.323-1.838A4.057,4.057,0,0,1,2125.524-491.671Z" transform="translate(-202.767 -73.858)" fill="#f85316"/>
      <path id="Trazado_159662" data-name="Trazado 159662" d="M2068.931-356.093l-.584-5.313,4.989,2.263Z" transform="translate(-168.414 -169.65)" fill="#f85316"/>
      <path id="Trazado_159663" data-name="Trazado 159663" d="M1948.2-473.841a15.128,15.128,0,0,1-15.136-15.126,15.179,15.179,0,0,1,15.182-15.1,15.182,15.182,0,0,1,15.081,15.1A15.127,15.127,0,0,1,1948.2-473.841Zm-.045-3.016a12.128,12.128,0,0,0,12.167-12.067,12.192,12.192,0,0,0-12.022-12.131,12.177,12.177,0,0,0-12.217,12.04A12.125,12.125,0,0,0,1948.151-476.857Z" transform="translate(-72.12 -68.104)" fill="#030303"/>
      <path id="Trazado_159664" data-name="Trazado 159664" d="M1931.779-365.427q-8.563,0-17.125,0a6.431,6.431,0,0,1-1.18-.06,1.35,1.35,0,0,1-1.16-1.356,1.333,1.333,0,0,1,1-1.476,4.7,4.7,0,0,1,1.275-.123q17.179-.009,34.359,0a4.923,4.923,0,0,1,1.173.087,1.354,1.354,0,0,1,1.108,1.5,1.353,1.353,0,0,1-1.247,1.384,7.946,7.946,0,0,1-1.182.045Q1940.288-365.425,1931.779-365.427Z" transform="translate(-57.35 -164.636)" fill="#030303"/>
      <path id="Trazado_159665" data-name="Trazado 159665" d="M1932.995-327.426q-9.157,0-18.314,0a7.867,7.867,0,0,1-1.076-.027,1.379,1.379,0,0,1-1.286-1.359,1.378,1.378,0,0,1,1.062-1.543,3.811,3.811,0,0,1,1.064-.089q18.637-.006,37.275,0a3.4,3.4,0,0,1,.961.063,1.417,1.417,0,0,1,1.129,1.6,1.387,1.387,0,0,1-1.317,1.327,8.467,8.467,0,0,1-1.076.023Z" transform="translate(-57.352 -191.684)" fill="#030303"/>
      <path id="Trazado_159666" data-name="Trazado 159666" d="M1932.993-289.379q-9.211,0-18.422,0a4.488,4.488,0,0,1-1.072-.048,1.418,1.418,0,0,1-1.18-1.569,1.4,1.4,0,0,1,1.272-1.381,4.914,4.914,0,0,1,.86-.021h37.276a4.784,4.784,0,0,1,.753.012,1.42,1.42,0,0,1,1.336,1.432,1.419,1.419,0,0,1-1.22,1.535,4.64,4.64,0,0,1-1.073.041Q1942.258-289.377,1932.993-289.379Z" transform="translate(-57.354 -218.761)" fill="#030303"/>
      <path id="Trazado_159667" data-name="Trazado 159667" d="M1955.6-469.409a12.125,12.125,0,0,1-12.072-12.159,12.177,12.177,0,0,1,12.217-12.04,12.192,12.192,0,0,1,12.022,12.132A12.128,12.128,0,0,1,1955.6-469.409Zm-.03-23.241a1.42,1.42,0,0,0-1.464,1.534c.034.774-.3,1.024-.933,1.3a5.145,5.145,0,0,0-3.212,4.807,5.344,5.344,0,0,0,3.639,4.75,11.062,11.062,0,0,0,2.436.407,2.364,2.364,0,0,1,2.265,2.183,2.484,2.484,0,0,1-2.325,2.158,3.352,3.352,0,0,1-2.7-1.076,1.492,1.492,0,0,0-2.2-.01,1.489,1.489,0,0,0,.232,2.268,5.783,5.783,0,0,0,2.127,1.431.953.953,0,0,1,.79,1.064,1.36,1.36,0,0,0,1.481,1.489,1.386,1.386,0,0,0,1.486-1.5c0-.676.281-.892.841-1.13a5.148,5.148,0,0,0,3.259-5.294,5.447,5.447,0,0,0-4.872-4.59,13.766,13.766,0,0,1-1.6-.2,2.23,2.23,0,0,1-1.811-2.016,2.14,2.14,0,0,1,1.6-2.065,3.378,3.378,0,0,1,3.541.939,1.53,1.53,0,0,0,2.2.173,1.555,1.555,0,0,0-.054-2.3,4.882,4.882,0,0,0-2.232-1.45,1.2,1.2,0,0,1-1-1.363A1.42,1.42,0,0,0,1955.574-492.65Z" transform="translate(-79.573 -75.551)" fill="#dce736"/>
      <path id="Trazado_159668" data-name="Trazado 159668" d="M1971.458-490.28a1.418,1.418,0,0,1,1.486,1.5,1.2,1.2,0,0,0,1.005,1.363,4.881,4.881,0,0,1,2.232,1.45,1.555,1.555,0,0,1,.054,2.3,1.53,1.53,0,0,1-2.2-.174,3.378,3.378,0,0,0-3.541-.939,2.14,2.14,0,0,0-1.6,2.065,2.231,2.231,0,0,0,1.812,2.016,13.777,13.777,0,0,0,1.6.2,5.447,5.447,0,0,1,4.872,4.59,5.149,5.149,0,0,1-3.259,5.294c-.56.238-.841.454-.841,1.13a1.386,1.386,0,0,1-1.486,1.5,1.36,1.36,0,0,1-1.481-1.489.953.953,0,0,0-.79-1.064,5.784,5.784,0,0,1-2.127-1.431,1.489,1.489,0,0,1-.232-2.268,1.491,1.491,0,0,1,2.2.01,3.352,3.352,0,0,0,2.7,1.076,2.484,2.484,0,0,0,2.325-2.158,2.364,2.364,0,0,0-2.265-2.183,11.056,11.056,0,0,1-2.435-.407,5.344,5.344,0,0,1-3.639-4.75,5.145,5.145,0,0,1,3.212-4.807c.632-.272.967-.521.934-1.3A1.419,1.419,0,0,1,1971.458-490.28Z" transform="translate(-95.455 -77.92)" fill="#030303"/>
    </g>
  </g>
</svg>
