<svg xmlns="http://www.w3.org/2000/svg" width="74.405" height="90" viewBox="0 0 74.405 90">
  <g id="Grupo_109740" data-name="Grupo 109740" transform="translate(-122.86 464.833)">
    <g id="Grupo_109725" data-name="Grupo 109725" transform="translate(122.86 -464.833)">
      <path id="Trazado_159987" data-name="Trazado 159987" d="M737.711-2860.333q0,16.374,0,32.749a5.9,5.9,0,0,1-4.58,6.143,7.608,7.608,0,0,1-1.729.147q-25,.011-50,0c-3.914,0-6.343-2.436-6.353-6.343,0-1.529-.029-3.059.013-4.586.017-.622-.133-.849-.8-.828-1.589.05-3.18.025-4.77.014a5.872,5.872,0,0,1-6.184-6.233q-.01-32.886,0-65.773a5.863,5.863,0,0,1,6.262-6.244q25.043-.01,50.086,0c3.86,0,6.291,2.439,6.307,6.3.006,1.529.034,3.059-.014,4.586-.021.665.125.907.845.878,1.557-.061,3.118-.025,4.678-.018a5.877,5.877,0,0,1,6.232,6.277Q737.719-2876.8,737.711-2860.333Zm-15.691-11.781q0-16.326,0-32.652c0-2.035-.584-2.618-2.617-2.618H669.875c-2.031,0-2.617.585-2.617,2.618q0,32.606,0,65.212c0,2.03.591,2.621,2.617,2.621H719.31c2.154,0,2.709-.555,2.709-2.713Q722.02-2855.879,722.02-2872.113Zm11.742,11.694q0-16.419,0-32.837c0-1.715-.678-2.38-2.391-2.385-1.468,0-2.939.06-4.4-.023-.869-.049-1.018.249-1.017,1.05.023,18.375-.012,36.751.041,55.126a6.173,6.173,0,0,1-6.447,6.49c-6.3-.116-12.6-.032-18.895-.032-6.91,0-13.82.013-20.73-.02-.783,0-.969.229-.938.97.058,1.4.016,2.813.017,4.219,0,2.1.573,2.671,2.66,2.671H731.1c2.091,0,2.663-.573,2.663-2.666Q733.763-2844.138,733.762-2860.419Z" transform="translate(-663.307 2911.288)" fill="#040404"/>
      <path id="Trazado_159988" data-name="Trazado 159988" d="M734.179-2860.1q0,16.235,0,32.469c0,2.157-.555,2.712-2.709,2.712H682.033c-2.026,0-2.617-.59-2.617-2.621q0-32.605,0-65.211c0-2.033.586-2.618,2.617-2.618h49.528c2.032,0,2.617.583,2.617,2.619Q734.18-2876.422,734.179-2860.1ZM706.8-2887.52a15.6,15.6,0,0,0-15.645,15.582,15.613,15.613,0,0,0,15.447,15.688,15.6,15.6,0,0,0,15.825-15.4A15.583,15.583,0,0,0,706.8-2887.52Zm7.884,40.082c3.207,0,6.414.014,9.62-.007a1.95,1.95,0,0,0,2.065-1.975,1.955,1.955,0,0,0-2.05-1.908q-9.712-.02-19.424,0a1.894,1.894,0,0,0-1.784,1.067,1.924,1.924,0,0,0,1.861,2.822C708.213-2847.417,711.451-2847.436,714.688-2847.438Zm0,7.844c-3.207,0-6.413-.007-9.62,0a1.945,1.945,0,0,0-2.161,1.958,1.887,1.887,0,0,0,2.082,1.932q9.62.019,19.241.006a2.125,2.125,0,0,0,1.3-.348,1.944,1.944,0,0,0,.727-2.187,1.906,1.906,0,0,0-1.948-1.359C721.1-2839.6,717.9-2839.592,714.689-2839.594Zm-21.674-7.842c1.282,0,2.563.017,3.844,0a1.9,1.9,0,0,0,2.085-1.926,1.912,1.912,0,0,0-2.059-1.962q-3.8-.028-7.6,0a1.958,1.958,0,0,0-2.065,1.981,1.953,1.953,0,0,0,2.038,1.9C690.512-2847.418,691.763-2847.438,693.014-2847.436Zm.016,11.739c1.312,0,2.625.024,3.935-.007a1.875,1.875,0,0,0,1.979-1.937,1.9,1.9,0,0,0-1.985-1.943q-3.844-.038-7.689,0a1.957,1.957,0,0,0-2.049,1.905,1.959,1.959,0,0,0,2.055,1.98C690.528-2835.676,691.779-2835.7,693.03-2835.7Z" transform="translate(-675.466 2899.271)" fill="#f3f9ff"/>
      <path id="Trazado_159989" data-name="Trazado 159989" d="M782-2812.343q0,16.281,0,32.562c0,2.095-.573,2.667-2.663,2.667H729.9c-2.087,0-2.658-.573-2.66-2.671,0-1.406.041-2.814-.017-4.219-.031-.74.155-.973.938-.97,6.91.033,13.82.02,20.73.02,6.3,0,12.6-.084,18.895.032a6.172,6.172,0,0,0,6.447-6.49c-.054-18.375-.019-36.75-.041-55.126,0-.8.148-1.1,1.017-1.048,1.463.082,2.934.02,4.4.022,1.713,0,2.39.67,2.391,2.385Q782.008-2828.761,782-2812.343Z" transform="translate(-711.549 2863.211)" fill="#dee4f0"/>
      <path id="Trazado_159990" data-name="Trazado 159990" d="M742.951-2863.363a15.582,15.582,0,0,1,15.626,15.869,15.6,15.6,0,0,1-15.825,15.4,15.612,15.612,0,0,1-15.447-15.688A15.6,15.6,0,0,1,742.951-2863.363Zm-.01,3.893a11.773,11.773,0,0,0-11.738,11.606,11.751,11.751,0,0,0,11.652,11.874,11.748,11.748,0,0,0,11.826-11.7A11.749,11.749,0,0,0,742.941-2859.47Z" transform="translate(-711.613 2875.115)" fill="#020202"/>
      <path id="Trazado_159991" data-name="Trazado 159991" d="M786.906-2711.9c-3.237,0-6.475.019-9.712-.007a1.924,1.924,0,0,1-1.861-2.822,1.9,1.9,0,0,1,1.784-1.067q9.712,0,19.424,0a1.954,1.954,0,0,1,2.05,1.908,1.95,1.95,0,0,1-2.065,1.975C793.32-2711.887,790.113-2711.9,786.906-2711.9Z" transform="translate(-747.684 2763.735)" fill="#020202"/>
      <path id="Trazado_159992" data-name="Trazado 159992" d="M787-2667.915c3.207,0,6.414-.008,9.62.006a1.906,1.906,0,0,1,1.948,1.359,1.942,1.942,0,0,1-.727,2.186,2.124,2.124,0,0,1-1.3.349q-9.62,0-19.241-.006a1.887,1.887,0,0,1-2.082-1.931,1.945,1.945,0,0,1,2.161-1.959C780.588-2667.922,783.794-2667.915,787-2667.915Z" transform="translate(-747.778 2727.593)" fill="#020202"/>
      <path id="Trazado_159993" data-name="Trazado 159993" d="M717.046-2711.924c-1.251,0-2.5.02-3.753-.007a1.954,1.954,0,0,1-2.038-1.9,1.957,1.957,0,0,1,2.064-1.98q3.8-.03,7.6,0a1.912,1.912,0,0,1,2.059,1.962,1.9,1.9,0,0,1-2.086,1.927C719.609-2711.9,718.328-2711.922,717.046-2711.924Z" transform="translate(-699.498 2763.757)" fill="#020202"/>
      <path id="Trazado_159994" data-name="Trazado 159994" d="M717.06-2664.038c-1.251,0-2.5.021-3.753,0a1.959,1.959,0,0,1-2.055-1.98,1.956,1.956,0,0,1,2.049-1.9q3.844-.03,7.689,0a1.9,1.9,0,0,1,1.985,1.943,1.875,1.875,0,0,1-1.979,1.937C719.685-2664.015,718.372-2664.039,717.06-2664.038Z" transform="translate(-699.495 2727.613)" fill="#020202"/>
      <path id="Trazado_159995" data-name="Trazado 159995" d="M754.941-2847.481a11.749,11.749,0,0,1,11.74,11.785,11.747,11.747,0,0,1-11.826,11.7,11.751,11.751,0,0,1-11.652-11.874A11.773,11.773,0,0,1,754.941-2847.481Zm7.794,7.786a1.88,1.88,0,0,0-1.206-1.734,1.92,1.92,0,0,0-2.245.537c-1.9,1.9-3.824,3.775-5.685,5.712-.521.543-.8.472-1.242-.032-.564-.64-1.184-1.234-1.809-1.815a1.951,1.951,0,0,0-2.858-.035,1.943,1.943,0,0,0,.091,2.791c1.231,1.272,2.48,2.529,3.757,3.754a1.9,1.9,0,0,0,2.917-.022c2.562-2.532,5.1-5.091,7.647-7.636A2.082,2.082,0,0,0,762.735-2839.7Z" transform="translate(-723.612 2863.127)" fill="#3d46c2"/>
      <path id="Trazado_159996" data-name="Trazado 159996" d="M774.864-2821.575a2.081,2.081,0,0,1-.632,1.519c-2.549,2.545-5.085,5.1-7.647,7.636a1.9,1.9,0,0,1-2.917.022c-1.278-1.225-2.526-2.482-3.757-3.754a1.942,1.942,0,0,1-.091-2.79,1.951,1.951,0,0,1,2.858.034c.625.582,1.245,1.176,1.809,1.815.444.5.721.575,1.242.033,1.86-1.938,3.782-3.816,5.685-5.713a1.92,1.92,0,0,1,2.245-.537A1.88,1.88,0,0,1,774.864-2821.575Z" transform="translate(-735.741 2845.006)" fill="#fff"/>
    </g>
  </g>
</svg>
