<svg xmlns="http://www.w3.org/2000/svg" width="400" height="268" viewBox="0 0 400 268">
  <g id="Grupo_109781" data-name="Grupo 109781" transform="translate(6747.78 -5924.995)">
    <g id="Grupo_109769" data-name="Grupo 109769" transform="translate(-404 -1322.005)">
      <rect id="Rectángulo_41332" data-name="Rectángulo 41332" width="400" height="268" rx="28" transform="translate(-6343.78 7247)" fill="#fff"/>
      <g id="Grupo_109762" data-name="Grupo 109762" transform="translate(-6640.543 6960.654)">
        <g id="Grupo_109530" data-name="Grupo 109530" transform="translate(357.879 345.422)">
          <path id="Trazado_159599" data-name="Trazado 159599" d="M527.424,369.128V477.793a9.33,9.33,0,0,1-9.331,9.331H367.2a9.32,9.32,0,0,1-9.32-9.331V369.128a9.32,9.32,0,0,1,9.32-9.331H518.093A9.33,9.33,0,0,1,527.424,369.128Z" transform="translate(-357.879 -337.277)" fill="#f85316"/>
          <g id="Grupo_109529" data-name="Grupo 109529" transform="translate(55.092)">
            <g id="Grupo_109528" data-name="Grupo 109528">
              <g id="Grupo_109527" data-name="Grupo 109527">
                <path id="Trazado_159600" data-name="Trazado 159600" d="M452.4,353.236v15.482h-6.6V353.236a1.216,1.216,0,0,0-1.214-1.214H400.856a1.215,1.215,0,0,0-1.213,1.214v15.482h-6.6V353.236a7.825,7.825,0,0,1,7.811-7.814h43.725A7.82,7.82,0,0,1,452.4,353.236Z" transform="translate(-393.045 -345.422)" fill="#3d46c2"/>
              </g>
            </g>
          </g>
          <path id="Trazado_159601" data-name="Trazado 159601" d="M527.424,369.128v38.834a11.769,11.769,0,0,1-11.758,11.761H369.629a11.76,11.76,0,0,1-11.75-11.761V369.128a9.32,9.32,0,0,1,9.32-9.331H518.093A9.33,9.33,0,0,1,527.424,369.128Z" transform="translate(-357.879 -337.277)" fill="#f85316"/>
          <path id="Trazado_159602" data-name="Trazado 159602" d="M527.424,388.389v3.371a11.769,11.769,0,0,1-11.758,11.761H369.629a11.76,11.76,0,0,1-11.75-11.761v-3.371a11.76,11.76,0,0,0,11.75,11.759H515.666A11.769,11.769,0,0,0,527.424,388.389Z" transform="translate(-357.879 -321.075)" fill="#b7b7b7" style="mix-blend-mode: multiply;isolation: isolate"/>
          <path id="Trazado_159604" data-name="Trazado 159604" d="M2.818,0H25.176a2.818,2.818,0,0,1,2.818,2.818v15.09a2.817,2.817,0,0,1-2.817,2.817H2.817A2.817,2.817,0,0,1,0,17.908V2.818A2.818,2.818,0,0,1,2.818,0Z" transform="translate(71.762 71.049)" fill="#dce736"/>
        </g>
        <path id="Trazado_159603" data-name="Trazado 159603" d="M496.762,377.273V485.939a9.33,9.33,0,0,1-9.331,9.331H411.99V367.942h23.07V353.236a1.216,1.216,0,0,0-1.214-1.214H411.99v-6.6h21.856a7.82,7.82,0,0,1,7.816,7.814v14.706h45.769A9.33,9.33,0,0,1,496.762,377.273Z" transform="translate(30.661 0)" fill="#fff" opacity="0.1"/>
      </g>
      <g id="Grupo_109763" data-name="Grupo 109763" transform="translate(-6221.348 6936.519)">
        <path id="Trazado_159551" data-name="Trazado 159551" d="M66.6,358.411v8.219H44.352v-8.219a11.123,11.123,0,0,1,22.247,0Z" transform="translate(0 0)" fill="#e4e8a2"/>
        <path id="Trazado_159552" data-name="Trazado 159552" d="M198.368,367.114V541.671H71.786A11.372,11.372,0,0,1,60.523,530.3V358.4a9.465,9.465,0,0,0-.062-1.132,6.781,6.781,0,0,0-.153-.964,4.328,4.328,0,0,0-.137-.63,2.113,2.113,0,0,0-.124-.442,4.2,4.2,0,0,0-.184-.552,1.823,1.823,0,0,0-.137-.383,3.33,3.33,0,0,0-.263-.6,6.4,6.4,0,0,0-.381-.765c-.106-.185-.214-.369-.336-.551a3.107,3.107,0,0,0-.292-.413,7.437,7.437,0,0,0-.568-.752,7.572,7.572,0,0,0-.628-.672,8.733,8.733,0,0,0-.67-.63c-.185-.153-.369-.3-.566-.44-.17-.126-.338-.245-.506-.355a11.635,11.635,0,0,0-2.68-1.285,7.29,7.29,0,0,0-.962-.261,6.191,6.191,0,0,0-.935-.168.156.156,0,0,0-.077-.014v-.108H178.546A19.826,19.826,0,0,1,198.368,367.114Z" transform="translate(6.068 0.001)" fill="#fcffd6"/>
        <g id="Grupo_109507" data-name="Grupo 109507" transform="translate(77.234 522.328)">
          <path id="Trazado_159553" data-name="Trazado 159553" d="M61.372,447.9c.156.01.319.01.485.01h-.485Z" transform="translate(-61.372 -428.566)" fill="#e4e8a2"/>
          <path id="Trazado_159554" data-name="Trazado 159554" d="M207.621,437.891v4.957a14.389,14.389,0,0,1-14.387,14.386H61.693c8.265-.058,14.923-5.017,14.923-11.124v-8.219Z" transform="translate(-61.073 -437.891)" fill="#e4e8a2"/>
        </g>
        <g id="Grupo_109508" data-name="Grupo 109508" transform="translate(80.542 373.401)">
          <rect id="Rectángulo_41154" data-name="Rectángulo 41154" width="110.358" height="3.868" fill="#3d46c2"/>
          <rect id="Rectángulo_41155" data-name="Rectángulo 41155" width="110.358" height="3.866" transform="translate(0 14.507)" fill="#3d46c2"/>
          <rect id="Rectángulo_41156" data-name="Rectángulo 41156" width="110.358" height="3.868" transform="translate(0 29.012)" fill="#3d46c2"/>
          <rect id="Rectángulo_41157" data-name="Rectángulo 41157" width="110.358" height="3.868" transform="translate(0 43.517)" fill="#3d46c2"/>
          <rect id="Rectángulo_41158" data-name="Rectángulo 41158" width="110.358" height="3.87" transform="translate(0 58.024)" fill="#3d46c2"/>
          <rect id="Rectángulo_41159" data-name="Rectángulo 41159" width="110.358" height="3.87" transform="translate(0 72.529)" fill="#3d46c2"/>
          <rect id="Rectángulo_41160" data-name="Rectángulo 41160" width="110.358" height="3.868" transform="translate(0 87.035)" fill="#3d46c2"/>
          <rect id="Rectángulo_41161" data-name="Rectángulo 41161" width="110.358" height="3.87" transform="translate(0 101.54)" fill="#3d46c2"/>
        </g>
        <path id="Trazado_159555" data-name="Trazado 159555" d="M132.3,432.927a13.057,13.057,0,1,1-13.058-13.056A13.058,13.058,0,0,1,132.3,432.927Z" transform="translate(57.631 67.643)" fill="#75b62f"/>
      </g>
    </g>
  </g>
</svg>
