<svg xmlns="http://www.w3.org/2000/svg" width="100.039" height="100" viewBox="0 0 100.039 100">
  <g id="Grupo_109789" data-name="Grupo 109789" transform="translate(8450.359 -9979.001)">
    <g id="Grupo_109736" data-name="Grupo 109736" transform="translate(-7555.226 9135.492)">
      <rect id="Rectángulo_41151" data-name="Rectángulo 41151" width="89.867" height="70.47" transform="translate(-886.713 870.267)" fill="#fdfdfd"/>
      <path id="Trazado_159435" data-name="Trazado 159435" d="M-812.239,870.274c-.315,1.5-.906,1.942-2.641,1.942h-68.45c-1.277,0-1.277,0-1.277,1.266q0,10.545,0,21.09c0,1.378-.523,2.212-1.492,2.432a1.923,1.923,0,0,1-2.386-1.684,6.309,6.309,0,0,1-.027-.78q0-16.159,0-32.318a9.607,9.607,0,0,1,5.548-9.124,9.107,9.107,0,0,1,4.226-1c2.539,0,5.078-.016,7.616.016.5.006.675-.091.663-.619a18.951,18.951,0,0,1,.08-2.826,5.856,5.856,0,0,1,5.88-5.157,5.83,5.83,0,0,1,5.707,5.451,19.111,19.111,0,0,1,.028,2.341c-.039.64.159.819.806.812,2.994-.036,5.989-.016,8.983-.016,7.388,0,14.777-.013,22.165.02.748,0,.92-.193.892-.911a8.517,8.517,0,0,1,.737-4.653,5.843,5.843,0,0,1,6.371-2.89,5.77,5.77,0,0,1,4.553,5.291,19.95,19.95,0,0,1,.029,2.341c-.036.628.141.828.8.819,2.733-.039,5.468-.022,8.2-.015a9.828,9.828,0,0,1,10.1,10.1q.01,36.615.029,73.229c.009,4.242-2.754,7.45-6.187,7.931-.036.005-.06.1-.09.151h-87.9c-.1-.311-.4-.3-.625-.368a7.484,7.484,0,0,1-4.592-4.041c-.239-.475-.146-1.095-.644-1.451v-7.422a3.709,3.709,0,0,1,3.4-1.172c1.189.064,2.385.014,3.789.014a15.984,15.984,0,0,1-5.4-14.012,15.471,15.471,0,0,1,5.526-10.305,16.014,16.014,0,0,1,21.627.818,16.2,16.2,0,0,1-.7,23.5h1.034q8.831,0,17.662,0c1.7,0,2.188.359,2.677,1.94-.469,1.629-.915,1.966-2.638,1.966q-20.308,0-40.616.01c-.8,0-1.862-.367-2.326.168-.392.453-.131,1.485-.132,2.261,0,2.853,1.324,4.189,4.159,4.189q38.468,0,76.935-.005a1.526,1.526,0,0,0,.994-.134c-.977-1.733-.883-3.632-.809-5.508.032-.826-.208-1-1.012-1-6.444.036-12.887.024-19.331.018-1.535,0-2.121-.495-2.409-1.97a2.053,2.053,0,0,1,2.361-1.931q10.981-.014,21.962,0c1.558,0,2.3.788,2.313,2.372.012,1.431,0,2.863,0,4.294a3.551,3.551,0,0,0,3.506,3.856,3.539,3.539,0,0,0,3.521-3.841q.01-17.129,0-34.258,0-15.079,0-30.158c0-.357-.02-.714-.03-1.071.008-2.831.076-5.663.008-8.492a5.685,5.685,0,0,0-5.433-5.714c-3.053-.145-6.118-.042-9.177-.063-.425,0-.568.145-.559.566.017.748.014,1.5-.031,2.244a5.744,5.744,0,0,1-4.327,5.277,5.842,5.842,0,0,1-6.274-2.3,6.9,6.9,0,0,1-1.06-4.658c.069-.973-.254-1.15-1.171-1.146-9.765.036-19.531.017-29.3.032-.765,0-1.754-.354-2.233.177-.364.4-.114,1.36-.139,2.07-.007.195-.021.39-.034.584a5.859,5.859,0,0,1-4.547,5.321,5.9,5.9,0,0,1-6.381-2.911,8.555,8.555,0,0,1-.747-4.557c.012-.531-.105-.72-.69-.711-2.441.038-4.883,0-7.324.02a5.866,5.866,0,0,0-6.128,6.15c-.017,1.757.04,3.517-.023,5.272-.027.755.21.9.92.9,5.143-.031,10.286-.017,15.429-.017h53.417C-813.135,868.31-812.545,868.755-812.239,870.274Zm-53.134,46.659a12.1,12.1,0,0,0-12.1-12.1,12.151,12.151,0,0,0-12.1,12.121,12.147,12.147,0,0,0,12.121,12.1A12.1,12.1,0,0,0-865.374,916.933Zm2.716-63.078c0-1.4.016-2.793,0-4.189-.02-1.369-.773-2.232-1.911-2.248a2.012,2.012,0,0,0-1.978,2.2q-.054,4.285,0,8.572a1.96,1.96,0,0,0,1.975,2.178c1.154-.01,1.894-.849,1.914-2.228C-862.642,856.713-862.658,855.284-862.658,853.855Zm44.537.1c0-1.429.016-2.858,0-4.286-.02-1.371-.769-2.233-1.908-2.25a2.01,2.01,0,0,0-1.981,2.2q-.054,4.286,0,8.572a1.959,1.959,0,0,0,1.972,2.181c1.156-.008,1.9-.845,1.916-2.225C-818.1,856.748-818.121,855.352-818.121,853.955Z" transform="translate(0)" fill="#010101"/>
      <path id="Trazado_159436" data-name="Trazado 159436" d="M-779.822,908.51c-.306-1.519-.9-1.964-2.621-1.965H-835.86c-5.143,0-10.286-.015-15.429.017-.71,0-.947-.141-.92-.9.063-1.755.006-3.515.023-5.272a5.866,5.866,0,0,1,6.128-6.15c2.441-.019,4.883.018,7.324-.02.584-.009.7.18.69.711a8.555,8.555,0,0,0,.747,4.557,5.9,5.9,0,0,0,6.381,2.911,5.859,5.859,0,0,0,4.547-5.321c.013-.195.027-.39.034-.584.025-.71-.225-1.667.139-2.07.479-.531,1.468-.176,2.233-.177,9.765-.015,19.531,0,29.3-.032.918,0,1.241.173,1.171,1.146a6.9,6.9,0,0,0,1.06,4.658,5.842,5.842,0,0,0,6.274,2.3,5.744,5.744,0,0,0,4.327-5.277c.045-.746.047-1.5.031-2.244-.009-.42.134-.569.559-.566,3.06.021,6.124-.082,9.177.063a5.685,5.685,0,0,1,5.434,5.714c.068,2.829,0,5.661-.008,8.492l-4.018,0c-.319-1.54-1.428-2.281-2.665-1.8a2.243,2.243,0,0,0-1.292,1.788Z" transform="translate(-32.418 -38.236)" fill="#3d46c2"/>
      <path id="Trazado_159437" data-name="Trazado 159437" d="M-820.893,1201.01c.288,1.475.874,1.969,2.409,1.97,6.444.005,12.888.018,19.331-.018.8,0,1.045.173,1.012,1-.074,1.876-.167,3.775.809,5.508a1.526,1.526,0,0,1-.994.134q-38.468.009-76.936.005c-2.835,0-4.162-1.336-4.159-4.189,0-.776-.26-1.808.132-2.261.464-.535,1.526-.167,2.326-.168q20.308-.018,40.616-.01c1.723,0,2.169-.337,2.638-1.966l5.376,0c.269,1.313.953,1.982,2,1.957,1.026-.025,1.69-.718,1.873-1.954Z" transform="translate(-11.805 -270.007)" fill="#c6e8fd"/>
      <path id="Trazado_159438" data-name="Trazado 159438" d="M-819.323,1010.41a7.472,7.472,0,0,1,7.515-7.286,7.5,7.5,0,0,1,7.315,7.5,7.494,7.494,0,0,1-7.575,7.332A7.468,7.468,0,0,1-819.323,1010.41Zm7.43,3.64a3.548,3.548,0,0,0,3.493-3.485,3.546,3.546,0,0,0-3.54-3.536,3.519,3.519,0,0,0-3.479,3.583A3.522,3.522,0,0,0-811.893,1014.05Z" transform="translate(-57.255 -120.549)" fill="#010101"/>
      <path id="Trazado_159439" data-name="Trazado 159439" d="M-670.295,1010.43a7.448,7.448,0,0,1,7.461-7.3,7.474,7.474,0,0,1,7.342,7.528,7.454,7.454,0,0,1-7.566,7.3A7.442,7.442,0,0,1-670.295,1010.43Zm3.9.134a3.515,3.515,0,0,0,3.465,3.491,3.53,3.53,0,0,0,3.528-3.535,3.528,3.528,0,0,0-3.475-3.49A3.51,3.51,0,0,0-666.39,1010.563Z" transform="translate(-169.811 -120.551)" fill="#010101"/>
      <path id="Trazado_159440" data-name="Trazado 159440" d="M-595.844,1010.558a7.476,7.476,0,0,1,7.371-7.433,7.506,7.506,0,0,1,7.461,7.449,7.5,7.5,0,0,1-7.429,7.384A7.477,7.477,0,0,1-595.844,1010.558Zm7.4,3.493a3.552,3.552,0,0,0,3.528-3.448,3.55,3.55,0,0,0-3.5-3.571,3.522,3.522,0,0,0-3.514,3.448A3.52,3.52,0,0,0-588.447,1014.052Z" transform="translate(-226.042 -120.552)" fill="#010101"/>
      <path id="Trazado_159441" data-name="Trazado 159441" d="M-670.3,1093.558a7.457,7.457,0,0,1,7.333-7.435,7.482,7.482,0,0,1,7.476,7.4,7.488,7.488,0,0,1-7.44,7.436A7.458,7.458,0,0,1-670.3,1093.558Zm7.44-3.529a3.511,3.511,0,0,0-3.533,3.422,3.513,3.513,0,0,0,3.451,3.6,3.527,3.527,0,0,0,3.542-3.52A3.528,3.528,0,0,0-662.857,1090.029Z" transform="translate(-169.811 -183.237)" fill="#010101"/>
      <path id="Trazado_159442" data-name="Trazado 159442" d="M-595.844,1093.552a7.476,7.476,0,0,1,7.379-7.425,7.506,7.506,0,0,1,7.453,7.458,7.5,7.5,0,0,1-7.437,7.376A7.477,7.477,0,0,1-595.844,1093.552Zm7.376-3.517a3.52,3.52,0,0,0-3.468,3.592,3.523,3.523,0,0,0,3.534,3.427,3.549,3.549,0,0,0,3.482-3.494A3.547,3.547,0,0,0-588.468,1090.035Z" transform="translate(-226.042 -183.241)" fill="#010101"/>
      <path id="Trazado_159443" data-name="Trazado 159443" d="M-730.079,1010.51a7.453,7.453,0,0,1-7.42,7.448,7.513,7.513,0,0,1-7.4-7.386,7.519,7.519,0,0,1,7.44-7.448A7.457,7.457,0,0,1-730.079,1010.51Zm-3.906.031a3.5,3.5,0,0,0-3.441-3.512,3.562,3.562,0,0,0-3.57,3.511,3.561,3.561,0,0,0,3.472,3.511A3.5,3.5,0,0,0-733.985,1010.541Z" transform="translate(-113.463 -120.55)" fill="#010101"/>
      <path id="Trazado_159444" data-name="Trazado 159444" d="M-730.079,1093.513a7.453,7.453,0,0,1-7.422,7.446,7.513,7.513,0,0,1-7.4-7.388,7.52,7.52,0,0,1,7.443-7.447A7.458,7.458,0,0,1-730.079,1093.513Zm-3.906.1a3.5,3.5,0,0,0-3.473-3.579,3.565,3.565,0,0,0-3.539,3.445,3.562,3.562,0,0,0,3.5,3.578A3.5,3.5,0,0,0-733.985,1093.609Z" transform="translate(-113.463 -183.238)" fill="#010101"/>
      <path id="Trazado_159445" data-name="Trazado 159445" d="M-535.16,946.849a2.244,2.244,0,0,1,1.292-1.789c1.237-.484,2.346.256,2.665,1.8-.261,1.225-.942,1.912-1.92,1.936S-534.754,948.18-535.16,946.849Z" transform="translate(-271.875 -76.587)" fill="#010101"/>
      <path id="Trazado_159446" data-name="Trazado 159446" d="M-666.542,1195.163c-.182,1.236-.846,1.929-1.873,1.954-1.048.025-1.732-.644-2-1.957a1.966,1.966,0,0,1,1.674-1.87,1.88,1.88,0,0,1,1.86.787C-666.613,1194.408-666.655,1194.8-666.542,1195.163Z" transform="translate(-169.721 -264.154)" fill="#010101"/>
      <path id="Trazado_159447" data-name="Trazado 159447" d="M-848.2,1106.189a12.1,12.1,0,0,1-12.074,12.121,12.147,12.147,0,0,1-12.121-12.1,12.151,12.151,0,0,1,12.1-12.121A12.1,12.1,0,0,1-848.2,1106.189Zm-4.568-3.535a4.24,4.24,0,0,0-.282-.777c-.686-1.224-2.135-1.316-3.29-.18q-2.851,2.8-5.651,5.657c-.349.355-.562.4-.907.009a22.247,22.247,0,0,0-1.582-1.588,1.966,1.966,0,0,0-2.874-.144,1.947,1.947,0,0,0,.086,2.869q1.605,1.7,3.31,3.309a1.953,1.953,0,0,0,3.02-.018c2.5-2.462,4.973-4.956,7.452-7.442A2.263,2.263,0,0,0-852.766,1102.654Z" transform="translate(-17.175 -189.257)" fill="#75b62f"/>
      <path id="Trazado_159448" data-name="Trazado 159448" d="M-774.535,865.921c0,1.429.016,2.858,0,4.286-.02,1.38-.759,2.219-1.914,2.228a1.96,1.96,0,0,1-1.975-2.178q-.055-4.285,0-8.572a2.012,2.012,0,0,1,1.978-2.2c1.138.016,1.89.879,1.911,2.248C-774.519,863.128-774.535,864.525-774.535,865.921Z" transform="translate(-88.123 -12.066)" fill="#fdfdfd"/>
      <path id="Trazado_159449" data-name="Trazado 159449" d="M-592.557,866.023c0,1.4.016,2.793,0,4.189-.021,1.379-.76,2.217-1.916,2.225a1.96,1.96,0,0,1-1.972-2.181q-.055-4.285,0-8.572a2.01,2.01,0,0,1,1.981-2.2c1.138.018,1.888.88,1.908,2.25C-592.541,863.165-592.557,864.594-592.557,866.023Z" transform="translate(-225.564 -12.067)" fill="#fdfdfd"/>
      <path id="Trazado_159450" data-name="Trazado 159450" d="M-799.839,1026.108a3.523,3.523,0,0,1-3.526-3.438,3.52,3.52,0,0,1,3.479-3.583,3.546,3.546,0,0,1,3.54,3.536A3.548,3.548,0,0,1-799.839,1026.108Z" transform="translate(-69.309 -132.607)" fill="#dce736"/>
      <path id="Trazado_159451" data-name="Trazado 159451" d="M-654.333,1022.613a3.51,3.51,0,0,1,3.519-3.535,3.528,3.528,0,0,1,3.475,3.49,3.53,3.53,0,0,1-3.528,3.535A3.515,3.515,0,0,1-654.333,1022.613Z" transform="translate(-181.867 -132.601)" fill="#dce736"/>
      <path id="Trazado_159452" data-name="Trazado 159452" d="M-576.387,1026.11a3.52,3.52,0,0,1-3.488-3.571,3.522,3.522,0,0,1,3.514-3.448,3.55,3.55,0,0,1,3.5,3.571A3.552,3.552,0,0,1-576.387,1026.11Z" transform="translate(-238.102 -132.611)" fill="#f85316"/>
      <path id="Trazado_159453" data-name="Trazado 159453" d="M-650.8,1102.082a3.528,3.528,0,0,1,3.46,3.5,3.528,3.528,0,0,1-3.542,3.52,3.513,3.513,0,0,1-3.451-3.6A3.511,3.511,0,0,1-650.8,1102.082Z" transform="translate(-181.866 -195.29)" fill="#dce736"/>
      <path id="Trazado_159454" data-name="Trazado 159454" d="M-576.409,1102.093a3.547,3.547,0,0,1,3.548,3.525,3.549,3.549,0,0,1-3.482,3.494,3.523,3.523,0,0,1-3.534-3.427A3.52,3.52,0,0,1-576.409,1102.093Z" transform="translate(-238.101 -195.298)" fill="#f85316"/>
      <path id="Trazado_159455" data-name="Trazado 159455" d="M-721.929,1022.594a3.5,3.5,0,0,1-3.54,3.51,3.561,3.561,0,0,1-3.472-3.511,3.562,3.562,0,0,1,3.57-3.511A3.5,3.5,0,0,1-721.929,1022.594Z" transform="translate(-125.519 -132.603)" fill="#dce736"/>
      <path id="Trazado_159456" data-name="Trazado 159456" d="M-721.933,1105.662a3.5,3.5,0,0,1-3.509,3.444,3.562,3.562,0,0,1-3.5-3.578,3.565,3.565,0,0,1,3.539-3.445A3.5,3.5,0,0,1-721.933,1105.662Z" transform="translate(-125.515 -195.291)" fill="#dce736"/>
      <path id="Trazado_159457" data-name="Trazado 159457" d="M-839.027,1123.659a2.263,2.263,0,0,1-.718,1.7c-2.479,2.486-4.95,4.98-7.452,7.442a1.953,1.953,0,0,1-3.02.017q-1.7-1.607-3.31-3.309a1.947,1.947,0,0,1-.086-2.869,1.966,1.966,0,0,1,2.874.144,22.225,22.225,0,0,1,1.582,1.589c.345.387.558.347.907-.009q2.8-2.852,5.651-5.657c1.155-1.136,2.6-1.045,3.29.18A4.242,4.242,0,0,1-839.027,1123.659Z" transform="translate(-30.915 -210.262)" fill="#010101"/>
    </g>
  </g>
</svg>
