<svg xmlns="http://www.w3.org/2000/svg" width="149.984" height="150" viewBox="0 0 149.984 150">
  <g id="Grupo_109743" data-name="Grupo 109743" transform="translate(-6.86 -346.668)">
    <g id="Grupo_109729" data-name="Grupo 109729" transform="translate(-168.852 3995.652)">
      <path id="Trazado_160122" data-name="Trazado 160122" d="M175.712-3507.776v-123.63c.1-.1.241-.172.281-.287,2.121-6.05,5.546-8.5,11.89-8.5q34.1,0,68.2.016c.985,0,1.475-.165,1.824-1.265a10.571,10.571,0,0,1,6.932-6.982c.379-.135.9-.058,1.1-.557h50.385c.051.075.09.2.155.218,5.815,1.209,9.215,5.323,9.216,11.241q.01,63.555,0,127.112a12.062,12.062,0,0,1-.13,2.04c-1,5.763-5.4,9.383-11.446,9.383q-62.525.007-125.051,0c-.879,0-1.758.012-2.636-.011a11.046,11.046,0,0,1-10.155-7.508C176.126-3506.937,176.211-3507.494,175.712-3507.776Zm130.337-106c-.584-.018-1.169-.051-1.753-.051q-56.22,0-112.441,0c-2.964,0-2.867,0-3,2.9-.066,1.4.448,1.524,1.626,1.521q21.229-.058,42.458-.02a10.7,10.7,0,0,1,10.489,7.373c.413,1.277,1.013,1.436,2.162,1.434q29.428-.049,58.856-.025c.536,0,1.071-.033,1.607-.051l8.769,0a12.765,12.765,0,0,1,6.474,2.153c0-13.319.021-26.4-.014-39.481a6.457,6.457,0,0,0-6.51-6.536q-23.282-.053-46.563-.01a6.46,6.46,0,0,0-6.439,5.821c-.3,2.518-.8,2.954-3.358,2.954q-35.655,0-71.309,0a6.576,6.576,0,0,0-6.989,6.96c-.014,6.785,0,13.57,0,20.355v1.128a13.654,13.654,0,0,1,3.414-1.573c.865-.161,1-.628,1-1.418-.036-4.637-.024-9.274-.014-13.912,0-1.98.767-2.753,2.737-2.753q63.475-.007,126.951,0c1.958,0,2.716.775,2.72,2.768.009,5.467-.02,10.935.018,16.4a2.5,2.5,0,0,1-2.113,2.854c-1.824-.438-2.289-.988-2.3-2.776-.011-1.748-.025-3.5.009-5.243.012-.612-.137-.858-.8-.838C309.833-3613.785,307.941-3613.793,306.049-3613.775Zm5.88,17.574c-.536-.016-1.071-.047-1.607-.047q-33.828,0-67.657,0c-2.084,0-2.734-.566-2.983-2.554-.5-4.008-3.024-6.23-7.1-6.231q-22.626-.007-45.251,0c-4.515,0-7.219,2.684-7.219,7.172q-.006,43.644,0,87.288a9.173,9.173,0,0,0,.135,1.891c.707,3.333,3.337,5.3,7.061,5.3q61.726,0,123.452,0c.39,0,.779-.031,1.168-.047.389.017.78.016,1.167.052,5.3.5,8.311-2.93,8.277-8.239q-.235-37.906.008-75.812C321.425-3593.587,318.55-3596.957,311.929-3596.2Zm-61.219-22.021v-.015h59.15c2.639,0,2.557,0,2.673-2.642.06-1.358-.226-1.762-1.692-1.761q-59.588.065-119.178.024c-2.77,0-2.681,0-2.806,2.8-.062,1.393.409,1.621,1.679,1.619Q220.623-3618.255,250.71-3618.223Z" transform="translate(0 0)"/>
      <path id="Trazado_160123" data-name="Trazado 160123" d="M318.756-3435.138c-.389.017-.778.047-1.168.047q-61.726,0-123.452,0c-3.724,0-6.354-1.969-7.061-5.3a9.171,9.171,0,0,1-.135-1.891q-.009-43.644,0-87.288c0-4.488,2.7-7.171,7.219-7.172q22.625-.008,45.251,0c4.081,0,6.6,2.223,7.1,6.231.249,1.987.9,2.554,2.983,2.554q33.828,0,67.657,0c.536,0,1.072.031,1.607.047a10.556,10.556,0,0,1,2.685,7.315q-.115,39.069,0,78.141A10.537,10.537,0,0,1,318.756-3435.138Z" transform="translate(-6.828 -68.293)" fill="#fecf6a"/>
      <path id="Trazado_160124" data-name="Trazado 160124" d="M321.639-3598.162a2.5,2.5,0,0,0,2.113-2.854c-.039-5.466-.009-10.934-.018-16.4,0-1.993-.762-2.768-2.72-2.768q-63.475-.006-126.951,0c-1.971,0-2.733.773-2.737,2.754-.01,4.637-.022,9.274.014,13.911.006.79-.133,1.257-1,1.418a13.687,13.687,0,0,0-3.414,1.572v-1.128c0-6.785-.011-13.57,0-20.354a6.576,6.576,0,0,1,6.989-6.96q35.655-.012,71.309,0c2.559,0,3.053-.437,3.358-2.954a6.46,6.46,0,0,1,6.439-5.821q23.282-.037,46.563.01a6.457,6.457,0,0,1,6.51,6.535c.035,13.082.014,26.163.014,39.482a12.769,12.769,0,0,0-6.474-2.153Q321.641-3596.019,321.639-3598.162Z" transform="translate(-6.823 -6.823)" fill="#fe9633"/>
      <path id="Trazado_160125" data-name="Trazado 160125" d="M326.462-3546.061c-.536.018-1.071.051-1.607.051q-29.428,0-58.856.025c-1.15,0-1.749-.157-2.162-1.435a10.7,10.7,0,0,0-10.489-7.372q-21.229-.023-42.458.02c-1.178,0-1.692-.125-1.626-1.522.136-2.893.039-2.9,3-2.9q56.22,0,112.441,0c.584,0,1.169.032,1.753.05Z" transform="translate(-20.412 -54.636)" fill="#fefefe"/>
      <path id="Trazado_160126" data-name="Trazado 160126" d="M523.622-3421.562a10.538,10.538,0,0,0,2.687-7.314q-.114-39.07,0-78.141a10.555,10.555,0,0,0-2.685-7.315c6.621-.756,9.5,2.614,9.45,8.771q-.281,37.9-.008,75.812c.033,5.309-2.974,8.739-8.277,8.239C524.4-3421.547,524.011-3421.546,523.622-3421.562Z" transform="translate(-211.695 -81.868)" fill="#feb34e"/>
      <path id="Trazado_160127" data-name="Trazado 160127" d="M271.13-3577.282q-30.087,0-60.175.028c-1.27,0-1.741-.227-1.679-1.619.125-2.8.036-2.8,2.806-2.8q59.589.007,119.178-.024c1.466,0,1.752.4,1.692,1.761-.115,2.639-.033,2.642-2.673,2.642H271.13Z" transform="translate(-20.42 -40.941)" fill="#c3f2fe"/>
      <path id="Trazado_160128" data-name="Trazado 160128" d="M508.609-3546.084v-13.078c1.891-.018,3.784-.009,5.675-.066.664-.021.813.226.8.838-.034,1.747-.021,3.5-.009,5.243.012,1.788.476,2.337,2.3,2.775q0,2.142,0,4.285Z" transform="translate(-202.56 -54.613)" fill="#c3f2fe"/>
    </g>
  </g>
</svg>
