<svg xmlns="http://www.w3.org/2000/svg" width="80.025" height="80" viewBox="0 0 80.025 80">
  <g id="Grupo_109734" data-name="Grupo 109734" transform="translate(-6033.475 12340.896)">
    <g id="Grupo_109732" data-name="Grupo 109732" transform="translate(5397.714 -12418.823)">
      <path id="Trazado_160174" data-name="Trazado 160174" d="M715.786,121.977a2.615,2.615,0,0,1-2.378.962q-15.427-.042-30.855-.017c-1.732,0-2.2-.435-2.194-2.151,0-.49-.1-.645-.635-.666a8.186,8.186,0,0,0-6.262,2.279,10.435,10.435,0,0,1-5.237,2.766c-.013.359.29.49.472.68,1.877,1.952,3.8,3.858,5.647,5.839a15.524,15.524,0,0,1-4.532,24.648,14.623,14.623,0,0,1-5.145,1.455c-.123.011-.266-.021-.3.156H663.9c-.087-.188-.259-.134-.405-.134q-6.394-.005-12.789,0c-.147,0-.319-.05-.4.139h-.625c-.263-.325-.663-.228-.993-.282a15.569,15.569,0,0,1-9.826-24.61,66.034,66.034,0,0,1,4.857-5.185c.852-.9,1.724-1.782,2.625-2.71-.161-.09-.245-.144-.335-.187a5.128,5.128,0,0,1-2.493-7.313c.2-.393.067-.505-.193-.733a5.089,5.089,0,0,1-1.436-5.943c.185-.446.1-.6-.273-.837a5.106,5.106,0,0,1-1.029-7.993.637.637,0,0,0,.093-.958,5.137,5.137,0,0,1,4.212-7.836c.832-.04,1.666-.018,2.5-.02,1.042,0,1.044,0,.718-.949-1.366-3.977-2.677-7.973-4.13-11.918a1.769,1.769,0,0,1,1.79-2.527c7.6.05,15.209.022,22.814.024,1.626,0,2.272.891,1.771,2.435q-1.308,4.038-2.632,8.07c-.141.426-.207.672.388.785a8.612,8.612,0,0,1,2.378.948,12.67,12.67,0,0,1,4,3.766,7.219,7.219,0,0,0,5.283,2.95c.338.031.567.072.6-.422.088-1.51.54-1.91,2.04-1.911q6.875,0,13.751,0a5.681,5.681,0,0,0,1.008-.072c5.319-.973,10.64-1.934,15.951-2.95,1.114-.213,2.043-.193,2.674.89v8.909c-.448.433-.839.957-1.553.961a1.616,1.616,0,0,1-1.573-1.85c-.007-1.614-.037-3.229.015-4.841.022-.68-.223-.763-.8-.655q-6.32,1.186-12.646,2.339c-.432.079-.652.208-.65.734q.033,10.581,0,21.161c0,.487.139.609.614.607q6.4-.026,12.8,0c.581,0,.677-.2.666-.716-.032-1.457-.016-2.915-.009-4.373a1.6,1.6,0,0,1,1.576-1.838,1.85,1.85,0,0,1,1.55,1.126ZM654.479,96.449c-1.484,0-2.968,0-4.452,0-1.692,0-3.385-.02-5.076.029a1.928,1.928,0,0,0-1.895,1.824,2.011,2.011,0,0,0,1.6,2.182c.2.048.413.048.618.079a1.555,1.555,0,0,1,.053,3.08,6.555,6.555,0,0,1-.935.035,2.044,2.044,0,1,0,.01,4.083c.755.014,1.511-.023,2.265.014a1.556,1.556,0,0,1,.08,3.108c-.1.013-.208.01-.311.026a2.046,2.046,0,0,0-1.823,2.16,2.01,2.01,0,0,0,1.991,1.91c.259.017.52.013.781.013,1.375,0,2.065.45,2.154,1.4.094,1-.431,1.518-1.8,1.773l-.077.014a2.024,2.024,0,0,0,.059,4.008,5.4,5.4,0,0,0,.855.049c5.728,0,11.457-.011,17.185.009a7.488,7.488,0,0,0,5.413-2.012A11.15,11.15,0,0,1,679.738,117c.458.024.623-.076.621-.585q-.031-7.89,0-15.78c0-.42-.094-.57-.547-.594a10.315,10.315,0,0,1-5.2-1.7,14.006,14.006,0,0,1-3.321-3.381,7.5,7.5,0,0,0-4.133-2.766c-.492-.131-.691-.027-.819.47-.2.778-.484,1.535-.736,2.3-.387,1.175-.8,1.477-2.06,1.479Q659.01,96.452,654.479,96.449Zm2.227,58.3c2.332,0,4.233.015,6.134-.007a12.352,12.352,0,0,0,2.177-.165c4.883-.938,8.274-3.72,9.809-8.458a11.9,11.9,0,0,0-2.977-12.534c-2.488-2.629-5.04-5.2-7.554-7.8a1.2,1.2,0,0,0-.943-.425q-6.173.022-12.346,0a1.12,1.12,0,0,0-.889.369c-2.639,2.737-5.366,5.395-7.919,8.209a11.732,11.732,0,0,0-2.444,12.838,11.858,11.858,0,0,0,10.431,7.886C652.494,154.91,654.82,154.691,656.706,154.748Zm26.768-46.027c0,3.463.012,6.925-.012,10.388,0,.534.117.7.678.7q5.349-.04,10.7,0c.508,0,.641-.127.64-.638q-.027-10.426,0-20.853c0-.536-.171-.629-.656-.626q-5.311.029-10.621,0c-.572,0-.75.125-.744.727C683.491,101.848,683.475,105.285,683.475,108.722Zm-26.26-27.644c-2.993,0-5.985.012-8.978-.01-.6,0-.688.129-.487.7q1.924,5.471,3.773,10.967a.716.716,0,0,0,.812.6q4.918-.034,9.836,0a.758.758,0,0,0,.883-.618q1.748-5.488,3.57-10.952c.2-.6.063-.7-.51-.694C663.148,81.089,660.181,81.078,657.215,81.078Z" fill="#030303"/>
      <path id="Trazado_160175" data-name="Trazado 160175" d="M1007.037,213.475v.938a2.026,2.026,0,0,1-1.556,1.108c-1.077-.251-1.607-.818-1.565-1.674.04-.818.566-1.318,1.57-1.493A1.856,1.856,0,0,1,1007.037,213.475Z" transform="translate(-291.251 -106.347)" fill="#030303"/>
      <path id="Trazado_160176" data-name="Trazado 160176" d="M705.364,460.36c.085-.189.256-.139.4-.139q6.394,0,12.789,0c.146,0,.318-.054.405.134Z" transform="translate(-55.064 -302.433)" fill="#030303"/>
      <path id="Trazado_160177" data-name="Trazado 160177" d="M679.006,150.311q4.53,0,9.061,0c1.256,0,1.673-.3,2.06-1.479.252-.765.535-1.521.736-2.3.129-.5.327-.6.819-.47a7.5,7.5,0,0,1,4.133,2.766,14.007,14.007,0,0,0,3.321,3.381,10.315,10.315,0,0,0,5.2,1.7c.452.024.548.174.547.594q-.019,7.89,0,15.78c0,.509-.163.609-.621.585a11.15,11.15,0,0,0-8.573,3.231,7.488,7.488,0,0,1-5.413,2.012c-5.728-.019-11.457-.006-17.185-.009a5.4,5.4,0,0,1-.855-.049,2.024,2.024,0,0,1-.059-4.008l.077-.014c1.372-.255,1.9-.772,1.8-1.773-.089-.947-.779-1.394-2.154-1.4-.26,0-.521,0-.781-.013a2.01,2.01,0,0,1-1.991-1.91,2.046,2.046,0,0,1,1.823-2.16c.1-.016.208-.013.311-.026a1.556,1.556,0,0,0-.08-3.108c-.753-.037-1.51,0-2.265-.014a2.044,2.044,0,1,1-.01-4.083,6.556,6.556,0,0,0,.935-.035,1.555,1.555,0,0,0-.053-3.08c-.205-.031-.417-.031-.618-.079a2.011,2.011,0,0,1-1.6-2.182,1.928,1.928,0,0,1,1.895-1.824c1.691-.049,3.384-.026,5.076-.029C676.037,150.309,677.522,150.311,679.006,150.311Z" transform="translate(-24.527 -53.862)" fill="#fdd8d4"/>
      <path id="Trazado_160178" data-name="Trazado 160178" d="M668.313,334.375c-1.886-.058-4.213.162-6.519-.088a11.858,11.858,0,0,1-10.431-7.886,11.732,11.732,0,0,1,2.444-12.838c2.553-2.815,5.28-5.472,7.919-8.209a1.12,1.12,0,0,1,.889-.369q6.173.015,12.346,0a1.2,1.2,0,0,1,.943.426c2.514,2.6,5.066,5.173,7.554,7.8a11.9,11.9,0,0,1,2.977,12.534c-1.535,4.738-4.927,7.52-9.809,8.458a12.347,12.347,0,0,1-2.177.165C672.546,334.39,670.645,334.375,668.313,334.375Zm5.671-24.325c-.682.022-1.1.509-1.463,1.124q-4.35,7.342-8.723,14.671c-.226.379-.465.753-.658,1.148a1.548,1.548,0,0,0,2.642,1.6,4.713,4.713,0,0,0,.293-.46q4.582-7.7,9.161-15.407a3.545,3.545,0,0,0,.311-.625A1.566,1.566,0,0,0,673.984,310.051Zm5.286,15.326a4.533,4.533,0,1,0-9.023-.86c-.524,3.039,1.777,5.934,4.644,5.844A4.81,4.81,0,0,0,679.27,325.377Zm-19.739-10.932a4.12,4.12,0,0,0,.217,1.471,4.52,4.52,0,0,0,3.934,3.4,3.944,3.944,0,0,0,4.053-2.214,5.291,5.291,0,0,0-.213-5.824,4.167,4.167,0,0,0-6.693-.557A5.258,5.258,0,0,0,659.531,314.444Z" transform="translate(-11.607 -179.627)" fill="#dce736"/>
      <path id="Trazado_160179" data-name="Trazado 160179" d="M952.149,165.668q0,1.851,0,3.7c-1,.175-1.529.675-1.57,1.493-.042.856.488,1.424,1.565,1.674q0,1.853.006,3.706a1.6,1.6,0,0,0-1.576,1.838c-.006,1.458-.022,2.916.009,4.373.011.514-.085.719-.666.716q-6.4-.039-12.805,0c-.475,0-.615-.121-.614-.607q.024-10.581,0-21.161c0-.526.218-.655.65-.734q6.325-1.158,12.646-2.339c.576-.108.82-.025.8.655-.052,1.612-.022,3.227-.015,4.841A1.616,1.616,0,0,0,952.149,165.668Z" transform="translate(-237.917 -63.362)" fill="#3d46c2"/>
      <path id="Trazado_160180" data-name="Trazado 160180" d="M864.125,183.554c0-3.436.016-6.873-.015-10.309-.005-.6.172-.731.744-.727q5.31.039,10.621,0c.485,0,.657.09.656.626q-.03,10.426,0,20.853c0,.511-.132.641-.64.638q-5.349-.034-10.7,0c-.561,0-.682-.164-.678-.7C864.136,190.479,864.125,187.016,864.125,183.554Z" transform="translate(-180.65 -74.832)" fill="#fff"/>
      <path id="Trazado_160181" data-name="Trazado 160181" d="M702.256,92.971c2.967,0,5.933.011,8.9-.01.573,0,.709.1.51.694q-1.825,5.463-3.57,10.952a.758.758,0,0,1-.883.618q-4.918-.031-9.836,0a.716.716,0,0,1-.812-.6q-1.857-5.494-3.773-10.967c-.2-.572-.115-.706.487-.7C696.271,92.983,699.264,92.971,702.256,92.971Z" transform="translate(-45.042 -11.893)" fill="#dce736"/>
      <path id="Trazado_160182" data-name="Trazado 160182" d="M721.443,329.244a1.566,1.566,0,0,1,1.562,2.054,3.546,3.546,0,0,1-.311.625q-4.578,7.705-9.161,15.407a4.714,4.714,0,0,1-.293.46,1.548,1.548,0,0,1-2.642-1.6c.193-.4.433-.769.658-1.148q4.362-7.334,8.723-14.671C720.344,329.753,720.762,329.266,721.443,329.244Z" transform="translate(-59.066 -198.82)" fill="#030303"/>
      <path id="Trazado_160183" data-name="Trazado 160183" d="M754.031,383.488a4.81,4.81,0,0,1-4.379,4.984c-2.868.09-5.168-2.8-4.644-5.844a4.533,4.533,0,1,1,9.023.86ZM750.9,383.3a2.251,2.251,0,0,0-.077-.489c-.216-.64-.526-1.227-1.312-1.234s-1.119.553-1.327,1.207a2.248,2.248,0,0,0-.1.609c-.03,1.026.629,1.937,1.4,1.95S750.909,384.479,750.9,383.3Z" transform="translate(-86.368 -237.739)" fill="#030303"/>
      <path id="Trazado_160184" data-name="Trazado 160184" d="M693.978,330.769a5.258,5.258,0,0,1,1.3-3.719,4.167,4.167,0,0,1,6.693.557,5.291,5.291,0,0,1,.213,5.824,3.944,3.944,0,0,1-4.053,2.214,4.52,4.52,0,0,1-3.934-3.4A4.12,4.12,0,0,1,693.978,330.769Zm5.81-.113c-.008-1.038-.693-1.941-1.448-1.908-.7.031-1.238.853-1.233,1.9.005,1.065.66,1.935,1.431,1.9C699.241,332.517,699.8,331.677,699.789,330.656Z" transform="translate(-46.054 -195.952)" fill="#030303"/>
      <path id="Trazado_160185" data-name="Trazado 160185" d="M762.831,395.186c.006,1.179-.644,2.056-1.422,2.043s-1.427-.924-1.4-1.95a2.251,2.251,0,0,1,.1-.609c.208-.654.542-1.214,1.327-1.207s1.1.594,1.312,1.234A2.251,2.251,0,0,1,762.831,395.186Z" transform="translate(-98.297 -249.625)" fill="#dce736"/>
      <path id="Trazado_160186" data-name="Trazado 160186" d="M711.652,342.509c.008,1.021-.547,1.861-1.25,1.891-.771.034-1.426-.836-1.431-1.9,0-1.044.529-1.867,1.233-1.9C710.959,340.568,711.644,341.471,711.652,342.509Z" transform="translate(-57.918 -207.805)" fill="#dce736"/>
    </g>
  </g>
</svg>
