<svg xmlns="http://www.w3.org/2000/svg" width="820" height="350" viewBox="0 0 820 350">
  <g id="Grupo_109724" data-name="Grupo 109724" transform="translate(-3123 7751.551)">
    <g id="Grupo_109720" data-name="Grupo 109720" transform="translate(-785.93 -2100.034)">
      <path id="Trazado_160235" data-name="Trazado 160235" d="M39,0H781a39,39,0,0,1,39,39V311a39,39,0,0,1-39,39H39A39,39,0,0,1,0,311V39A39,39,0,0,1,39,0Z" transform="translate(3908.93 -5651.517)" fill="#f3f9ff"/>
      <g id="Trazado_160228" data-name="Trazado 160228" transform="translate(4028.93 -5550.517)" fill="#d1d5fc">
        <path d="M 74 146 C 64.27918243408203 146 54.85020065307617 144.0966186523438 45.97496032714844 140.3426971435547 C 41.70909881591797 138.5384063720703 37.59452056884766 136.3050537109375 33.74552154541016 133.7047271728516 C 29.93255996704102 131.1287384033203 26.34696006774902 128.1703186035156 23.08831977844238 124.9116821289062 C 19.82967948913574 121.6530380249023 16.87125968933105 118.0674362182617 14.29528045654297 114.2544784545898 C 11.69493961334229 110.4054794311523 9.461600303649902 106.290901184082 7.657299995422363 102.0250396728516 C 3.903379917144775 93.14980316162109 2 83.72081756591797 2 74 C 2 64.27918243408203 3.903379917144775 54.85020065307617 7.657299995422363 45.97496032714844 C 9.461600303649902 41.70909881591797 11.69493961334229 37.59452056884766 14.29528045654297 33.74552154541016 C 16.87125968933105 29.93255996704102 19.82967948913574 26.34696006774902 23.08831977844238 23.08831977844238 C 26.34696006774902 19.82967948913574 29.93255996704102 16.87125968933105 33.74552154541016 14.29528045654297 C 37.59452056884766 11.69493961334229 41.70909881591797 9.461600303649902 45.97496032714844 7.657299995422363 C 54.85020065307617 3.903379917144775 64.27918243408203 2 74 2 C 83.72081756591797 2 93.14980316162109 3.903379917144775 102.0250396728516 7.657299995422363 C 106.290901184082 9.461600303649902 110.4054794311523 11.69493961334229 114.2544784545898 14.29528045654297 C 118.0674362182617 16.87125968933105 121.6530380249023 19.82967948913574 124.9116821289062 23.08831977844238 C 128.1703186035156 26.34696006774902 131.1287384033203 29.93255996704102 133.7047271728516 33.74552154541016 C 136.3050537109375 37.59452056884766 138.5384063720703 41.70909881591797 140.3426971435547 45.97496032714844 C 144.0966186523438 54.85020065307617 146 64.27918243408203 146 74 C 146 83.72081756591797 144.0966186523438 93.14980316162109 140.3426971435547 102.0250396728516 C 138.5384063720703 106.290901184082 136.3050537109375 110.4054794311523 133.7047271728516 114.2544784545898 C 131.1287384033203 118.0674362182617 128.1703186035156 121.6530380249023 124.9116821289062 124.9116821289062 C 121.6530380249023 128.1703186035156 118.0674362182617 131.1287384033203 114.2544784545898 133.7047271728516 C 110.4054794311523 136.3050537109375 106.290901184082 138.5384063720703 102.0250396728516 140.3426971435547 C 93.14980316162109 144.0966186523438 83.72081756591797 146 74 146 Z" stroke="none"/>
        <path d="M 74 4 C 64.54830169677734 4 55.38143157958984 5.850234985351562 46.75406646728516 9.499298095703125 C 42.60715484619141 11.25331115722656 38.60713195800781 13.42448425292969 34.86512756347656 15.9525146484375 C 31.15765380859375 18.45726013183594 27.67117309570312 21.33389282226562 24.50252532958984 24.50252532958984 C 21.33389282226562 27.67117309570312 18.45726013183594 31.15765380859375 15.9525146484375 34.86512756347656 C 13.42448425292969 38.60713195800781 11.25331115722656 42.60715484619141 9.499298095703125 46.75406646728516 C 5.850234985351562 55.38143157958984 4 64.54830169677734 4 74 C 4 83.45169830322266 5.850234985351562 92.61856079101562 9.499298095703125 101.2459335327148 C 11.25331115722656 105.3928527832031 13.42448425292969 109.3928680419922 15.9525146484375 113.1348724365234 C 18.45726013183594 116.8423461914062 21.33389282226562 120.3288269042969 24.50252532958984 123.4974822998047 C 27.67117309570312 126.6661071777344 31.15765380859375 129.5427398681641 34.86512756347656 132.0474853515625 C 38.60713195800781 134.5755157470703 42.60715484619141 136.7466888427734 46.75406646728516 138.5007019042969 C 55.38143157958984 142.1497650146484 64.54830169677734 144 74 144 C 83.45169830322266 144 92.61856079101562 142.1497650146484 101.2459335327148 138.5007019042969 C 105.3928527832031 136.7466888427734 109.3928680419922 134.5755157470703 113.1348724365234 132.0474853515625 C 116.8423461914062 129.5427398681641 120.3288269042969 126.6661071777344 123.4974822998047 123.4974822998047 C 126.6661071777344 120.3288269042969 129.5427398681641 116.8423461914062 132.0474853515625 113.1348724365234 C 134.5755157470703 109.3928680419922 136.7466888427734 105.3928527832031 138.5007019042969 101.2459335327148 C 142.1497650146484 92.61856079101562 144 83.45169830322266 144 74 C 144 64.54830169677734 142.1497650146484 55.38143157958984 138.5007019042969 46.75406646728516 C 136.7466888427734 42.60715484619141 134.5755157470703 38.60713195800781 132.0474853515625 34.86512756347656 C 129.5427398681641 31.15765380859375 126.6661071777344 27.67117309570312 123.4974822998047 24.50252532958984 C 120.3288269042969 21.33389282226562 116.8423461914062 18.45726013183594 113.1348724365234 15.9525146484375 C 109.3928680419922 13.42448425292969 105.3928527832031 11.25331115722656 101.2459335327148 9.499298095703125 C 92.61856079101562 5.850234985351562 83.45169830322266 4 74 4 M 74 0 C 114.8690643310547 0 148 33.13093566894531 148 74 C 148 114.8690643310547 114.8690643310547 148 74 148 C 33.13093566894531 148 0 114.8690643310547 0 74 C 0 33.13093566894531 33.13093566894531 0 74 0 Z" stroke="none" fill="#3e4bbf"/>
      </g>
      <g id="Trazado_160229" data-name="Trazado 160229" transform="translate(4238.93 -5550.517)" fill="#f8fad6">
        <path d="M 74 146 C 64.27918243408203 146 54.85020065307617 144.0966186523438 45.97496032714844 140.3426971435547 C 41.70909881591797 138.5384063720703 37.59452056884766 136.3050537109375 33.74552154541016 133.7047271728516 C 29.93255996704102 131.1287384033203 26.34696006774902 128.1703186035156 23.08831977844238 124.9116821289062 C 19.82967948913574 121.6530380249023 16.87125968933105 118.0674362182617 14.29528045654297 114.2544784545898 C 11.69493961334229 110.4054794311523 9.461600303649902 106.290901184082 7.657299995422363 102.0250396728516 C 3.903379917144775 93.14980316162109 2 83.72081756591797 2 74 C 2 64.27918243408203 3.903379917144775 54.85020065307617 7.657299995422363 45.97496032714844 C 9.461600303649902 41.70909881591797 11.69493961334229 37.59452056884766 14.29528045654297 33.74552154541016 C 16.87125968933105 29.93255996704102 19.82967948913574 26.34696006774902 23.08831977844238 23.08831977844238 C 26.34696006774902 19.82967948913574 29.93255996704102 16.87125968933105 33.74552154541016 14.29528045654297 C 37.59452056884766 11.69493961334229 41.70909881591797 9.461600303649902 45.97496032714844 7.657299995422363 C 54.85020065307617 3.903379917144775 64.27918243408203 2 74 2 C 83.72081756591797 2 93.14980316162109 3.903379917144775 102.0250396728516 7.657299995422363 C 106.290901184082 9.461600303649902 110.4054794311523 11.69493961334229 114.2544784545898 14.29528045654297 C 118.0674362182617 16.87125968933105 121.6530380249023 19.82967948913574 124.9116821289062 23.08831977844238 C 128.1703186035156 26.34696006774902 131.1287384033203 29.93255996704102 133.7047271728516 33.74552154541016 C 136.3050537109375 37.59452056884766 138.5384063720703 41.70909881591797 140.3426971435547 45.97496032714844 C 144.0966186523438 54.85020065307617 146 64.27918243408203 146 74 C 146 83.72081756591797 144.0966186523438 93.14980316162109 140.3426971435547 102.0250396728516 C 138.5384063720703 106.290901184082 136.3050537109375 110.4054794311523 133.7047271728516 114.2544784545898 C 131.1287384033203 118.0674362182617 128.1703186035156 121.6530380249023 124.9116821289062 124.9116821289062 C 121.6530380249023 128.1703186035156 118.0674362182617 131.1287384033203 114.2544784545898 133.7047271728516 C 110.4054794311523 136.3050537109375 106.290901184082 138.5384063720703 102.0250396728516 140.3426971435547 C 93.14980316162109 144.0966186523438 83.72081756591797 146 74 146 Z" stroke="none"/>
        <path d="M 74 4 C 64.54830169677734 4 55.38143157958984 5.850234985351562 46.75406646728516 9.499298095703125 C 42.60715484619141 11.25331115722656 38.60713195800781 13.42448425292969 34.86512756347656 15.9525146484375 C 31.15765380859375 18.45726013183594 27.67117309570312 21.33389282226562 24.50252532958984 24.50252532958984 C 21.33389282226562 27.67117309570312 18.45726013183594 31.15765380859375 15.9525146484375 34.86512756347656 C 13.42448425292969 38.60713195800781 11.25331115722656 42.60715484619141 9.499298095703125 46.75406646728516 C 5.850234985351562 55.38143157958984 4 64.54830169677734 4 74 C 4 83.45169830322266 5.850234985351562 92.61856079101562 9.499298095703125 101.2459335327148 C 11.25331115722656 105.3928527832031 13.42448425292969 109.3928680419922 15.9525146484375 113.1348724365234 C 18.45726013183594 116.8423461914062 21.33389282226562 120.3288269042969 24.50252532958984 123.4974822998047 C 27.67117309570312 126.6661071777344 31.15765380859375 129.5427398681641 34.86512756347656 132.0474853515625 C 38.60713195800781 134.5755157470703 42.60715484619141 136.7466888427734 46.75406646728516 138.5007019042969 C 55.38143157958984 142.1497650146484 64.54830169677734 144 74 144 C 83.45169830322266 144 92.61856079101562 142.1497650146484 101.2459335327148 138.5007019042969 C 105.3928527832031 136.7466888427734 109.3928680419922 134.5755157470703 113.1348724365234 132.0474853515625 C 116.8423461914062 129.5427398681641 120.3288269042969 126.6661071777344 123.4974822998047 123.4974822998047 C 126.6661071777344 120.3288269042969 129.5427398681641 116.8423461914062 132.0474853515625 113.1348724365234 C 134.5755157470703 109.3928680419922 136.7466888427734 105.3928527832031 138.5007019042969 101.2459335327148 C 142.1497650146484 92.61856079101562 144 83.45169830322266 144 74 C 144 64.54830169677734 142.1497650146484 55.38143157958984 138.5007019042969 46.75406646728516 C 136.7466888427734 42.60715484619141 134.5755157470703 38.60713195800781 132.0474853515625 34.86512756347656 C 129.5427398681641 31.15765380859375 126.6661071777344 27.67117309570312 123.4974822998047 24.50252532958984 C 120.3288269042969 21.33389282226562 116.8423461914062 18.45726013183594 113.1348724365234 15.9525146484375 C 109.3928680419922 13.42448425292969 105.3928527832031 11.25331115722656 101.2459335327148 9.499298095703125 C 92.61856079101562 5.850234985351562 83.45169830322266 4 74 4 M 74 0 C 114.8690643310547 0 148 33.13093566894531 148 74 C 148 114.8690643310547 114.8690643310547 148 74 148 C 33.13093566894531 148 0 114.8690643310547 0 74 C 0 33.13093566894531 33.13093566894531 0 74 0 Z" stroke="none" fill="#dce548"/>
      </g>
      <g id="Trazado_160238" data-name="Trazado 160238" transform="translate(4448.93 -5550.517)" fill="#bae887">
        <path d="M 74 146 C 64.27918243408203 146 54.85020065307617 144.0966186523438 45.97496032714844 140.3426971435547 C 41.70909881591797 138.5384063720703 37.59452056884766 136.3050537109375 33.74552154541016 133.7047271728516 C 29.93255996704102 131.1287384033203 26.34696006774902 128.1703186035156 23.08831977844238 124.9116821289062 C 19.82967948913574 121.6530380249023 16.87125968933105 118.0674362182617 14.29528045654297 114.2544784545898 C 11.69493961334229 110.4054794311523 9.461600303649902 106.290901184082 7.657299995422363 102.0250396728516 C 3.903379917144775 93.14980316162109 2 83.72081756591797 2 74 C 2 64.27918243408203 3.903379917144775 54.85020065307617 7.657299995422363 45.97496032714844 C 9.461600303649902 41.70909881591797 11.69493961334229 37.59452056884766 14.29528045654297 33.74552154541016 C 16.87125968933105 29.93255996704102 19.82967948913574 26.34696006774902 23.08831977844238 23.08831977844238 C 26.34696006774902 19.82967948913574 29.93255996704102 16.87125968933105 33.74552154541016 14.29528045654297 C 37.59452056884766 11.69493961334229 41.70909881591797 9.461600303649902 45.97496032714844 7.657299995422363 C 54.85020065307617 3.903379917144775 64.27918243408203 2 74 2 C 83.72081756591797 2 93.14980316162109 3.903379917144775 102.0250396728516 7.657299995422363 C 106.290901184082 9.461600303649902 110.4054794311523 11.69493961334229 114.2544784545898 14.29528045654297 C 118.0674362182617 16.87125968933105 121.6530380249023 19.82967948913574 124.9116821289062 23.08831977844238 C 128.1703186035156 26.34696006774902 131.1287384033203 29.93255996704102 133.7047271728516 33.74552154541016 C 136.3050537109375 37.59452056884766 138.5384063720703 41.70909881591797 140.3426971435547 45.97496032714844 C 144.0966186523438 54.85020065307617 146 64.27918243408203 146 74 C 146 83.72081756591797 144.0966186523438 93.14980316162109 140.3426971435547 102.0250396728516 C 138.5384063720703 106.290901184082 136.3050537109375 110.4054794311523 133.7047271728516 114.2544784545898 C 131.1287384033203 118.0674362182617 128.1703186035156 121.6530380249023 124.9116821289062 124.9116821289062 C 121.6530380249023 128.1703186035156 118.0674362182617 131.1287384033203 114.2544784545898 133.7047271728516 C 110.4054794311523 136.3050537109375 106.290901184082 138.5384063720703 102.0250396728516 140.3426971435547 C 93.14980316162109 144.0966186523438 83.72081756591797 146 74 146 Z" stroke="none"/>
        <path d="M 74 4 C 64.54830169677734 4 55.38143157958984 5.850234985351562 46.75406646728516 9.499298095703125 C 42.60715484619141 11.25331115722656 38.60713195800781 13.42448425292969 34.86512756347656 15.9525146484375 C 31.15765380859375 18.45726013183594 27.67117309570312 21.33389282226562 24.50252532958984 24.50252532958984 C 21.33389282226562 27.67117309570312 18.45726013183594 31.15765380859375 15.9525146484375 34.86512756347656 C 13.42448425292969 38.60713195800781 11.25331115722656 42.60715484619141 9.499298095703125 46.75406646728516 C 5.850234985351562 55.38143157958984 4 64.54830169677734 4 74 C 4 83.45169830322266 5.850234985351562 92.61856079101562 9.499298095703125 101.2459335327148 C 11.25331115722656 105.3928527832031 13.42448425292969 109.3928680419922 15.9525146484375 113.1348724365234 C 18.45726013183594 116.8423461914062 21.33389282226562 120.3288269042969 24.50252532958984 123.4974822998047 C 27.67117309570312 126.6661071777344 31.15765380859375 129.5427398681641 34.86512756347656 132.0474853515625 C 38.60713195800781 134.5755157470703 42.60715484619141 136.7466888427734 46.75406646728516 138.5007019042969 C 55.38143157958984 142.1497650146484 64.54830169677734 144 74 144 C 83.45169830322266 144 92.61856079101562 142.1497650146484 101.2459335327148 138.5007019042969 C 105.3928527832031 136.7466888427734 109.3928680419922 134.5755157470703 113.1348724365234 132.0474853515625 C 116.8423461914062 129.5427398681641 120.3288269042969 126.6661071777344 123.4974822998047 123.4974822998047 C 126.6661071777344 120.3288269042969 129.5427398681641 116.8423461914062 132.0474853515625 113.1348724365234 C 134.5755157470703 109.3928680419922 136.7466888427734 105.3928527832031 138.5007019042969 101.2459335327148 C 142.1497650146484 92.61856079101562 144 83.45169830322266 144 74 C 144 64.54830169677734 142.1497650146484 55.38143157958984 138.5007019042969 46.75406646728516 C 136.7466888427734 42.60715484619141 134.5755157470703 38.60713195800781 132.0474853515625 34.86512756347656 C 129.5427398681641 31.15765380859375 126.6661071777344 27.67117309570312 123.4974822998047 24.50252532958984 C 120.3288269042969 21.33389282226562 116.8423461914062 18.45726013183594 113.1348724365234 15.9525146484375 C 109.3928680419922 13.42448425292969 105.3928527832031 11.25331115722656 101.2459335327148 9.499298095703125 C 92.61856079101562 5.850234985351562 83.45169830322266 4 74 4 M 74 0 C 114.8690643310547 0 148 33.13093566894531 148 74 C 148 114.8690643310547 114.8690643310547 148 74 148 C 33.13093566894531 148 0 114.8690643310547 0 74 C 0 33.13093566894531 33.13093566894531 0 74 0 Z" stroke="none" fill="#77b43a"/>
      </g>
      <path id="Trazado_160236" data-name="Trazado 160236" d="M25.779,21.813H20.143L19.158,25H14.764L21.021,7.938h3.867L31.193,25H26.775Zm-4.652-3.176h3.668l-1.84-5.918Zm25.113.586a6.231,6.231,0,0,1-.961,3.146,5.8,5.8,0,0,1-2.467,2.115,8.4,8.4,0,0,1-3.627.75,6.7,6.7,0,0,1-5.3-2.191,9.048,9.048,0,0,1-1.934-6.187v-.844a10.328,10.328,0,0,1,.873-4.389,6.615,6.615,0,0,1,2.514-2.906,7.013,7.013,0,0,1,3.8-1.025,7.354,7.354,0,0,1,4.992,1.635,6.459,6.459,0,0,1,2.145,4.506h-4.1a3.056,3.056,0,0,0-.785-2.238,3.229,3.229,0,0,0-2.25-.68,2.457,2.457,0,0,0-2.25,1.148,7.381,7.381,0,0,0-.75,3.668v1.207a8.167,8.167,0,0,0,.686,3.9,2.509,2.509,0,0,0,2.361,1.172,3.159,3.159,0,0,0,2.168-.668,2.835,2.835,0,0,0,.8-2.121Zm15-8.109H56.119V25H52.006V11.113H46.979V7.938H61.24ZM67.357,25h-4.1V7.938h4.1Zm9.48-4.641,3.4-12.422H84.83L79.088,25h-4.5l-5.7-17.062h4.559Zm23.531-3.539a10.062,10.062,0,0,1-.926,4.418A6.842,6.842,0,0,1,96.813,24.2a7.326,7.326,0,0,1-3.885,1.037,7.429,7.429,0,0,1-3.867-1,6.831,6.831,0,0,1-2.631-2.865,9.772,9.772,0,0,1-.99-4.277v-.961a10.106,10.106,0,0,1,.92-4.424A6.825,6.825,0,0,1,89,8.746a7.805,7.805,0,0,1,7.775-.012,6.948,6.948,0,0,1,2.643,2.936,9.816,9.816,0,0,1,.955,4.365Zm-4.184-.715a7.175,7.175,0,0,0-.85-3.861A2.725,2.725,0,0,0,92.9,10.926q-3.094,0-3.27,4.641l-.012,1.254a7.379,7.379,0,0,0,.832,3.855,2.721,2.721,0,0,0,2.473,1.348,2.688,2.688,0,0,0,2.4-1.324,7.178,7.178,0,0,0,.855-3.809Z" transform="translate(4044.93 -5492.517)" fill="#12263f"/>
      <path id="Trazado_160230" data-name="Trazado 160230" d="M73.23,20.078H84.188v9.287H73.23V41.93H63.107V29.365H52.117V20.078h10.99V7.867H73.23Z" transform="translate(4349.742 -5501.416)" fill="#f85316"/>
      <path id="Trazado_160231" data-name="Trazado 160231" d="M82.231,18.847H52.475V10.492H82.231Zm0,14.107H52.475V24.6H82.231Z" transform="translate(4141.699 -5497.47)" fill="#f85316"/>
      <path id="Trazado_160237" data-name="Trazado 160237" d="M21.191,19.211V25H17.078V7.938h6.809a7.93,7.93,0,0,1,3.463.721,5.431,5.431,0,0,1,2.332,2.051,5.6,5.6,0,0,1,.826,3.018,4.937,4.937,0,0,1-1.787,3.99,7.415,7.415,0,0,1-4.9,1.494Zm0-3.176h2.7a2.542,2.542,0,0,0,1.822-.6,2.221,2.221,0,0,0,.627-1.687,2.745,2.745,0,0,0-.645-1.91,2.282,2.282,0,0,0-1.758-.727H21.191ZM40.3,21.813H34.668L33.684,25H29.289L35.547,7.938h3.867L45.719,25H41.3Zm-4.652-3.176H39.32l-1.84-5.918Zm20.109,1.828a1.69,1.69,0,0,0-.639-1.406,7.938,7.938,0,0,0-2.244-1.043,21.53,21.53,0,0,1-2.625-1.043q-3.316-1.629-3.316-4.477a4.014,4.014,0,0,1,.826-2.5A5.344,5.344,0,0,1,50.1,8.307a9.1,9.1,0,0,1,3.4-.6,7.958,7.958,0,0,1,3.3.656,5.223,5.223,0,0,1,2.268,1.869A4.881,4.881,0,0,1,59.875,13h-4.1a2.063,2.063,0,0,0-.639-1.617,2.489,2.489,0,0,0-1.729-.574,2.807,2.807,0,0,0-1.74.486,1.432,1.432,0,0,0,.064,2.426,8.867,8.867,0,0,0,2.473,1.1,15.147,15.147,0,0,1,2.906,1.225,4.884,4.884,0,0,1,2.766,4.395,4.166,4.166,0,0,1-1.687,3.516,7.506,7.506,0,0,1-4.629,1.277A9.184,9.184,0,0,1,49.8,24.49a5.663,5.663,0,0,1-2.531-2.039,5.313,5.313,0,0,1-.85-2.982h4.125a2.617,2.617,0,0,0,.709,2.021,3.351,3.351,0,0,0,2.3.65A2.647,2.647,0,0,0,55.17,21.7,1.45,1.45,0,0,0,55.762,20.465ZM66.367,25h-4.1V7.938h4.1Zm9.48-4.641,3.4-12.422H83.84L78.1,25H73.6L67.9,7.938h4.559ZM99.379,16.82a10.062,10.062,0,0,1-.926,4.418A6.842,6.842,0,0,1,95.822,24.2a7.326,7.326,0,0,1-3.885,1.037,7.429,7.429,0,0,1-3.867-1,6.831,6.831,0,0,1-2.631-2.865,9.772,9.772,0,0,1-.99-4.277v-.961a10.106,10.106,0,0,1,.92-4.424,6.825,6.825,0,0,1,2.637-2.959,7.805,7.805,0,0,1,7.775-.012,6.948,6.948,0,0,1,2.643,2.936,9.816,9.816,0,0,1,.955,4.365ZM95.2,16.105a7.175,7.175,0,0,0-.85-3.861,2.725,2.725,0,0,0-2.432-1.318q-3.094,0-3.27,4.641l-.012,1.254a7.379,7.379,0,0,0,.832,3.855,2.721,2.721,0,0,0,2.473,1.348,2.688,2.688,0,0,0,2.4-1.324,7.178,7.178,0,0,0,.855-3.809Z" transform="translate(4254.93 -5492.517)" fill="#12263f"/>
      <path id="Trazado_160239" data-name="Trazado 160239" d="M14.6,17.693V23H10.827V7.359h6.241a7.269,7.269,0,0,1,3.174.661A4.979,4.979,0,0,1,22.38,9.9a5.134,5.134,0,0,1,.757,2.766A4.526,4.526,0,0,1,21.5,16.324a6.8,6.8,0,0,1-4.5,1.37Zm0-2.911h2.471a2.33,2.33,0,0,0,1.67-.548,2.035,2.035,0,0,0,.575-1.547,2.516,2.516,0,0,0-.591-1.751,2.092,2.092,0,0,0-1.611-.666H14.6Zm17.521,5.3H26.951L26.049,23H22.021L27.757,7.359H31.3L37.081,23h-4.05Zm-4.265-2.911h3.362l-1.687-5.425Zm21.355-6.9H44.515V23H40.744V10.271H36.136V7.359H49.209Zm7.4,7.2H54.569V23H50.8V7.359h6.155A6.87,6.87,0,0,1,61.3,8.593a4.181,4.181,0,0,1,1.568,3.488,5.078,5.078,0,0,1-.661,2.7,4.689,4.689,0,0,1-2.068,1.738l3.266,6.315V23H59.371Zm-2.041-2.9h2.385A2.141,2.141,0,0,0,58.571,14a2.186,2.186,0,0,0,.542-1.578,2.211,2.211,0,0,0-.548-1.588,2.121,2.121,0,0,0-1.611-.576H54.569ZM69.168,23h-3.76V7.359h3.76ZM76.741,7.359l3.491,10.882,3.48-10.882h4.963V23H84.895V19.348l.365-7.477L81.479,23H78.986L75.194,11.86l.365,7.487V23H71.789V7.359ZM104.316,15.5a9.223,9.223,0,0,1-.849,4.05,6.272,6.272,0,0,1-2.412,2.712,6.715,6.715,0,0,1-3.561.951A6.81,6.81,0,0,1,93.95,22.3a6.261,6.261,0,0,1-2.412-2.626,8.958,8.958,0,0,1-.908-3.921v-.881a9.264,9.264,0,0,1,.843-4.055A6.257,6.257,0,0,1,93.891,8.1a7.155,7.155,0,0,1,7.127-.011,6.369,6.369,0,0,1,2.422,2.691,9,9,0,0,1,.875,4Zm-3.835-.655a6.577,6.577,0,0,0-.779-3.54A2.5,2.5,0,0,0,97.474,10.1q-2.836,0-3,4.254L94.466,15.5a6.764,6.764,0,0,0,.763,3.534A2.494,2.494,0,0,0,97.5,20.271a2.464,2.464,0,0,0,2.2-1.214,6.58,6.58,0,0,0,.784-3.491ZM119.323,23h-3.749l-5.543-9.732V23h-3.771V7.359h3.771l5.532,9.732V7.359h3.76Zm6.4,0h-3.76V7.359h3.76Zm15.866-7.5a9.223,9.223,0,0,1-.849,4.05,6.272,6.272,0,0,1-2.412,2.712,6.715,6.715,0,0,1-3.561.951,6.81,6.81,0,0,1-3.545-.918,6.261,6.261,0,0,1-2.412-2.626,8.958,8.958,0,0,1-.908-3.921v-.881a9.264,9.264,0,0,1,.843-4.055A6.257,6.257,0,0,1,131.167,8.1a7.155,7.155,0,0,1,7.127-.011,6.369,6.369,0,0,1,2.422,2.691,9,9,0,0,1,.875,4Zm-3.835-.655a6.577,6.577,0,0,0-.779-3.54,2.5,2.5,0,0,0-2.229-1.208q-2.836,0-3,4.254l-.011,1.149a6.764,6.764,0,0,0,.763,3.534,2.494,2.494,0,0,0,2.267,1.235,2.464,2.464,0,0,0,2.2-1.214,6.58,6.58,0,0,0,.784-3.491Z" transform="translate(4444.93 -5490.517)" fill="#12263f"/>
    </g>
  </g>
</svg>
