<svg xmlns="http://www.w3.org/2000/svg" width="164.233" height="164.234" viewBox="0 0 164.233 164.234">
  <g id="Grupo_109737" data-name="Grupo 109737" transform="translate(-875.743 2097.646)">
    <circle id="Elipse_5278" data-name="Elipse 5278" cx="75.59" cy="75.59" r="75.59" transform="matrix(0.06, -0.998, 0.998, 0.06, 877.86, -1944.624)" fill="#f6f6f6" stroke="#75b62f" stroke-width="4"/>
    <g id="Grupo_109720" data-name="Grupo 109720" transform="translate(91.906 1198.929)">
      <path id="Trazado_160063" data-name="Trazado 160063" d="M819.1-3180.819c.5-.884,1.023-1.748,1.575-2.6a2.892,2.892,0,0,0,.313-2.118,15.753,15.753,0,0,1,1.215-9.711c.538-1.128.975-1.322,2.173-.971a1.737,1.737,0,0,1,.26,2.24,11.319,11.319,0,0,0-1.079,6.954,7.912,7.912,0,0,1-1.338,6.3,3.486,3.486,0,0,0,2.374,5.363,20.607,20.607,0,0,0,3.1.026c-.248-.8-.524-1.537-.7-2.3a25.678,25.678,0,0,1-.257-5.2c-.009-.314.113-.677-.362-.82a1.3,1.3,0,0,1-1.028-1.738c.252-.886.975-.979,1.763-.911a17.03,17.03,0,0,0,4.925-.2c3.225-.668,5.631-2.281,6.446-5.687.092-.385.132-.785.246-1.162a1.231,1.231,0,0,1,1.387-.944,1.171,1.171,0,0,1,1.182,1.266c-.035.586.214.679.7.777a4.966,4.966,0,0,1,4.205,5.106c.015,1.619-.006,3.237.005,4.856.017,2.349.12,4.708-1.1,7,.867,0,1.587-.011,2.308,0a3.5,3.5,0,0,0,3.448-1.973,3.488,3.488,0,0,0-.438-3.947,6.085,6.085,0,0,1-1.136-5.1,11.859,11.859,0,0,0-.005-4.552,12.992,12.992,0,0,0-20.49-8.2,1.674,1.674,0,0,1-2.172.071c-.55-1.1-.451-1.538.508-2.258a12.222,12.222,0,0,1,2.509-1.5c.493-.212.6-.427.408-.947a37.313,37.313,0,0,1-2.149-15.117,36.006,36.006,0,0,1,2.331-10.959,1.088,1.088,0,0,0-.32-1.464,8.745,8.745,0,0,1-2.744-4.348,1.049,1.049,0,0,0-.814-.832,5.629,5.629,0,0,1-3.407-2.74c-3.031-5.433-3.147-10.947.1-16.254a14.838,14.838,0,0,1,14.592-7.491c6.666.534,11.217,4.211,13.661,10.429.255.648.464.655,1.014.45a37.411,37.411,0,0,1,27.093,0c.69.26.822.064,1.038-.537A15.734,15.734,0,0,1,901.9-3261.5c1.445.676,1.579.9,1.432,2.416a1.884,1.884,0,0,1-2.41.256,12.764,12.764,0,0,0-7.463-1.231c-9.072,1.129-14.154,11.81-9.27,19.566a2.1,2.1,0,0,0,1.284,1.1c0-.8-.007-1.532,0-2.265a.819.819,0,0,0-.329-.79,1.294,1.294,0,0,1-.49-1.691,1.384,1.384,0,0,1,1.565-.858,14,14,0,0,0,3.288-.03c3.989-.424,7.275-2.212,7.889-6.757a1.325,1.325,0,0,1,1.457-1.236,1.261,1.261,0,0,1,1.312,1.36c-.01.5.227.593.621.688a4.918,4.918,0,0,1,4.224,5.354c0,2.038.022,4.073.167,6.172a2.542,2.542,0,0,0,1.315-1.363,12.629,12.629,0,0,0-.488-13.526,2.18,2.18,0,0,1-.2-2.586c1.36-.5,2.123.175,2.778,1.295a15.6,15.6,0,0,1,.135,16.585,5.471,5.471,0,0,1-3.378,2.637.966.966,0,0,0-.761.771,9.264,9.264,0,0,1-2.918,4.555.745.745,0,0,0-.264,1,37.753,37.753,0,0,1,2.422,16.163,36.734,36.734,0,0,1-2.111,10.177c-.157.435-.225.7.326.979a15.635,15.635,0,0,1,8.714,17.05,3.888,3.888,0,0,0,.8,3.065,6.283,6.283,0,0,1-4.1,9.987,31.467,31.467,0,0,1-4.759.089,2.1,2.1,0,0,0-1.415.461,9.62,9.62,0,0,1-12.1-.05,1.671,1.671,0,0,0-1.152-.413c-1.252.031-2.505.02-3.758.009a6.285,6.285,0,0,1-6.505-6.962c.015-.239.024-.479.039-.81a38.482,38.482,0,0,1-23.861,0,11.587,11.587,0,0,1-.145,3.056,6.314,6.314,0,0,1-5.946,4.709c-.519.014-1.04.03-1.558.006a8.079,8.079,0,0,0-5.125,1.249,9.179,9.179,0,0,1-10.693-.779,2.02,2.02,0,0,0-1.411-.476c-1.16.031-2.322.007-3.483.01a6.3,6.3,0,0,1-6.277-4.158c-.046-.107-.045-.241-.2-.258Zm82.044-36.12a34.419,34.419,0,0,0-2.124-11.687c-.166-.462-.288-.65-.889-.474a9.669,9.669,0,0,1-12.188-6.49,1.08,1.08,0,0,0-.821-.82,5.891,5.891,0,0,1-3.453-2.828,15.38,15.38,0,0,1-2.1-9.123c.039-.464-.048-.692-.517-.874a35.2,35.2,0,0,0-26.338-.013c-.5.192-.6.422-.559.931a15.348,15.348,0,0,1-2.273,9.35,5.654,5.654,0,0,1-3.323,2.571.987.987,0,0,0-.765.759,9.675,9.675,0,0,1-12.245,6.525c-.56-.162-.68.015-.83.437a35.408,35.408,0,0,0-.06,24.211c.145.414.288.573.774.466a15.539,15.539,0,0,1,5.553-.124,15.906,15.906,0,0,1,13.149,13.934,20.163,20.163,0,0,1-.222,4.833,1.331,1.331,0,0,0,.962,1.725,35.682,35.682,0,0,0,25.847.055,1.437,1.437,0,0,0,1.078-1.84c-.024-.15-.032-.3-.058-.454a15.735,15.735,0,0,1,18.408-18.175c.6.112.76,0,.953-.543A35.828,35.828,0,0,0,901.149-3216.939Zm2.8,41.6a24.99,24.99,0,0,0,3.025-.019,3.522,3.522,0,0,0,2.333-5.661,6.674,6.674,0,0,1-1.229-5.523,11.407,11.407,0,0,0-.149-4.908,13.04,13.04,0,0,0-15.2-9.885,12.959,12.959,0,0,0-10.3,14.655,7.6,7.6,0,0,1-1.331,5.866,3.491,3.491,0,0,0,2.163,5.4,11.985,11.985,0,0,0,3.293.054,9.592,9.592,0,0,1-.979-3.512c-.073-1.341-.043-2.687-.057-4.031,0-.325.075-.645-.405-.772a1.264,1.264,0,0,1-1.027-1.584,1.353,1.353,0,0,1,1.656-1.079,20.271,20.271,0,0,0,3.57.023c3.939-.335,7.585-2.172,8.125-6.826a.852.852,0,0,1,.044-.178,1.325,1.325,0,0,1,1.455-1.006,1.217,1.217,0,0,1,1.209,1.261c-.01.557.171.685.682.787a4.9,4.9,0,0,1,4.175,5.028c.026,1.374.021,2.75,0,4.125C904.957-3180.509,905.307-3177.852,903.946-3175.336ZM826.7-3239.3c0-.942,0-1.786,0-2.631a.545.545,0,0,0-.254-.459,1.31,1.31,0,0,1-.545-1.746,1.521,1.521,0,0,1,1.777-.8,13.347,13.347,0,0,0,4.458-.262c3.2-.663,5.558-2.3,6.338-5.676.082-.356.125-.722.222-1.074a1.258,1.258,0,0,1,1.433-1.007,1.173,1.173,0,0,1,1.193,1.256c-.027.592.242.687.715.785a4.979,4.979,0,0,1,4.191,5.121c.015,1.924.006,3.848.021,5.772,0,.219-.121.487.136.66a2.544,2.544,0,0,0,1.176-1.106,12.368,12.368,0,0,0,1.709-8.877,12.959,12.959,0,0,0-14.767-10.71c-9,1.161-14.027,11.907-9.152,19.578A2.52,2.52,0,0,0,826.7-3239.3Zm16.773-2.424c0-1.571.02-2.854-.006-4.135a2.278,2.278,0,0,0-1.975-2.375,1.1,1.1,0,0,0-1.379.663,8.842,8.842,0,0,1-3.925,3.844,13.6,13.6,0,0,1-5.239,1.488c-1.461.123-1.464.118-1.46,1.618,0,.885-.018,1.772.032,2.655a6.923,6.923,0,0,0,6.454,6.545,6.944,6.944,0,0,0,7.374-5.837A38.188,38.188,0,0,0,843.472-3241.727Zm0,58.664c0-1.569.019-2.852-.005-4.134a2.285,2.285,0,0,0-1.961-2.388,1.1,1.1,0,0,0-1.384.648,9.057,9.057,0,0,1-4.739,4.247,13.988,13.988,0,0,1-5.146,1.147c-.6.017-.789.225-.763.816.049,1.128-.014,2.261.046,3.388a6.945,6.945,0,0,0,6.435,6.577,6.97,6.97,0,0,0,7.39-5.833A37.708,37.708,0,0,0,843.473-3183.062Zm58.751-.113h.01c0-1.406.038-2.812-.011-4.216a2.234,2.234,0,0,0-2.307-2.23.838.838,0,0,0-.905.546,9.462,9.462,0,0,1-5.023,4.459,14.406,14.406,0,0,1-4.98,1.075c-.576.021-.8.2-.764.808.056,1.067-.014,2.139.03,3.208a7,7,0,0,0,6.933,6.775,6.927,6.927,0,0,0,7.007-6.668C902.275-3180.667,902.224-3181.922,902.224-3183.175Zm0-58.71h.011c0-1.374.035-2.75-.01-4.123a2.242,2.242,0,0,0-2.277-2.264.84.84,0,0,0-.935.511,9.6,9.6,0,0,1-5.339,4.618,15.763,15.763,0,0,1-4.73.97c-.36.023-.722,0-.7.574.046,1.22-.045,2.448.045,3.664a6.949,6.949,0,0,0,7.159,6.519,6.9,6.9,0,0,0,6.766-6.712C902.276-3239.377,902.227-3240.632,902.227-3241.885Z" transform="translate(0 0)" fill="#040303"/>
      <path id="Trazado_160064" data-name="Trazado 160064" d="M837.81-2926.282a1.673,1.673,0,0,0,2.172-.07,12.992,12.992,0,0,1,20.49,8.2,11.864,11.864,0,0,1,.005,4.552,6.084,6.084,0,0,0,1.136,5.1,3.488,3.488,0,0,1,.438,3.947,3.5,3.5,0,0,1-3.448,1.973c-.721-.013-1.441,0-2.308,0,1.223-2.294,1.12-4.653,1.1-7-.012-1.619.01-3.238-.005-4.856a4.965,4.965,0,0,0-4.205-5.106c-.485-.1-.734-.191-.7-.777a1.172,1.172,0,0,0-1.182-1.266,1.231,1.231,0,0,0-1.387.944c-.114.377-.154.777-.246,1.162-.815,3.406-3.221,5.019-6.446,5.687a17.021,17.021,0,0,1-4.925.2c-.788-.068-1.512.024-1.764.911a1.3,1.3,0,0,0,1.028,1.738c.475.143.353.505.362.82a25.689,25.689,0,0,0,.257,5.2c.179.762.456,1.5.7,2.3a20.7,20.7,0,0,1-3.1-.026,3.487,3.487,0,0,1-2.374-5.364,7.913,7.913,0,0,0,1.338-6.3,11.319,11.319,0,0,1,1.079-6.954,1.738,1.738,0,0,0-.259-2.24A11.28,11.28,0,0,1,837.81-2926.282Z" transform="translate(-11.189 -272.706)" fill="#ffb500"/>
      <path id="Trazado_160065" data-name="Trazado 160065" d="M1186.406-3244.437a2.18,2.18,0,0,0,.2,2.586,12.629,12.629,0,0,1,.488,13.526,2.54,2.54,0,0,1-1.315,1.362c-.145-2.1-.168-4.134-.167-6.171a4.919,4.919,0,0,0-4.224-5.354c-.394-.094-.632-.185-.621-.687a1.262,1.262,0,0,0-1.312-1.361A1.326,1.326,0,0,0,1178-3239.3c-.614,4.545-3.9,6.333-7.889,6.756a13.945,13.945,0,0,1-3.288.03,1.382,1.382,0,0,0-1.565.858,1.294,1.294,0,0,0,.49,1.691.817.817,0,0,1,.329.79c-.01.733,0,1.465,0,2.265a2.1,2.1,0,0,1-1.284-1.1c-4.884-7.756.2-18.435,9.27-19.565a12.764,12.764,0,0,1,7.463,1.231,1.884,1.884,0,0,0,2.41-.255A7.588,7.588,0,0,1,1186.406-3244.437Z" transform="translate(-280.596 -12.476)" fill="#c27949"/>
      <path id="Trazado_160067" data-name="Trazado 160067" d="M1176.355-2902.633c1.361-2.516,1.012-5.173,1.047-7.782.019-1.375.023-2.75,0-4.125a4.9,4.9,0,0,0-4.175-5.028c-.511-.1-.692-.23-.682-.787a1.217,1.217,0,0,0-1.209-1.261,1.325,1.325,0,0,0-1.455,1.006.832.832,0,0,0-.044.177c-.54,4.654-4.186,6.491-8.125,6.826a20.272,20.272,0,0,1-3.57-.023,1.352,1.352,0,0,0-1.656,1.079,1.264,1.264,0,0,0,1.027,1.585c.48.127.4.447.405.772.014,1.344-.016,2.69.057,4.031a9.59,9.59,0,0,0,.979,3.512,11.986,11.986,0,0,1-3.293-.054,3.492,3.492,0,0,1-2.163-5.4,7.6,7.6,0,0,0,1.331-5.865,12.958,12.958,0,0,1,10.3-14.655,13.041,13.041,0,0,1,15.2,9.885,11.4,11.4,0,0,1,.149,4.908,6.673,6.673,0,0,0,1.229,5.523,3.523,3.523,0,0,1-2.334,5.661A25.092,25.092,0,0,1,1176.355-2902.633Z" transform="translate(-272.41 -272.703)" fill="#12263f"/>
      <path id="Trazado_160068" data-name="Trazado 160068" d="M845.989-3226.882a2.521,2.521,0,0,1-1.35-1.179c-4.874-7.671.15-18.417,9.152-19.578a12.959,12.959,0,0,1,14.767,10.71,12.368,12.368,0,0,1-1.709,8.877,2.545,2.545,0,0,1-1.176,1.106c-.257-.173-.135-.441-.136-.66-.016-1.924-.007-3.848-.021-5.772a4.979,4.979,0,0,0-4.191-5.121c-.473-.1-.741-.193-.715-.785a1.173,1.173,0,0,0-1.193-1.256,1.258,1.258,0,0,0-1.433,1.007c-.1.352-.14.718-.222,1.074-.779,3.379-3.14,5.014-6.338,5.676a13.347,13.347,0,0,1-4.458.262,1.521,1.521,0,0,0-1.777.8,1.31,1.31,0,0,0,.545,1.746.545.545,0,0,1,.254.459C845.989-3228.668,845.989-3227.824,845.989-3226.882Z" transform="translate(-19.29 -12.42)" fill="#12263f"/>
      <path id="Trazado_160069" data-name="Trazado 160069" d="M889.571-3176.428a38.159,38.159,0,0,1-.125,4.465,6.944,6.944,0,0,1-7.374,5.837,6.922,6.922,0,0,1-6.454-6.544c-.05-.883-.029-1.77-.032-2.656,0-1.5,0-1.495,1.46-1.617a13.614,13.614,0,0,0,5.239-1.488,8.841,8.841,0,0,0,3.925-3.844,1.1,1.1,0,0,1,1.38-.662,2.277,2.277,0,0,1,1.975,2.375C889.591-3179.281,889.571-3178,889.571-3176.428Z" transform="translate(-46.099 -65.299)" fill="#facfa5"/>
      <path id="Trazado_160070" data-name="Trazado 160070" d="M889.514-2857.317a37.706,37.706,0,0,1-.127,4.468,6.97,6.97,0,0,1-7.39,5.833,6.946,6.946,0,0,1-6.435-6.577c-.059-1.127,0-2.26-.046-3.388-.026-.591.165-.8.763-.816a13.988,13.988,0,0,0,5.146-1.147,9.058,9.058,0,0,0,4.739-4.247,1.1,1.1,0,0,1,1.384-.648,2.285,2.285,0,0,1,1.961,2.388C889.533-2860.169,889.514-2858.885,889.514-2857.317Z" transform="translate(-46.041 -325.745)" fill="#facfa5"/>
      <path id="Trazado_160071" data-name="Trazado 160071" d="M1209.229-2857.44c0,1.253.051,2.508-.01,3.757a6.927,6.927,0,0,1-7.007,6.668,7,7,0,0,1-6.933-6.775c-.043-1.068.027-2.141-.03-3.207-.032-.613.188-.788.764-.808a14.4,14.4,0,0,0,4.98-1.076,9.461,9.461,0,0,0,5.023-4.459.839.839,0,0,1,.9-.546,2.235,2.235,0,0,1,2.307,2.23c.049,1.4.011,2.81.011,4.216Z" transform="translate(-307.005 -325.735)" fill="#facfa5"/>
      <path id="Trazado_160072" data-name="Trazado 160072" d="M1209.255-3176.6c0,1.252.048,2.506-.009,3.756a6.9,6.9,0,0,1-6.766,6.712,6.949,6.949,0,0,1-7.159-6.518c-.09-1.216,0-2.444-.045-3.664-.022-.579.34-.552.7-.574a15.756,15.756,0,0,0,4.73-.97,9.6,9.6,0,0,0,5.339-4.618.841.841,0,0,1,.935-.512,2.242,2.242,0,0,1,2.277,2.264c.044,1.374.01,2.75.01,4.124Z" transform="translate(-307.028 -65.286)" fill="#facfa5"/>
      <path id="Trazado_160073" data-name="Trazado 160073" d="M987.2-3074.616c-.259,1.062-.636,1.383-1.7,1.4-.7.014-1.406.016-2.109,0a3.313,3.313,0,0,1-3.493-3.526c-.027-3.056,0-6.112-.009-9.168,0-1.328.147-1.148-1.179-1.158-1.1-.008-2.2.022-3.3-.017a3.1,3.1,0,0,1-3.172-3.034q-.114-5.589,0-11.182a3.126,3.126,0,0,1,3.271-3.043q9.718-.031,19.436,0a3.283,3.283,0,0,1,3.32,3.5c.026,2.6.028,5.2-.009,7.792-.009.626.13.824.787.812,2.291-.044,4.584-.025,6.876-.015a3.251,3.251,0,0,1,3.488,3.415q.057,6.1,0,12.193c-.018,2.012-1.365,3.569-3.308,3.365a6.6,6.6,0,0,0-6.043,2.537,3.084,3.084,0,0,1-3,1,3.129,3.129,0,0,1-2.616-2.7c-.09-.713-.392-.84-.993-.773a7.46,7.46,0,0,1-1.008,0c-1.063-.029-1.442-.345-1.7-1.406a1.421,1.421,0,0,1,1.636-1.347c.641.022,1.283.015,1.925,0,1.979-.039,3.013-.26,2.788,2.65a.738.738,0,0,0,.332.8c.394.208.626-.1.868-.32.7-.633,1.445-1.235,2.088-1.925a3.383,3.383,0,0,1,3.078-1.218,22.145,22.145,0,0,0,2.289.013c.6.012.9-.214.9-.854q-.016-5.912,0-11.824c0-.624-.257-.862-.885-.856-2.353.02-4.705.011-7.058-.006a.694.694,0,0,0-.758.471,3.186,3.186,0,0,1-3.134,1.963c-.641,0-1.288.051-1.924-.011-.8-.077-1.119.144-1.126,1.017a2.98,2.98,0,0,1-2.061,2.861,3.153,3.153,0,0,1-3.476-.687c-.615-.549-1.2-1.129-1.828-1.668a7.5,7.5,0,0,0-1.745-1.429c0,3.521,0,6.936,0,10.351,0,.508.336.676.792.676.7,0,1.406.02,2.108,0A1.425,1.425,0,0,1,987.2-3074.616Zm-1.915-26.98v-.006c-3.083,0-6.166.026-9.249-.017-.864-.011-1.108.314-1.1,1.127.03,3.174.035,6.349,0,9.523-.01.859.244,1.192,1.144,1.171,2.258-.052,4.517,0,6.776-.026a2.316,2.316,0,0,1,1.726.676c1.105,1.052,2.238,2.074,3.362,3.106.229.211.472.409.813.244.3-.145.3-.433.308-.708.008-.549-.01-1.1.007-1.648.037-1.187.5-1.643,1.7-1.658,1.221-.015,2.443-.044,3.662,0,.775.027,1.1-.221,1.1-1.036q-.042-4.853,0-9.707c.006-.8-.3-1.062-1.089-1.053C991.389-3101.577,988.337-3101.6,985.284-3101.6Z" transform="translate(-124.941 -129.465)" fill="#040303"/>
      <path id="Trazado_160074" data-name="Trazado 160074" d="M1033.715-3008.662a1.424,1.424,0,0,0-1.637-1.347c-.7.023-1.405,0-2.108,0-.457,0-.791-.167-.792-.676-.006-3.415,0-6.829,0-10.351a7.493,7.493,0,0,1,1.745,1.43c.624.539,1.213,1.118,1.828,1.667a3.153,3.153,0,0,0,3.476.687,2.979,2.979,0,0,0,2.061-2.861c.007-.873.33-1.094,1.126-1.017.635.062,1.282.012,1.924.011a3.187,3.187,0,0,0,3.134-1.963.7.7,0,0,1,.758-.471c2.352.017,4.705.026,7.058.006.628-.006.887.233.885.856q-.013,5.912,0,11.825c0,.64-.3.865-.9.854a22.01,22.01,0,0,1-2.289-.013,3.382,3.382,0,0,0-3.077,1.217c-.644.691-1.383,1.292-2.088,1.925-.242.218-.474.528-.868.32a.737.737,0,0,1-.332-.8c.224-2.91-.81-2.689-2.788-2.65-.641.012-1.284.02-1.925,0a1.421,1.421,0,0,0-1.636,1.347Zm11.29-6.77c1.068,0,2.136.02,3.2-.006a1.3,1.3,0,0,0,1.426-1.326,1.313,1.313,0,0,0-1.38-1.395q-3.2-.062-6.406,0a1.347,1.347,0,0,0-1.4,1.394,1.371,1.371,0,0,0,1.534,1.331C1042.991-3015.417,1044-3015.43,1045-3015.432Z" transform="translate(-171.457 -195.419)" fill="#dce736"/>
      <path id="Trazado_160075" data-name="Trazado 160075" d="M997.5-3089.44c3.052,0,6.105.019,9.157-.013.787-.009,1.1.254,1.089,1.053q-.038,4.853,0,9.706c.007.815-.322,1.064-1.1,1.036-1.219-.043-2.442-.014-3.662,0-1.2.015-1.666.471-1.7,1.658-.017.549,0,1.1-.007,1.648,0,.275-.009.562-.308.708-.34.165-.583-.032-.813-.243-1.124-1.032-2.256-2.055-3.361-3.107a2.315,2.315,0,0,0-1.726-.675c-2.259.024-4.518-.026-6.776.026-.9.021-1.154-.312-1.144-1.172.037-3.174.032-6.349,0-9.523-.007-.812.236-1.138,1.1-1.126,3.082.042,6.166.016,9.249.016Zm-1.376,4.542c-1.1,0-2.2-.016-3.3.005a1.383,1.383,0,0,0-1.509,1.363,1.38,1.38,0,0,0,1.443,1.358q3.341.048,6.682,0a1.352,1.352,0,0,0,1.444-1.433,1.322,1.322,0,0,0-1.469-1.289C998.322-3084.914,997.223-3084.9,996.124-3084.9Z" transform="translate(-137.156 -141.622)" fill="#75b62f"/>
      <path id="Trazado_160076" data-name="Trazado 160076" d="M1095.082-2991.627c-1.007,0-2.014.014-3.02,0a1.371,1.371,0,0,1-1.533-1.332,1.347,1.347,0,0,1,1.4-1.394q3.2-.06,6.406,0a1.313,1.313,0,0,1,1.38,1.394,1.3,1.3,0,0,1-1.426,1.326C1097.218-2991.608,1096.15-2991.627,1095.082-2991.627Z" transform="translate(-221.534 -219.224)" fill="#040303"/>
      <path id="Trazado_160077" data-name="Trazado 160077" d="M1014.649-3064.65c1.1,0,2.2-.017,3.3.005a1.322,1.322,0,0,1,1.469,1.29,1.352,1.352,0,0,1-1.444,1.432q-3.341.048-6.682,0a1.38,1.38,0,0,1-1.443-1.358,1.383,1.383,0,0,1,1.509-1.363C1012.451-3064.666,1013.55-3064.65,1014.649-3064.65Z" transform="translate(-155.681 -161.869)" fill="#040303"/>
    </g>
  </g>
</svg>
