<svg xmlns="http://www.w3.org/2000/svg" width="155.513" height="165.924" viewBox="0 0 155.513 165.924">
  <g id="Grupo_109785" data-name="Grupo 109785" transform="translate(8438.771 -7669.454)">
    <g id="Grupo_109739" data-name="Grupo 109739" transform="translate(-9322.702 8233.814)">
      <path id="Trazado_159632" data-name="Trazado 159632" d="M999.6-398.437H892.032c-.048-.256-.255-.288-.46-.364-5.28-1.948-7.639-5.3-7.639-10.878q0-71.849,0-143.7c0-6.587,4.378-10.979,10.938-10.98q51.265-.009,102.529,0a12.553,12.553,0,0,1,2.255.147c5.407.994,8.69,5.149,8.69,10.987q0,71.688,0,143.375c0,.54.007,1.081-.02,1.62a10.476,10.476,0,0,1-7.151,9.3C1000.657-398.754,999.968-399.076,999.6-398.437ZM899.484-481.546q0,33.051-.019,66.1c0,1.016.073,1.485,1.329,1.483q45.356-.062,90.712-.007c1.07,0,1.315-.29,1.314-1.332q-.04-66.1,0-132.207c0-1.057-.267-1.336-1.323-1.324q-7.936.084-15.874,0a1.847,1.847,0,0,0-2.065,1.255,5.416,5.416,0,0,1-2.8,2.822,1.924,1.924,0,0,0-1.3,2.355,8.111,8.111,0,0,1,.007,1.295,7.726,7.726,0,0,1-7.784,7.839q-15.55.059-31.1,0a7.711,7.711,0,0,1-7.671-6.567,17.335,17.335,0,0,1-.082-3.233,1.315,1.315,0,0,0-.9-1.46,6.33,6.33,0,0,1-3.291-3.21,1.656,1.656,0,0,0-1.837-1.089c-5.237.038-10.476.075-15.712-.02-1.382-.025-1.64.365-1.637,1.68Q899.519-514.355,899.484-481.546Zm103.681.151q0-35.806,0-71.612c0-4.29-1.911-6.179-6.242-6.18H978.455c-3.838,0-3.787,0-3.834,3.817-.014,1.151.3,1.419,1.427,1.409,6.209-.059,12.418-.033,18.628-.026,2.424,0,3.3.886,3.3,3.329q0,69.263,0,138.526c0,2.437-.883,3.323-3.312,3.323q-48.515.005-97.03,0c-2.447,0-3.335-.875-3.335-3.3q-.005-69.263,0-138.526c0-2.517.863-3.354,3.436-3.356q8.1-.008,16.2,0c3.729,0,3.657,0,3.744-3.78.03-1.317-.446-1.449-1.558-1.441-7.019.047-14.039.021-21.058.025q-5.961,0-5.96,5.977,0,71.775,0,143.548c0,4.073,1.972,6.038,6.059,6.039q50.945,0,101.889,0c4.181,0,6.112-1.948,6.112-6.161Q1003.166-445.59,1003.165-481.395ZM946.048-548.8c6.8,0,13.591.01,20.386-.006,2.027-.005,3-.961,3.028-2.944.031-2.1-.016-4.208.026-6.311.016-.766-.082-1.138-1.016-1.136q-22.328.046-44.655,0c-.922,0-1.043.349-1.026,1.128.045,1.995.007,3.992.017,5.987.012,2.412.891,3.279,3.339,3.28Q936.1-548.8,946.048-548.8Zm.128,10.37H960.4c3.221,0,3.92-.767,3.9-4.04,0-.9-.214-1.191-1.146-1.168-2.586.064-5.174.022-7.761.022q-13.016,0-26.033.019c-.451,0-1.094-.382-1.363.391a3.391,3.391,0,0,0,3.295,4.772Q938.737-538.423,946.176-538.434Z" transform="translate(0)"/>
      <path id="Trazado_159633" data-name="Trazado 159633" d="M1197.263-357.705a5.987,5.987,0,0,1-1.931-3.222c-1.884-6.233-3.819-12.451-5.74-18.673a9,9,0,0,1-.442-2.693q.022-50.3.015-100.592c0-5.379,3.666-9.434,8.655-9.622a9.023,9.023,0,0,1,9.467,8.956c.063,6.857.045,13.714-.007,20.571-.009,1.193.2,1.829,1.535,1.583a4.378,4.378,0,0,1,1.132,0,2.581,2.581,0,0,1,2.533,2.62,2.626,2.626,0,0,1-2.45,2.548c-.888.108-2.138-.438-2.578.272s-.143,1.877-.143,2.845q0,35.232,0,70.463a8.925,8.925,0,0,1-.328,2.71c-2.02,6.474-4.038,12.948-5.988,19.442a4.388,4.388,0,0,1-2.113,2.792Zm4.859-62.224c0-11.5-.032-22.992.038-34.488.009-1.53-.449-1.953-1.893-1.831a20.9,20.9,0,0,1-4.041-.027c-1.59-.176-1.946.39-1.942,1.944q.081,33.517.037,67.033c0,.864.044,1.73-.011,2.59-.055.845.257,1.146,1.108,1.116,1.671-.058,3.35-.119,5.015-.01,1.328.086,1.728-.3,1.721-1.676C1202.1-396.829,1202.122-408.379,1202.122-419.929Zm0-53.15c0-3.45.042-6.9-.015-10.351a3.846,3.846,0,0,0-3.9-3.9,3.852,3.852,0,0,0-3.849,3.95c-.037,7.008,0,14.017-.035,21.026,0,.812.277.986,1.02.967,1.886-.047,3.775-.071,5.658,0,.946.037,1.153-.293,1.141-1.18C1202.095-466.069,1202.123-469.574,1202.118-473.079Zm-4.036,103.557.313-.006c.912-2.933,1.823-5.867,2.755-8.865h-5.85Z" transform="translate(-173.037 -40.731)"/>
      <path id="Trazado_159634" data-name="Trazado 159634" d="M919.8-461.234q0-32.809-.032-65.617c0-1.314.255-1.7,1.637-1.68,5.236.095,10.475.058,15.712.02a1.655,1.655,0,0,1,1.837,1.089,6.33,6.33,0,0,0,3.291,3.21,1.315,1.315,0,0,1,.9,1.46,17.335,17.335,0,0,0,.082,3.233,7.711,7.711,0,0,0,7.671,6.567q15.55.051,31.1,0a7.726,7.726,0,0,0,7.784-7.839,8.124,8.124,0,0,0-.007-1.295,1.924,1.924,0,0,1,1.3-2.355,5.417,5.417,0,0,0,2.8-2.822,1.847,1.847,0,0,1,2.065-1.256q7.937.081,15.874,0c1.057-.011,1.324.268,1.323,1.324q-.041,66.1,0,132.207c0,1.042-.244,1.333-1.314,1.332q-45.356-.047-90.712.007c-1.256,0-1.33-.467-1.329-1.483Q919.821-428.182,919.8-461.234Zm69.985,32.559q0,12.061,0,24.121c0,2.124.945,3.077,3.042,3.091q4.693.032,9.387,0c2.188-.012,3.114-.954,3.115-3.185q.011-24.04,0-48.08c0-2.229-.925-3.158-3.126-3.17-3.021-.016-6.043-.01-9.064,0-2.518.006-3.355.86-3.357,3.427Q989.783-440.573,989.787-428.675Zm4.1-45.376c-6.66,6.663-13.072,13.056-19.446,19.487-.64.645-1.033.384-1.628.041-4.945-2.849-9.922-5.644-14.854-8.513a3.186,3.186,0,0,0-3.992.285c-3.928,3.029-7.927,5.969-11.9,8.944-2.719,2.037-5.448,4.062-8.153,6.117a2.481,2.481,0,0,0-.994,2.991,2.5,2.5,0,0,0,2.3,1.746,3.4,3.4,0,0,0,2.321-.984c5.911-4.433,11.838-8.844,17.724-13.31a1.614,1.614,0,0,1,2.125-.144c4.883,2.851,9.8,5.637,14.712,8.443,2.162,1.236,2.884,1.142,4.668-.64q9.681-9.673,19.347-19.36a12.961,12.961,0,0,0,1.04-1.349l.4.277c0,1.221-.038,2.444.01,3.664a2.573,2.573,0,0,0,2.644,2.669,2.547,2.547,0,0,0,2.508-2.641q.071-5.1,0-10.2a2.531,2.531,0,0,0-2.78-2.689q-5.019-.053-10.04,0a2.547,2.547,0,0,0-2.706,2.6,2.587,2.587,0,0,0,2.757,2.559C991.142-474.02,992.323-474.051,993.889-474.051Zm-45.575,49.086q0,10.116,0,20.233c0,2.351.89,3.261,3.188,3.271q4.612.021,9.225,0c2.2-.012,3.131-.942,3.132-3.167q.012-20.152,0-40.3c0-2.3-.92-3.18-3.272-3.188q-4.451-.015-8.9,0c-2.524.006-3.372.86-3.374,3.409Q948.309-434.839,948.314-424.965Zm-5.184,5.528c0-5.07.01-10.141-.005-15.212-.006-2.127-.944-3.084-3.032-3.1q-4.692-.032-9.384,0c-2.206.011-3.125.936-3.127,3.164q-.013,14.97,0,29.939c0,2.232.923,3.171,3.111,3.184q4.611.026,9.222,0c2.305-.01,3.207-.92,3.212-3.25Q943.143-412.073,943.13-419.437Zm25.92,2.448c0,4.153-.012,8.306.005,12.459.009,2.109.955,3.054,3.063,3.067q4.692.03,9.383,0c2.177-.013,3.095-.96,3.1-3.2q.014-12.378,0-24.757c0-2.214-.934-3.135-3.147-3.146-3.02-.015-6.04-.01-9.06,0-2.449.006-3.332.87-3.338,3.279C969.044-425.187,969.051-421.088,969.051-416.989Zm-13.013-88.17c-3.287,0-6.574-.013-9.861.005-1.9.01-3.044,1.016-3.037,2.6s1.155,2.574,3.058,2.578q9.861.02,19.721,0c1.924,0,3.076-.957,3.12-2.52.046-1.624-1.146-2.65-3.141-2.657C962.611-505.169,959.325-505.159,956.038-505.159Zm-.12,18.148c3.341,0,6.681.01,10.022,0,1.915-.009,3.068-.973,3.1-2.54.033-1.586-1.118-2.631-3-2.635q-9.942-.023-19.883,0c-1.887,0-3.037,1.033-3.017,2.616s1.163,2.549,3.078,2.559C949.451-487,952.684-487.011,955.917-487.011Zm.342,7.778c-3.341,0-6.682-.01-10.022,0-1.921.008-3.066.966-3.1,2.537s1.123,2.633,3,2.637q9.941.023,19.883,0c1.88,0,3.039-1.043,3.018-2.62s-1.17-2.546-3.081-2.555C962.726-479.245,959.493-479.234,956.26-479.234ZM932.7-505.152c-.86,0-1.723-.045-2.579.01a2.554,2.554,0,0,0-2.536,2.592,2.537,2.537,0,0,0,2.569,2.557c1.772.062,3.549.069,5.32-.009a2.527,2.527,0,0,0,2.458-2.5,2.557,2.557,0,0,0-2.492-2.634C934.534-505.2,933.617-505.15,932.7-505.152Zm.083,18.13v.006c.86,0,1.723.042,2.579-.01a2.57,2.57,0,0,0,2.571-2.564,2.529,2.529,0,0,0-2.54-2.584c-1.771-.065-3.549-.07-5.319,0a2.523,2.523,0,0,0-2.488,2.63,2.555,2.555,0,0,0,2.458,2.5C930.954-486.968,931.872-487.023,932.786-487.023Zm.017,7.806a24.063,24.063,0,0,0-2.9.023,2.445,2.445,0,0,0-2.306,2.469,2.464,2.464,0,0,0,2.3,2.633c1.875.1,3.763.093,5.64.008a2.514,2.514,0,0,0,2.4-2.557,2.551,2.551,0,0,0-2.393-2.565C934.635-479.281,933.717-479.22,932.8-479.216Z" transform="translate(-20.318 -20.312)" fill="#f8f8f9"/>
      <path id="Trazado_159635" data-name="Trazado 159635" d="M1009.935-474.654q0,35.806,0,71.611c0,4.213-1.931,6.161-6.112,6.161q-50.945,0-101.889,0c-4.087,0-6.059-1.966-6.059-6.039q0-71.774,0-143.548,0-5.976,5.96-5.976c7.019,0,14.039.022,21.058-.025,1.112-.007,1.588.125,1.558,1.441-.087,3.778-.015,3.78-3.744,3.78q-8.1,0-16.2,0c-2.573,0-3.435.838-3.435,3.356q0,69.263,0,138.526c0,2.422.888,3.3,3.335,3.3q48.515.005,97.03,0c2.428,0,3.311-.886,3.312-3.323q0-69.263,0-138.526c0-2.443-.878-3.326-3.3-3.329-6.21-.008-12.419-.033-18.628.026-1.126.01-1.44-.258-1.427-1.409.047-3.816,0-3.817,3.834-3.817h18.467c4.332,0,6.242,1.89,6.242,6.18Q1009.937-510.46,1009.935-474.654Z" transform="translate(-6.771 -6.741)" fill="#3d46c2"/>
      <path id="Trazado_159636" data-name="Trazado 159636" d="M996.917-542.052q-9.951,0-19.9,0c-2.447,0-3.327-.868-3.338-3.28-.01-2,.028-3.993-.017-5.987-.018-.779.1-1.13,1.026-1.128q22.328.045,44.655,0c.934,0,1.032.37,1.016,1.136-.042,2.1,0,4.208-.026,6.311-.029,1.983-1,2.938-3.028,2.944C1010.508-542.042,1003.713-542.052,996.917-542.052Z" transform="translate(-50.87 -6.753)" fill="#f85316"/>
      <path id="Trazado_159637" data-name="Trazado 159637" d="M1003.541-511.381q-7.438,0-14.876,0a3.391,3.391,0,0,1-3.295-4.773c.269-.773.912-.39,1.363-.391q13.016-.038,26.033-.019c2.587,0,5.175.042,7.761-.022.932-.023,1.142.27,1.146,1.167.016,3.272-.683,4.039-3.9,4.04Z" transform="translate(-57.366 -27.053)" fill="#f8f8f9"/>
      <path id="Trazado_159638" data-name="Trazado 159638" d="M1208.844-372.529c0,11.55-.025,23.1.032,34.65.007,1.377-.393,1.762-1.721,1.676-1.665-.109-3.344-.048-5.015.01-.851.03-1.163-.271-1.108-1.116.055-.86.011-1.726.011-2.59q0-33.517-.037-67.033c0-1.553.353-2.119,1.942-1.944a20.885,20.885,0,0,0,4.041.027c1.444-.122,1.9.3,1.893,1.831C1208.813-395.521,1208.844-384.025,1208.844-372.529Z" transform="translate(-179.759 -88.131)" fill="#75b62f"/>
      <path id="Trazado_159639" data-name="Trazado 159639" d="M1208.892-466.292c0,3.5-.026,7.009.022,10.513.012.887-.195,1.217-1.141,1.18-1.884-.073-3.773-.048-5.659,0-.743.019-1.024-.155-1.02-.967.033-7.009,0-14.017.035-21.026a3.852,3.852,0,0,1,3.85-3.951,3.846,3.846,0,0,1,3.9,3.9C1208.932-473.193,1208.89-469.742,1208.892-466.292Z" transform="translate(-179.809 -47.518)" fill="#f85316"/>
      <path id="Trazado_159640" data-name="Trazado 159640" d="M1206.132-220.127c-.919-2.93-1.837-5.859-2.782-8.871h5.85l-2.755,8.865Z" transform="translate(-181.088 -190.126)" fill="#dce736"/>
      <path id="Trazado_159641" data-name="Trazado 159641" d="M1081.442-333.6q0-11.9,0-23.8c0-2.567.839-3.421,3.356-3.427,3.021-.008,6.043-.014,9.064,0,2.2.012,3.126.941,3.127,3.17q.011,24.04,0,48.08c0,2.231-.927,3.173-3.115,3.185q-4.694.026-9.387,0c-2.1-.014-3.038-.967-3.042-3.091Q1081.428-321.543,1081.442-333.6Zm5.2.006v18.46c0,3.558,0,3.5,3.592,3.572,1.27.026,1.587-.316,1.582-1.584-.05-12.954-.032-25.909-.03-38.863,0-3.641,0-3.583-3.675-3.652-1.213-.023-1.512.289-1.5,1.5C1086.672-347.308,1086.639-340.453,1086.639-333.6Z" transform="translate(-111.973 -115.384)"/>
      <path id="Trazado_159642" data-name="Trazado 159642" d="M1010.889-409.536c-1.566,0-2.747.031-3.927-.007a2.587,2.587,0,0,1-2.757-2.559,2.547,2.547,0,0,1,2.706-2.6q5.019-.063,10.04,0a2.531,2.531,0,0,1,2.779,2.689q.07,5.1,0,10.2a2.547,2.547,0,0,1-2.507,2.641,2.573,2.573,0,0,1-2.644-2.669c-.048-1.22-.01-2.443-.01-3.664l-.4-.277a12.989,12.989,0,0,1-1.04,1.349q-9.662,9.691-19.347,19.36c-1.783,1.782-2.506,1.876-4.668.64-4.909-2.806-9.83-5.592-14.712-8.443a1.614,1.614,0,0,0-2.125.144c-5.886,4.466-11.813,8.877-17.724,13.31a3.4,3.4,0,0,1-2.321.984,2.5,2.5,0,0,1-2.3-1.746,2.481,2.481,0,0,1,.995-2.991c2.705-2.055,5.434-4.08,8.153-6.117,3.971-2.975,7.969-5.915,11.9-8.944a3.186,3.186,0,0,1,3.992-.285c4.933,2.87,9.909,5.665,14.854,8.513.6.343.988.6,1.628-.041C997.817-396.48,1004.229-402.873,1010.889-409.536Z" transform="translate(-37.318 -84.827)"/>
      <path id="Trazado_159643" data-name="Trazado 159643" d="M985.679-319.71q0-9.874,0-19.748c0-2.549.85-3.4,3.374-3.409q4.451-.011,8.9,0c2.352.008,3.271.889,3.272,3.188q.012,20.152,0,40.3c0,2.224-.929,3.155-3.132,3.167q-4.612.025-9.225,0c-2.3-.01-3.186-.92-3.188-3.271Q985.669-309.593,985.679-319.71Zm5.178.076v14.58c0,3.678,0,3.623,3.63,3.7,1.237.025,1.6-.266,1.593-1.562-.06-10.314-.034-20.628-.033-30.941,0-3.856,0-3.809-3.792-3.857-1.115-.014-1.442.239-1.428,1.4C990.895-330.758,990.857-325.2,990.857-319.634Z" transform="translate(-57.683 -125.568)"/>
      <path id="Trazado_159644" data-name="Trazado 159644" d="M953.348-300.613q0,7.363,0,14.727c-.005,2.33-.907,3.24-3.212,3.25q-4.611.019-9.222,0c-2.188-.013-3.109-.952-3.111-3.184q-.013-14.97,0-29.939c0-2.229.922-3.153,3.127-3.164q4.692-.024,9.384,0c2.088.014,3.026.971,3.032,3.1C953.358-310.754,953.348-305.683,953.348-300.613Zm-10.338-.334v9.551c0,3.553,0,3.475,3.6,3.567,1.369.035,1.538-.468,1.529-1.638-.048-6.852-.026-13.705-.023-20.558,0-3.732.005-3.674-3.762-3.722-1.207-.015-1.384.4-1.366,1.469C943.048-308.5,943.01-304.724,943.01-300.947Z" transform="translate(-30.536 -139.137)"/>
      <path id="Trazado_159645" data-name="Trazado 159645" d="M1033.557-291.373c0-4.1-.007-8.2,0-12.3.005-2.41.888-3.273,3.338-3.279,3.02-.008,6.04-.013,9.059,0,2.214.011,3.144.932,3.147,3.146q.016,12.378,0,24.757c0,2.239-.921,3.186-3.1,3.2q-4.691.027-9.383,0c-2.107-.013-3.053-.958-3.063-3.067C1033.545-283.066,1033.557-287.219,1033.557-291.373Zm5.172-.186v6.643c0,3.944,0,3.9,3.893,3.917,1.064,0,1.339-.286,1.328-1.339-.055-5.184-.026-10.37-.025-15.554,0-4,0-3.97-4.057-3.912-.917.013-1.177.26-1.16,1.171C1038.763-297.608,1038.729-294.583,1038.729-291.558Z" transform="translate(-84.825 -145.929)"/>
      <path id="Trazado_159646" data-name="Trazado 159646" d="M986.631-474.569c3.287,0,6.574-.01,9.861,0,2,.008,3.187,1.033,3.141,2.657-.044,1.563-1.2,2.517-3.12,2.52q-9.86.016-19.721,0c-1.9,0-3.051-1-3.058-2.578s1.14-2.586,3.037-2.6C980.057-474.582,983.344-474.569,986.631-474.569Z" transform="translate(-50.912 -50.903)"/>
      <path id="Trazado_159647" data-name="Trazado 159647" d="M986.511-439.453c-3.233,0-6.467.012-9.7,0-1.915-.009-3.059-.983-3.078-2.559s1.13-2.612,3.017-2.616q9.942-.021,19.883,0c1.881,0,3.031,1.049,3,2.635-.032,1.566-1.185,2.531-3.1,2.539C993.192-439.442,989.852-439.453,986.511-439.453Z" transform="translate(-50.912 -67.871)"/>
      <path id="Trazado_159648" data-name="Trazado 159648" d="M986.852-414.7c3.233,0,6.466-.011,9.7,0,1.911.009,3.061.983,3.081,2.555s-1.138,2.616-3.018,2.62q-9.941.022-19.883,0c-1.875,0-3.029-1.056-3-2.637s1.175-2.529,3.1-2.537C980.171-414.715,983.512-414.7,986.852-414.7Z" transform="translate(-50.911 -84.842)"/>
      <path id="Trazado_159649" data-name="Trazado 159649" d="M942.938-474.569c.914,0,1.831-.05,2.74.013a2.556,2.556,0,0,1,2.492,2.634,2.527,2.527,0,0,1-2.458,2.5c-1.77.078-3.548.071-5.32.009a2.537,2.537,0,0,1-2.569-2.557,2.554,2.554,0,0,1,2.536-2.592C941.215-474.615,942.078-474.57,942.938-474.569Z" transform="translate(-30.553 -50.895)"/>
      <path id="Trazado_159650" data-name="Trazado 159650" d="M943.02-439.494c-.914,0-1.832.055-2.74-.013a2.555,2.555,0,0,1-2.458-2.5,2.523,2.523,0,0,1,2.488-2.63c1.77-.074,3.548-.07,5.319,0a2.529,2.529,0,0,1,2.54,2.584,2.57,2.57,0,0,1-2.57,2.564c-.857.052-1.719.01-2.579.01Z" transform="translate(-30.552 -67.841)"/>
      <path id="Trazado_159651" data-name="Trazado 159651" d="M943.043-414.708c.914,0,1.832-.063,2.74.012a2.551,2.551,0,0,1,2.393,2.565,2.514,2.514,0,0,1-2.4,2.557c-1.877.085-3.765.094-5.64-.008a2.464,2.464,0,0,1-2.3-2.633,2.445,2.445,0,0,1,2.306-2.469A24.433,24.433,0,0,1,943.043-414.708Z" transform="translate(-30.558 -84.823)"/>
      <path id="Trazado_159652" data-name="Trazado 159652" d="M1093.4-326.829c0-6.855.034-13.711-.031-20.565-.011-1.213.287-1.524,1.5-1.5,3.68.069,3.676.011,3.675,3.652,0,12.954-.02,25.909.03,38.863.005,1.268-.312,1.61-1.582,1.584-3.591-.075-3.593-.014-3.593-3.572Z" transform="translate(-118.738 -122.152)" fill="#3d46c2"/>
      <path id="Trazado_159653" data-name="Trazado 159653" d="M997.6-312.887c0-5.562.037-11.124-.03-16.685-.014-1.16.313-1.413,1.428-1.4,3.793.048,3.793,0,3.792,3.857,0,10.314-.027,20.628.033,30.941.008,1.3-.356,1.587-1.593,1.562-3.629-.074-3.63-.019-3.63-3.7Z" transform="translate(-64.424 -132.315)" fill="#dce736"/>
      <path id="Trazado_159654" data-name="Trazado 159654" d="M949.806-294.152c0-3.777.038-7.555-.024-11.331-.017-1.064.16-1.485,1.366-1.469,3.767.048,3.764-.01,3.762,3.722,0,6.852-.025,13.706.023,20.558.008,1.171-.16,1.673-1.529,1.638-3.6-.091-3.6-.013-3.6-3.567Z" transform="translate(-37.332 -145.931)" fill="#75b62f"/>
      <path id="Trazado_159655" data-name="Trazado 159655" d="M1045.477-284.828c0-3.025.034-6.05-.021-9.073-.017-.912.244-1.159,1.16-1.172,4.059-.058,4.058-.09,4.057,3.912,0,5.185-.03,10.37.025,15.554.011,1.053-.264,1.342-1.328,1.339-3.893-.015-3.893.027-3.893-3.917Z" transform="translate(-91.573 -152.659)" fill="#f85316"/>
    </g>
  </g>
</svg>
