<svg xmlns="http://www.w3.org/2000/svg" width="400" height="268" viewBox="0 0 400 268">
  <g id="Grupo_109779" data-name="Grupo 109779" transform="translate(7999.78 -5924.995)">
    <g id="Grupo_109767" data-name="Grupo 109767" transform="translate(-1656 -190.005)">
      <rect id="Rectángulo_41330" data-name="Rectángulo 41330" width="400" height="268" rx="28" transform="translate(-6343.78 6115)" fill="#fff"/>
      <g id="Grupo_109761" data-name="Grupo 109761" transform="translate(-6486.868 6119.694)">
        <g id="Grupo_109513" data-name="Grupo 109513" transform="translate(193.302 107.712)">
          <path id="Trazado_159556" data-name="Trazado 159556" d="M312.963,134.775l-35.79.629-1.688.029-1.533.029-.029-1.583-.463-26.191-.024-1.381-.046-2.6,1.009.012h.326l37.885.4s-.017.222-.049.624c-.145,1.928-.567,8.02-.58,13.619,0,.356,0,.7.005,1.051,0,.826.021,1.627.049,2.4.188,4.851.5,8.661.709,10.864C312.873,134.032,312.963,134.775,312.963,134.775Z" transform="translate(-167.931 -98.121)" fill="#b3b3b3"/>
          <g id="Grupo_109511" data-name="Grupo 109511" transform="translate(102.28 8.103)">
            <path id="Trazado_159557" data-name="Trazado 159557" d="M310.827,114.962v1.294c-11.406-.31-24.265-1.489-33.753-1.55-.229-.421,22.646-.224,33.748.255Z" transform="translate(-269.05 -102.826)" fill="#e6e7e8"/>
            <path id="Trazado_159558" data-name="Trazado 159558" d="M309.086,121.977c6.95.366-28.457,1.515-32.379,1.1C276.227,121.837,295.442,121.258,309.086,121.977Z" transform="translate(-269.168 -100.559)" fill="#e6e7e8"/>
            <path id="Trazado_159559" data-name="Trazado 159559" d="M270.974,106.32c-.075-1.139,16.017-.781,26.349.306C304.8,107.414,271.087,108.089,270.974,106.32Z" transform="translate(-270.974 -105.62)" fill="#e6e7e8"/>
            <path id="Trazado_159560" data-name="Trazado 159560" d="M274.247,110.022c-.021-1.142,22.4.467,33.385,1.927C315.087,112.939,274.259,110.593,274.247,110.022Z" transform="translate(-269.941 -104.353)" fill="#e6e7e8"/>
          </g>
          <path id="Trazado_159561" data-name="Trazado 159561" d="M276.831,103.746l-3.441-.041.564,31.756,3.218-.058C276.584,123.489,275.881,114.94,276.831,103.746Z" transform="translate(-167.932 -98.121)" fill="#4e7e1a"/>
          <g id="Grupo_109512" data-name="Grupo 109512">
            <path id="Trazado_159562" data-name="Trazado 159562" d="M313.753,105.993l-1.069-.029-35.738-.934-1.967-.05a.691.691,0,0,1-.132,0,1.559,1.559,0,0,1-.322-.046h0c-.517-.135-1.314-.625-1.484-2.356-.145-1.471.321-2.156.785-2.473a1.54,1.54,0,0,1,.8-.278l.716.024,19.565.683,18.44.639a1.376,1.376,0,0,1,1.042.712,3.678,3.678,0,0,1,.562,1.679C315.076,104.917,314.538,106.008,313.753,105.993Z" transform="translate(-168.052 -99.343)" fill="#4e7e1a"/>
            <path id="Trazado_159563" data-name="Trazado 159563" d="M313.376,130.536l-26.184.673-11.231.285-.918.024a1.132,1.132,0,0,1-.147.042,1.343,1.343,0,0,1-.562-.005,1.253,1.253,0,0,1-.814-.633,3.348,3.348,0,0,1-.384-1.371c-.16-1.661.408-2.34.879-2.615a1.359,1.359,0,0,1,.567-.185l.83-.022,1.76-.05,35.665-.945.13-.005c.744-.164,1.488.737,1.572,2.046C314.632,129.295,314.145,130.367,313.376,130.536Z" transform="translate(-168.021 -91.179)" fill="#4e7e1a"/>
            <path id="Trazado_159564" data-name="Trazado 159564" d="M300.52,99.836,196.407,99.46s-2.986,5.728-3.177,17.626c-.221,13.881,3.885,22.36,3.885,22.36l104.057.4C300.279,134.972,298.868,111.575,300.52,99.836Z" transform="translate(-193.221 -99.46)" fill="#75b62f"/>
            <path id="Trazado_159565" data-name="Trazado 159565" d="M211.247,139.509l-5.674-.021a190.56,190.56,0,0,1-1.7-21.017A111.087,111.087,0,0,1,205.03,99.5l5.505-.025a178.471,178.471,0,0,0-1.02,19.277A183.808,183.808,0,0,0,211.247,139.509Z" transform="translate(-189.866 -99.456)" fill="#fff" opacity="0.1"/>
            <path id="Trazado_159566" data-name="Trazado 159566" d="M204.843,139.478l-2.071-.009a178.723,178.723,0,0,1-1.826-21.192,100.424,100.424,0,0,1,1.262-18.794l1.924.007A161.58,161.58,0,0,0,203,118.62,173.351,173.351,0,0,0,204.843,139.478Z" transform="translate(-190.79 -99.453)" fill="#fff" opacity="0.1"/>
            <path id="Trazado_159567" data-name="Trazado 159567" d="M212.093,139.526l-1.11-.026a179.007,179.007,0,0,1-1.826-21.191,100.492,100.492,0,0,1,1.263-18.8h.952a108.078,108.078,0,0,0-1.237,18.877A192.621,192.621,0,0,0,212.093,139.526Z" transform="translate(-188.2 -99.443)" fill="#fff" opacity="0.1"/>
            <path id="Trazado_159568" data-name="Trazado 159568" d="M268.81,118.8c.174,9.8,1.008,19.886,1.169,20.955l-2.07-.008c-.157-1.056-.973-11.225-1.154-21.289a100.677,100.677,0,0,1,1.252-18.74h2.174A140.369,140.369,0,0,0,268.81,118.8Z" transform="translate(-170.03 -99.378)" fill="#fff" opacity="0.1"/>
            <path id="Trazado_159569" data-name="Trazado 159569" d="M271.293,139.8l-1.11-.026s-.975-10.507-1.164-21.138a101.96,101.96,0,0,1,1.267-18.893l.958,0A109.134,109.134,0,0,0,270,118.718C270.279,129.075,271.293,139.8,271.293,139.8Z" transform="translate(-169.316 -99.371)" fill="#fff" opacity="0.1"/>
            <path id="Trazado_159570" data-name="Trazado 159570" d="M267.588,139.763l-1.11-.026s-.976-10.507-1.165-21.138a102.109,102.109,0,0,1,1.264-18.893l.959,0a109.16,109.16,0,0,0-1.242,18.973C266.574,129.038,267.588,139.763,267.588,139.763Z" transform="translate(-170.486 -99.382)" fill="#fff" opacity="0.1"/>
          </g>
        </g>
        <g id="Grupo_109519" data-name="Grupo 109519" transform="translate(193.264 147.126)">
          <g id="Grupo_109515" data-name="Grupo 109515" transform="translate(95.424 0.128)">
            <path id="Trazado_159571" data-name="Trazado 159571" d="M316.928,132.576l-50.449-.925-.391,37.18,49.348-.184S318.856,136.983,316.928,132.576Z" transform="translate(-265.622 -128.847)" fill="#b3b3b3"/>
            <path id="Trazado_159572" data-name="Trazado 159572" d="M317.321,135.487l-4.161-.085-44.755-.955-.2,0-1.636-.038-.254,0s-.63.264-.575-2.03c0-.145.007-.3.016-.462a7.848,7.848,0,0,1,.22-1.592,1.668,1.668,0,0,1,.3-.666c.166-.182.3-.124.3-.124l.792.017.766.017,2.074.041.305.008.624.013,1.115.024,3.589.074,2.355.051,11.318.236,22.3.462,4.037.083h.02l.32.011.007.03.6,2.651Z" transform="translate(-265.733 -129.519)" fill="#21277b"/>
            <path id="Trazado_159573" data-name="Trazado 159573" d="M315.615,158.343,315.5,160.5l0,.054-.145,2.69-2.518-.054-45.075-.958-1.3-.03s-.681.3-.529-2.491c0-.107.013-.212.021-.31a6.539,6.539,0,0,1,.232-1.436c.239-.766.539-.633.539-.633l.405.008,1.064.021,45.339.943Z" transform="translate(-265.681 -120.75)" fill="#21277b"/>
            <g id="Grupo_109514" data-name="Grupo 109514" transform="translate(1.311 10.229)">
              <path id="Trazado_159574" data-name="Trazado 159574" d="M277.039,148.754c10.024.934,21.071,1.915,31.251,1.142,4.2-.32.663-1.372.374-1.422C300.445,147,277.086,148.291,277.039,148.754Z" transform="translate(-263.478 -133.984)" fill="#ccc"/>
              <path id="Trazado_159575" data-name="Trazado 159575" d="M267.765,139.143c10.024.933,15.864,1.031,26.058,1.5,0,0-17.49-2.541-26.179-3.344A18.067,18.067,0,0,1,267.765,139.143Z" transform="translate(-266.442 -137.295)" fill="#ccc"/>
              <path id="Trazado_159576" data-name="Trazado 159576" d="M266.73,155.976c6.6.616,32.344,1.554,41.528-.074,6.835-1.209-35.509-1.639-41.234-2.168C267.019,154.077,266.759,155.67,266.73,155.976Z" transform="translate(-266.73 -132.109)" fill="#ccc"/>
            </g>
            <path id="Trazado_159577" data-name="Trazado 159577" d="M309.079,150.859a122.215,122.215,0,0,1-1.917,18.622,2.584,2.584,0,0,1-2.439,2.4l-2.89-.153-.47-.024c.189-.8.4-1.667.631-2.6q.262-1.06.529-2.259a70.109,70.109,0,0,0,1.68-15.39,72.143,72.143,0,0,0-2.1-16.277c-.2-.837-.389-1.586-.563-2.236-.449-1.7-.776-2.7-.776-2.7l4.037.083h.02a1.891,1.891,0,0,1,.326.041,2.721,2.721,0,0,1,1.927,2.2A84.74,84.74,0,0,1,309.079,150.859Z" transform="translate(-254.681 -129.291)" fill="#21277b"/>
          </g>
          <g id="Grupo_109518" data-name="Grupo 109518">
            <g id="Grupo_109516" data-name="Grupo 109516">
              <path id="Trazado_159578" data-name="Trazado 159578" d="M289.555,167.478s-1.046-22.037,1.511-35.792l-94.416.011a144.467,144.467,0,0,1,.7,19.671c-.258,12.369-2.331,16.541-2.331,16.541Z" transform="translate(-192.616 -128.708)" fill="#f1f2f2"/>
              <path id="Trazado_159579" data-name="Trazado 159579" d="M291.725,159.815a6.047,6.047,0,0,1-.134.933,3.811,3.811,0,0,1-.281.818,1.313,1.313,0,0,1-.616.687.461.461,0,0,1-.176.037l-30.007.133-66.133.292s-1.338.331-1.169-2.545c.164-2.739,1.469-2.472,1.469-2.472l1.642-.007,64.192-.3,28.609-.138.935,0,.718-.005a.548.548,0,0,1,.349.137A3.255,3.255,0,0,1,291.725,159.815Z" transform="translate(-193.193 -120.646)" fill="#3d46c2"/>
              <path id="Trazado_159580" data-name="Trazado 159580" d="M196.347,129.876l96.1-.454c.605,0,1.033,1.158.948,2.57h0c-.083,1.372-.617,2.47-1.2,2.473l-96.142.43s-1.342.328-1.169-2.545C195.042,129.609,196.347,129.876,196.347,129.876Z" transform="translate(-192.666 -129.422)" fill="#3d46c2"/>
            </g>
            <g id="Grupo_109517" data-name="Grupo 109517" transform="translate(4.625 10.98)">
              <path id="Trazado_159581" data-name="Trazado 159581" d="M289.323,139.529a13.99,13.99,0,0,1,.145-1.76c-6.786.083-83.612.58-92.72.68-.007.291.026.687.02,1.242C213.375,139.8,276.521,139.442,289.323,139.529Z" transform="translate(-196.697 -137.769)" fill="#b3b3b3"/>
              <path id="Trazado_159582" data-name="Trazado 159582" d="M282.413,143.256c1.525-1-22.956-.554-34.294-.5-12.163.057-25.445.608-31.121-.192-.03.826,20.791,2.048,30.979,2.163C257.955,144.842,280.272,144.659,282.413,143.256Z" transform="translate(-190.309 -136.256)" fill="#b3b3b3"/>
              <path id="Trazado_159583" data-name="Trazado 159583" d="M255,150.834c.175-.011,1.021.026,1.016-.322,0-.155-.525-.341-1-.371-3.846-.25-52.529-1.823-58.206-2.622-.07.725.016,1.035-.1,1.981C208.238,150.271,251,151.092,255,150.834Z" transform="translate(-196.709 -134.693)" fill="#b3b3b3"/>
              <path id="Trazado_159584" data-name="Trazado 159584" d="M280.886,155.307c0-.584-.034-2.127-.038-2.777-4.327.1-16.185.264-27.523.32-12.163.057-25.278-.185-31.037.316-3.325.291,20.726,1.45,30.907,1.131C262.5,154,272.727,155.249,280.886,155.307Z" transform="translate(-188.739 -133.113)" fill="#b3b3b3"/>
            </g>
          </g>
        </g>
        <g id="Grupo_109525" data-name="Grupo 109525" transform="translate(192.967 73.301)">
          <g id="Grupo_109521" data-name="Grupo 109521" transform="translate(95.546 0.099)">
            <path id="Trazado_159585" data-name="Trazado 159585" d="M316.82,76.07l-50.449-.9-.508,31.28,49.351-.034S318.734,79.782,316.82,76.07Z" transform="translate(-265.517 -72.811)" fill="#b3b3b3"/>
            <path id="Trazado_159586" data-name="Trazado 159586" d="M317.178,78.522l-4.163-.082-44.748-.916H268.1l-1.681-.037-.253,0s-.63.22-.567-1.711c0-.12.009-.247.018-.388.151-2.239.83-2,.83-2l3.938.08,41.3.822,4.032.078a.084.084,0,0,1,.033,0l.312.005.008.024.595,2.234Z" transform="translate(-265.6 -73.376)" fill="#932902"/>
            <path id="Trazado_159587" data-name="Trazado 159587" d="M315.4,97.748l-.128,1.856-.158,2.264-2.466-.049-15.437-.314-19.6-.4-1.475-.028-3.892-.08-.96-.02-.805-.016-2.177-.047-.77-.017h-.157l-.959-.02-.195,0s-.2.075-.354-.228a3.852,3.852,0,0,1-.167-1.872c.009-.089.013-.176.021-.26a4.585,4.585,0,0,1,.242-1.2c.238-.647.543-.535.543-.535l.4.009,1.062.02,45.343.905Z" transform="translate(-265.575 -65.999)" fill="#932902"/>
            <g id="Grupo_109520" data-name="Grupo 109520" transform="translate(1.209 8.61)">
              <path id="Trazado_159588" data-name="Trazado 159588" d="M276.851,89.576c10.021.808,21.063,1.661,31.246,1.035,4.206-.258.668-1.152.38-1.2C300.261,88.159,276.9,89.185,276.851,89.576Z" transform="translate(-263.26 -77.118)" fill="#ccc"/>
              <path id="Trazado_159589" data-name="Trazado 159589" d="M267.606,81.477c10.02.809,15.86.906,26.051,1.321,0,0-17.48-2.18-26.166-2.876A13.164,13.164,0,0,1,267.606,81.477Z" transform="translate(-266.212 -79.922)" fill="#ccc"/>
              <path id="Trazado_159590" data-name="Trazado 159590" d="M266.519,95.637c6.6.533,32.339,1.383,41.529.038,6.839-1-35.505-1.465-41.228-1.925C266.814,94.04,266.551,95.381,266.519,95.637Z" transform="translate(-266.519 -75.56)" fill="#ccc"/>
            </g>
            <path id="Trazado_159591" data-name="Trazado 159591" d="M308.879,91.431a86.458,86.458,0,0,1-1.975,15.663,2.438,2.438,0,0,1-2.445,2.017l-2.839-.132-.518-.026c.2-.674.414-1.4.642-2.189.172-.592.355-1.223.534-1.9A50.142,50.142,0,0,0,304,91.921a51.306,51.306,0,0,0-2.042-13.7c-.193-.708-.383-1.34-.551-1.885-.447-1.426-.77-2.269-.77-2.269l4.032.078a.084.084,0,0,1,.033,0,2.308,2.308,0,0,1,.32.029,2.482,2.482,0,0,1,1.914,1.864A60.192,60.192,0,0,1,308.879,91.431Z" transform="translate(-254.546 -73.158)" fill="#932902"/>
          </g>
          <g id="Grupo_109524" data-name="Grupo 109524">
            <g id="Grupo_109522" data-name="Grupo 109522">
              <path id="Trazado_159592" data-name="Trazado 159592" d="M289.333,105.366s-.975-18.543,1.625-30.11l-94.416-.22a102.549,102.549,0,0,1,.639,16.552c-.3,10.405-2.382,13.911-2.382,13.911Z" transform="translate(-192.388 -72.753)" fill="#f1f2f2"/>
              <path id="Trazado_159593" data-name="Trazado 159593" d="M194.462,96.855l96.1-.15c.605,0,1.029.975.941,2.165h0c-.085,1.155-.626,2.077-1.212,2.078l-96.144.128s-1.342.272-1.163-2.146C193.158,96.626,194.462,96.855,194.462,96.855Z" transform="translate(-192.967 -65.918)" fill="#f85316"/>
              <path id="Trazado_159594" data-name="Trazado 159594" d="M293.26,75.466a3.8,3.8,0,0,1-.417,1.471,1.019,1.019,0,0,1-.795.609h-1.425l-.162,0h-1.681l-28.755.038-63.217.087H195.9s-1.343.274-1.16-2.144c.172-2.306,1.475-2.08,1.475-2.08l63.808-.1,32.291-.05a.624.624,0,0,1,.431.187A2.567,2.567,0,0,1,293.26,75.466Z" transform="translate(-192.411 -73.301)" fill="#f85316"/>
            </g>
            <g id="Grupo_109523" data-name="Grupo 109523" transform="translate(4.672 9.232)">
              <path id="Trazado_159595" data-name="Trazado 159595" d="M289.164,81.8a9.784,9.784,0,0,1,.15-1.48c-6.786.054-83.616.288-92.721.349-.008.245.021.579.014,1.046C213.213,81.849,276.36,81.7,289.164,81.8Z" transform="translate(-196.495 -80.319)" fill="#b3b3b3"/>
              <path id="Trazado_159596" data-name="Trazado 159596" d="M282.24,84.974c1.529-.837-22.952-.522-34.293-.5-12.161.02-25.446.449-31.12-.237-.033.695,20.787,1.773,30.971,1.9C257.777,86.248,280.1,86.148,282.24,84.974Z" transform="translate(-190.111 -79.084)" fill="#b3b3b3"/>
              <path id="Trazado_159597" data-name="Trazado 159597" d="M254.806,91.283c.174-.009,1.018.025,1.016-.268,0-.132-.525-.288-1-.316-3.844-.217-52.522-1.66-58.2-2.347-.071.612.013.872-.105,1.667C208.044,90.7,250.8,91.489,254.806,91.283Z" transform="translate(-196.518 -77.785)" fill="#b3b3b3"/>
              <path id="Trazado_159598" data-name="Trazado 159598" d="M280.676,95.074c0-.492-.028-1.789-.028-2.335-4.327.072-16.185.183-27.526.2-12.161.02-25.275-.217-31.037.191-3.325.235,20.72,1.268,30.9,1.025C262.3,93.935,272.518,95,280.676,95.074Z" transform="translate(-188.551 -76.401)" fill="#b3b3b3"/>
            </g>
          </g>
        </g>
        <text id="LAW" transform="matrix(1, 0.013, -0.013, 1, 227.328, 133.723)" fill="#fff" font-size="22" font-family="Roboto-Black, Roboto" font-weight="800"><tspan x="0" y="0">LAW</tspan></text>
      </g>
      <g id="Grupo_109764" data-name="Grupo 109764" transform="translate(-6174.441 5806.868)">
        <path id="Trazado_159551" data-name="Trazado 159551" d="M62.135,356.18v6.57H44.352v-6.57a8.892,8.892,0,0,1,17.783,0Z" transform="translate(0 0)" fill="#d2e1f1"/>
        <path id="Trazado_159552" data-name="Trazado 159552" d="M168.773,363.137V502.671H67.588a9.09,9.09,0,0,1-9-9.088V356.175a7.564,7.564,0,0,0-.049-.9,5.419,5.419,0,0,0-.122-.771,3.459,3.459,0,0,0-.11-.5,1.689,1.689,0,0,0-.1-.354,3.361,3.361,0,0,0-.147-.442,1.458,1.458,0,0,0-.11-.306,2.662,2.662,0,0,0-.21-.476,5.114,5.114,0,0,0-.3-.612c-.085-.148-.171-.295-.269-.44a2.482,2.482,0,0,0-.233-.331,5.945,5.945,0,0,0-.454-.6,6.056,6.056,0,0,0-.5-.537,6.983,6.983,0,0,0-.536-.5c-.148-.122-.295-.242-.452-.352-.136-.1-.27-.2-.4-.284a9.3,9.3,0,0,0-2.142-1.027,5.828,5.828,0,0,0-.769-.209,4.95,4.95,0,0,0-.747-.134.125.125,0,0,0-.062-.011v-.086H152.928A15.848,15.848,0,0,1,168.773,363.137Z" transform="translate(3.544 0.001)" fill="#f3f9ff"/>
        <g id="Grupo_109507" data-name="Grupo 109507" transform="translate(70.637 487.209)">
          <path id="Trazado_159553" data-name="Trazado 159553" d="M61.372,447.9c.125.008.255.008.388.008h-.388Z" transform="translate(-61.372 -432.444)" fill="#d2e1f1"/>
          <path id="Trazado_159554" data-name="Trazado 159554" d="M178.343,437.891v3.963a11.5,11.5,0,0,1-11.5,11.5H61.693c6.607-.046,11.929-4.011,11.929-8.892v-6.57Z" transform="translate(-61.197 -437.891)" fill="#d2e1f1"/>
        </g>
        <g id="Grupo_109508" data-name="Grupo 109508" transform="translate(73.281 368.162)">
          <rect id="Rectángulo_41154" data-name="Rectángulo 41154" width="88.216" height="3.092" fill="#3d46c2"/>
          <rect id="Rectángulo_41155" data-name="Rectángulo 41155" width="88.216" height="3.09" transform="translate(0 11.596)" fill="#3d46c2"/>
          <rect id="Rectángulo_41156" data-name="Rectángulo 41156" width="88.216" height="3.092" transform="translate(0 23.191)" fill="#3d46c2"/>
          <rect id="Rectángulo_41157" data-name="Rectángulo 41157" width="88.216" height="3.092" transform="translate(0 34.786)" fill="#3d46c2"/>
          <rect id="Rectángulo_41158" data-name="Rectángulo 41158" width="88.216" height="3.093" transform="translate(0 46.382)" fill="#3d46c2"/>
          <rect id="Rectángulo_41159" data-name="Rectángulo 41159" width="88.216" height="3.093" transform="translate(0 57.977)" fill="#3d46c2"/>
          <rect id="Rectángulo_41160" data-name="Rectángulo 41160" width="88.216" height="3.092" transform="translate(0 69.573)" fill="#3d46c2"/>
          <rect id="Rectángulo_41161" data-name="Rectángulo 41161" width="88.216" height="3.093" transform="translate(0 81.168)" fill="#3d46c2"/>
        </g>
        <path id="Trazado_159555" data-name="Trazado 159555" d="M127.064,430.308a10.438,10.438,0,1,1-10.438-10.437A10.438,10.438,0,0,1,127.064,430.308Z" transform="translate(33.661 39.509)" fill="#f85316"/>
      </g>
      <g id="Grupo_109765" data-name="Grupo 109765" transform="translate(-6254.561 6241.306)">
        <g id="Grupo_109501" data-name="Grupo 109501" transform="translate(114.828 86.433)">
          <path id="Trazado_159538" data-name="Trazado 159538" d="M199.155,275.03v13.088h102V275.03a6.5,6.5,0,0,0-6.5-6.5h-89a6.5,6.5,0,0,0-6.5,6.5Z" transform="translate(-196.791 -263.727)" fill="#89411d"/>
          <path id="Trazado_159539" data-name="Trazado 159539" d="M197.3,282.626v5.966a1.087,1.087,0,0,0,1.086,1.086H302.943a1.086,1.086,0,0,0,1.084-1.086v-5.966a2.408,2.408,0,0,0-2.363-2.4h-102A2.41,2.41,0,0,0,197.3,282.626Z" transform="translate(-197.296 -260.556)" fill="#662a10"/>
          <path id="Trazado_159540" data-name="Trazado 159540" d="M202.611,268.07v1.468a2.785,2.785,0,0,0,.02.358,3.314,3.314,0,0,0,3.3,2.961h86.578a3.319,3.319,0,0,0,3.3-2.961,2.789,2.789,0,0,0,.022-.358V268.07a3.323,3.323,0,0,0-3.32-3.319H205.93A3.319,3.319,0,0,0,202.611,268.07Z" transform="translate(-195.853 -264.751)" fill="#89411d"/>
        </g>
        <g id="Grupo_109505" data-name="Grupo 109505" transform="translate(0 0)">
          <g id="Grupo_109504" data-name="Grupo 109504">
            <path id="Trazado_159541" data-name="Trazado 159541" d="M265.521,284.254a8.172,8.172,0,0,0,14.526,1.677c11.026-1.068,30.94-13.907,49.658-21.338,1.533-.611,3.1-1.206,4.673-1.8.712.862,1.455,1.305,2.029,1.1a1.224,1.224,0,0,0,.667-.82c.731.933,1.441,1.417,1.966,1.228s.758-1.018.714-2.205a1.234,1.234,0,0,0,1.045.2c.561-.2.84-.993.843-2.085,16.241-5.572,32.925-9.854,41.012-11.819a4.427,4.427,0,0,0,4.922,1.336l1.058-.383A4.431,4.431,0,0,0,391.5,245.8l3.525-1.285,5.464-1.992-4.805-13.18-5.464,1.992-3.526,1.281a4.41,4.41,0,0,0-4.466-.857l-1.055.383a4.421,4.421,0,0,0-2.91,4.19c-7.459,3.7-22.98,11.155-39,17.345-.706-.836-1.43-1.264-1.992-1.054a1.215,1.215,0,0,0-.674.817c-.731-.933-1.441-1.416-1.961-1.228s-.756,1.017-.721,2.207a1.208,1.208,0,0,0-1.036-.2c-.573.208-.855,1.022-.848,2.146-1.584.563-3.165,1.108-4.73,1.63-19.113,6.358-42.619,9.337-51.747,15.623a8.083,8.083,0,0,0-5.152.14A8.185,8.185,0,0,0,265.521,284.254Z" transform="translate(-265.025 -187.919)" fill="#89411d"/>
            <path id="Trazado_159542" data-name="Trazado 159542" d="M237.415,230.536l.14.384L239,234.87,243.8,248.05l1.4,3.853.171.469,19.444-7.085,1.008-.366,18.534-6.758-.158-.431-7.643-20.985-.153-.421-18.292,6.667-1.008.366Z" transform="translate(-113.802 -191.45)" fill="#75b62f"/>
            <g id="Grupo_109502" data-name="Grupo 109502" transform="translate(133.778 53.958)">
              <path id="Trazado_159543" data-name="Trazado 159543" d="M229.581,266.351a7.9,7.9,0,0,0,4.229,3.755,13.693,13.693,0,0,0,10-.108c8.647-3.154,11.185-4.075,11.791-4.3l.168-.061s.182-.062.842-.308c1.265-.455,4.279-1.557,11.116-4.049a13.685,13.685,0,0,0,7.726-6.348,7.941,7.941,0,0,0,.817-5.6,5.125,5.125,0,0,0-.82-1.763,4.914,4.914,0,0,0-2.914-1.88,4.6,4.6,0,0,0-.524-.1,8.369,8.369,0,0,1-2.642-.806,3.216,3.216,0,0,1-1.817-2.283,4.156,4.156,0,0,1,.386-2.5,1.85,1.85,0,0,1,.572-.793l-18.869,6.319-1.018.341-.057.019L229,253.6a1.862,1.862,0,0,1,.927.231,4.172,4.172,0,0,1,1.926,1.675,3.222,3.222,0,0,1,.076,2.917,8.336,8.336,0,0,1-1.5,2.311c-.121.142-.231.276-.334.419a4.951,4.951,0,0,0-1.022,3.319A5.271,5.271,0,0,0,229.581,266.351Z" transform="translate(-229.003 -239.204)" fill="#89411d"/>
            </g>
            <path id="Trazado_159544" data-name="Trazado 159544" d="M233.843,252.716a4.424,4.424,0,0,0,5.279,2.765c.118-.029.236-.065.351-.105l.047-.015,18.667-6.806,1.011-.367,17.754-6.472c.062-.023.122-.05.184-.071a4.428,4.428,0,0,0-2.316-8.471,4.241,4.241,0,0,0-.858.208l-.047.017-17.657,6.437-1.008.366-18.763,6.84a5.215,5.215,0,0,0-.667.3A4.439,4.439,0,0,0,233.843,252.716Z" transform="translate(-104.418 -186.893)" fill="#662a10"/>
            <g id="Grupo_109503" data-name="Grupo 109503" transform="translate(112.908)">
              <path id="Trazado_159545" data-name="Trazado 159545" d="M246.447,220.184a4.905,4.905,0,0,0,2.92,1.878,3.825,3.825,0,0,0,.516.105,8.464,8.464,0,0,1,2.647.8,3.2,3.2,0,0,1,1.813,2.284,4.128,4.128,0,0,1-.384,2.5,1.841,1.841,0,0,1-.569.793l19.946-6.68.086-.037,1-.393,18.477-7.288a1.9,1.9,0,0,1-.927-.233,4.164,4.164,0,0,1-1.921-1.677,3.206,3.206,0,0,1-.081-2.915,8.349,8.349,0,0,1,1.51-2.315c.12-.142.225-.273.328-.414a4.89,4.89,0,0,0,1.019-3.32,5.112,5.112,0,0,0-.506-1.875,7.915,7.915,0,0,0-4.23-3.756,13.673,13.673,0,0,0-10,.108c-6.091,2.225-9.151,3.336-10.638,3.876-.487.183-.8.295-1.009.366-.234.089-.31.116-.31.116s-1.56.567-11.959,4.358a13.7,13.7,0,0,0-7.727,6.348,7.976,7.976,0,0,0-.82,5.6A5.192,5.192,0,0,0,246.447,220.184Z" transform="translate(-245.424 -196.756)" fill="#89411d"/>
            </g>
            <path id="Trazado_159546" data-name="Trazado 159546" d="M242.057,229.728a4.427,4.427,0,0,0,4.768,2.868,4.167,4.167,0,0,0,.859-.207l.048-.018,18.813-6.857,1.009-.366,17.608-6.422a5.127,5.127,0,0,0,.667-.3,4.427,4.427,0,0,0-3.306-8.134c-.118.029-.235.065-.351.105l-.046.017L264.619,216.8l-1.009.367L244.7,224.052c-.066.023-.126.05-.189.072A4.425,4.425,0,0,0,242.057,229.728Z" transform="translate(-123.07 -193.126)" fill="#662a10"/>
            <path id="Trazado_159547" data-name="Trazado 159547" d="M242.39,210.3" transform="translate(-78.152 -193.085)" fill="#894e34"/>
            <path id="Trazado_159548" data-name="Trazado 159548" d="M261.588,205.319" transform="translate(-121.754 -194.434)" fill="#b4711a"/>
          </g>
          <path id="Trazado_159549" data-name="Trazado 159549" d="M245.128,292.053a8.172,8.172,0,0,0,14.526,1.677c11.026-1.068,30.94-13.907,49.658-21.338,1.533-.611,3.1-1.206,4.673-1.8.712.862,1.455,1.305,2.029,1.1a1.224,1.224,0,0,0,.667-.82c.731.933,1.441,1.417,1.967,1.228s.758-1.018.714-2.205a1.234,1.234,0,0,0,1.045.2c.561-.2.84-.993.843-2.085,16.241-5.572,32.925-9.854,41.012-11.819a4.428,4.428,0,0,0,4.922,1.336l1.058-.383a4.431,4.431,0,0,0,2.867-3.538l3.525-1.285,1.4,3.853a4.427,4.427,0,0,0,3.3,8.136,4.172,4.172,0,0,1,1.926,1.675,3.222,3.222,0,0,1,.076,2.917,8.336,8.336,0,0,1-1.5,2.311c-.121.142-.231.276-.334.419a4.951,4.951,0,0,0-1.022,3.319,5.272,5.272,0,0,0,.51,1.875,7.9,7.9,0,0,0,4.229,3.755,13.693,13.693,0,0,0,10-.108c8.647-3.154,11.185-4.075,11.791-4.3l.168-.061s.182-.062.841-.308l-13.015-37.008-13.435-38.2c-.487.183-.8.295-1.009.366-.234.089-.31.116-.31.116s-1.56.567-11.959,4.358a13.7,13.7,0,0,0-7.727,6.348,7.976,7.976,0,0,0-.82,5.6,5.192,5.192,0,0,0,.819,1.763,4.905,4.905,0,0,0,2.92,1.878,3.824,3.824,0,0,0,.516.105,8.464,8.464,0,0,1,2.647.8,3.2,3.2,0,0,1,1.813,2.284,4.128,4.128,0,0,1-.384,2.5,4.427,4.427,0,0,0,2.312,8.471l1.442,3.951-3.526,1.281a4.41,4.41,0,0,0-4.466-.857l-1.055.383a4.421,4.421,0,0,0-2.91,4.19c-7.459,3.7-22.98,11.155-39,17.345-.706-.836-1.43-1.264-1.992-1.054a1.215,1.215,0,0,0-.674.817c-.731-.933-1.442-1.416-1.961-1.228s-.756,1.017-.721,2.207a1.208,1.208,0,0,0-1.036-.2c-.573.208-.855,1.022-.848,2.146-1.584.563-3.165,1.108-4.73,1.63-19.113,6.358-42.619,9.337-51.747,15.623a8.083,8.083,0,0,0-5.152.14A8.185,8.185,0,0,0,245.128,292.053Z" transform="translate(-244.632 -195.717)" fill="#fff" opacity="0.1"/>
        </g>
        <path id="Trazado_159550" data-name="Trazado 159550" d="M238.9,286.821v5.966a1.087,1.087,0,0,0,1.086,1.086h52.753c.013-1.462.013-3.055,0-4.73,0-1.529-.022-3.116-.038-4.725-.044-3.929-.109-7.986-.183-11.56-.022-1.162-.043-2.269-.066-3.305-.038-1.875-.076-3.519-.111-4.8H248.975a3.319,3.319,0,0,0-3.319,3.319v1.468a2.79,2.79,0,0,0,.02.358,6.5,6.5,0,0,0-4.413,6.158v8.363A2.41,2.41,0,0,0,238.9,286.821Z" transform="translate(-124.07 -178.318)" fill="#fff" opacity="0.1"/>
      </g>
    </g>
  </g>
</svg>
